<svg width="103" height="33" viewBox="0 0 103 33" fill="none" xmlns="http://www.w3.org/2000/svg">
<g clip-path="url(#clip0_116_6192)">
<path d="M15.1768 24.6886C15.1768 23.3922 15.1908 19.9271 15.1591 19.5002C15.1867 14.344 11.4661 10.7068 9.1156 10.9903C7.48912 11.1326 6.126 11.8008 5.3941 13.7233C4.71575 15.5149 5.32222 17.898 7.57759 18.4572C9.98922 19.0577 11.3974 19.5574 12.4166 20.2623C13.6653 21.1253 14.6847 22.7741 14.7118 24.6907" fill="#0060AF"/>
<path d="M16.1394 32.5263C11.8871 32.5263 7.51691 31.471 3.15256 29.3838L3.04547 29.3307L2.99425 29.2207C1.03572 25.0551 0 20.4989 0 16.0412C0 11.5902 0.993234 7.22901 2.95322 3.06895L3.00706 2.9584L3.11619 2.90328C7.15343 0.976165 11.4965 0 16.0288 0C20.2508 0 24.7598 1.08671 29.0663 3.14812L29.1768 3.19768L29.2278 3.31028C31.2238 7.55274 32.2764 12.1078 32.2764 16.4916C32.2764 20.8584 31.2657 25.2234 29.2673 29.4632L29.2147 29.5747L29.1035 29.6263C25.128 31.5226 20.6446 32.5263 16.1394 32.5263ZM3.55649 28.8126C7.79628 30.8221 12.0247 31.8369 16.1394 31.8369C20.5023 31.8369 24.8413 30.876 28.7037 29.0545C30.6223 24.946 31.5949 20.7176 31.5949 16.4916C31.5949 12.2485 30.5798 7.83483 28.6597 3.71729C24.4804 1.73768 20.1158 0.687919 16.0288 0.687919C11.6409 0.687919 7.43514 1.62567 3.51982 3.47566C1.64045 7.50787 0.683886 11.733 0.683886 16.0412C0.683886 20.3575 1.67799 24.773 3.55649 28.8126Z" fill="#0060AF"/>
<path d="M14.1691 24.6906C14.177 23.0289 13.2565 21.5595 12.0534 20.7698C10.9863 20.072 9.55362 19.6133 7.24238 19.0228C6.52794 18.8386 5.78061 18.4296 5.54926 17.9082C4.93725 18.5296 4.82609 19.9265 4.93376 20.7429C5.0589 21.6876 6.15457 23.2447 7.80433 23.3057C8.81182 23.3465 10.0856 23.0872 10.6964 22.9565C11.7502 22.7272 13.4174 23.3922 13.6828 24.6886" fill="#0060AF"/>
<path d="M16.029 2.95435C13.2318 2.95435 10.8155 4.81314 10.8242 8.02958C10.833 10.7343 12.9917 12.1823 13.762 13.2165C14.9261 14.7751 15.5561 16.6198 15.6216 19.4424C15.6725 21.6889 15.6699 23.9071 15.6813 24.6933H16.2988C16.2881 23.8708 16.2601 21.5159 16.2921 19.3729C16.334 16.5494 16.9868 14.7751 18.1514 13.2165C18.9284 12.1823 21.0854 10.7343 21.0901 8.02958C21.1005 4.81314 18.6857 2.95435 15.8908 2.95435" fill="#0060AF"/>
<path d="M16.7388 24.6886C16.7388 23.3922 16.7242 19.9271 16.7553 19.5002C16.728 14.344 20.4463 10.7068 22.7988 10.9903C24.4253 11.1326 25.787 11.8008 26.5209 13.7233C27.1987 15.5149 26.5887 17.898 24.336 18.4572C21.9232 19.0577 20.5167 19.5574 19.495 20.2623C18.2477 21.1253 17.2995 22.7741 17.2704 24.6907" fill="#0060AF"/>
<path d="M17.7462 24.6906C17.7374 23.0289 18.6576 21.5595 19.8572 20.7698C20.9287 20.072 22.3631 19.6133 24.6723 19.0228C25.3882 18.8386 26.1347 18.4296 26.3619 17.9082C26.9768 18.5296 27.0877 19.9265 26.9801 20.7429C26.8523 21.6876 25.7595 23.2447 24.1127 23.3057C23.1055 23.3465 21.825 23.0872 21.2168 22.9565C20.1671 22.7272 18.4952 23.3922 18.2287 24.6886" fill="#0060AF"/>
<path d="M18.6089 30.0552L18.251 27.4235L19.115 27.2915C19.3254 27.2625 19.5815 27.2994 19.6839 27.4323C19.7971 27.5709 19.8318 27.6856 19.8536 27.8674C19.8862 28.0923 19.8216 28.3524 19.5701 28.482V28.4899C19.851 28.4899 20.0206 28.6931 20.0698 29.0362C20.0771 29.1086 20.0983 29.2837 20.0771 29.4297C20.02 29.7772 19.8143 29.8889 19.4671 29.9379L18.6089 30.0552ZM19.1651 29.584C19.2675 29.5693 19.3714 29.5638 19.4526 29.5115C19.5768 29.4297 19.5655 29.2547 19.5483 29.1248C19.505 28.8392 19.431 28.7307 19.1304 28.7755L18.9416 28.8049L19.0612 29.5986L19.1651 29.584ZM18.984 28.3679C19.0984 28.3493 19.2535 28.3354 19.3181 28.226C19.3519 28.153 19.3952 28.095 19.3667 27.9325C19.3315 27.7398 19.2681 27.6205 19.0254 27.6668L18.7992 27.7035L18.8883 28.3779" fill="#0060AF"/>
<path d="M22.3519 28.4723C22.3586 28.5213 22.3665 28.5758 22.3694 28.6248C22.4392 29.1048 22.3519 29.5022 21.8164 29.6115C21.0249 29.7652 20.8733 29.2696 20.7339 28.5758L20.6596 28.2005C20.5505 27.5366 20.5037 27.034 21.2754 26.8792C21.7105 26.7992 21.998 26.9736 22.1176 27.4099C22.1363 27.475 22.1595 27.5396 22.1683 27.6049L21.6948 27.7035C21.6401 27.5396 21.5676 27.2466 21.3546 27.2713C20.9722 27.3176 21.0985 27.797 21.1378 27.9973L21.2801 28.7178C21.3229 28.9356 21.4078 29.2837 21.7387 29.2165C22.0073 29.1623 21.8903 28.7406 21.8665 28.5679" fill="#0060AF"/>
<path d="M23.1116 29.2687L22.9478 26.5452L23.5839 26.3496L24.9176 28.7183L24.4168 28.8693L24.1008 28.2673L23.5446 28.4357L23.6165 29.12L23.1116 29.2687ZM23.4981 27.9958L23.9 27.8785L23.3662 26.7765" fill="#0060AF"/>
<path d="M7.39916 27.2098C7.59821 26.5676 7.77661 26.0949 8.53615 26.3049C8.9427 26.4192 9.19472 26.5999 9.18279 27.0758C9.18082 27.1816 9.14612 27.2895 9.12342 27.3942L8.65052 27.2626C8.71251 26.9998 8.7518 26.7913 8.43052 26.6917C8.05918 26.589 7.96868 27.0426 7.91746 27.2385L7.7251 27.9525C7.66398 28.1645 7.59065 28.5149 7.91746 28.6053C8.18752 28.6786 8.35136 28.4114 8.44914 28.0214L8.11826 27.9332L8.23263 27.52L9.01051 27.7722L8.64121 29.1483L8.28326 29.0504L8.36387 28.7595H8.35368C8.18897 28.9973 7.98788 29.0222 7.81181 28.9882C7.03393 28.7762 7.11512 28.264 7.30079 27.5795" fill="#0060AF"/>
<path d="M10.2943 28.372L10.06 29.4916L9.53271 29.3766L10.0947 26.7625L10.9936 26.9671C11.5198 27.0815 11.6787 27.3175 11.6042 27.8034C11.5617 28.0823 11.4252 28.3828 11.092 28.3585L11.0885 28.354C11.3702 28.4534 11.394 28.5964 11.3449 28.8439C11.3236 28.9492 11.1772 29.5882 11.2782 29.6914L11.2817 29.7697L10.7361 29.6263C10.7134 29.4492 10.7905 29.1307 10.821 28.9545C10.8519 28.7985 10.9011 28.5786 10.7439 28.4959C10.6208 28.4299 10.5751 28.4331 10.436 28.4009L10.2943 28.372ZM10.3842 27.9671L10.7393 28.0635C10.9549 28.0949 11.0748 27.9823 11.1173 27.7199C11.1557 27.4791 11.1059 27.385 10.9124 27.3384L10.5318 27.2607" fill="#0060AF"/>
<path d="M13.6766 27.3468L14.1981 27.4078L13.9734 29.2455C13.8643 29.8281 13.6408 30.0829 13.0046 30.0032C12.3574 29.9208 12.2037 29.6237 12.243 29.0364L12.4691 27.2002L12.9947 27.2609L12.7692 29.056C12.7453 29.251 12.7005 29.5399 13.0448 29.5748C13.35 29.5982 13.4193 29.3944 13.4536 29.1411" fill="#0060AF"/>
<path d="M14.7729 30.1035L14.9298 27.4756L15.9318 27.5193C16.4053 27.5427 16.5292 27.9324 16.5144 28.3043C16.5007 28.5303 16.4306 28.7828 16.235 28.9198C16.0747 29.0362 15.8686 29.0637 15.6774 29.0544L15.3509 29.0361L15.2857 30.1375L14.7729 30.1035ZM15.3657 28.6353L15.6312 28.6503C15.8468 28.6582 15.9897 28.5723 16.0083 28.2532C16.0188 27.9468 15.9038 27.8949 15.6245 27.8826L15.4141 27.8753" fill="#0060AF"/>
<path d="M85.4406 5.49436L81.4583 12.7773C79.9552 11.5475 78.1198 10.6423 75.778 10.6423C70.2362 10.6423 67.9852 14.8047 67.9852 17.7367C67.9852 19.9131 69.3996 23.1243 74.3305 23.1243C76.4002 23.1243 79.3427 21.6734 80.1895 21.0133L76.2509 29.4627C74.3736 29.8401 73.7569 30.0741 72.1677 30.1237C63.3421 30.3891 59.7757 24.9262 59.7783 19.3439C59.7842 11.9645 66.2956 2.98987 77.0899 2.98987C77.7514 2.98987 78.5604 3.22035 79.2521 3.47576L79.9512 2.57495" fill="#0060AF"/>
<path d="M101.873 2.80322L103 29.2737H94.6079L94.603 24.7339H88.8804L86.997 29.2737H77.8955L87.4108 10.3715L85.2652 10.3574L89.342 2.80322H101.873ZM94.5485 10.9011L91.313 18.6004H94.646" fill="#0060AF"/>
<path d="M54.48 2.8034C58.636 2.82685 60.9845 5.09998 60.9845 8.38358C60.9845 11.4106 58.5077 14.0901 55.7887 15.4757C58.588 16.5125 58.8301 19.0578 58.8301 20.8585C58.8301 25.2089 54.4978 29.2739 48.8664 29.2739H36.585L41.3756 10.635L39.4078 10.6236L43.4305 2.8034C43.4305 2.8034 51.1005 2.77994 54.48 2.8034ZM50.4026 13.5356C51.2623 13.5356 52.7802 13.3163 53.1597 11.6399C53.5756 9.82012 52.151 9.77114 51.4677 9.77114L49.0261 9.76037L48.1746 13.5357L50.4026 13.5356ZM46.9506 18.2133L45.8264 22.5636H48.7014C49.8325 22.5636 51.374 21.998 51.7518 20.5823C52.1249 19.1625 51.0472 18.2133 49.9201 18.2133" fill="#0060AF"/>
</g>
<defs>
<clipPath id="clip0_116_6192">
<rect width="103" height="32.5263" fill="white"/>
</clipPath>
</defs>
</svg>
