<svg width="402" height="402" viewBox="0 0 402 402" fill="none" xmlns="http://www.w3.org/2000/svg">
<g filter="url(#filter0_i_528_8441)">
<g clip-path="url(#clip0_528_8441)">
<path d="M0 201C0 89.9908 89.9908 0 201 0C312.009 0 402 89.9908 402 201V402H0V201Z" fill="#159895"/>
<path d="M386.97 197.156C387.512 197.156 387.562 196.081 386.97 196.002C384.415 195.677 381.86 193.389 379.306 193.043C376.779 192.877 374.298 192.287 371.967 191.297C368.17 189.394 365.802 185.577 361.867 183.742C354.962 180.526 347.861 181.907 341.153 184.728C337.179 186.511 332.788 187.156 328.469 186.593C324.523 186.099 320.726 185.014 316.82 184.462C313.343 183.825 309.766 183.993 306.365 184.955C302.853 186.09 299.845 188.289 296.501 189.887C292.161 191.988 287.861 191.633 283.185 191.771C279.812 191.87 272.759 194 272.759 196.269C272.759 197.798 380.282 197.156 386.97 197.156Z" fill="#EBEBEB"/>
<path d="M-4.51546 234.184C0.189468 234.184 117.714 233.365 150.915 233.365C153.233 233.365 150.303 229.341 149.021 229.065C144.937 228.167 140.686 228.128 136.534 227.694C132.443 227.309 128.433 226.312 124.638 224.735C121.373 223.354 118.118 221.776 114.577 221.214C107.742 220.138 101.755 223.847 95.3236 225.475C93.3772 226.039 91.3341 226.19 89.3259 225.916C87.3178 225.643 85.3893 224.951 83.6649 223.887C80.7058 222.111 78.0032 219.941 74.906 218.402C68.9698 215.481 62.4942 213.817 55.8849 213.515C49.2757 213.213 42.6753 214.279 36.4973 216.647C33.5504 217.776 30.733 219.217 28.0935 220.947C24.9668 222.999 22.2641 225.623 19.1177 227.654C12.154 232.162 3.55295 230.692 -4.04199 233.277C-4.45627 233.395 -4.92973 234.184 -4.51546 234.184Z" fill="#EBEBEB"/>
<path d="M209.8 142.374C214.505 142.374 332.04 141.555 365.23 141.555C367.558 141.555 364.619 137.531 363.337 137.255C359.253 136.357 355.002 136.268 350.859 135.884C346.768 135.5 342.758 134.503 338.964 132.924C335.699 131.544 332.434 129.965 328.893 129.403C322.058 128.328 316.07 132.037 309.649 133.664C307.701 134.225 305.658 134.372 303.65 134.095C301.642 133.818 299.714 133.123 297.99 132.056C295.031 130.281 292.329 128.111 289.232 126.572C283.295 123.651 276.82 121.987 270.211 121.685C263.601 121.383 257.001 122.449 250.823 124.817C247.88 125.948 245.066 127.39 242.429 129.117C239.292 131.169 236.59 133.792 233.453 135.824C226.489 140.332 217.879 138.862 210.293 141.447C209.859 141.585 209.396 142.374 209.8 142.374Z" fill="#EBEBEB"/>
<path d="M61.9945 115.91C68.2185 115.91 172.999 116.601 179.578 116.393C180.052 116.393 180.308 115.683 179.845 115.407C175.692 113.355 170.967 113.77 166.667 112.31C164.132 111.462 162.573 109.795 160.808 107.891C159.346 106.231 157.461 105 155.353 104.33C153.43 103.757 151.39 103.696 149.435 104.153C147.314 104.656 145.49 105.869 143.438 106.638C138.408 108.542 133.515 106.737 129.915 103.009C126.956 99.9409 123.997 97.0904 120.052 95.3938C118.406 94.6486 116.625 94.2509 114.82 94.2254C113.014 94.2 111.222 94.5474 109.557 95.2459C105.71 96.9819 103.076 100.483 99.4663 102.594C95.1855 105.1 90.0663 104.508 85.3416 105.257C80.617 106.007 76.9872 109.992 72.8346 112.29C71.4703 113.179 69.8857 113.671 68.2579 113.71C67.3344 113.631 66.4158 113.503 65.506 113.326C64.0856 113.148 62.7245 113.188 61.7677 114.381C61.531 114.697 61.5803 115.91 61.9945 115.91Z" fill="#EBEBEB"/>
<path d="M209.938 390.058C214.476 390.058 290.977 390.561 295.751 390.403C296.097 390.403 296.284 389.89 295.939 389.723C292.911 388.214 289.468 388.519 286.322 387.454C284.632 386.781 283.154 385.667 282.041 384.229C280.984 383.024 279.621 382.127 278.096 381.635C276.689 381.21 275.196 381.162 273.765 381.496C272.271 382.013 270.808 382.619 269.386 383.311C265.707 384.702 262.136 383.38 259.522 380.668C257.362 378.429 255.232 376.308 252.292 375.105C251.091 374.561 249.79 374.27 248.472 374.251C247.153 374.233 245.845 374.486 244.628 374.996C241.817 376.269 239.894 378.823 237.26 380.362C234.134 382.187 230.356 381.753 226.953 382.335C223.55 382.917 220.847 385.797 217.819 387.464C216.83 388.084 215.692 388.425 214.525 388.45C213.863 388.388 213.204 388.293 212.552 388.164C212.07 388.032 211.561 388.034 211.079 388.17C210.598 388.305 210.162 388.569 209.82 388.934C209.603 389.16 209.632 390.058 209.938 390.058Z" fill="#EBEBEB"/>
<path d="M-6.51779 88.4992H123.405C123.938 88.4992 124.125 87.937 123.602 87.6904C118.947 85.5105 113.739 86.0728 108.916 84.5636C106.085 83.6759 104.319 81.8709 102.317 79.7995C100.662 77.9894 98.544 76.666 96.1916 75.9725C94.0388 75.3759 91.7675 75.3521 89.6027 75.9034C87.2552 76.515 85.243 77.8761 83.004 78.8033C77.4705 81.0325 72.0061 79.1387 67.9325 75.0946C64.5788 71.7509 61.2745 68.6142 56.7669 66.8684C54.925 66.0832 52.9414 65.685 50.9392 65.6986C48.937 65.7122 46.9589 66.1372 45.1279 66.9473C40.9063 68.92 38.0655 72.8654 34.1103 75.3313C29.4152 78.2016 23.7239 77.669 18.5061 78.6159C13.2882 79.5628 8.92854 81.8117 4.38143 84.4551C2.88916 85.4423 1.15797 86.008 -0.62925 86.0925C-1.61561 86.0925 -2.67101 85.8262 -3.68695 85.7177C-5.27499 85.5599 -6.77425 85.6388 -7.80992 86.9802C-8.06638 87.3254 -9.5755 88.4992 -6.51779 88.4992Z" fill="#EBEBEB"/>
<path d="M285.118 111.59C285.04 111.521 283.225 109.834 282.781 105.968C282.767 103.777 282.968 101.59 283.382 99.438C284.241 93.3325 285.543 84.1002 282.14 82.9067C273.45 79.849 259.73 80.8057 259.601 80.8156L259.522 79.8293C260.095 79.8293 273.578 78.8429 282.465 81.9696C286.628 83.4295 285.365 92.3757 284.349 99.5663C283.961 101.635 283.76 103.735 283.747 105.839C283.853 107.691 284.567 109.456 285.779 110.86L285.118 111.59Z" fill="#C7C7C7"/>
<path d="M290.682 117.656C289.933 115.998 288.989 114.435 287.87 113C287.161 112.313 286.294 111.808 285.345 111.531L285.582 110.544C286.695 110.873 287.711 111.469 288.541 112.28C289.741 113.796 290.751 115.452 291.55 117.212L290.682 117.656Z" fill="#C7C7C7"/>
<path d="M285.099 120.112C284.911 119.668 283.313 115.792 283.54 114.391C283.776 113.277 284.133 112.192 284.606 111.156L285.493 111.55C285.07 112.503 284.74 113.494 284.507 114.509C284.369 115.358 285.355 118.139 285.996 119.698L285.099 120.112Z" fill="#C7C7C7"/>
<path d="M289.932 119.53L287.732 114.884C286.899 113.665 285.958 112.523 284.921 111.472L285.641 110.791C286.738 111.921 287.728 113.149 288.6 114.46C289.084 115.447 290.79 119.076 290.81 119.106L289.932 119.53Z" fill="#C7C7C7"/>
<path d="M287.042 120.299C287.042 120.299 286.055 117.439 285.661 116.551C285.182 114.827 284.852 113.065 284.675 111.284L285.661 111.166C285.823 112.834 286.133 114.484 286.588 116.097C287.052 117.084 287.979 119.855 288.018 119.974L287.042 120.299Z" fill="#C7C7C7"/>
<path d="M255.883 91.6161L222.426 74.0885L261.278 68.417L292.753 90.2747L255.883 91.6161Z" fill="#C7C7C7"/>
<path d="M236.836 90.5508L238.099 79.5431C238.099 79.5431 250.142 77.0673 258.585 79.0302C267.029 80.993 276.34 87.5622 276.34 87.5622L272.976 98.9151C272.976 98.9151 262.225 93.9143 255.37 92.4644C248.515 91.0144 236.836 90.5508 236.836 90.5508Z" fill="#C7C7C7"/>
<path d="M236.836 90.5507C237.546 90.5507 248.673 91.1129 255.33 92.5234C261.988 93.9339 272.641 98.7967 272.967 98.915L276.35 87.5226C276.35 87.5226 267.029 80.9535 258.595 78.9906C250.162 77.0278 238.109 79.5035 238.109 79.5035L236.836 90.5507Z" fill="#C7C7C7"/>
<path d="M267.532 95.2856L267.137 96.0746C265.914 95.5716 264.661 95.0883 263.409 94.674C262.462 94.4044 261.505 94.1677 260.538 93.9638C258.829 93.3726 257.087 92.8819 255.321 92.4942C254.206 92.2574 252.963 92.0404 251.661 91.853L254.916 92.2673C253.792 92.0306 252.667 91.8333 251.533 91.6656L251.651 90.5116H251.711C253.821 90.6398 255.922 90.8272 258.023 91.1133L257.402 90.9456L254.62 90.5215C253.348 90.3439 252.056 90.1762 250.774 90.0283L250.872 88.5191H250.981L252.667 88.6375L252.588 87.6512C253.249 87.5624 253.851 87.5229 254.482 87.4835H254.591V85.9645H255.429C254.374 85.8067 253.308 85.6883 252.233 85.6291L252.312 83.8438H252.421C253.328 83.8931 254.226 83.9622 255.123 84.0312L255.202 82.9857L254.384 82.9364V81.4568C256.516 81.5 258.642 81.6978 260.746 82.0486C258.538 81.1787 256.209 80.6563 253.841 80.5001L253.9 79.3263H254.019C254.532 79.3263 255.005 79.4052 255.567 79.4644H255.646C257.451 79.6419 259.256 79.8688 261.041 80.2042C259.154 79.5246 257.231 78.9484 255.281 78.478L256.021 78.5668C256.88 78.6746 257.732 78.826 258.576 79.0205C259.118 79.1488 259.68 79.2967 260.233 79.4545C261.674 79.8881 263.09 80.4018 264.474 80.9932C265.273 81.3286 266.062 81.6837 266.831 82.0486C266.854 82.0562 266.878 82.0562 266.9 82.0486L266.614 82.6602C265.473 82.2684 264.31 81.9391 263.133 81.6738C263.557 81.8908 263.981 82.1275 264.395 82.3741C265.813 83.3474 267.176 84.3978 268.479 85.5206L266.96 85.0373L266.358 86.1815L265.815 87.592L265.431 87.4835L265.194 87.9569C266.023 88.243 266.831 88.5586 267.63 88.9433L267.009 90.5905C265.164 90.1059 263.289 89.7434 261.397 89.5055C263.172 90.1072 264.908 90.7779 266.644 91.4782L266.003 92.9775C265.756 92.869 265.5 92.7802 265.243 92.6914C267.058 93.8652 269.189 95.4039 270.274 96.1535L264.73 93.9836C263.794 93.6224 262.831 93.3354 261.85 93.1254C263.073 93.5397 264.287 93.9836 265.49 94.457C266.167 94.6841 266.827 94.961 267.463 95.2856H267.532Z" fill="#C7C7C7"/>
<path d="M236.836 90.5507C236.836 90.5507 246.769 94.8118 254.078 96.2518C261.387 97.6919 272.621 98.915 272.967 98.915C272.641 98.767 262.117 93.9043 255.37 92.4839C248.623 91.0636 237.615 90.5112 236.876 90.5112L236.836 90.5507Z" fill="#C7C7C7"/>
<path d="M94.0414 164.744C94.1203 164.675 95.8958 162.979 96.2903 159.142C96.2768 156.975 96.0522 154.815 95.6196 152.691C94.6924 146.655 93.2918 137.531 96.6552 136.298C105.217 133.181 118.809 133.96 118.947 133.97L119.006 132.984C118.444 132.984 105.079 132.185 96.3199 135.381C92.2166 136.88 93.5679 145.718 94.6628 152.829C95.0696 154.873 95.2941 156.95 95.3335 159.033C95.2435 160.869 94.55 162.623 93.3608 164.024L94.0414 164.744Z" fill="#C7C7C7"/>
<path d="M91.7529 171.669C91.8407 169.872 92.1352 168.091 92.6308 166.362C93.0315 165.468 93.6403 164.684 94.4062 164.074L93.844 163.294C92.9274 164 92.2046 164.927 91.7431 165.987C91.1865 167.821 90.8553 169.715 90.7567 171.629L91.7529 171.669Z" fill="#C7C7C7"/>
<path d="M97.7599 171.905C97.7599 171.432 97.8092 167.279 97.0892 166.076C96.4635 165.137 95.7394 164.267 94.9291 163.482L94.2485 164.182C94.9883 164.91 95.6495 165.713 96.2212 166.579C96.6552 167.299 96.7736 170.219 96.7538 171.886L97.7599 171.905Z" fill="#C7C7C7"/>
<path d="M93.1536 173.168C93.1536 173.168 93.3903 169.174 93.4692 168.089C93.7866 166.661 94.2323 165.264 94.8008 163.916L93.8933 163.551C93.2929 164.995 92.8274 166.49 92.5026 168.019C92.4237 169.114 92.1869 173.07 92.1771 173.109L93.1536 173.168Z" fill="#C7C7C7"/>
<path d="M96.0929 172.813C96.0929 172.813 95.9055 169.854 95.9844 168.867C95.8128 167.099 95.4827 165.349 94.9981 163.64L94.061 163.886C94.5296 165.499 94.8596 167.149 95.0474 168.818C94.9586 169.864 95.146 172.763 95.1558 172.902L96.0929 172.813Z" fill="#C7C7C7"/>
<path d="M122.754 144.613L155.669 126.869L117.142 121.71L86.2294 143.735L122.754 144.613Z" fill="#C7C7C7"/>
<path d="M141.594 143.301L140.173 132.451C140.173 132.451 128.219 130.143 119.874 132.185C111.529 134.227 102.376 140.845 102.376 140.845L105.858 152.09C105.858 152.09 116.451 147.01 123.218 145.491C129.984 143.972 141.594 143.301 141.594 143.301Z" fill="#C7C7C7"/>
<path d="M141.594 143.301C140.883 143.301 129.846 143.991 123.297 145.461C116.747 146.931 106.272 151.882 105.947 152.04L102.465 140.796C102.465 140.796 111.628 134.187 119.963 132.135C128.298 130.084 140.173 132.451 140.173 132.451L141.594 143.301Z" fill="#C7C7C7"/>
<path d="M111.263 148.381H111.214L111.569 149.22C112.772 148.707 114.005 148.233 115.248 147.779C116.175 147.513 117.122 147.267 118.069 147.05C119.754 146.444 121.474 145.937 123.218 145.531C124.322 145.274 125.555 145.057 126.838 144.85C125.763 144.988 124.697 145.136 123.622 145.304C124.727 145.047 125.841 144.85 126.956 144.663L126.828 143.528C124.727 143.686 122.656 143.903 120.584 144.209C120.781 144.14 120.989 144.091 121.196 144.031L123.938 143.578C125.2 143.39 126.483 143.203 127.745 143.045L127.627 141.556H127.518L125.851 141.704L125.92 140.717C125.269 140.638 124.668 140.609 124.036 140.579H123.987V139.05H123.159C124.214 138.883 125.269 138.764 126.325 138.685L126.226 136.92H126.118C125.22 136.979 124.332 137.058 123.445 137.147L123.356 136.101L124.165 136.042L124.115 134.582C122.005 134.654 119.902 134.874 117.822 135.243C119.994 134.357 122.29 133.811 124.628 133.625L124.549 132.461H124.392C123.879 132.461 123.405 132.55 122.863 132.619H122.784C120.998 132.807 119.213 133.063 117.448 133.408C119.307 132.713 121.204 132.12 123.129 131.633L122.399 131.731C121.55 131.846 120.707 132.004 119.874 132.205C119.341 132.343 118.789 132.491 118.246 132.659C116.826 133.107 115.43 133.63 114.064 134.227C113.275 134.572 112.496 134.937 111.737 135.302H111.677L111.963 135.904C113.088 135.511 114.234 135.182 115.396 134.917C114.972 135.134 114.567 135.371 114.163 135.628C112.768 136.608 111.427 137.665 110.149 138.794L111.648 138.301L112.259 139.415L112.812 140.796L113.196 140.688L113.433 141.151C112.614 141.447 111.815 141.773 111.026 142.138L111.658 143.765C113.48 143.259 115.336 142.88 117.211 142.631C115.455 143.242 113.749 143.933 112.042 144.682L112.693 146.162C112.94 146.063 113.196 145.955 113.453 145.866C111.668 147.05 109.626 148.608 108.521 149.358L113.995 147.069C114.918 146.7 115.867 146.403 116.836 146.182C115.633 146.609 114.439 147.063 113.256 147.543C112.579 147.773 111.92 148.05 111.283 148.371L111.263 148.381Z" fill="#C7C7C7"/>
<path d="M141.594 143.301C141.594 143.301 131.809 147.641 124.589 149.16C117.369 150.679 106.272 152.011 105.917 152.05C106.243 151.892 116.609 146.951 123.267 145.471C129.925 143.992 140.854 143.351 141.564 143.311L141.594 143.301Z" fill="#C7C7C7"/>
<path d="M272.345 172.418C270.654 171.929 269.174 170.887 268.143 169.459C267.163 167.896 266.331 166.245 265.658 164.528C263.547 159.754 260.351 152.533 257.362 153.204C249.758 154.901 240.338 161.716 240.239 161.785L239.756 161.115C240.141 160.839 249.412 154.131 257.185 152.395C260.834 151.577 263.931 158.57 266.417 164.232C267.065 165.894 267.861 167.495 268.794 169.015C269.701 170.296 271.004 171.242 272.503 171.708L272.345 172.418Z" fill="#C7C7C7"/>
<path d="M277.159 176.344C276.264 175.092 275.228 173.946 274.071 172.931C273.376 172.466 272.576 172.182 271.743 172.103L271.793 171.274C272.775 171.37 273.717 171.709 274.535 172.261C275.777 173.328 276.884 174.543 277.829 175.881L277.159 176.344Z" fill="#C7C7C7"/>
<path d="M272.907 179.313C272.69 178.978 270.747 176.009 270.708 174.816C270.734 173.852 270.857 172.894 271.073 171.955L271.882 172.142C271.679 173.01 271.564 173.896 271.536 174.786C271.536 175.516 272.819 177.666 273.608 178.86L272.907 179.313Z" fill="#C7C7C7"/>
<path d="M276.843 178.06C276.843 178.06 274.821 175.308 274.269 174.559C273.384 173.674 272.42 172.871 271.388 172.162L271.872 171.491C272.973 172.247 273.997 173.109 274.929 174.066C275.492 174.815 277.484 177.547 277.504 177.577L276.843 178.06Z" fill="#C7C7C7"/>
<path d="M274.564 179.165C274.564 179.165 273.322 176.936 272.819 176.275C272.136 174.919 271.571 173.507 271.132 172.053L271.921 171.797C272.324 173.155 272.845 174.475 273.479 175.742C274.022 176.452 275.235 178.642 275.284 178.701L274.564 179.165Z" fill="#C7C7C7"/>
<path d="M242.38 171.156L210.51 173.533L235.87 152.08L268.262 153.687L242.38 171.156Z" fill="#C7C7C7"/>
<path d="M228.225 178.909L224.201 170.446C224.201 170.446 231.747 163.265 238.691 160.898C245.635 158.53 255.271 159.083 255.271 159.083L257.944 168.779C257.944 168.779 247.982 170.002 242.409 172.034C236.836 174.066 228.225 178.909 228.225 178.909Z" fill="#C7C7C7"/>
<path d="M228.225 178.908C232.798 176.314 237.529 174.008 242.389 172.004C247.874 170.031 257.609 168.788 257.915 168.749L255.242 159.053C255.242 159.053 245.605 158.511 238.661 160.878C231.717 163.245 224.171 170.426 224.171 170.426L228.225 178.908Z" fill="#C7C7C7"/>
<path d="M252.391 168.572L252.46 169.321C251.365 169.509 250.251 169.726 249.156 169.982C248.357 170.219 247.568 170.475 246.779 170.751C245.287 171.098 243.815 171.526 242.37 172.034C241.462 172.359 240.476 172.764 239.411 173.217C240.249 172.823 241.097 172.428 241.946 172.053C241.028 172.389 240.131 172.754 239.243 173.129L238.819 172.251C240.397 171.402 241.985 170.594 243.622 169.864L243.1 170.021L240.92 170.959C239.933 171.402 238.947 171.856 237.961 172.33L237.369 171.205L238.631 170.534L238.128 169.854C238.562 169.499 238.977 169.193 239.42 168.867L238.73 167.763H238.799L239.322 167.418C238.493 167.773 237.675 168.177 236.876 168.601L236.146 167.279H236.215C236.895 166.905 237.566 166.55 238.247 166.204L237.832 165.415L237.221 165.741L236.58 164.666C238.132 163.747 239.747 162.939 241.413 162.249C239.444 162.608 237.544 163.274 235.781 164.222L235.298 163.344H235.386C235.761 163.137 236.156 162.939 236.55 162.752H236.609C237.99 162.071 239.391 161.42 240.821 160.858C239.154 161.218 237.507 161.67 235.889 162.21L236.452 161.933C237.132 161.628 237.813 161.351 238.493 161.115C238.937 160.967 239.401 160.819 239.874 160.691C241.102 160.359 242.347 160.092 243.603 159.892C244.333 159.773 245.062 159.684 245.773 159.596H245.842L245.901 160.158C244.9 160.386 243.912 160.669 242.942 161.006C243.346 161.006 243.751 160.947 244.165 160.947C245.619 161.009 247.068 161.154 248.505 161.381L247.203 161.716L247.272 162.801L247.518 164.054L247.193 164.143V164.587C247.913 164.429 248.643 164.301 249.383 164.192L249.669 165.662C248.127 166.132 246.62 166.712 245.161 167.398C246.7 167.033 248.248 166.737 249.827 166.49L250.044 167.852L249.363 167.99C251.198 167.99 253.387 168.197 254.531 168.226L249.531 169.104C248.698 169.259 247.88 169.483 247.084 169.775C248.14 169.518 249.215 169.301 250.29 169.104C250.883 168.956 251.487 168.854 252.095 168.798L252.391 168.572Z" fill="#C7C7C7"/>
<path d="M228.225 178.909C228.225 178.909 237.26 177.518 243.159 175.289C249.057 173.06 257.668 168.897 257.954 168.769C257.648 168.769 247.913 170.022 242.429 172.024C237.568 174.028 232.838 176.334 228.265 178.929L228.225 178.909Z" fill="#C7C7C7"/>
<path d="M124.707 348.533H254.226V493.3H124.707V348.533Z" fill="#DBDBDB"/>
<path d="M121.709 339.744H257.205V348.533H121.709V339.744Z" fill="#EBEBEB"/>
<path d="M215.994 369.502H237.99V403.591H215.994V369.502Z" fill="#C7C7C7"/>
<path d="M218.263 371.998H235.722V401.096H218.263V371.998Z" fill="white"/>
<g opacity="0.5">
<path d="M218.253 372.008V375.598L235.722 393.067V386.428L221.301 372.008H218.253Z" fill="#EBEBEB"/>
<path d="M218.253 393.58V396.894L222.465 401.105H225.789L218.253 393.58Z" fill="#EBEBEB"/>
<path d="M229.843 372.008L235.722 377.886V374.562L233.177 372.008H229.843Z" fill="#EBEBEB"/>
<path d="M218.253 388.362V389.437L229.932 401.106H230.997L218.253 388.362Z" fill="#EBEBEB"/>
</g>
<path d="M215.994 389.121H237.99V391.617H215.994V389.121Z" fill="#C7C7C7"/>
<path d="M178.464 369.502H200.459V403.591H178.464V369.502Z" fill="#C7C7C7"/>
<path d="M180.732 371.998H198.191V401.096H180.732V371.998Z" fill="white"/>
<g opacity="0.5">
<path d="M180.732 372.008V375.598L198.191 393.067V386.428L183.77 372.008H180.732Z" fill="#EBEBEB"/>
<path d="M180.732 393.58V396.894L184.934 401.105H188.258L180.732 393.58Z" fill="#EBEBEB"/>
<path d="M192.312 372.008L198.191 377.886V374.562L195.646 372.008H192.312Z" fill="#EBEBEB"/>
<path d="M180.732 388.362V389.437L192.401 401.106H193.466L180.732 388.362Z" fill="#EBEBEB"/>
</g>
<path d="M178.464 389.121H200.459V391.617H178.464V389.121Z" fill="#C7C7C7"/>
<path d="M140.933 369.502H162.928V403.591H140.933V369.502Z" fill="#C7C7C7"/>
<path d="M143.201 371.998H160.66V401.096H143.201V371.998Z" fill="white"/>
<g opacity="0.5">
<path d="M143.192 372.008V375.598L160.66 393.067V386.428L146.239 372.008H143.192Z" fill="#EBEBEB"/>
<path d="M143.192 393.58V396.894L147.403 401.105H150.727L143.192 393.58Z" fill="#EBEBEB"/>
<path d="M154.781 372.008L160.66 377.886V374.562L158.115 372.008H154.781Z" fill="#EBEBEB"/>
<path d="M143.192 388.362V389.437L154.86 401.106H155.935L143.192 388.362Z" fill="#EBEBEB"/>
</g>
<path d="M140.933 389.121H162.928V391.617H140.933V389.121Z" fill="#C7C7C7"/>
<path d="M254.226 377.689H364.007V493.3H254.226V377.689Z" fill="#DBDBDB"/>
<path d="M264.05 377.689H254.226V493.3H258.576L264.05 377.689Z" fill="#C7C7C7"/>
<path d="M332.306 393.58H351.54V423.387H332.306V393.58Z" fill="#C7C7C7"/>
<path d="M334.288 395.759H349.557V421.197H334.288V395.759Z" fill="white"/>
<g opacity="0.5">
<path d="M334.288 395.759V398.906L349.567 414.175V408.365L336.952 395.759H334.288Z" fill="#EBEBEB"/>
<path d="M344.418 395.759L349.567 400.898V397.998L347.338 395.759H344.418Z" fill="#EBEBEB"/>
</g>
<path d="M299.5 393.58H318.734V423.387H299.5V393.58Z" fill="#C7C7C7"/>
<path d="M301.482 395.759H316.751V421.197H301.482V395.759Z" fill="white"/>
<g opacity="0.5">
<path d="M301.472 395.759V398.906L316.751 414.175V408.365L304.145 395.759H301.472Z" fill="#EBEBEB"/>
<path d="M311.612 395.759L316.751 400.898V397.998L314.522 395.759H311.612Z" fill="#EBEBEB"/>
</g>
<path d="M266.683 393.58H285.917V423.387H266.683V393.58Z" fill="#C7C7C7"/>
<path d="M268.666 395.759H283.935V421.197H268.666V395.759Z" fill="white"/>
<g opacity="0.5">
<path d="M268.666 395.759V398.906L283.935 414.175V408.365L271.329 395.759H268.666Z" fill="#EBEBEB"/>
<path d="M278.796 395.759L283.935 400.898V397.998L281.706 395.759H278.796Z" fill="#EBEBEB"/>
</g>
<path d="M254.226 368.901H367.746V377.689H254.226V368.901Z" fill="#EBEBEB"/>
<path d="M124.766 493.3H14.9849L14.9849 377.689H124.766L124.766 493.3Z" fill="#DBDBDB"/>
<path d="M114.932 377.689H124.756V493.3H120.407L114.932 377.689Z" fill="#C7C7C7"/>
<path d="M46.6765 423.377H27.4425L27.4425 393.57H46.6765V423.377Z" fill="#C7C7C7"/>
<path d="M44.6939 421.197H29.425L29.425 395.759H44.6939V421.197Z" fill="white"/>
<g opacity="0.5">
<path d="M44.6938 395.759V398.906L29.4152 414.175V408.365L42.0307 395.759H44.6938Z" fill="#EBEBEB"/>
<path d="M34.564 395.759L29.4152 400.898V397.998L31.6444 395.759H34.564Z" fill="#EBEBEB"/>
</g>
<path d="M79.4925 423.377H60.2585L60.2585 393.57H79.4925V423.377Z" fill="#C7C7C7"/>
<path d="M77.51 421.197H62.2412V395.759H77.51V421.197Z" fill="white"/>
<g opacity="0.5">
<path d="M77.5001 395.759V398.906L62.2313 414.175V408.365L74.837 395.759H77.5001Z" fill="#EBEBEB"/>
<path d="M67.3702 395.759L62.2313 400.898V397.998L64.4605 395.759H67.3702Z" fill="#EBEBEB"/>
</g>
<path d="M112.299 423.377H93.0648V393.57H112.299V423.377Z" fill="#C7C7C7"/>
<path d="M110.316 421.197H95.0474V395.759H110.316V421.197Z" fill="white"/>
<g opacity="0.5">
<path d="M110.316 395.759V398.906L95.0473 414.175V408.365L107.653 395.759H110.316Z" fill="#EBEBEB"/>
<path d="M100.186 395.759L95.0474 400.898V397.998L97.2765 395.759H100.186Z" fill="#EBEBEB"/>
</g>
<path d="M124.756 377.689H11.2366L11.2366 368.901H124.756V377.689Z" fill="#EBEBEB"/>
<path d="M144.888 329.338V339.734H234.035V329.338H218.253C218.253 329.338 210.54 317.502 189.452 317.502C168.363 317.502 160.65 329.338 160.65 329.338H144.888Z" fill="#DBDBDB"/>
<path d="M257.55 428.161C259.7 426.79 302.735 370.351 303.08 367.244C303.139 366.888 292.171 358.731 292.171 358.731C287.86 355.21 245.595 332.297 245.595 332.297L217.849 369.66L258.921 389.328C258.921 389.328 255.962 399.31 253.821 408.306C252.47 413.849 251.385 418.731 251.365 420.043C251.316 423.505 255.38 429.532 257.55 428.161Z" fill="#F4F4F4"/>
<path d="M257.55 428.151C259.7 426.79 302.735 370.361 303.08 367.244C303.139 366.889 292.171 358.731 292.171 358.731C290.75 357.587 285.266 354.322 278.441 350.466L251.513 385.777L258.921 389.328C258.921 389.328 255.962 399.31 253.821 408.316C252.47 413.859 251.375 418.741 251.365 420.053C251.316 423.506 255.38 429.532 257.55 428.151Z" fill="#EBEBEB"/>
<path d="M257.49 428.437C259.68 426.977 303.474 370.577 303.77 367.382C303.908 366.159 284.852 352.793 284.753 352.705L256.632 388.697L257.254 389.16C257.254 389.16 250.911 416.67 250.951 420.231C250.99 423.791 255.311 429.897 257.49 428.437Z" fill="#FFC727"/>
<path opacity="0.5" d="M257.49 428.437C259.68 426.977 303.474 370.577 303.77 367.382C303.908 366.159 284.852 352.793 284.753 352.705L256.632 388.697L257.254 389.16C257.254 389.16 250.911 416.67 250.951 420.231C250.99 423.791 255.311 429.897 257.49 428.437Z" fill="black"/>
<path d="M255.804 426.1C262.955 416.414 292.694 378.015 300.496 368.98C300.555 368.901 300.614 368.98 300.555 369.029C293.65 378.784 263.626 416.936 255.962 426.238C255.794 426.386 255.656 426.307 255.804 426.1Z" fill="#263238"/>
<path d="M254.354 391.271C256.563 386.99 260.686 382.858 265.569 382.059C265.766 382.059 265.805 382.305 265.667 382.394C261.734 385.074 258.097 388.166 254.817 391.616C254.767 391.661 254.702 391.686 254.635 391.689C254.567 391.691 254.501 391.67 254.447 391.63C254.393 391.59 254.354 391.532 254.337 391.467C254.32 391.402 254.326 391.333 254.354 391.271Z" fill="#263238"/>
<path d="M253.89 395.227C256.09 390.946 260.223 386.813 265.105 386.024C265.293 386.024 265.332 386.261 265.204 386.349C261.266 389.028 257.628 392.123 254.354 395.582C254.301 395.619 254.237 395.639 254.171 395.638C254.106 395.637 254.043 395.615 253.991 395.575C253.94 395.535 253.902 395.48 253.884 395.417C253.865 395.355 253.868 395.288 253.89 395.227Z" fill="#263238"/>
<path d="M253.417 399.191C255.626 394.911 259.749 390.778 264.632 389.989C264.819 389.989 264.859 390.225 264.73 390.314C260.796 392.998 257.159 396.093 253.88 399.547C253.827 399.584 253.763 399.604 253.698 399.603C253.633 399.601 253.57 399.579 253.518 399.54C253.466 399.5 253.428 399.445 253.41 399.382C253.392 399.32 253.394 399.253 253.417 399.191Z" fill="#263238"/>
<path d="M242.429 389.812C241.541 386.774 244.579 384.742 247.104 384.199C251.452 383.337 255.951 383.64 260.144 385.077C260.162 385.082 260.179 385.092 260.193 385.106C260.207 385.12 260.217 385.136 260.223 385.155C260.229 385.173 260.23 385.193 260.227 385.212C260.223 385.231 260.215 385.249 260.203 385.264C260.286 385.317 260.355 385.39 260.403 385.476C260.451 385.562 260.476 385.659 260.476 385.758C260.476 385.856 260.451 385.953 260.403 386.039C260.355 386.126 260.286 386.198 260.203 386.251C256.652 388.46 253.141 391.252 249.037 392.307C246.65 392.85 243.257 392.682 242.429 389.812ZM254.166 388.46C255.932 387.415 257.638 386.3 259.443 385.324C256.91 385.075 254.365 384.96 251.819 384.978C250.587 385 249.358 385.106 248.14 385.294C246.266 385.629 240.693 388.362 245.309 390.887C247.844 392.277 252.056 389.703 254.166 388.46Z" fill="#263238"/>
<path d="M266.545 374.809C265.47 378.912 262.6 382.404 260.42 385.925C260.368 386.009 260.295 386.077 260.209 386.125C260.122 386.173 260.025 386.198 259.927 386.198C259.828 386.198 259.731 386.173 259.645 386.125C259.559 386.077 259.486 386.009 259.434 385.925C259.418 385.937 259.399 385.945 259.379 385.948C259.359 385.952 259.339 385.951 259.32 385.945C259.301 385.939 259.283 385.929 259.269 385.915C259.254 385.902 259.243 385.885 259.236 385.866C257.838 381.663 257.566 377.167 258.447 372.826C259.019 370.301 261.071 367.283 264.099 368.19C267.009 369.019 267.176 372.412 266.545 374.809ZM265.194 371.051C262.708 366.425 259.927 371.978 259.582 373.852C259.383 375.066 259.268 376.292 259.236 377.521C259.206 380.069 259.305 382.617 259.532 385.156C260.519 383.351 261.653 381.654 262.708 379.898C263.961 377.797 266.565 373.605 265.194 371.051Z" fill="#263238"/>
<path d="M255.182 390.384L285.483 351.423C285.483 351.423 196.109 305.596 195.853 299.767C195.725 296.808 227.17 269.338 233.226 251.741C237.093 240.487 227.821 225.455 227.821 225.455L181.768 224.143C181.768 224.143 183.642 243.278 183.139 245.725C182.823 247.352 136.78 299.244 144.483 318.843C153.982 342.822 255.182 390.384 255.182 390.384Z" fill="#37474F"/>
<path d="M248.564 384.534C249.205 383.311 256.553 372.698 258.25 370.341C261.673 365.665 265.105 360.99 268.607 356.384C270.441 353.977 274.347 348.809 274.653 348.592C274.683 348.573 274.719 348.565 274.754 348.569C274.789 348.574 274.822 348.59 274.847 348.615C274.872 348.64 274.888 348.672 274.892 348.708C274.896 348.743 274.889 348.778 274.87 348.809C271.724 353.632 268.39 358.327 265.066 363.032C261.742 367.737 249.994 383.489 248.83 384.732C248.672 384.801 248.475 384.712 248.564 384.534Z" fill="#263238"/>
<path d="M185.398 488.654C187.785 487.737 240.505 442.956 241.462 439.977C241.64 438.577 236.629 431.238 230.109 422.351L209.218 378.389L174.696 406.431L194.423 450.867C194.423 450.867 189.57 460.069 185.644 468.453C183.218 473.622 181.176 478.189 180.9 479.471C180.249 482.854 183.03 489.581 185.398 488.654Z" fill="#F4F4F4"/>
<path d="M190.063 452.366L230.08 419.284C230.08 419.284 191.089 337.13 190.921 330.748C190.704 322.246 237.753 287.595 242.093 261.032C244.234 247.983 236.057 225.681 236.057 225.681L184.658 224.182C184.658 224.182 183.928 238.682 186.808 246.405C187.351 247.855 191.197 249.512 191.197 249.512C191.197 249.512 144.582 307.283 143.172 335.039C142.225 353.77 190.063 452.366 190.063 452.366Z" fill="#37474F"/>
<path d="M184.036 245.073C185.401 245.476 186.722 246.011 187.982 246.671C189.297 247.329 190.592 248.026 191.868 248.762C194.353 250.269 196.75 251.916 199.049 253.694C199.064 253.704 199.075 253.721 199.079 253.739C199.083 253.758 199.079 253.777 199.069 253.793C199.058 253.808 199.042 253.819 199.023 253.823C199.005 253.827 198.986 253.823 198.97 253.812C196.504 252.254 193.939 250.853 191.375 249.463L187.666 247.49C186.383 246.88 185.135 246.198 183.928 245.448C183.741 245.33 183.849 245.024 184.036 245.073Z" fill="#263238"/>
<path d="M185.674 230.771C186.137 233.336 186.522 235.92 187.074 238.475C187.331 239.648 187.578 240.842 187.933 241.986C188.238 242.972 188.722 244.057 189.797 244.343C191.04 244.669 191.474 243.623 191.434 242.578C191.363 241.404 191.228 240.235 191.03 239.076C190.862 237.755 190.685 236.423 190.527 235.131C190.458 234.46 190.004 231.333 189.994 231.294C189.984 231.254 189.994 231.166 190.073 231.107C190.091 231.095 190.111 231.089 190.132 231.089C190.153 231.089 190.174 231.095 190.191 231.107C190.548 231.968 190.803 232.869 190.951 233.789C191.217 235.022 191.474 236.255 191.7 237.498C191.927 238.741 192.144 239.974 192.361 241.207C192.614 242.131 192.631 243.105 192.411 244.038C192.268 244.477 191.988 244.858 191.611 245.125C191.234 245.391 190.781 245.529 190.32 245.517L190.438 245.774C190.527 246.03 190.586 246.296 190.665 246.563C190.744 246.829 190.813 247.095 190.872 247.372C190.882 247.503 190.882 247.635 190.872 247.766C190.872 247.914 190.872 248.052 190.872 248.2C190.881 248.25 190.872 248.302 190.845 248.346C190.819 248.39 190.777 248.422 190.728 248.437C190.679 248.451 190.626 248.447 190.58 248.425C190.534 248.404 190.497 248.366 190.477 248.318C190.418 248.18 190.329 248.072 190.26 247.944C190.191 247.807 190.141 247.661 190.112 247.51C190.043 247.253 189.984 246.997 189.935 246.73C189.886 246.464 189.826 246.208 189.797 245.951C189.787 245.794 189.787 245.635 189.797 245.478C189.27 245.394 188.776 245.169 188.367 244.827C187.695 244.167 187.226 243.328 187.015 242.41C186.7 241.335 186.483 240.23 186.256 239.126C185.663 236.413 185.31 233.654 185.2 230.88C185.186 230.817 185.197 230.751 185.231 230.696C185.266 230.642 185.32 230.603 185.383 230.589C185.446 230.574 185.512 230.585 185.566 230.62C185.621 230.654 185.659 230.708 185.674 230.771Z" fill="#263238"/>
<path d="M191.168 334.131C190.517 332.504 189.738 330.827 190.29 329.062C190.842 327.296 206.072 310.853 207.758 308.96C207.837 308.871 207.985 308.96 207.906 309.068C206.486 310.715 193.002 326.615 191.977 328.253C191.516 328.92 191.265 329.71 191.257 330.521C191.382 331.53 191.676 332.51 192.125 333.421L194.423 339.221C195.991 343.107 197.55 346.984 199.177 350.85C201.022 355.22 202.846 359.885 204.868 364.176C205.026 364.511 204.533 364.699 204.355 364.393C200.114 356.749 191.987 336.153 191.168 334.131Z" fill="#263238"/>
<path d="M191.197 249.512C184.017 256.89 174.666 271.064 168.807 279.517C162.903 288.048 157.628 296.998 153.025 306.296C150.451 311.524 148.172 316.86 146.022 322.275C146.022 322.384 146.15 322.433 146.19 322.325C150.265 312.806 154.957 303.564 160.236 294.657C165.453 285.78 186.65 254.73 191.75 249.956C191.986 249.699 191.464 249.236 191.197 249.512Z" fill="#263238"/>
<path d="M209.386 232.705C209.386 232.596 209.553 232.616 209.573 232.705C210.135 236.847 210.461 241.148 212.463 244.916C214.298 248.368 217.504 250.597 220.995 252.155C223.029 253.026 225.106 253.79 227.219 254.444C227.367 254.493 227.338 254.73 227.17 254.7C223.224 253.872 219.18 252.945 215.728 250.755C212.039 248.368 210.145 244.561 209.534 240.29C209.222 237.773 209.172 235.231 209.386 232.705Z" fill="#263238"/>
<path d="M204.464 174.115C185.388 169.183 161.33 159.714 156.606 152.701C152.789 147.049 149.277 116.709 149.139 115.081C148.833 111.047 175.248 104.735 175.771 109.035C176.491 114.697 177.25 139.316 178.68 140.776C180.111 142.236 192.263 151.685 206.259 162.328C215.935 169.676 216.29 177.143 204.464 174.115Z" fill="#D3766A"/>
<path d="M176.175 113.336C176.589 103.196 175.958 91.8034 170.119 82.7585C169.493 81.734 168.541 80.9491 167.416 80.5294C164.871 76.4163 162.169 76.3867 162.169 76.3867C158.618 73.2796 155.846 73.6249 155.846 73.6249C155.846 73.6249 152.808 68.8312 149.603 70.1825C146.002 71.7015 150.984 78.1325 151.575 83.3503C152.877 95.305 151.575 114.411 151.575 117.873L176.175 113.336Z" fill="#D3766A"/>
<path d="M161.705 94.8708C161.365 91.3698 160.785 87.8963 159.969 84.4746C158.839 80.7873 157.441 77.1874 155.787 73.7036C155.783 73.6826 155.785 73.6608 155.794 73.6413C155.803 73.6219 155.819 73.606 155.838 73.5959C155.856 73.5859 155.878 73.5823 155.899 73.5857C155.921 73.5891 155.94 73.5994 155.955 73.6148C159.833 80.0192 161.879 87.3643 161.873 94.8511C161.873 95.0188 161.725 95.0484 161.705 94.8708Z" fill="black"/>
<path d="M169.024 95.1274C168.393 91.7344 167.249 85.7866 162.041 76.3866C162.041 76.3866 162.041 76.3176 162.1 76.3866C166.159 81.8533 168.615 88.3429 169.192 95.1274C169.212 95.3148 169.073 95.3543 169.024 95.1274Z" fill="black"/>
<path d="M172.97 95.1965C171.677 89.4657 170.139 86.0233 167.387 80.5195C167.387 80.5195 167.387 80.4504 167.446 80.5195C171.224 86.4376 171.924 89.0317 173.167 95.2162C173.216 95.3839 173.019 95.4135 172.97 95.1965Z" fill="black"/>
<path d="M88.3894 80.7563C88.5965 80.7563 93.7058 80.125 95.4122 76.0415C96.2704 74.0096 96.9904 71.7114 97.6907 69.4921C99.0716 65.1126 100.502 60.6149 102.386 60.2302C104.122 59.8948 108.393 60.4077 118.878 64.7378C125.22 67.3517 130.852 70.1529 130.911 70.1825L131.503 68.9989C130.576 68.5353 108.679 57.6854 102.139 58.9282C99.4859 59.4312 98.0655 63.86 96.4282 69.0877C95.7377 71.2872 95.0177 73.5559 94.199 75.5286C92.7886 78.8921 88.2809 79.474 88.2809 79.474L88.3894 80.7563Z" fill="#FFC727"/>
<path d="M77.0463 79.5529C77.1054 79.5529 82.5107 78.2904 84.8681 78.5666C86.2862 78.7611 87.6381 79.2884 88.8135 80.1053L89.6223 79.0598C88.2397 78.0623 86.6287 77.428 84.9371 77.2153C82.3529 76.9095 76.8884 78.2016 76.6616 78.2016L77.0463 79.5529Z" fill="#FFC727"/>
<path d="M79.1768 88.1342C79.8377 87.9468 85.6572 86.2799 87.0677 84.7806C88.11 83.5129 89.019 82.1412 89.7802 80.6872L88.6064 80.0757C87.9039 81.4326 87.0609 82.712 86.0912 83.8929C85.2429 84.8102 81.1594 86.201 78.8513 86.852L79.1768 88.1342Z" fill="#FFC727"/>
<path d="M75.5076 82.1469C75.5668 82.1469 81.1891 80.8252 82.7475 80.4898C84.8803 80.335 87.0226 80.3713 89.1489 80.5983L89.2673 79.2766C88.7446 79.2766 84.0889 78.8328 82.4614 79.1977C80.834 79.5627 75.2611 80.8449 75.2117 80.8548L75.5076 82.1469Z" fill="#FFC727"/>
<path d="M77.214 86.0923C77.214 86.0923 81.2975 84.593 82.6982 84.2971C84.0988 84.0012 89.0306 81.0619 89.6027 80.7364L88.9122 79.6021C86.8507 80.8547 83.4379 82.7978 82.4417 83.005C80.9523 83.3206 76.9477 84.7903 76.7701 84.8495L77.214 86.0923Z" fill="#FFC727"/>
<path d="M123.671 85.2933L162.8 95.5219L137.845 63.5244L99.5747 53L123.671 85.2933Z" fill="#263238"/>
<g opacity="0.1">
<path d="M123.671 85.2933L162.8 95.5219L137.845 63.5244L99.5747 53L123.671 85.2933Z" fill="black"/>
</g>
<path d="M138.891 99.4674L146.594 90.166C146.594 90.166 139.453 78.8131 131.523 73.6544C123.593 68.4958 111.391 66.1187 111.391 66.1187L104.99 77.3828C104.99 77.3828 117.043 82.068 123.356 86.3587C129.668 90.6494 138.891 99.4674 138.891 99.4674Z" fill="#FFC727"/>
<path d="M138.891 99.4671C138.329 98.9246 129.491 90.5899 123.385 86.3979C117.28 82.2058 105.394 77.5206 105.029 77.4122L111.431 66.1479C111.431 66.1479 123.642 68.5251 131.572 73.6837C139.502 78.8424 146.634 90.1953 146.634 90.1953L138.891 99.4671Z" fill="#263238"/>
<path d="M112.476 80.3418C111.752 80.0218 111.008 79.7516 110.247 79.533H110.296C112.269 80.401 114.597 81.5057 116.875 82.6105C118.611 83.4883 120.318 84.4056 121.807 85.3328C122.35 85.6583 122.863 85.9838 123.346 86.3192C124.046 86.7926 124.796 87.3055 125.555 87.9171H125.605L126.246 87.0392C124.457 85.6123 122.629 84.2544 120.762 82.9655L121.353 83.2812C122.202 83.8138 123.04 84.376 123.869 84.9284C125.023 85.7076 126.167 86.4967 127.281 87.2858L128.337 86.0923C127.844 85.7175 127.35 85.3229 126.857 84.958L127.646 84.2084C127.173 83.6757 126.729 83.222 126.246 82.7288L127.36 81.4959L126.69 80.8745C127.676 81.5156 128.583 82.1962 129.491 82.9162L130.694 81.4367L130.556 81.3282C129.816 80.7364 129.077 80.1544 128.337 79.5922L129.017 78.7045L129.728 79.2667L130.763 78.0732L130.684 78.0042C128.98 76.5362 127.174 75.1914 125.279 73.9798C127.647 74.8648 129.864 76.1126 131.848 77.6787L131.927 77.5899L131.986 77.5209L132.055 77.4321L132.174 77.294L132.47 76.929L132.519 76.8699L132.568 76.8008C132.075 76.4063 131.582 76.0315 131.059 75.6665C129.501 74.5125 127.903 73.4077 126.246 72.3918C128.843 73.4611 131.364 74.7068 133.791 76.1202C133.808 76.1244 133.824 76.1244 133.841 76.1202H133.9C134.048 76.4359 134.215 76.1202 134.275 75.8046L133.86 75.4594C133.525 75.1832 133.19 74.9267 132.874 74.6703L132.746 74.5815C132.006 74.1475 131.247 73.7332 130.487 73.3288C128.672 72.3425 126.857 71.3561 125.013 70.3698C123.78 69.8569 122.557 69.3834 121.363 68.979C122.35 69.482 123.336 70.0245 124.322 70.5769C123.03 70.0956 121.713 69.6841 120.377 69.344H120.298L120.002 70.3303C121.181 70.8301 122.33 71.3965 123.444 72.0268C122.961 71.8986 122.458 71.7803 121.975 71.6915C120.15 71.445 118.312 71.3034 116.471 71.2674L118.029 71.9677L117.684 73.2992L117.112 74.7985L117.497 74.9958L117.339 75.5284C116.481 75.1733 115.603 74.8478 114.715 74.5421L114.025 76.2978C115.839 77.2255 117.586 78.2802 119.252 79.4541C117.408 78.6552 115.544 77.945 113.63 77.2841L113.058 78.9313C113.334 79.03 113.601 79.1385 113.877 79.2568C111.588 78.882 108.837 78.6157 107.396 78.4086L113.423 80.5983C114.426 80.9857 115.399 81.4473 116.333 81.9792C115.06 81.4268 113.778 80.9139 112.476 80.4306V80.3418Z" fill="#37474F"/>
<path d="M152.217 97.82C151.773 99.4475 150.915 99.2206 149.751 96.4588C148.587 93.697 146.338 81.8016 142.254 82.9359C138.171 84.0702 142.343 100.513 143.872 105.267C145.555 110.245 148.363 114.768 152.078 118.484C152.069 115.091 152.157 104.478 152.217 97.82Z" fill="#D3766A"/>
<path d="M176.757 110.751L145.509 120.447C145.509 120.447 153.094 151.389 158.214 155.67C163.333 159.95 189.452 171.343 203.586 174.193C217.721 177.044 215.107 169.775 208.182 163.344C201.258 156.913 179.627 140.766 179.332 140.223C179.036 139.681 176.757 110.751 176.757 110.751Z" fill="#263238"/>
<path d="M152.552 125.428C153.597 125.063 154.633 124.669 155.689 124.333L162.268 122.232C164.457 121.535 166.657 120.851 168.866 120.181C171.066 119.51 173.315 118.918 175.505 118.208C175.603 118.208 175.662 118.326 175.564 118.356C173.404 119.155 171.283 120.052 169.113 120.832C166.943 121.611 164.684 122.37 162.445 123.081C160.206 123.791 158.046 124.432 155.837 125.053C154.722 125.369 153.588 125.616 152.473 125.902C151.358 126.188 150.313 126.493 149.208 126.691C149.195 126.686 149.184 126.677 149.177 126.665C149.169 126.654 149.165 126.64 149.165 126.627C149.165 126.613 149.169 126.599 149.177 126.588C149.184 126.576 149.195 126.568 149.208 126.562C150.283 126.148 151.428 125.813 152.552 125.428Z" fill="#37474F"/>
<path d="M184.342 168.197C190.599 170.68 197.036 172.684 203.596 174.194C217.75 177.044 215.126 169.775 208.202 163.344C206.594 161.864 204.207 159.852 201.456 157.623L184.342 168.197Z" fill="#37474F"/>
<path d="M245.27 243.387L180.278 238.82C180.278 238.82 185.21 193.23 198.329 162.16C202.195 152.967 214.111 151.212 221.932 162.229C238.464 185.438 245.22 244.264 245.27 243.387Z" fill="#EBEBEB"/>
<path d="M214.702 155.887C214.702 155.887 209.988 180.299 208.36 197.787C206.18 221.144 179.943 332.425 188.929 346.214C197.273 359.037 270.688 322.009 270.688 322.009C270.688 322.009 252.48 273.934 251.947 265.944C251.513 258.636 241.62 166.608 214.702 155.887Z" fill="#263238"/>
<path d="M248.337 270.324C247.775 270.324 246.414 255.864 249.323 253.675C252.233 251.485 258.664 255.746 258.723 259.908C258.723 263.548 249.965 270.295 248.337 270.324Z" fill="#FFC727"/>
<path opacity="0.1" d="M249.037 269.831C248.692 270.067 253.792 257.265 257.51 258.073C258.733 258.35 260.43 262.029 249.037 269.831Z" fill="black"/>
<path d="M248.929 269.555C248.929 268.993 234.499 267.306 232.24 270.107C229.981 272.908 234.094 279.478 238.266 279.626C241.906 279.783 248.86 271.192 248.929 269.555Z" fill="#FFC727"/>
<path opacity="0.1" d="M248.416 270.265C248.672 269.919 235.731 274.723 236.461 278.451C236.698 279.684 240.348 281.45 248.416 270.265Z" fill="black"/>
<path d="M221.222 295.121C221.222 295.121 219.447 305.28 230.03 304.629L288.285 253.092C288.285 253.092 288.206 245.29 278.105 243.702L221.222 295.121Z" fill="#EBEBEB"/>
<path d="M250.953 267.425L260.699 278.08L256.333 282.074L246.586 271.419L250.953 267.425Z" fill="#FFC727"/>
<path d="M288.285 253.092C288.285 253.092 277.129 253.359 278.105 243.702C278.105 243.702 286.983 243.347 288.285 253.092Z" fill="#DBDBDB"/>
<path d="M226.874 163.422C234.272 167.733 257.451 190.508 260.657 199.484C264.306 209.84 264.168 237.192 264.73 242.509C265.135 246.316 236.215 251.593 234.577 247.953C232.279 242.864 236.816 214.555 236.876 206.26C236.876 203.064 222.13 179.115 218.746 173.148C211.862 161.055 218.618 158.619 226.874 163.422Z" fill="#D3766A"/>
<path d="M234.548 240.615C234.548 240.615 229.36 257.876 235.288 274.497C237.004 279.33 248.781 297.627 253.308 294.944C257.402 292.507 245.536 277.939 245.536 277.939C245.536 277.939 256.208 293.721 260.607 289.864C265.007 286.007 249.402 271.35 249.402 271.35C249.402 271.35 260.736 287.309 264.642 282.634C267.601 279.103 254.216 265.008 254.216 265.008C254.216 265.008 264.079 278.649 267.236 275.148C270.767 271.281 259.236 257.502 259.236 257.502C265.855 247.244 265.589 240.102 263.182 234.204C262.649 232.971 234.548 240.615 234.548 240.615Z" fill="#D3766A"/>
<path d="M241.492 272.721C242.685 274.615 243.869 276.548 245.22 278.333C246.572 280.119 247.992 281.855 249.501 283.512C251.435 285.705 253.612 287.671 255.991 289.371C251.987 286.047 247.055 279.734 245.704 277.949C244.352 276.163 242.912 274.447 241.561 272.672C241.531 272.622 241.472 272.681 241.492 272.721Z" fill="#37474F"/>
<path d="M247.854 267.73C249.471 270.078 250.99 272.484 252.717 274.763C254.443 277.041 256.267 279.053 258.132 281.204C258.28 281.362 258.319 281.204 258.132 281.066C256.346 278.836 254.877 276.647 253.121 274.398C251.365 272.149 249.521 269.979 247.854 267.681C247.883 267.651 247.824 267.691 247.854 267.73Z" fill="#37474F"/>
<path d="M252.539 262.453C254.935 266.129 257.705 269.547 260.805 272.652C260.953 272.81 260.982 272.652 260.805 272.465C257.994 269.131 255.764 266.546 252.628 262.374C252.618 262.315 252.49 262.374 252.539 262.453Z" fill="#37474F"/>
<path d="M232.555 242.035L266.93 239.5C266.93 239.5 264.069 201.92 260.706 196.229C257.343 190.538 242.952 175.091 229.813 164.537C216.675 153.983 211.763 160.769 217.977 172.852C224.191 184.935 235.248 203.775 235.623 205.205C235.998 206.635 232.555 242.035 232.555 242.035Z" fill="#263238"/>
<path d="M235.771 234.381C235.633 234.381 235.633 234.253 235.771 234.233C240.348 233.562 245.013 233.247 249.58 232.842C251.868 232.655 254.147 232.468 256.484 232.3L259.917 232.053C261.014 231.935 262.119 231.905 263.221 231.965C263.32 231.965 263.31 232.073 263.221 232.093C262.192 232.324 261.147 232.476 260.094 232.546L256.672 232.872C254.334 233.079 251.996 233.286 249.659 233.474C245.033 233.839 240.387 234.292 235.771 234.381Z" fill="#37474F"/>
<path d="M233.246 234.855C234.439 225.179 235.485 215.414 236.077 205.678V205.166L235.919 204.613C233.75 200.029 231.344 195.561 228.709 191.228C226.154 186.878 223.56 182.558 220.818 178.317C222.603 181.641 226.223 188.279 228.048 191.583C230.099 195.46 233.335 200.904 234.952 204.879L235.071 205.235C235.071 205.669 235.071 206.142 235.071 206.596C235.071 207.799 234.785 210.995 234.706 212.238C234.203 218.945 233.552 228.138 233.196 234.855H233.246Z" fill="#37474F"/>
<path d="M224.142 183.959C222.985 182.869 221.904 181.703 220.906 180.467C221.137 181.26 221.55 181.989 222.111 182.595C222.673 183.201 223.368 183.668 224.142 183.959Z" fill="#37474F"/>
<path d="M201.633 156.982C201.633 156.982 194.018 188.032 191.769 195.282C189.521 202.532 180.278 238.82 180.278 238.82C180.278 238.82 185.398 172.704 201.633 156.982Z" fill="#263238"/>
<path d="M218.677 155.552C212.601 151.784 200.055 154.723 198.773 157.653C196.938 161.835 179.282 192.53 175.386 200.549C171.49 208.568 138.378 238.82 138.378 238.82L150.668 242.923L156.271 253.773C156.271 253.773 179.627 224.459 188.209 210.531C196.612 196.851 199.512 159.31 201.456 157.653C203.399 155.996 212.305 154.052 214.446 155.266C216.586 156.479 218.559 162.367 218.815 167.447C219.072 172.527 213.598 202.788 209.938 213.283C206.279 223.778 180.18 260.727 180.18 260.727L192.095 259.741L199.591 272.711C199.591 272.711 220.186 237.498 226.637 220.632C230.75 209.9 230.415 185.813 226.164 169.686C223.747 160.464 222.327 157.81 218.677 155.552Z" fill="#FFC727"/>
<path d="M203.754 167.072C207.068 167.763 213.805 163.699 216.014 158.945C216.162 158.619 215.462 155.325 214.801 151.29C214.406 148.844 214.022 146.102 213.864 143.577C213.864 143.064 198.289 148.509 198.289 148.509C199.4 151.605 200.129 154.824 200.459 158.096C200.473 158.446 200.457 158.795 200.41 159.142C200.41 159.142 200.41 159.24 200.41 159.309C200.213 161.262 200.223 166.342 203.754 167.072Z" fill="#D3766A"/>
<path d="M200.41 159.083C200.405 159.138 200.405 159.195 200.41 159.25C200.948 159.294 201.489 159.294 202.028 159.25C211.329 158.432 213.025 146.605 213.302 143.626C210.52 144.208 198.289 148.469 198.289 148.469C199.4 151.565 200.128 154.785 200.459 158.057C200.472 158.4 200.455 158.743 200.41 159.083Z" fill="#263238"/>
<path d="M221.824 130.538C221.696 136.456 213.795 150.916 208.863 153.106C201.712 156.282 192.539 153.786 190.477 145.777C188.505 138.004 199.118 119.293 204.385 117.557C212.177 115.013 222.041 121.858 221.824 130.538Z" fill="#D3766A"/>
<path d="M203.872 134.838C203.872 134.838 203.872 134.927 203.872 134.966C203.3 135.952 202.817 137.166 203.537 137.984C202.511 137.284 203.172 135.676 203.872 134.838Z" fill="#263238"/>
<path d="M205.273 134.276C206.94 135.016 205.332 138.3 203.783 137.62C202.235 136.939 203.921 133.655 205.273 134.276Z" fill="#263238"/>
<path d="M197.895 132.125C197.895 132.125 197.796 132.125 197.776 132.125C197.313 133.112 196.603 134.266 195.518 134.157C195.518 134.157 195.458 134.157 195.518 134.217C196.701 134.66 197.619 133.181 197.895 132.125Z" fill="#263238"/>
<path d="M197.51 130.617C195.932 129.699 194.196 132.915 195.656 133.773C197.116 134.631 198.832 131.396 197.51 130.617Z" fill="#263238"/>
<path d="M207.354 133.437C206.959 133.102 206.654 132.737 206.298 132.372C205.874 132.045 205.569 131.588 205.431 131.07C205.419 130.899 205.464 130.73 205.558 130.587C205.653 130.444 205.792 130.337 205.953 130.281C206.289 130.226 206.634 130.258 206.954 130.376C207.274 130.494 207.558 130.692 207.778 130.952C208.3 131.421 208.627 132.068 208.695 132.767C208.703 132.926 208.665 133.083 208.585 133.221C208.505 133.358 208.386 133.469 208.244 133.54C208.102 133.612 207.942 133.64 207.784 133.621C207.625 133.603 207.476 133.539 207.354 133.437Z" fill="#263238"/>
<path d="M196.169 129.245C196.622 129.502 197.076 129.66 197.54 129.867C197.994 130.147 198.526 130.275 199.059 130.232C199.222 130.184 199.364 130.084 199.464 129.946C199.564 129.809 199.616 129.642 199.611 129.472C199.556 129.134 199.409 128.817 199.187 128.556C198.964 128.295 198.674 128.1 198.348 127.993C197.743 127.672 197.041 127.584 196.376 127.746C196.222 127.791 196.084 127.879 195.98 128C195.875 128.121 195.808 128.27 195.786 128.429C195.764 128.587 195.788 128.749 195.856 128.894C195.924 129.039 196.033 129.161 196.169 129.245Z" fill="#263238"/>
<path d="M200.617 141.171C200.163 141.449 199.655 141.629 199.127 141.701C198.599 141.772 198.062 141.733 197.55 141.585C197.098 141.462 196.666 141.277 196.267 141.033C196.19 140.995 196.117 140.948 196.05 140.894C195.981 140.894 195.912 140.806 195.843 140.746C195.795 140.709 195.76 140.658 195.742 140.599C195.725 140.541 195.725 140.479 195.744 140.421C195.758 140.385 195.778 140.351 195.804 140.322L195.853 140.234C196.218 139.444 196.839 138.261 196.839 138.261C196.484 138.261 194.709 138.202 194.926 137.807C196.747 134.311 198.915 131.007 201.396 127.944C201.414 127.925 201.437 127.914 201.463 127.911C201.488 127.909 201.513 127.915 201.534 127.929C201.555 127.943 201.571 127.964 201.578 127.988C201.585 128.013 201.584 128.039 201.574 128.062C199.907 131.297 197.688 134.217 195.971 137.432C196.607 137.45 197.237 137.553 197.845 137.738C197.944 137.827 196.534 139.948 196.405 140.322C197.014 140.701 197.694 140.952 198.402 141.06C199.111 141.169 199.834 141.132 200.528 140.954C200.666 141.013 200.716 141.121 200.617 141.171Z" fill="#263238"/>
<path d="M196.928 140.865C197.075 141.631 197.414 142.347 197.915 142.946C198.201 143.262 198.581 143.476 199 143.558C199.917 143.745 200.302 143.005 200.469 142.295C200.548 141.915 200.584 141.528 200.578 141.141C199.363 141.437 198.085 141.34 196.928 140.865Z" fill="#263238"/>
<path d="M197.954 142.946C198.24 143.262 198.621 143.476 199.039 143.557C199.956 143.745 200.341 143.005 200.509 142.295C200.072 142.101 199.582 142.06 199.119 142.178C198.655 142.296 198.245 142.566 197.954 142.946Z" fill="#FF9CBD"/>
<path d="M217.701 143.814C213.686 142.187 213.923 136.554 216.655 133.27C216.655 133.27 205.648 129.581 209.218 121.029C207.83 121.766 206.293 122.182 204.722 122.245C203.152 122.308 201.587 122.017 200.144 121.394L198.013 123.969C197.106 123.14 197.451 119.569 201.199 118.474C201.199 118.474 203.408 114.421 207.67 113.434C208.839 113.129 210.072 113.167 211.221 113.543C212.37 113.919 213.387 114.617 214.15 115.555C216.59 115.139 219.096 115.683 221.143 117.074C222.2 117.821 223.063 118.809 223.66 119.957C224.257 121.105 224.571 122.379 224.576 123.673C224.576 123.673 229.221 127.154 228.314 131.218C228.086 132.375 227.617 133.471 226.937 134.435C226.257 135.399 225.382 136.208 224.369 136.811C224.369 136.811 224.96 138.862 222.781 141.654C221.37 143.439 218.914 144.287 217.701 143.814Z" fill="#263238"/>
<path d="M209.8 120.408C209.408 121.032 209.078 121.692 208.814 122.38C208.535 123.082 208.34 123.813 208.232 124.56C208.012 126.013 208.346 127.495 209.169 128.713C210.046 129.903 211.191 130.87 212.513 131.534C213.193 131.84 213.854 132.205 214.554 132.52C215.255 132.836 215.975 133.023 216.685 133.309C215.945 133.142 215.215 132.944 214.475 132.767C213.736 132.589 213.045 132.224 212.325 131.948C210.903 131.299 209.666 130.306 208.725 129.058C207.851 127.726 207.53 126.106 207.827 124.541C208.127 123.019 208.805 121.597 209.8 120.408Z" fill="#263238"/>
<path d="M202.126 122.587C203.441 122.756 204.775 122.703 206.072 122.43C206.708 122.291 207.322 122.065 207.896 121.759C208.492 121.444 209.048 121.06 209.553 120.615C209.191 121.209 208.707 121.72 208.133 122.114C207.538 122.523 206.867 122.808 206.16 122.952C205.475 123.108 204.769 123.151 204.069 123.081C203.399 123.026 202.742 122.859 202.126 122.587Z" fill="#263238"/>
<path d="M203.596 142.393C204.537 142.717 205.549 142.77 206.519 142.546C207.488 142.323 208.375 141.832 209.079 141.13C209.784 140.427 210.277 139.541 210.502 138.572C210.728 137.603 210.678 136.591 210.356 135.649C210.035 134.708 209.456 133.875 208.685 133.246C207.915 132.617 206.983 132.217 205.996 132.092C205.009 131.966 204.007 132.12 203.103 132.536C202.199 132.951 201.43 133.612 200.883 134.443C200.113 135.622 199.84 137.057 200.125 138.436C200.409 139.815 201.228 141.025 202.402 141.802C202.774 142.047 203.175 142.246 203.596 142.393ZM206.831 133.003C207.177 133.135 207.508 133.304 207.818 133.506C208.794 134.162 209.483 135.167 209.744 136.314C210.004 137.461 209.818 138.664 209.221 139.678C208.625 140.692 207.664 141.44 206.535 141.769C205.405 142.098 204.193 141.984 203.145 141.45C202.097 140.915 201.293 140.001 200.896 138.893C200.5 137.786 200.541 136.569 201.012 135.491C201.482 134.413 202.346 133.555 203.428 133.093C204.51 132.63 205.727 132.598 206.831 133.003Z" fill="#FFC727"/>
<path d="M192.628 137.037C194.551 137.698 196.968 136.327 198.181 133.832C198.773 132.646 198.983 131.305 198.782 129.995C198.729 129.427 198.53 128.882 198.204 128.414C197.878 127.945 197.437 127.569 196.923 127.321C196.41 127.073 195.84 126.962 195.271 126.998C194.701 127.034 194.151 127.217 193.673 127.529C192.519 128.185 191.598 129.185 191.04 130.389C189.767 133.033 190.339 135.952 192.302 136.899L192.628 137.037ZM196.395 127.854L196.652 127.963C197.051 128.178 197.392 128.486 197.648 128.86C197.903 129.234 198.066 129.664 198.122 130.113C198.297 131.276 198.108 132.465 197.579 133.516C196.474 135.804 194.265 137.037 192.647 136.258C191.03 135.479 190.675 132.984 191.72 130.695C192.215 129.627 193.028 128.738 194.048 128.15C194.398 127.942 194.787 127.808 195.191 127.758C195.595 127.707 196.005 127.74 196.395 127.854Z" fill="#FFC727"/>
<path d="M200.775 135.075L201.426 134.779C200.992 133.793 199.71 132.185 197.934 132.875L198.191 133.536C199.779 132.925 200.735 134.986 200.775 135.075Z" fill="#FFC727"/>
<path d="M220.492 146.309H221.212C221.212 145.974 221.074 143.044 219.762 142.127C218.45 141.21 210.579 138.182 210.205 138.073L209.958 138.744C213.16 139.881 216.295 141.199 219.348 142.689C220.226 143.301 220.473 145.51 220.492 146.309Z" fill="#FFC727"/>
<path d="M213.696 142.009C213.696 142.009 218.904 138.271 220.719 140.293C222.534 142.315 217.405 148.588 214.416 148.647C214.034 148.681 213.648 148.637 213.283 148.517C212.918 148.397 212.581 148.205 212.292 147.951C212.004 147.698 211.77 147.388 211.604 147.042C211.438 146.695 211.345 146.319 211.329 145.935L213.696 142.009Z" fill="#D3766A"/>
<path d="M219.2 142.058V142.127C217.089 142.226 215.511 143.607 214.199 145.146C214.373 144.998 214.576 144.89 214.795 144.828C215.014 144.767 215.244 144.753 215.469 144.789C215.694 144.824 215.909 144.908 216.098 145.034C216.287 145.161 216.447 145.327 216.567 145.521C216.567 145.521 216.567 145.629 216.478 145.599C216.194 145.39 215.853 145.273 215.501 145.262C215.148 145.252 214.801 145.349 214.505 145.54C214.002 145.878 213.536 146.268 213.114 146.704C212.976 146.832 212.71 146.645 212.838 146.477C213.588 144.061 216.586 141.398 219.2 142.058Z" fill="#263238"/>
<path d="M200.341 157.258L203.635 166.816L215.876 155.552L218.983 159.497C218.983 159.497 206.654 177.765 206.624 176.906L203.162 168.641L197.303 173.977L198.467 159.892L200.341 157.258Z" fill="#EBEBEB"/>
<path d="M197.461 166.973C197.727 164.655 197.934 162.308 198.309 160.01C198.309 159.921 198.457 159.891 198.467 160.01C198.822 162.278 197.747 171.146 197.648 173.276C197.885 173.039 203.063 168.591 203.103 168.67C203.882 169.992 206.417 176.018 206.585 176.561C208.557 173.661 215.985 163.127 218.253 160.404C218.265 160.386 218.284 160.373 218.305 160.368C218.326 160.364 218.348 160.368 218.367 160.38C218.385 160.391 218.398 160.41 218.402 160.431C218.407 160.452 218.403 160.475 218.391 160.493C216.645 163.57 206.772 177.764 206.634 177.715C205.283 174.865 204.078 171.948 203.024 168.976C202.136 169.962 196.889 175.012 196.889 174.657C196.945 172.088 197.136 169.523 197.461 166.973Z" fill="#263238"/>
<path d="M294.666 148.006L289.991 147.148L288.945 142.216L287.9 147.148L283.225 148.016L287.88 149.15L288.945 153.806L290.011 149.15L294.666 148.006Z" fill="#FFC727"/>
<path d="M320.933 304.364L316.258 303.496L315.212 298.574L314.176 303.496L309.501 304.364L314.157 305.498L315.212 310.154L316.277 305.498L320.933 304.364Z" fill="#FFC727"/>
<path d="M108.442 93.1942L103.767 92.3361L102.721 87.4043L101.685 92.3361L97.0101 93.2041L101.656 94.3384L102.721 98.994L103.786 94.3384L108.442 93.1942Z" fill="#FFC727"/>
<path d="M84.8977 267.187L80.2323 266.319L79.1867 261.388L78.1412 266.319L73.4658 267.187L78.1214 268.322L79.1867 272.977L80.252 268.322L84.8977 267.187Z" fill="#FFC727"/>
<path d="M230.336 374.247L225.661 373.379L224.615 368.457L223.57 373.379L218.894 374.247L223.55 375.381L224.615 380.037L225.68 375.381L230.336 374.247Z" fill="#FFC727"/>
<path d="M339.555 260.648L336.951 260.165L336.36 257.403L335.778 260.165L333.164 260.648L335.768 261.279L336.36 263.883L336.961 261.279L339.555 260.648Z" fill="#FFC727"/>
<path d="M305.822 234.292L303.208 233.809L302.626 231.057L302.044 233.809L299.43 234.292L302.034 234.934L302.626 237.537L303.228 234.934L305.822 234.292Z" fill="#FFC727"/>
<path d="M233.542 108.542L230.928 108.059L230.346 105.307L229.764 108.059L227.15 108.542L229.754 109.183L230.346 111.787L230.938 109.183L233.542 108.542Z" fill="#FFC727"/>
<path d="M123.109 342.841L120.495 342.358L119.913 339.606L119.331 342.358L116.718 342.851L119.321 343.482L119.913 346.086L120.505 343.482L123.109 342.841Z" fill="#FFC727"/>
<path d="M134.442 180.99L131.829 180.506L131.247 177.754L130.655 180.506L128.041 180.99L130.645 181.631L131.247 184.235L131.838 181.631L134.442 180.99Z" fill="#FFC727"/>
<path d="M255.113 169.873L252.5 169.39L251.918 166.638L251.336 169.39L248.722 169.873L251.326 170.505L251.918 173.109L252.519 170.505L255.113 169.873Z" fill="#FFC727"/>
<path d="M62.8921 237.538L60.2782 237.054L59.6963 234.292L59.1144 237.054L56.5005 237.538L59.1045 238.169L59.6963 240.773L60.298 238.169L62.8921 237.538Z" fill="#FFC727"/>
<path d="M255.488 342.841L252.874 342.358L252.292 339.606L251.71 342.358L249.097 342.851L251.701 343.482L252.292 346.086L252.884 343.482L255.488 342.841Z" fill="#FFC727"/>
<path d="M232.181 153.875C231.979 153.875 231.786 153.795 231.644 153.652C231.501 153.51 231.421 153.317 231.421 153.115C231.421 152.914 231.501 152.721 231.644 152.578C231.786 152.436 231.979 152.356 232.181 152.356C232.382 152.356 232.575 152.436 232.718 152.578C232.86 152.721 232.94 152.914 232.94 153.115C232.94 153.317 232.86 153.51 232.718 153.652C232.575 153.795 232.382 153.875 232.181 153.875Z" fill="#FFC727"/>
<path d="M65.3975 291.383C65.2122 291.362 65.0412 291.273 64.9171 291.134C64.793 290.995 64.7244 290.815 64.7244 290.629C64.7244 290.442 64.793 290.262 64.9171 290.123C65.0412 289.984 65.2122 289.895 65.3975 289.874C65.5827 289.895 65.7537 289.984 65.8778 290.123C66.0019 290.262 66.0706 290.442 66.0706 290.629C66.0706 290.815 66.0019 290.995 65.8778 291.134C65.7537 291.273 65.5827 291.362 65.3975 291.383Z" fill="#FFC727"/>
<path d="M184.263 173.878C184.062 173.878 183.869 173.798 183.726 173.656C183.584 173.513 183.504 173.32 183.504 173.119C183.504 172.917 183.584 172.724 183.726 172.582C183.869 172.439 184.062 172.359 184.263 172.359C184.465 172.359 184.658 172.439 184.8 172.582C184.943 172.724 185.023 172.917 185.023 173.119C185.023 173.32 184.943 173.513 184.8 173.656C184.658 173.798 184.465 173.878 184.263 173.878Z" fill="#FFC727"/>
<path d="M335.63 207.207C335.444 207.186 335.273 207.098 335.149 206.958C335.025 206.819 334.957 206.639 334.957 206.453C334.957 206.266 335.025 206.086 335.149 205.947C335.273 205.808 335.444 205.719 335.63 205.698C335.815 205.719 335.986 205.808 336.11 205.947C336.234 206.086 336.303 206.266 336.303 206.453C336.303 206.639 336.234 206.819 336.11 206.958C335.986 207.098 335.815 207.186 335.63 207.207Z" fill="#FFC727"/>
<path d="M95.7871 210.373C95.5857 210.373 95.3925 210.293 95.2501 210.151C95.1077 210.009 95.0277 209.815 95.0277 209.614C95.0277 209.413 95.1077 209.219 95.2501 209.077C95.3925 208.935 95.5857 208.854 95.7871 208.854C95.9886 208.854 96.1817 208.935 96.3242 209.077C96.4666 209.219 96.5466 209.413 96.5466 209.614C96.5466 209.815 96.4666 210.009 96.3242 210.151C96.1817 210.293 95.9886 210.373 95.7871 210.373Z" fill="#FFC727"/>
<path d="M271.802 305.872C271.617 305.851 271.446 305.763 271.322 305.623C271.198 305.484 271.129 305.304 271.129 305.118C271.129 304.931 271.198 304.751 271.322 304.612C271.446 304.473 271.617 304.384 271.802 304.363C271.988 304.384 272.159 304.473 272.283 304.612C272.407 304.751 272.476 304.931 272.476 305.118C272.476 305.304 272.407 305.484 272.283 305.623C272.159 305.763 271.988 305.851 271.802 305.872Z" fill="#FFC727"/>
<path d="M127.528 252.649C127.398 252.631 127.279 252.567 127.192 252.468C127.106 252.369 127.059 252.243 127.059 252.111C127.059 251.98 127.106 251.853 127.192 251.754C127.279 251.656 127.398 251.591 127.528 251.574C127.658 251.591 127.777 251.656 127.864 251.754C127.95 251.853 127.998 251.98 127.998 252.111C127.998 252.243 127.95 252.369 127.864 252.468C127.777 252.567 127.658 252.631 127.528 252.649Z" fill="#FFC727"/>
<path d="M200.104 103.561C199.974 103.543 199.855 103.479 199.769 103.38C199.682 103.281 199.635 103.155 199.635 103.023C199.635 102.892 199.682 102.765 199.769 102.667C199.855 102.568 199.974 102.503 200.104 102.486C200.234 102.503 200.353 102.568 200.44 102.667C200.526 102.765 200.574 102.892 200.574 103.023C200.574 103.155 200.526 103.281 200.44 103.38C200.353 103.479 200.234 103.543 200.104 103.561Z" fill="#FFC727"/>
<path d="M280.236 170.919C280.095 170.919 279.959 170.863 279.859 170.763C279.759 170.663 279.703 170.528 279.703 170.387C279.703 170.245 279.759 170.11 279.859 170.01C279.959 169.91 280.095 169.854 280.236 169.854C280.377 169.854 280.513 169.91 280.613 170.01C280.712 170.11 280.769 170.245 280.769 170.387C280.769 170.528 280.712 170.663 280.613 170.763C280.513 170.863 280.377 170.919 280.236 170.919Z" fill="#FFC727"/>
<path d="M279.733 215.512C279.603 215.494 279.484 215.43 279.397 215.331C279.311 215.233 279.263 215.106 279.263 214.975C279.263 214.843 279.311 214.717 279.397 214.618C279.484 214.519 279.603 214.455 279.733 214.437C279.863 214.455 279.982 214.519 280.068 214.618C280.155 214.717 280.202 214.843 280.202 214.975C280.202 215.106 280.155 215.233 280.068 215.331C279.982 215.43 279.863 215.494 279.733 215.512Z" fill="#FFC727"/>
<path d="M132.647 270.087C132.263 270.087 131.894 269.935 131.622 269.663C131.35 269.391 131.197 269.022 131.197 268.637C131.197 268.253 131.35 267.884 131.622 267.612C131.894 267.34 132.263 267.188 132.647 267.188C133.032 267.188 133.401 267.34 133.672 267.612C133.944 267.884 134.097 268.253 134.097 268.637C134.097 269.022 133.944 269.391 133.672 269.663C133.401 269.935 133.032 270.087 132.647 270.087Z" fill="#FFC727"/>
<path d="M131.247 114.559C130.862 114.559 130.493 114.406 130.221 114.134C129.949 113.862 129.797 113.493 129.797 113.109C129.797 112.724 129.949 112.355 130.221 112.083C130.493 111.811 130.862 111.659 131.247 111.659C131.631 111.659 132 111.811 132.272 112.083C132.544 112.355 132.697 112.724 132.697 113.109C132.697 113.493 132.544 113.862 132.272 114.134C132 114.406 131.631 114.559 131.247 114.559Z" fill="#FFC727"/>
</g>
</g>
<defs>
<filter id="filter0_i_528_8441" x="0" y="0" width="410" height="410" filterUnits="userSpaceOnUse" color-interpolation-filters="sRGB">
<feFlood flood-opacity="0" result="BackgroundImageFix"/>
<feBlend mode="normal" in="SourceGraphic" in2="BackgroundImageFix" result="shape"/>
<feColorMatrix in="SourceAlpha" type="matrix" values="0 0 0 0 0 0 0 0 0 0 0 0 0 0 0 0 0 0 127 0" result="hardAlpha"/>
<feOffset dx="8" dy="8"/>
<feGaussianBlur stdDeviation="10"/>
<feComposite in2="hardAlpha" operator="arithmetic" k2="-1" k3="1"/>
<feColorMatrix type="matrix" values="0 0 0 0 0 0 0 0 0 0 0 0 0 0 0 0 0 0 0.25 0"/>
<feBlend mode="normal" in2="shape" result="effect1_innerShadow_528_8441"/>
</filter>
<clipPath id="clip0_528_8441">
<path d="M0 201C0 89.9908 89.9908 0 201 0C312.009 0 402 89.9908 402 201V402H0V201Z" fill="white"/>
</clipPath>
</defs>
</svg>
