<svg width="185" height="290" viewBox="0 0 185 290" fill="none" xmlns="http://www.w3.org/2000/svg">
<g filter="url(#filter0_i_528_9646)">
<g clip-path="url(#clip0_528_9646)">
<rect width="185" height="290" rx="92.5" fill="#159895"/>
<path d="M53.4902 141.797C53.4902 141.797 36.1368 148.757 35.3184 154.693C34.5 160.628 34.9052 197.043 40.8406 204.608C46.776 212.172 51.4799 213.411 57.0021 212.386C60.5681 211.686 64.0364 210.558 67.3315 209.025L74.6336 179.857L53.4902 141.797Z" fill="#455A64"/>
<path d="M67.0535 199.697C66.7078 199.739 66.3583 199.739 66.0126 199.697C65.3372 199.65 64.3679 199.61 63.176 199.602C60.0576 199.576 56.9456 199.89 53.8954 200.54C50.848 201.203 47.8805 202.191 45.0439 203.487C43.9633 203.988 43.0893 204.425 42.5013 204.743C42.2032 204.927 41.8862 205.079 41.5558 205.196C41.8239 204.971 42.1141 204.774 42.4219 204.608C43.2299 204.105 44.0626 203.644 44.9168 203.225C50.591 200.429 56.87 199.083 63.1919 199.308C64.1408 199.334 65.0877 199.411 66.0285 199.538C66.3743 199.56 66.7173 199.614 67.0535 199.697Z" fill="#263238"/>
<path d="M47.1336 201.747C47.0602 201.578 47.0017 201.402 46.9588 201.223C46.8634 200.881 46.7204 200.373 46.5694 199.713C46.2437 198.394 45.8384 196.471 45.465 194.072C44.6704 189.304 44.1778 182.59 43.6931 175.209C43.2084 167.827 42.7873 161.193 42.4695 156.314C42.3344 153.93 42.2231 151.983 42.1437 150.585C42.1437 149.941 42.096 149.425 42.0722 148.996C42.0529 148.816 42.0529 148.635 42.0722 148.456C42.1171 148.632 42.1437 148.814 42.1516 148.996L42.2947 150.545C42.4059 151.944 42.5648 153.89 42.7555 156.266C43.0972 161.145 43.5501 167.803 44.0983 175.161C44.6466 182.519 45.028 189.217 45.7431 194.008C46.0847 196.392 46.4423 198.331 46.7204 199.658C46.8475 200.285 46.9508 200.794 47.0382 201.183C47.0867 201.368 47.1186 201.557 47.1336 201.747Z" fill="#263238"/>
<path d="M44.7499 179.682C43.3701 180.36 41.9134 180.87 40.4116 181.2C38.9458 181.664 37.4314 181.957 35.8984 182.074C37.3367 181.555 38.8071 181.131 40.3003 180.802C41.7583 180.335 43.2445 179.961 44.7499 179.682Z" fill="#263238"/>
<path d="M49.7875 143.148C49.8236 143.307 49.8396 143.47 49.8352 143.633C49.8352 143.998 49.8352 144.467 49.8908 145.039C49.9305 146.255 49.9941 148.019 50.0894 150.196C50.2881 154.55 50.6854 160.525 51.4481 167.16C52.2109 173.794 53.1962 179.706 54.0067 183.981C54.4039 186.126 54.7456 187.858 54.9919 189.05C55.1032 189.614 55.1906 190.067 55.2541 190.425C55.2947 190.586 55.3187 190.751 55.3256 190.917C55.2588 190.767 55.2082 190.61 55.1747 190.449C55.0873 190.091 54.976 189.654 54.833 189.082C54.539 187.898 54.1576 186.174 53.7206 184.044C52.8386 179.77 51.8057 173.826 51.035 167.207C50.2642 160.589 49.9146 154.566 49.7955 150.204C49.7398 148.027 49.716 146.231 49.7319 145.039C49.7319 144.467 49.7319 144.006 49.7319 143.641C49.7313 143.475 49.7499 143.309 49.7875 143.148Z" fill="#263238"/>
<path d="M120.067 112.398C119.823 111.843 119.471 111.341 119.031 110.923C118.592 110.504 118.075 110.176 117.509 109.959C114.317 108.508 110.897 107.623 107.402 107.345C100.182 106.499 92.8839 106.585 85.6861 107.599C82.4844 107.947 79.3533 108.775 76.3976 110.054C75.4169 110.458 74.5378 111.074 73.8232 111.858C73.4691 112.251 73.219 112.727 73.0955 113.242C72.972 113.757 72.9791 114.294 73.116 114.806C73.2729 115.31 73.615 115.736 74.0734 115.999C74.5319 116.261 75.0727 116.34 75.5871 116.22L115.316 117.809C116.597 117.432 117.794 116.815 118.843 115.989C119.365 115.567 119.757 115.006 119.974 114.37C120.19 113.735 120.223 113.051 120.067 112.398Z" fill="#FF725E"/>
<path d="M116.825 89.8242C116.579 89.9218 116.315 89.9695 116.05 89.9648C115.785 89.96 115.523 89.9028 115.28 89.7964C115.037 89.69 114.817 89.5366 114.634 89.345C114.45 89.1534 114.307 88.9274 114.211 88.68C113.856 87.6442 113.889 86.5144 114.306 85.5018C114.694 84.5044 114.961 83.464 115.101 82.4029C115.138 81.4259 114.859 80.4629 114.307 79.656C113.755 78.8492 112.958 78.2411 112.034 77.9216C112.467 77.5443 112.819 77.0835 113.069 76.5668C113.32 76.0502 113.464 75.4883 113.492 74.9148C113.52 74.3413 113.432 73.7681 113.234 73.2293C113.035 72.6906 112.73 72.1975 112.336 71.7796C111.483 71.1076 110.568 70.5196 109.603 70.0236C109.087 69.6786 108.605 69.2848 108.164 68.8476C108.975 69.0523 109.821 69.0794 110.643 68.9271C111.305 68.7849 111.92 68.476 112.429 68.0296C112.938 67.5832 113.324 67.0142 113.552 66.3765C113.766 65.7355 113.798 65.0473 113.644 64.389C113.49 63.7308 113.155 63.1286 112.678 62.65C112.182 62.1887 111.558 61.8886 110.889 61.7892C110.219 61.6899 109.535 61.7961 108.927 62.0938C107.751 62.7135 107.108 63.9928 106.543 65.1926C106.369 65.566 106.186 65.9315 106.011 66.305C104.358 64.112 102.833 61.8475 100.25 61.0767C97.9383 60.3775 95.4831 61.1641 93.0358 60.9893C91.2798 60.8622 89.5953 60.1948 87.8473 60.0358C86.0992 59.8769 84.1049 60.2186 83.0799 61.625C82.476 62.4195 82.2853 63.5478 81.6655 64.3742C80.4022 66.0905 77.6927 66.3288 76.628 68.1881C75.7778 69.7057 76.4293 71.6127 76.0718 73.3131C75.6745 75.1565 74.1569 76.4914 72.8935 77.9216C71.6301 79.3518 70.5654 81.2826 71.2646 83.0307C71.8764 84.5721 73.6484 85.4144 74.2602 86.9558C74.6892 88.0921 74.3794 89.3395 74.3555 90.5552C74.3317 91.7709 74.8163 93.2011 76.0003 93.4792L89.4205 97.023C94.037 98.8982 98.8123 100.813 103.794 100.805C108.776 100.797 114.124 98.4215 116.086 93.8209C115.357 93.7857 114.667 93.4764 114.155 92.9548C114.804 92.6626 115.38 92.2303 115.842 91.689C116.303 91.1477 116.639 90.5109 116.825 89.8242Z" fill="#263238"/>
<path d="M105.82 94.0277C107.022 90.6535 107.929 87.1815 108.53 83.6506C109.127 80.1041 108.835 76.4649 107.68 73.059C107.489 72.5505 105.876 69.1418 105.336 69.1895C104.946 69.1895 105.94 72.4154 105.749 72.7491C103.987 76.0348 103.263 79.7781 103.675 83.4837C103.999 87.0667 104.719 90.6028 105.82 94.0277Z" fill="#263238"/>
<path d="M92.5114 63.7148H91.7168C87.6843 63.9334 83.8822 65.6633 81.0681 68.5598C78.254 71.4563 76.6346 75.3069 76.5326 79.344C76.3261 87.1228 76.04 94.5918 76.3102 98.7394C76.8823 107.337 85.7099 108.235 85.7099 108.235V112.668C86.0913 117.197 91.9552 118.008 94.1721 117.817C101.856 117.817 105.852 114.448 105.852 114.448L106.218 80.3769C106.464 71.4063 101.49 63.7546 92.5114 63.7148Z" fill="#B5675E"/>
<path d="M85.6702 108.218C89.6427 107.993 93.4673 106.634 96.6908 104.301C96.6908 104.301 94.3071 110.705 85.6702 110.396V108.218Z" fill="#C17560"/>
<path d="M79.7109 86.3995C79.7234 86.7199 79.861 87.0226 80.0943 87.2425C80.3276 87.4624 80.6379 87.582 80.9584 87.5755C81.1158 87.5809 81.2726 87.5543 81.4195 87.4975C81.5663 87.4408 81.7002 87.3549 81.813 87.245C81.9258 87.1352 82.0153 87.0036 82.0759 86.8583C82.1366 86.7131 82.1673 86.557 82.1662 86.3995C82.1537 86.0792 82.0161 85.7765 81.7828 85.5566C81.5495 85.3367 81.2392 85.2171 80.9187 85.2236C80.7616 85.2193 80.6053 85.2466 80.4589 85.3038C80.3125 85.361 80.1791 85.4469 80.0665 85.5566C79.954 85.6662 79.8645 85.7973 79.8034 85.942C79.7423 86.0868 79.7109 86.2424 79.7109 86.3995Z" fill="#263238"/>
<path d="M78.527 82.8162C78.6859 82.9672 79.5759 82.2282 80.9107 82.1647C82.2456 82.1011 83.2388 82.705 83.3739 82.5381C83.5089 82.3713 83.2627 82.1806 82.8256 81.8945C82.2337 81.5279 81.5419 81.3557 80.8471 81.4019C80.1599 81.4364 79.501 81.6866 78.964 82.117C78.5667 82.4507 78.4476 82.7527 78.527 82.8162Z" fill="#263238"/>
<path d="M91.1844 86.4316C91.2008 86.7492 91.3385 87.0484 91.5692 87.2673C91.7999 87.4861 92.106 87.608 92.424 87.6076C92.5808 87.6107 92.7366 87.5827 92.8825 87.5251C93.0284 87.4675 93.1614 87.3815 93.2738 87.2721C93.3861 87.1627 93.4756 87.0321 93.5371 86.8878C93.5985 86.7435 93.6307 86.5884 93.6317 86.4316C93.6173 86.1105 93.4779 85.8078 93.2433 85.5881C93.0088 85.3684 92.6976 85.2491 92.3763 85.2556C92.2205 85.2535 92.0659 85.2824 91.9214 85.3405C91.7769 85.3987 91.6454 85.485 91.5345 85.5944C91.4236 85.7038 91.3355 85.8341 91.2755 85.9779C91.2154 86.1216 91.1844 86.2758 91.1844 86.4316Z" fill="#263238"/>
<path d="M91.5023 82.657C91.6612 82.808 92.5591 82.0691 93.886 82.0055C95.2129 81.9419 96.2141 82.5458 96.3491 82.3789C96.4842 82.2121 96.2459 82.0214 95.8009 81.7353C95.2089 81.3688 94.5172 81.1965 93.8224 81.2427C93.1355 81.2788 92.4771 81.5289 91.9393 81.9578C91.55 82.2915 91.4228 82.5935 91.5023 82.657Z" fill="#263238"/>
<path d="M87.3071 93.0661C86.597 92.892 85.869 92.8013 85.1379 92.7959C84.7962 92.7959 84.4784 92.7323 84.4069 92.5019C84.356 92.1564 84.4144 91.8036 84.5737 91.4928L85.4398 88.8707C86.6237 85.1363 87.466 82.0692 87.315 82.0216C87.164 81.9739 86.0834 84.9694 84.8916 88.6959C84.6055 89.6176 84.3354 90.4996 84.097 91.3339C83.9091 91.7535 83.8726 92.2253 83.9937 92.6688C84.0484 92.7859 84.1291 92.8889 84.2296 92.9702C84.3301 93.0514 84.4478 93.1087 84.5737 93.1376C84.7647 93.1749 84.9593 93.1909 85.1538 93.1852C85.8737 93.2402 86.5976 93.2001 87.3071 93.0661Z" fill="#263238"/>
<path d="M91.2401 93.7731C91.0256 93.7731 91.105 95.2112 89.9291 96.2919C88.7531 97.3725 87.2196 97.301 87.2196 97.4996C87.2196 97.6982 87.5771 97.7618 88.2207 97.7459C89.0625 97.7169 89.866 97.3871 90.4853 96.8163C91.0826 96.2723 91.4446 95.5171 91.4944 94.7107C91.5182 94.1227 91.3434 93.7651 91.2401 93.7731Z" fill="#263238"/>
<path d="M91.2878 77.294C91.4388 77.6436 92.7498 77.4052 94.3072 77.5085C95.8645 77.6118 97.1438 77.9614 97.3345 77.6356C97.4139 77.4767 97.1835 77.143 96.6591 76.8411C95.9633 76.4472 95.1851 76.2214 94.3866 76.1816C93.5875 76.1273 92.7869 76.2634 92.0506 76.5788C91.4944 76.8252 91.2242 77.1271 91.2878 77.294Z" fill="#263238"/>
<path d="M78.8369 78.3981C79.0832 78.6842 79.9811 78.3187 81.0696 78.2471C82.1582 78.1756 83.1037 78.3425 83.3024 78.0167C83.3898 77.8578 83.2229 77.5638 82.8018 77.3016C82.2382 76.9924 81.5957 76.8568 80.9552 76.9119C80.3147 76.9671 79.7048 77.2105 79.2024 77.6115C78.8369 77.9373 78.7256 78.2313 78.8369 78.3981Z" fill="#263238"/>
<path d="M105.812 86.7812C105.956 86.7097 111.629 84.7154 111.756 90.6111C111.883 96.5068 105.948 95.3785 105.932 95.2434C105.916 95.1083 105.812 86.7812 105.812 86.7812Z" fill="#B5675E"/>
<path d="M107.68 92.9708C107.68 92.9708 107.791 93.0423 107.966 93.1138C108.091 93.1704 108.226 93.1997 108.363 93.1997C108.5 93.1997 108.636 93.1704 108.76 93.1138C109.136 92.8648 109.439 92.52 109.638 92.115C109.836 91.7099 109.923 91.2593 109.889 90.8095C109.89 90.3049 109.782 89.8059 109.571 89.3475C109.515 89.1596 109.412 88.9887 109.274 88.85C109.135 88.7113 108.964 88.6092 108.776 88.553C108.658 88.5256 108.534 88.5399 108.426 88.5935C108.317 88.6471 108.23 88.7367 108.18 88.847C108.101 89.0138 108.141 89.133 108.117 89.141C108.093 89.1489 107.982 89.0456 108.029 88.7993C108.059 88.653 108.137 88.5212 108.252 88.4258C108.413 88.3029 108.615 88.2461 108.816 88.2669C109.058 88.3097 109.286 88.414 109.476 88.5698C109.667 88.7256 109.814 88.9277 109.905 89.1568C110.168 89.6621 110.304 90.2239 110.302 90.7936C110.302 91.9776 109.706 93.1058 108.856 93.3681C108.699 93.4182 108.534 93.4321 108.371 93.4087C108.209 93.3853 108.054 93.3252 107.918 93.233C107.696 93.1138 107.664 92.9787 107.68 92.9708Z" fill="#894943"/>
<path d="M80.1797 69.5389C79.2183 69.0224 82.0469 65.8997 84.375 64.7715C87.895 63.1188 93.2901 62.062 96.5637 62.944C100.537 64.0087 103.802 65.9236 105.82 69.4753C107.765 73.0961 108.716 77.1671 108.578 81.2746C108.635 82.5286 108.361 83.7755 107.783 84.8899C106.988 86.201 105.399 87.0432 105.503 88.8628C105.551 89.5179 105.34 90.1657 104.915 90.6664C103.85 91.8265 102.531 90.7697 101.895 89.6971C100.568 87.4008 100.394 84.6516 100.243 82.0057C100.036 80.1345 100.138 78.242 100.545 76.4039C100.823 75.4187 101.268 74.4811 101.49 73.4799C101.631 72.9876 101.664 72.4704 101.586 71.9642C101.508 71.4579 101.321 70.9747 101.037 70.548C100.894 70.3716 100.731 70.2117 100.552 70.0712C99.7224 69.3636 98.7188 68.8897 97.6449 68.6984C96.5711 68.5071 95.4656 68.6052 94.4422 68.9827C91.1368 70.1984 85.4954 72.0259 84.0016 70.9214C82.9384 70.2335 82.0293 69.3325 81.3318 68.2755L80.1797 69.5389Z" fill="#263238"/>
<path d="M96.2459 62.1814C94.6268 61.6305 92.9144 61.4065 91.2081 61.5224C89.5018 61.6383 87.8355 62.0919 86.3058 62.8568C85.4833 63.2475 84.7488 63.8011 84.1465 64.4839C83.5442 65.1668 83.0867 65.9648 82.8018 66.8296C82.333 68.5856 83.1037 70.723 84.7882 71.3825L84.9074 71.454C87.4341 72.2486 89.063 71.9069 91.5579 71.0091C93.6556 70.2145 95.5308 68.9273 97.6205 68.1804C99.8717 67.3833 102.31 67.2808 104.621 67.8864C102.38 65.2808 99.4909 63.3128 96.2459 62.1814Z" fill="#263238"/>
<path d="M107.449 68.0056C107.402 68.0532 106.925 67.4891 105.971 66.8296C105.417 66.4374 104.817 66.1145 104.184 65.8682C103.428 65.5611 102.614 65.4254 101.8 65.4709C100.298 65.6359 98.8741 66.2227 97.692 67.1633C96.7862 67.8864 96.3571 68.4903 96.3015 68.4505C96.2459 68.4108 96.3651 68.2678 96.5637 67.9976C96.8419 67.6139 97.1617 67.2621 97.5172 66.9488C98.7041 65.896 100.19 65.2404 101.768 65.0736C102.649 65.0196 103.531 65.172 104.343 65.5186C104.994 65.7911 105.606 66.1491 106.162 66.5833C106.688 66.9595 107.127 67.4446 107.449 68.0056Z" fill="#455A64"/>
<path d="M108.037 70.0952C107.988 70.6783 107.837 71.2483 107.592 71.7797C106.534 74.4207 104.59 76.6116 102.094 77.9773C101.604 78.279 101.067 78.4966 100.505 78.6209C102.221 77.6968 103.779 76.5061 105.121 75.0931C106.35 73.591 107.334 71.9043 108.037 70.0952Z" fill="#455A64"/>
<path d="M110.437 71.0806C110.473 71.3043 110.473 71.5322 110.437 71.7559C110.405 72.3634 110.32 72.967 110.183 73.5596C109.73 75.5425 108.793 77.3825 107.457 78.9158C106.12 80.4491 104.425 81.628 102.523 82.3475C101.953 82.5635 101.365 82.7309 100.767 82.8481C100.55 82.9098 100.324 82.9313 100.1 82.9117C100.1 82.8481 101.021 82.6813 102.42 82.1171C104.246 81.3477 105.875 80.1773 107.187 78.6925C108.467 77.171 109.395 75.3858 109.905 73.4643C110.334 72.0023 110.365 71.0806 110.437 71.0806Z" fill="#455A64"/>
<path d="M89.5 61.6489C89.5 61.7125 88.8881 61.8555 87.9108 62.2369C86.6749 62.7298 85.5224 63.4106 84.4942 64.2551C83.4687 65.1003 82.5814 66.1002 81.8641 67.2189C81.3079 68.077 81.0696 68.657 80.9901 68.6332C81.0987 68.0678 81.3145 67.5284 81.6258 67.0441C82.9844 64.6361 85.191 62.8204 87.8155 61.9509C88.3523 61.7428 88.9243 61.6403 89.5 61.6489Z" fill="#455A64"/>
<path d="M112.288 62.3877C112.167 63.6143 111.641 64.7658 110.794 65.6613C110.056 66.6469 109.015 67.364 107.831 67.7034C108.798 67.0332 109.693 66.2635 110.5 65.4071C111.207 64.4702 111.806 63.4575 112.288 62.3877Z" fill="#455A64"/>
<path d="M63.025 221.723C63.025 221.723 60.8002 281.172 60.8002 284.891C60.8002 289.181 60.5062 300.734 60.5936 305.883C60.681 311.032 63.025 337.976 63.025 337.976L63.7163 347.511H80.9028C80.9028 347.511 86.4648 285.312 86.8462 280.155C87.2276 274.998 94.2674 225.878 94.6568 227.07C95.0461 228.262 102.602 276.198 102.92 281.347C103.238 286.496 102.92 347.511 102.92 347.511H122.133C122.133 347.511 125.748 308.783 126.9 290.866C127.949 274.259 131.779 239.743 131.779 239.743V214.317L93.5046 210.4L63.025 221.723Z" fill="#263238"/>
<path d="M84.7087 114.209L67.1488 118.007L70.5892 177.211L62.5482 222.048C63.6288 226.379 86.2581 226.633 98.9236 226.275C110.937 225.926 130.706 220.928 132.105 218.687C133.503 216.446 126.082 168.216 126.082 168.216V118.158L106.631 113.725C106.631 113.725 95.6023 120.343 84.7087 114.209Z" fill="#E0E0E0"/>
<path d="M63.0727 214.897C63.0727 214.897 96.0394 216.693 104.327 216.121C117.421 215.207 132.28 210.44 132.28 210.44V205.839C132.28 205.839 134.059 203.392 134.02 198.648C133.985 196.06 133.769 193.476 133.376 190.917C131.422 179.65 129.022 157.784 129.022 157.784L126.082 118.206L117.461 115.402L107.052 111.604L96.0394 121.44C96.0394 121.44 88.6022 113.9 85.0902 111.905L66.8151 118.19L64.8446 172.785C64.8446 172.785 63.4779 183.599 62.5483 190.917C62.0557 194.819 60.0533 197.838 60.0533 200.921C60.0533 204.83 63.9626 208.414 63.9626 208.414L63.0727 214.897Z" fill="#FF725E"/>
<g opacity="0.3">
<path d="M63.597 183.782C70.7084 188.366 79.5838 188.962 88.038 189.423C92.9081 189.818 97.8017 189.831 102.674 189.463C107.565 189.084 112.3 187.566 116.499 185.029C118.748 183.583 120.766 181.748 123.198 180.659C124.834 179.928 126.63 179.547 128.172 178.625C129.713 177.703 130.992 176.003 130.659 174.239C130.455 173.498 130.051 172.829 129.49 172.304C128.928 171.779 128.233 171.421 127.48 171.267C125.979 170.981 124.437 170.981 122.935 171.267C120.734 171.53 118.383 171.863 116.754 173.365C115.355 174.652 114.759 176.543 113.758 178.188C111.74 181.438 108.101 183.408 104.358 184.235C100.616 185.061 96.7465 184.878 92.9246 184.688L64.916 183.313" fill="black"/>
</g>
<path d="M146.28 152.126C146.28 152.126 139.494 128.551 134.743 123.8C129.991 119.048 126.082 118.238 126.082 118.238L128.386 153.127L130.102 156.663L146.28 152.126Z" fill="#FF725E"/>
<path d="M127.155 133.533C127.472 133.47 127.886 139.151 128.323 146.111C128.537 149.552 128.744 152.666 128.895 155.034C128.974 156.115 129.038 157.013 129.093 157.736C129.131 158.068 129.145 158.403 129.133 158.737C129.027 158.42 128.957 158.092 128.926 157.76C128.831 157.124 128.72 156.17 128.601 155.066C128.362 152.786 128.124 149.631 127.909 146.143C127.695 142.655 127.536 139.588 127.401 137.212C127.337 136.139 127.29 135.234 127.25 134.511C127.25 134.232 127.21 133.994 127.194 133.78C127.193 133.696 127.18 133.613 127.155 133.533Z" fill="#263238"/>
<path d="M123.549 135.592L117.103 134.972L113.084 176.716L119.53 177.337L123.549 135.592Z" fill="#455A64"/>
<path d="M117.833 130.114L111.814 129.535L107.192 177.535L113.211 178.115L117.833 130.114Z" fill="#263238"/>
<path d="M126.39 130.866L123.804 130.617L119.182 178.618L121.768 178.867L126.39 130.866Z" fill="#263238"/>
<path d="M99.4163 173.81L101.53 172.73L109.968 166.373L112.185 167.962L110.477 171.395C110.477 171.395 130.786 174.128 130.77 175.495C130.748 175.887 130.592 176.259 130.327 176.549C130.062 176.839 129.704 177.028 129.316 177.084H118.907C118.907 177.084 119.59 179.65 118.454 180.31C118.432 180.855 118.261 181.384 117.959 181.839C117.658 182.294 117.239 182.658 116.746 182.892C116.746 182.892 117.31 184.036 115.093 184.831C112.876 185.625 100.235 186.166 100.235 186.166L99.4163 173.81Z" fill="#B5675E"/>
<path d="M120.711 154.677C119.328 154.399 115.149 153.04 113.353 153.334C112.883 153.379 112.43 153.53 112.028 153.777C111.626 154.023 111.286 154.358 111.033 154.756C111.033 154.756 107.298 156.385 108.236 158.92C107.846 159.55 107.561 160.24 107.394 160.962C107.266 161.401 107.302 161.872 107.495 162.287C107.688 162.702 108.024 163.033 108.443 163.218C108.008 163.485 107.639 163.846 107.364 164.276C107.088 164.705 106.914 165.191 106.853 165.697C106.559 167.604 108.594 168.876 108.594 168.876C108.196 171.037 110.397 171.466 111.47 171.927C113.337 172.721 125.987 172.022 125.987 172.022L126.678 159.253C126.678 159.253 121.767 154.899 120.711 154.677Z" fill="#B5675E"/>
<path d="M125.097 171.776C124.84 171.865 124.573 171.921 124.302 171.943L122.133 172.253C119.743 172.633 117.32 172.768 114.902 172.658C113.311 172.558 111.74 172.249 110.23 171.736C109.572 171.505 109.011 171.057 108.641 170.465C108.487 170.223 108.39 169.949 108.357 169.664C108.324 169.38 108.356 169.091 108.45 168.82V168.955C107.946 168.544 107.476 168.092 107.044 167.604C107.609 167.944 108.141 168.335 108.633 168.773L108.697 168.82V168.908C108.634 169.144 108.623 169.391 108.664 169.633C108.705 169.874 108.798 170.104 108.935 170.306C109.285 170.817 109.793 171.199 110.381 171.395C111.864 171.862 113.398 172.148 114.95 172.245C117.337 172.346 119.729 172.253 122.101 171.967C123.023 171.879 123.77 171.816 124.286 171.784C124.555 171.743 124.828 171.74 125.097 171.776Z" fill="#894943"/>
<path d="M109.714 163.417C109.714 163.536 109.34 163.568 108.919 163.497C108.498 163.425 108.18 163.274 108.204 163.163C108.228 163.052 108.57 163.02 108.999 163.091C109.428 163.163 109.73 163.306 109.714 163.417Z" fill="#894943"/>
<path d="M109.65 158.57C109.65 158.689 109.356 158.793 108.991 158.864C108.625 158.936 108.299 158.967 108.26 158.864C108.22 158.761 108.498 158.554 108.903 158.467C109.309 158.379 109.65 158.483 109.65 158.57Z" fill="#894943"/>
<path d="M145.867 150.974C145.867 150.974 149.347 161.081 150.316 167.604C151.421 174.962 145.223 180.254 138.398 177.481C135.299 176.226 125.43 172.515 125.43 172.515L126.225 159.103L130.643 159.81L128.855 153.811L145.867 150.974Z" fill="#FF725E"/>
<path d="M136.483 176.511C136.212 176.454 135.946 176.374 135.688 176.273L133.416 175.479L125.359 172.65L125.232 172.602V172.467C125.399 169.178 125.597 165.316 125.804 161.248C125.852 160.406 125.899 159.579 125.939 158.801V158.522L126.201 158.618C127.525 159.039 128.884 159.343 130.261 159.524L134.115 160.08C136.284 160.346 138.428 160.784 140.527 161.391C141.945 161.776 143.276 162.426 144.452 163.306C144.771 163.533 145.06 163.8 145.311 164.1C145.493 164.299 145.581 164.402 145.573 164.418C145.458 164.339 145.351 164.249 145.255 164.148C144.987 163.869 144.689 163.621 144.365 163.409C143.176 162.587 141.849 161.984 140.448 161.629C138.361 161.073 136.237 160.67 134.091 160.421L130.238 159.889C128.829 159.716 127.441 159.41 126.09 158.975L126.368 158.793C126.328 159.587 126.281 160.382 126.233 161.248C126.01 165.34 125.796 169.194 125.605 172.467L125.486 172.284L133.495 175.256L135.736 176.114C135.996 176.226 136.245 176.359 136.483 176.511Z" fill="#263238"/>
<path d="M132.057 205.942C131.834 206.01 131.605 206.061 131.374 206.093L129.419 206.459C127.719 206.769 125.24 207.166 122.181 207.587C119.121 208.008 115.459 208.429 111.382 208.803C107.306 209.176 102.817 209.454 98.0972 209.597C93.3775 209.74 88.8802 209.772 84.7882 209.709C80.6962 209.645 77.0173 209.478 73.9344 209.272C70.8514 209.065 68.3724 208.874 66.6323 208.699L64.6538 208.485C64.4205 208.474 64.189 208.439 63.9625 208.382C63.9625 208.382 64.2009 208.382 64.6617 208.382L66.6482 208.509C68.3644 208.644 70.8673 208.803 73.9503 208.954C77.0332 209.105 80.712 209.24 84.7961 209.303C88.8802 209.367 93.3775 209.303 98.0893 209.16C102.801 209.017 107.274 208.699 111.351 208.366C115.427 208.032 119.074 207.627 122.141 207.23C125.208 206.832 127.703 206.499 129.395 206.236L131.366 205.95C131.595 205.926 131.827 205.923 132.057 205.942Z" fill="#263238"/>
<path d="M66.831 118.206C65.9888 118.484 55.5243 122.099 53.1327 140.287C52.283 147.85 52.0889 155.471 52.5526 163.067L71.0263 161.526L66.831 118.206Z" fill="#FF725E"/>
<path d="M66.8309 118.206C66.8309 118.206 68.7856 113.288 73.696 115.656C73.696 115.656 73.9661 130.991 73.7993 138.929C73.2193 165.722 69.8264 165.849 69.8264 165.849L66.8309 118.206Z" fill="#455A64"/>
<path d="M52.3063 162.543C52.3063 162.543 52.8069 176.504 57.8047 180.747C63.5812 185.665 100.235 186.508 100.235 186.508L99.4401 174.168L69.5246 164.546L69.1511 157.045L52.3063 162.543Z" fill="#FF725E"/>
<path d="M60.3711 168.534C60.9702 167.808 61.6777 167.178 62.4688 166.667C64.6761 165.188 67.3099 164.478 69.9615 164.649L99.448 173.969L99.5751 174.009V174.152C99.6466 175.328 99.734 176.591 99.8214 177.863C100.012 180.818 100.203 183.703 100.394 186.484V186.674H100.211C94.9745 187.31 90.0562 186.913 85.6543 186.563C81.2524 186.213 77.351 185.665 74.1092 185.196C70.8674 184.728 68.2771 184.299 66.5052 183.981L64.4631 183.591L63.9387 183.48L63.7639 183.432H63.9467L64.479 183.504L66.529 183.822C68.3088 184.092 70.8991 184.489 74.1489 184.918C77.3987 185.347 81.3 185.832 85.686 186.19C90.4919 186.697 95.3365 186.721 100.147 186.261L99.9803 186.476C99.7896 183.687 99.5989 180.802 99.4003 177.855C99.3129 176.575 99.2334 175.32 99.154 174.136L99.297 174.319L69.8582 164.863C67.2578 164.668 64.6644 165.324 62.4688 166.731C61.888 167.108 61.338 167.53 60.824 167.994L60.4267 168.36C60.4188 168.503 60.3711 168.542 60.3711 168.534Z" fill="#263238"/>
<path d="M91.7169 125.278C91.4538 125.321 91.1854 125.321 90.9223 125.278C90.2147 125.218 89.5115 125.115 88.8167 124.968C84.1891 124.014 79.9205 121.784 76.493 118.532C75.9746 118.046 75.4863 117.528 75.0309 116.983C74.8457 116.797 74.6879 116.585 74.5621 116.355C74.6178 116.307 75.3567 117.15 76.6836 118.318C80.1735 121.394 84.3594 123.576 88.8803 124.674C90.6283 125.111 91.7248 125.206 91.7169 125.278Z" fill="#263238"/>
<path d="M118.78 115.997C118.609 116.212 118.412 116.405 118.192 116.569C117.795 116.927 117.199 117.403 116.436 117.96C114.441 119.406 112.294 120.63 110.032 121.607C107.771 122.588 105.411 123.321 102.992 123.792C102.261 123.938 101.524 124.047 100.783 124.118C100.521 124.163 100.254 124.177 99.9883 124.157C99.9883 124.086 101.132 123.927 102.96 123.506C105.337 122.954 107.661 122.193 109.905 121.233C112.123 120.253 114.25 119.077 116.261 117.721C117.85 116.672 118.732 115.941 118.78 115.997Z" fill="#263238"/>
<path d="M95.801 123.609C95.801 123.609 95.8884 123.609 96.0632 123.609C96.3102 123.625 96.5551 123.665 96.7942 123.729C97.6905 123.978 98.4961 124.48 99.1144 125.175C99.5393 125.661 99.861 126.229 100.06 126.843C100.139 127.035 100.161 127.245 100.125 127.449C100.088 127.654 99.9939 127.843 99.8533 127.995C99.7639 128.078 99.6547 128.135 99.5364 128.163C99.4181 128.191 99.2946 128.188 99.1779 128.154C98.9766 128.097 98.7879 128.003 98.6217 127.876C97.2056 126.935 96.1608 125.53 95.6659 123.903C95.5944 123.673 95.5467 123.45 95.499 123.236L95.9043 123.148C96.0865 123.949 96.0562 124.782 95.8164 125.567C95.5767 126.352 95.1358 127.06 94.5376 127.622C94.3896 127.755 94.2158 127.855 94.0272 127.918C93.8387 127.981 93.6392 128.005 93.4411 127.987C93.2435 127.97 93.0559 127.893 92.9028 127.766C92.7496 127.64 92.6382 127.471 92.583 127.28C92.4912 126.945 92.5193 126.588 92.6624 126.271C92.7743 125.989 92.9211 125.722 93.0995 125.477C93.5823 124.761 94.1939 124.141 94.9031 123.649C95.143 123.46 95.4111 123.31 95.6977 123.204C95.464 123.407 95.22 123.598 94.9667 123.776C94.3145 124.3 93.7511 124.925 93.2981 125.628C93.1231 125.834 92.9943 126.076 92.9203 126.336C92.8463 126.596 92.8288 126.87 92.869 127.137C93.0121 127.685 93.7987 127.749 94.2675 127.288C94.8003 126.767 95.1904 126.118 95.4005 125.403C95.6105 124.688 95.6335 123.931 95.4673 123.204L95.8725 123.117C95.9122 123.315 95.9679 123.53 96.0314 123.744C96.5006 125.277 97.4789 126.602 98.8045 127.503C99.0984 127.725 99.4083 127.844 99.599 127.67C99.6939 127.563 99.7562 127.432 99.7788 127.291C99.8013 127.15 99.783 127.006 99.7262 126.875C99.5488 126.297 99.2629 125.757 98.8839 125.286C98.3117 124.611 97.5718 124.098 96.7386 123.8C96.1585 123.665 95.801 123.641 95.801 123.609Z" fill="#263238"/>
<path d="M104.342 163.925C104.192 163.925 103.707 161.939 102.968 158.292C102.229 154.645 101.228 149.377 100.044 142.869H101.585C100.894 148.773 100.036 155.829 99.0586 163.576L98.4945 167.978L97.1914 163.711C95.3082 157.807 93.2583 151.355 91.1288 144.641C90.8745 143.847 90.6203 143.052 90.374 142.258L92.3842 141.86C93.004 149.766 93.584 157.283 94.1164 164.108L94.4819 168.876L92.3286 164.656C89.1503 158.387 86.2581 152.738 83.8585 147.923L85.249 147.549C85.3841 153.31 85.7416 157.966 86.0039 161.184C86.2661 164.402 86.417 166.19 86.274 166.206C86.131 166.222 85.7098 164.482 85.1934 161.28C84.49 156.748 84.0179 152.184 83.779 147.605L83.5963 144.331L85.1855 147.24C87.744 152.007 90.7474 157.569 94.029 163.782L92.2412 164.299C91.6612 157.45 91.0176 149.933 90.3422 142.051L89.5476 132.747L92.3604 141.662C92.6067 142.456 92.861 143.251 93.1152 144.045L99.0745 163.115L97.1675 163.282C98.2323 155.551 99.2334 148.519 100.092 142.623L100.886 137.458L101.681 142.599C102.674 149.139 103.445 154.446 103.929 158.133C104.414 161.82 104.501 163.894 104.342 163.925Z" fill="white"/>
</g>
</g>
<defs>
<filter id="filter0_i_528_9646" x="0" y="0" width="191" height="296" filterUnits="userSpaceOnUse" color-interpolation-filters="sRGB">
<feFlood flood-opacity="0" result="BackgroundImageFix"/>
<feBlend mode="normal" in="SourceGraphic" in2="BackgroundImageFix" result="shape"/>
<feColorMatrix in="SourceAlpha" type="matrix" values="0 0 0 0 0 0 0 0 0 0 0 0 0 0 0 0 0 0 127 0" result="hardAlpha"/>
<feOffset dx="6" dy="6"/>
<feGaussianBlur stdDeviation="7.5"/>
<feComposite in2="hardAlpha" operator="arithmetic" k2="-1" k3="1"/>
<feColorMatrix type="matrix" values="0 0 0 0 0 0 0 0 0 0 0 0 0 0 0 0 0 0 0.25 0"/>
<feBlend mode="normal" in2="shape" result="effect1_innerShadow_528_9646"/>
</filter>
<clipPath id="clip0_528_9646">
<rect width="185" height="290" rx="92.5" fill="white"/>
</clipPath>
</defs>
</svg>
