<svg width="185" height="290" viewBox="0 0 185 290" fill="none" xmlns="http://www.w3.org/2000/svg">
<g filter="url(#filter0_i_528_9719)">
<g clip-path="url(#clip0_528_9719)">
<rect width="185" height="290" rx="92.5" fill="#159895"/>
<path d="M124.255 221.458C124.351 221.514 123.946 222.292 123.095 222.904C122.245 223.516 121.379 223.699 121.355 223.564C121.331 223.428 122.062 223.15 122.849 222.57C123.636 221.99 124.16 221.386 124.255 221.458Z" fill="#FF9A6C"/>
<path d="M83.7165 90.5131C84.7415 89.9171 86.0287 89.941 87.0617 89.3689C87.5642 89.055 87.997 88.6412 88.3332 88.1533C88.6694 87.6654 88.9019 87.1137 89.0163 86.5323C89.2362 85.3695 89.2817 84.1805 89.1514 83.0044L96.517 96.8219C95.5744 98.0663 94.4042 99.1206 93.0686 99.9287C92.398 100.329 91.6375 100.554 90.8572 100.583C90.0769 100.612 89.3017 100.444 88.6031 100.096C87.2603 99.301 86.6167 97.3464 87.5304 96.1227C86.7635 96.582 85.8548 96.7442 84.9763 96.5787C84.0978 96.4133 83.3104 95.9316 82.763 95.2249C82.5144 94.8535 82.3417 94.4365 82.2551 93.9981C82.1684 93.5596 82.1694 93.1084 82.258 92.6703C82.3467 92.2322 82.5212 91.8161 82.7715 91.4458C83.0219 91.0756 83.343 90.7585 83.7165 90.5131Z" fill="#263238"/>
<path d="M117.947 60.439C119.957 62.5684 120.028 64.3323 119.957 65.254C119.957 65.5242 119.83 65.8579 119.56 65.8897C119.424 65.899 119.29 65.8626 119.178 65.7864L111.836 62.0281" fill="#263238"/>
<path d="M90.8279 86.8424C89.5644 83.4093 88.5994 79.8736 87.9436 76.2747C87.2919 72.659 87.5458 68.9383 88.6825 65.4447C88.8732 64.9203 90.4783 61.4162 91.0265 61.4718C91.4238 61.4718 90.4465 64.7693 90.6531 65.111C92.4911 68.4469 93.2724 72.2623 92.8938 76.0522C92.6122 79.7176 91.9192 83.3398 90.8279 86.8504" fill="#263238"/>
<path d="M91.0027 106.611L90.3194 72.8975C89.9141 63.7361 94.912 55.8619 104.081 55.7109H104.931C109.047 55.8834 112.947 57.5983 115.856 60.5146C118.765 63.431 120.47 67.3353 120.632 71.4513C120.934 79.397 121.172 88.1373 120.942 92.42C120.465 101.208 111.614 102.209 111.614 102.209C111.614 102.209 111.614 111.156 111.614 113.738L98.3604 112.999L95.1821 112.697L91.0027 106.611Z" fill="#FFBF9D"/>
<path d="M111.598 102.249C107.537 102.07 103.613 100.729 100.291 98.3872C100.291 98.3872 102.77 105.109 111.574 104.688L111.598 102.249Z" fill="#FF9A6C"/>
<path d="M117.653 79.7946C117.644 80.1227 117.507 80.4342 117.27 80.6618C117.034 80.8894 116.717 81.0146 116.389 81.0103C116.229 81.0167 116.07 80.9908 115.92 80.9343C115.771 80.8778 115.634 80.7917 115.518 80.6813C115.403 80.5708 115.31 80.4382 115.247 80.2913C115.184 80.1444 115.151 79.9863 115.15 79.8264C115.158 79.4997 115.294 79.1893 115.529 78.962C115.764 78.7346 116.078 78.6085 116.405 78.6107C116.566 78.6032 116.726 78.6282 116.876 78.6842C117.027 78.7402 117.165 78.8261 117.281 78.9367C117.398 79.0473 117.491 79.1803 117.554 79.3277C117.618 79.4751 117.652 79.6339 117.653 79.7946Z" fill="#263238"/>
<path d="M118.582 75.2971C118.415 75.456 117.494 74.7091 116.143 74.6535C114.792 74.5979 113.759 75.2415 113.632 75.0667C113.505 74.8919 113.735 74.7012 114.18 74.4072C114.782 74.0255 115.487 73.8396 116.199 73.8748C116.902 73.9016 117.578 74.1521 118.129 74.5899C118.535 74.9237 118.662 75.2256 118.582 75.2971Z" fill="#263238"/>
<path d="M105.957 79.3652C105.946 79.6926 105.808 80.003 105.572 80.2301C105.336 80.4573 105.021 80.5832 104.693 80.5809C104.533 80.5884 104.372 80.5634 104.222 80.5074C104.071 80.4513 103.934 80.3655 103.817 80.2549C103.701 80.1443 103.608 80.0113 103.544 79.8639C103.48 79.7165 103.447 79.5577 103.446 79.397C103.456 79.0696 103.594 78.7592 103.83 78.5321C104.066 78.305 104.381 78.1791 104.709 78.1813C104.869 78.176 105.028 78.2026 105.178 78.2594C105.328 78.3162 105.464 78.4022 105.58 78.5124C105.696 78.6225 105.789 78.7546 105.854 78.9011C105.919 79.0475 105.953 79.2052 105.957 79.3652Z" fill="#263238"/>
<path d="M105.321 75.0589C105.162 75.2099 104.24 74.471 102.89 74.4153C101.539 74.3597 100.506 74.9954 100.379 74.8285C100.252 74.6617 100.474 74.463 100.927 74.1611C101.529 73.7822 102.234 73.599 102.945 73.6367C103.645 73.6622 104.318 73.9099 104.868 74.3438C105.273 74.6855 105.416 74.9874 105.321 75.0589Z" fill="#263238"/>
<path d="M109.739 85.6428C110.459 85.4455 111.201 85.344 111.948 85.3409C112.289 85.3409 112.623 85.2614 112.687 85.031C112.735 84.676 112.671 84.3149 112.504 83.998C112.21 83.1479 111.908 82.2579 111.59 81.3283C110.335 77.5223 109.437 74.4076 109.588 74.3599C109.739 74.3123 110.891 77.3475 112.146 81.1455C112.448 82.0831 112.742 82.981 113.012 83.8312C113.217 84.2541 113.262 84.7364 113.139 85.1899C113.085 85.3102 113.004 85.4164 112.902 85.5004C112.8 85.5844 112.68 85.644 112.551 85.6746C112.356 85.7181 112.156 85.7368 111.956 85.7302C111.216 85.7906 110.471 85.7612 109.739 85.6428Z" fill="#263238"/>
<path d="M105.941 70.8479C105.742 71.1816 104.447 70.7685 102.85 70.6652C101.253 70.5619 99.9099 70.7605 99.7668 70.395C99.7033 70.2202 99.9814 69.9262 100.561 69.664C101.32 69.363 102.136 69.238 102.95 69.2986C103.763 69.3591 104.552 69.6036 105.257 70.0136C105.79 70.3473 106.028 70.689 105.941 70.8479Z" fill="#263238"/>
<path d="M119.099 71.6584C118.805 71.9523 117.716 71.6027 116.389 71.5551C115.062 71.5074 113.942 71.6981 113.696 71.3644C113.584 71.2054 113.767 70.9035 114.268 70.6254C114.952 70.2868 115.715 70.136 116.477 70.1884C117.24 70.2104 117.983 70.4442 118.622 70.8638C119.075 71.1896 119.226 71.5074 119.099 71.6584Z" fill="#263238"/>
<path d="M90.7484 79.437C90.6054 79.3655 84.7812 77.395 84.7256 83.4099C84.67 89.4248 90.7166 88.2488 90.7325 88.074C90.7484 87.8992 90.7484 79.437 90.7484 79.437Z" fill="#FFBF9D"/>
<path d="M88.913 85.7855C88.913 85.7855 88.8097 85.857 88.6349 85.9365C88.3801 86.0399 88.0951 86.0399 87.8403 85.9365C87.2047 85.6981 86.6803 84.6811 86.6644 83.6005C86.6553 83.0831 86.7611 82.5702 86.9743 82.0987C87.0312 81.9112 87.1334 81.7405 87.272 81.6019C87.4106 81.4633 87.5813 81.3611 87.7688 81.3042C87.8891 81.2727 88.0167 81.285 88.1287 81.3388C88.2408 81.3927 88.3301 81.4846 88.3806 81.5982C88.4601 81.765 88.4204 81.8842 88.4521 81.8922C88.4839 81.9001 88.5872 81.7968 88.5396 81.5425C88.5076 81.3954 88.4263 81.2636 88.3091 81.1691C88.1441 81.0422 87.9358 80.9851 87.7291 81.0102C87.4806 81.0541 87.2479 81.1623 87.0541 81.324C86.8604 81.4857 86.7123 81.6952 86.6246 81.9319C86.3628 82.4485 86.2318 83.0214 86.2432 83.6005C86.2432 84.8162 86.8789 85.9842 87.745 86.2146C87.9058 86.2639 88.0755 86.2767 88.2419 86.2519C88.4082 86.2272 88.5669 86.1656 88.7064 86.0716C88.9051 85.9286 88.9368 85.7935 88.913 85.7855Z" fill="#FF9A6C"/>
<path d="M116.731 61.5194C117.7 60.979 114.784 57.8246 112.393 56.7519C108.777 55.1072 103.247 54.0901 99.9099 55.0277C95.8973 56.164 92.5601 58.1583 90.5339 61.8133C88.5901 65.5345 87.6688 69.705 87.8642 73.8987C87.8136 75.178 88.1043 76.4478 88.7064 77.5776C89.5487 78.9045 90.7485 79.564 91.0902 81.5504C91.1088 82.2104 91.3246 82.8497 91.7099 83.3859C92.8144 84.5618 94.1572 83.4653 94.7769 82.3609C96.1039 79.9772 96.2548 77.1882 96.3661 74.4867C96.5573 72.5722 96.4311 70.6392 95.9927 68.7658C95.6987 67.7567 95.1981 66.8112 94.9915 65.7941C94.8406 65.2924 94.8008 64.7638 94.8749 64.2451C94.949 63.7264 95.1352 63.2301 95.4206 62.7907C95.5677 62.6078 95.7327 62.4401 95.9132 62.2901C96.7546 61.5604 97.7746 61.067 98.869 60.8604C99.9634 60.6538 101.093 60.7413 102.143 61.1141C105.527 62.3219 111.312 64.1176 112.83 62.9655C115.007 61.3128 115.523 60.2322 115.523 60.2322L116.731 61.5194Z" fill="#263238"/>
<path d="M105.488 86.4767C105.694 86.4767 105.702 87.8434 106.894 88.8604C108.086 89.8775 109.548 89.655 109.564 89.8695C109.58 90.084 109.238 90.1397 108.61 90.1635C107.798 90.1689 107.01 89.8875 106.386 89.3689C105.781 88.8811 105.391 88.1771 105.297 87.4063C105.241 86.8104 105.416 86.4688 105.488 86.4767Z" fill="#263238"/>
<path d="M86.569 79.1827C86.4578 79.0794 86.283 79.0556 86.1797 78.9523C79.0762 72.1746 84.7335 65.6751 84.8289 63.6648C84.956 60.8838 81.6506 64.3958 81.2136 60.7328C80.6495 55.886 85.83 53.8201 92.1945 51.7383C94.8643 50.8723 101.404 50.61 107.14 51.8257C112.257 52.8984 115.666 56.5455 117.605 59.3424C118.17 59.5977 118.674 59.9717 119.083 60.4389C119.973 62.1074 119.567 62.8226 119.567 62.8226C119.567 62.8226 108.269 56.9348 98.7815 64.6421C89.2944 72.3494 90.9948 79.0159 88.4919 79.0874L86.569 79.1827Z" fill="#455A64"/>
<path d="M94.2923 55.8701C94.1304 55.9527 93.9632 56.0244 93.7917 56.0846C93.5915 56.1532 93.3952 56.2328 93.2037 56.323C92.9813 56.4184 92.719 56.5217 92.4092 56.6647C90.9636 57.3724 89.6259 58.2821 88.4363 59.3662C87.7816 59.968 87.1708 60.6159 86.6088 61.305C86.1604 61.8729 85.7465 62.4673 85.3693 63.0848C85.1945 63.347 85.0673 63.6013 84.9482 63.8079C84.8397 63.9903 84.7415 64.1786 84.6542 64.372C84.4953 64.6819 84.4078 64.8487 84.3999 64.8487C84.4451 64.6729 84.509 64.5024 84.5906 64.3402C84.6621 64.1813 84.7416 63.9827 84.8608 63.7681C84.98 63.5536 85.0991 63.2914 85.258 63.0212C85.6287 62.3988 86.0401 61.8015 86.4896 61.2335C87.0464 60.5299 87.6574 59.871 88.3171 59.2629C88.9888 58.6804 89.7033 58.1492 90.4545 57.6738C91.0716 57.2774 91.717 56.9269 92.3853 56.625C92.6634 56.4899 92.9256 56.3945 93.1799 56.2992C93.4342 56.2038 93.6169 56.1403 93.7838 56.0846C93.9474 56 94.1175 55.9283 94.2923 55.8701Z" fill="#263238"/>
<path d="M117.907 59.5014H117.804L117.502 59.3823C117.231 59.2604 116.842 59.1015 116.334 58.9055C115.817 58.7228 115.189 58.4923 114.443 58.2858C113.601 58.0354 112.744 57.8416 111.876 57.7057C109.616 57.3495 107.311 57.3736 105.059 57.7772C102.296 58.2539 99.657 59.2777 97.2958 60.7886C96.0753 61.5698 94.943 62.481 93.9188 63.5061C92.9743 64.4662 92.1205 65.5115 91.3683 66.6287C90.1173 68.544 89.0908 70.5969 88.3092 72.7469C87.6259 74.5824 87.1968 76.1079 86.9028 77.1568C86.7677 77.6812 86.6565 78.0864 86.577 78.3725L86.4896 78.6903C86.495 78.7245 86.495 78.7593 86.4896 78.7936C86.4896 78.7936 86.4896 78.7936 86.4896 78.6903L86.5611 78.3645C86.6247 78.0864 86.7201 77.6732 86.8551 77.1409C87.1253 76.0841 87.5464 74.5506 88.2059 72.7072C88.9769 70.5405 89.9982 68.4712 91.2491 66.5413C92.0006 65.402 92.86 64.3376 93.8155 63.363C94.8456 62.3278 95.986 61.4085 97.2163 60.6218C98.4454 59.8345 99.7528 59.1768 101.118 58.6592C102.391 58.1852 103.705 57.8288 105.043 57.5945C107.315 57.2087 109.636 57.2087 111.908 57.5945C112.779 57.7358 113.639 57.9376 114.482 58.1984C115.229 58.4129 115.857 58.6592 116.373 58.8499C116.89 59.0406 117.271 59.2313 117.525 59.3584L117.827 59.4935L117.907 59.5014Z" fill="#263238"/>
<path d="M90.4465 76.2109C89.8962 76.2789 89.3376 76.2085 88.8214 76.0059C88.3052 75.8033 87.8478 75.475 87.4907 75.0508C87.9305 75.3552 88.3957 75.621 88.8812 75.8453C89.3906 76.015 89.9146 76.1374 90.4465 76.2109Z" fill="#263238"/>
<path d="M93.6169 70.8795C93.4056 70.8718 93.1978 70.8232 93.0051 70.7365C92.0208 70.3956 91.1807 69.732 90.6213 68.8533C90.4883 68.6861 90.3958 68.4903 90.3512 68.2812C90.7463 68.8695 91.2164 69.4037 91.7496 69.8704C92.3287 70.2814 92.9558 70.6202 93.6169 70.8795Z" fill="#263238"/>
<path d="M99.0596 64.3084C98.7208 63.7322 98.3466 63.1776 97.9392 62.6477C97.4937 62.1458 97.0159 61.6734 96.509 61.2334C97.1325 61.5208 97.6776 61.9541 98.0982 62.4968C98.5563 63.0169 98.8857 63.6375 99.0596 64.3084Z" fill="#263238"/>
<path d="M104.542 61.5828C104.39 60.991 104.207 60.4075 103.994 59.8347C103.597 58.9051 103.056 58.2456 103.104 58.2456C103.571 58.6655 103.931 59.1914 104.153 59.7791C104.427 60.3398 104.561 60.9589 104.542 61.5828Z" fill="#263238"/>
<path d="M112.75 61.0664C112.87 60.4656 112.849 59.8454 112.689 59.254C112.529 58.6627 112.234 58.1164 111.828 57.6577C111.992 57.7463 112.134 57.8713 112.242 58.0232C112.527 58.3702 112.735 58.7737 112.853 59.2071C112.969 59.6425 112.993 60.0968 112.925 60.542C112.903 60.7269 112.843 60.9053 112.75 61.0664Z" fill="#263238"/>
<path d="M117.708 62.2582C117.793 61.791 117.847 61.3184 117.867 60.8439C117.832 60.3712 117.766 59.9014 117.668 59.4375C117.907 59.868 118.035 60.3508 118.042 60.8429C118.049 61.335 117.934 61.8212 117.708 62.2582Z" fill="#263238"/>
<path d="M64.6628 210.469C64.6628 211.264 59.2518 282.918 59.665 289.648C60.0781 296.378 59.665 349.24 59.665 349.24H77.7732C77.7732 349.24 81.6427 285.047 82.183 281.813C82.7233 278.579 85.9493 268.083 85.9493 268.083L96.819 220.942C96.819 220.942 95.8576 259.2 96.819 265.127C97.7804 271.055 95.6351 283.172 95.6351 286.676C95.6351 290.18 92.568 350.742 92.568 350.742L109.254 350.806C109.254 350.806 110.231 346.237 110.891 343.321C111.304 341.478 114.959 308.845 115.205 307.295C115.841 303.275 116.691 291.896 117.748 286.938C118.542 283.379 124.406 244.564 124.685 243.849C125.114 242.737 127.982 217.183 127.982 217.183V207.299L66.3075 199.409L64.6628 210.469Z" fill="#263238"/>
<path d="M90.4783 104.434C94.0646 106.983 98.3246 108.415 102.723 108.55C109.508 108.661 112.79 107.144 112.79 107.144L114.196 112.261L120.696 168.333L115.062 205.678L81.4917 203.509L89.4374 159.982L88.9527 109.726L90.4783 104.434Z" fill="#F5F5F5"/>
<path d="M111.773 112.261C111.773 112.324 112.869 131.275 112.814 132.443C112.099 148.12 105.813 235.419 105.813 235.419L127.267 234.624L127.926 228.451L126.417 174.674L129.285 140.436L130.795 115.129L115.905 108.908L113.131 103.854L111.542 102.877L111.773 112.261Z" fill="#FF725E"/>
<path d="M130.842 115.129C130.842 115.129 137.604 117.799 140.377 133.984C141.887 142.907 143.5 163.478 143.5 163.478C143.5 163.478 145.661 181.682 143.5 184.844L141.331 185.639L127.696 181.666L127.132 177.51L128.84 172.354V169.088L124.335 153.014V127.27L130.842 115.129Z" fill="#FF725E"/>
<path d="M130.842 126.301C130.86 126.451 130.86 126.603 130.842 126.754C130.842 127.095 130.842 127.548 130.842 128.041C130.842 129.169 130.842 130.798 130.747 132.808C130.596 136.781 130.103 142.343 129.349 148.445C128.594 154.548 127.871 160.03 127.442 164.027C127.227 166.021 127.06 167.634 126.957 168.755C126.909 169.279 126.862 169.7 126.83 170.042C126.822 170.193 126.795 170.342 126.75 170.487C126.731 170.336 126.731 170.184 126.75 170.034C126.75 169.692 126.75 169.239 126.806 168.739C126.862 167.618 126.981 165.997 127.164 163.971C127.513 159.998 128.197 154.436 128.951 148.374C129.706 142.311 130.231 136.773 130.461 132.769C130.58 130.766 130.66 129.137 130.684 128.001C130.684 127.477 130.723 127.048 130.739 126.714C130.756 126.572 130.79 126.434 130.842 126.301Z" fill="#263238"/>
<path d="M99.9655 191.773L98.8054 219.265L137.922 221.093L139.273 194.387L103.319 191.789L101.094 191.781L99.9655 191.773Z" fill="#455A64"/>
<path d="M101.094 191.781L100.172 217.779H102.858L103.318 191.709L101.094 191.781Z" fill="white"/>
<path d="M104.868 192.639C104.979 192.639 104.931 198.694 104.765 206.147C104.598 213.6 104.367 219.655 104.256 219.655C104.145 219.655 104.185 213.6 104.351 206.147C104.518 198.694 104.749 192.631 104.868 192.639Z" fill="#263238"/>
<path d="M126.552 193.466C126.203 193.504 125.851 193.504 125.503 193.466L122.65 193.323C120.267 193.188 116.922 192.973 113.251 192.703L103.859 191.988L101.006 191.869C100.657 191.872 100.308 191.838 99.9655 191.765C100.312 191.707 100.663 191.686 101.014 191.702H103.867C106.25 191.797 109.604 192.043 113.274 192.298C116.945 192.552 120.267 192.83 122.666 193.037L125.511 193.315C125.862 193.334 126.21 193.384 126.552 193.466Z" fill="#263238"/>
<path d="M110.803 214.641C110.803 214.641 115.658 209.913 118.058 208.284C120.457 206.655 124.526 206.131 124.526 206.131L131.558 213.155C131.558 213.155 127.775 223 127.013 223.588C126.327 223.945 125.58 224.171 124.812 224.255C123.908 224.404 122.98 224.297 122.134 223.945L121.339 223.627C121.339 223.627 115.944 223.294 115.69 222.237C115.69 222.237 113.044 222.634 112.075 221.673C111.566 221.113 111.21 220.432 111.042 219.694L116.516 217.525L117.907 214.347C117.907 214.347 114.125 216.5 112.631 216.873C111.137 217.247 109.739 215.578 110.803 214.641Z" fill="#FFBF9D"/>
<path d="M128.522 181.078L124.549 206.155L131.581 213.179C131.581 213.179 135.157 204.597 136.54 200.084C138.009 195.317 141.911 184.137 141.911 184.137C141.911 184.137 133.925 179.672 128.522 181.078Z" fill="#FFBF9D"/>
<path d="M120.735 219.909C120.783 219.869 120.918 220.322 120.497 220.783C120.252 221.017 119.959 221.195 119.639 221.307C119.305 221.442 118.94 221.577 118.542 221.704C117.611 222.082 116.615 222.276 115.61 222.276C116.519 221.883 117.457 221.562 118.415 221.315C119.071 221.151 119.701 220.9 120.29 220.568C120.68 220.258 120.672 219.901 120.735 219.909Z" fill="#FF9A6C"/>
<path d="M116.04 108.908C116.304 109.566 116.519 110.244 116.683 110.934C117.041 112.213 117.525 114.025 118.082 116.138L118.225 116.694L117.764 116.345C116.884 115.656 116.099 114.855 115.428 113.961C115.054 113.456 114.716 112.925 114.419 112.372H114.792C113.998 114.756 113.394 116.941 113.004 118.498C112.827 119.338 112.607 120.168 112.345 120.985C112.33 120.756 112.348 120.526 112.4 120.302C112.472 119.857 112.575 119.221 112.742 118.435C113.178 116.341 113.735 114.274 114.411 112.245L114.554 111.8L114.776 112.213C115.072 112.735 115.398 113.239 115.754 113.723C116.407 114.584 117.165 115.361 118.01 116.035L117.7 116.234C117.176 114.12 116.739 112.261 116.437 110.989C116.245 110.308 116.112 109.612 116.04 108.908Z" fill="#263238"/>
<path d="M52.633 167.467C52.633 167.467 51.7351 183.2 52.2277 186.458C52.7204 189.715 63.7887 194.403 63.7887 194.403L72.4495 192.488C72.4495 192.488 74.1658 176.549 74.2611 176.065C74.3565 175.58 74.2611 164.202 74.2611 164.202L52.633 167.467Z" fill="#455A64"/>
<path d="M63.9874 110.974C63.9874 110.974 60.8091 112.507 58.481 119.547C57.1461 123.52 41.0641 151.465 41.0005 157.329C40.9052 164.806 54.2857 171.71 54.2857 171.71L65.8228 155.676L60.833 152.696L68.1906 146.26L63.9874 110.974Z" fill="#FF725E"/>
<path d="M82.5486 104.474C82.5486 104.474 65.2587 109.789 63.9874 110.973C62.7161 112.157 67.563 139.307 67.563 139.307V177.288L58.4811 218.447C58.4811 218.447 76.9071 236.285 85.0753 234.497C85.0753 234.497 90.7247 201.363 92.2264 188.285C93.7281 175.206 94.0062 153.069 93.7122 144.154C93.4183 135.239 92.2264 116.511 92.2264 116.066C92.2264 115.741 91.2094 105.093 91.114 100.31H89.6838L87.1412 103.735L82.5486 104.474Z" fill="#FF725E"/>
<path d="M73.8322 107.064C73.8322 107.064 80.872 118.442 81.2693 125.593C81.6666 132.744 83.5418 153.133 83.5418 153.133H89.7553C89.7553 153.133 87.9834 125.196 87.5861 118.879C87.1888 112.562 86.4976 103.48 86.4976 103.48C86.4976 103.48 74.4916 105.26 73.8322 107.064Z" fill="#455A64"/>
<path d="M97.1289 149.081C96.9536 148.676 96.649 148.341 96.2628 148.127C95.7683 147.999 95.2432 148.07 94.8008 148.326C93.7282 148.787 92.6714 149.263 91.6226 149.764L94.1175 153.777C94.8221 152.997 95.6231 152.311 96.5012 151.735C96.7645 151.594 96.9937 151.398 97.1722 151.159C97.3508 150.92 97.4744 150.644 97.5341 150.352C97.5288 149.897 97.3877 149.455 97.1289 149.081Z" fill="#FF9A6C"/>
<g opacity="0.3">
<path d="M90.1208 159.911C89.9829 159.56 89.7155 159.275 89.3739 159.116C88.77 158.902 88.1821 159.45 87.7848 159.958C83.2875 165.735 81.0309 173.395 75.1511 177.757C71.7742 180.26 67.5312 181.38 64.1146 183.835L63.9874 185.663C69.9546 185.949 75.5007 182.77 80.4032 179.354C83.653 177.089 86.871 174.586 88.9766 171.241C91.0822 167.896 91.9086 163.454 90.1208 159.911Z" fill="black"/>
</g>
<path d="M63.1929 179.283C63.1929 179.283 73.3554 175.246 79.2988 170.86C85.2422 166.474 87.2445 155.064 87.2445 155.064L90.5261 153.102C90.5261 153.102 86.4817 172.259 80.9912 176.692C75.5008 181.126 63.1929 188.611 63.1929 188.611V179.283Z" fill="#455A64"/>
<path d="M47.4127 153.856C47.4127 153.856 47.5319 153.681 47.81 153.427C48.2093 153.076 48.6402 152.762 49.0972 152.49C50.6145 151.573 52.3271 151.028 54.095 150.9C55.8648 150.789 57.6356 151.102 59.2597 151.814C59.7504 152.033 60.2187 152.299 60.6582 152.609C60.9681 152.815 61.127 152.958 61.1111 152.974C61.0952 152.99 60.3801 152.585 59.1485 152.116C57.5506 151.496 55.8364 151.233 54.1262 151.346C52.416 151.458 50.751 151.944 49.2482 152.768C48.0881 153.403 47.4524 153.912 47.4127 153.856Z" fill="#FF725E"/>
<path d="M60.9203 154.794L77.0421 158.044C77.0421 158.044 82.0876 149.502 82.6438 149.137C83.2 148.771 91.7337 149.399 91.7337 149.399C91.7337 149.399 94.9914 152.291 95.0788 154.166C95.1662 156.042 93.1321 158.06 93.1321 158.06C93.1321 158.06 93.3149 159.649 91.0901 161.238C91.0901 161.238 91.3682 163.368 89.8823 164.114C89.8823 164.114 90.2558 166.252 89.048 166.895C87.8403 167.539 86.0764 166.252 86.0764 166.252L83.4543 166.339C83.4543 166.339 81.8016 169.311 80.7845 169.684C79.7675 170.058 53.5785 170.519 53.5785 170.519C53.5785 170.519 49.8679 168.572 51.2584 163.463C51.902 161.262 53.1475 159.284 54.8545 157.752C56.5616 156.221 58.6624 155.196 60.9203 154.794Z" fill="#FFBF9D"/>
<path d="M77.0899 164.845C76.8817 163.724 76.8123 162.582 76.8833 161.444C76.8123 160.306 76.8817 159.164 77.0899 158.043C77.3653 160.302 77.3653 162.586 77.0899 164.845Z" fill="#FF9A6C"/>
<path d="M89.5248 164.321C89.4295 164.4 88.6746 163.478 87.4272 162.779C86.1797 162.08 85.0435 161.873 85.0435 161.754C85.9624 161.664 86.884 161.898 87.6497 162.414C88.4763 162.813 89.1389 163.487 89.5248 164.321Z" fill="#FF9A6C"/>
<path d="M86.4817 157.599C88.3649 158.191 89.992 159.404 91.0981 161.039C91.0028 161.119 90.1049 160.197 88.8336 159.259C87.5623 158.322 86.434 157.71 86.4817 157.599Z" fill="#FF9A6C"/>
<path d="M87.7371 153.777C88.9066 153.882 90.0323 154.273 91.0148 154.916C91.9973 155.559 92.8064 156.434 93.3705 157.464C92.5589 156.674 91.6962 155.939 90.7882 155.263C89.8063 154.698 88.7868 154.202 87.7371 153.777Z" fill="#FF9A6C"/>
<path d="M63.9874 118.514C64.0982 118.909 64.1779 119.313 64.2258 119.721C64.3529 120.572 64.5277 121.684 64.7343 123.019C65.1395 125.808 65.6799 129.661 66.1963 133.936C66.7128 138.211 67.118 142.081 67.3405 144.893C67.4517 146.3 67.5233 147.436 67.5551 148.223C67.588 148.632 67.588 149.044 67.5551 149.454C67.4611 149.055 67.4053 148.648 67.3882 148.238C67.2928 147.38 67.1816 146.26 67.0386 144.917C66.7446 142.12 66.3076 138.251 65.7832 133.984C65.2587 129.717 64.79 125.927 64.4324 123.059C64.2814 121.716 64.1543 120.595 64.059 119.737C63.9958 119.333 63.9718 118.923 63.9874 118.514Z" fill="#263238"/>
<path d="M50.2572 153.133C50.5375 152.601 50.9406 152.143 51.4332 151.798C52.5733 150.876 53.9806 150.347 55.4457 150.289C56.9127 150.25 58.3541 150.678 59.5616 151.512C60.0815 151.819 60.5138 152.254 60.817 152.776C60.7694 152.823 60.3164 152.315 59.4027 151.758C58.2229 151.026 56.8521 150.661 55.4643 150.709C54.0765 150.757 52.7343 151.216 51.608 152.029C50.734 152.609 50.3128 153.181 50.2572 153.133Z" fill="#263238"/>
<path d="M92.131 117.894C91.8501 117.39 91.6237 116.857 91.4557 116.305C90.9436 114.885 90.5347 113.43 90.232 111.951L90.5578 112.006L87.8006 116.956L87.4749 117.544L87.4193 116.877C87.4193 116.639 87.3716 116.392 87.3557 116.138C87.1032 113.166 87.0078 110.182 87.0696 107.199C87.0696 106.055 87.1412 105.133 87.1888 104.498C87.1897 104.163 87.227 103.83 87.3001 103.504C87.351 103.833 87.367 104.166 87.3478 104.498C87.3478 105.221 87.3478 106.126 87.3478 107.207C87.3478 109.487 87.459 112.634 87.745 116.098C87.745 116.353 87.7927 116.607 87.8086 116.837L87.4272 116.758C88.4442 114.962 89.4057 113.286 90.232 111.831L90.4704 111.41L90.5657 111.887C90.8416 113.357 91.1997 114.811 91.6384 116.241C91.8348 116.782 91.9993 117.334 92.131 117.894Z" fill="#263238"/>
<path d="M79.2988 170.884C79.0787 171.112 78.8335 171.315 78.5678 171.488C78.0751 171.853 77.3521 172.362 76.4463 172.958C74.0697 174.53 71.5567 175.887 68.9376 177.01C67.4897 177.653 65.9412 178.04 64.3609 178.154C63.063 178.217 61.7652 178.028 60.539 177.598C59.7091 177.321 58.9102 176.959 58.1553 176.517C57.8724 176.371 57.6061 176.196 57.3607 175.993C57.4004 175.905 58.5446 176.66 60.6026 177.32C61.8023 177.693 63.0588 177.849 64.3132 177.781C65.8495 177.643 67.3527 177.254 68.7628 176.629C71.3549 175.507 73.8618 174.198 76.2635 172.711L78.4486 171.353C78.7148 171.167 78.9998 171.01 79.2988 170.884Z" fill="#263238"/>
<path d="M81.2374 176.486C81.0176 176.721 80.7724 176.932 80.5064 177.114C80.0297 177.495 79.3146 178.035 78.4247 178.703C76.6448 180.006 74.1419 181.746 71.2735 183.542C68.4051 185.337 65.7751 186.847 63.8364 187.888C62.867 188.412 62.0724 188.818 61.5162 189.088C61.2374 189.247 60.9416 189.375 60.6343 189.469C60.8792 189.266 61.1457 189.09 61.4288 188.945L63.6854 187.634C65.5844 186.529 68.2065 184.98 71.0511 183.192C73.8956 181.404 76.4144 179.704 78.2022 178.464C79.0603 177.884 79.7913 177.392 80.3634 177.002C80.6307 176.792 80.9246 176.619 81.2374 176.486Z" fill="#263238"/>
</g>
</g>
<defs>
<filter id="filter0_i_528_9719" x="0" y="0" width="191" height="296" filterUnits="userSpaceOnUse" color-interpolation-filters="sRGB">
<feFlood flood-opacity="0" result="BackgroundImageFix"/>
<feBlend mode="normal" in="SourceGraphic" in2="BackgroundImageFix" result="shape"/>
<feColorMatrix in="SourceAlpha" type="matrix" values="0 0 0 0 0 0 0 0 0 0 0 0 0 0 0 0 0 0 127 0" result="hardAlpha"/>
<feOffset dx="6" dy="6"/>
<feGaussianBlur stdDeviation="7.5"/>
<feComposite in2="hardAlpha" operator="arithmetic" k2="-1" k3="1"/>
<feColorMatrix type="matrix" values="0 0 0 0 0 0 0 0 0 0 0 0 0 0 0 0 0 0 0.25 0"/>
<feBlend mode="normal" in2="shape" result="effect1_innerShadow_528_9719"/>
</filter>
<clipPath id="clip0_528_9719">
<rect width="185" height="290" rx="92.5" fill="white"/>
</clipPath>
</defs>
</svg>
