<svg width="185" height="290" viewBox="0 0 185 290" fill="none" xmlns="http://www.w3.org/2000/svg">
<g filter="url(#filter0_i_528_9792)">
<g clip-path="url(#clip0_528_9792)">
<rect width="185" height="290" rx="92.5" fill="#159895"/>
<path d="M73.3654 182.296C73.3654 182.296 61.3198 182.614 60.0247 183.886C58.7295 185.157 47.7009 224.726 47.8359 228.294C47.971 231.862 64.8874 235.262 66.5004 233.673C68.1133 232.084 77.521 188.033 77.521 188.033L73.3654 182.296Z" fill="#455A64"/>
<path d="M71.0611 182.384C71.0281 182.558 70.9776 182.728 70.9102 182.892L70.3857 184.315L68.4549 189.559C66.8658 193.985 64.7125 200.15 62.4956 206.992C60.2788 213.833 58.3242 220.015 56.878 224.552L55.122 229.859C54.9234 230.455 54.7565 230.932 54.6294 231.297C54.5792 231.469 54.51 231.634 54.4229 231.79C54.451 231.615 54.4935 231.442 54.55 231.274C54.6533 230.9 54.7963 230.415 54.9711 229.812C55.3683 228.501 55.9245 226.689 56.5602 224.464C57.9507 219.959 59.8498 213.722 62.0666 206.864C64.2834 200.007 66.4605 193.865 68.145 189.455C68.9873 187.255 69.6944 185.483 70.203 184.259L70.7989 182.861C70.8738 182.695 70.9614 182.536 71.0611 182.384Z" fill="#263238"/>
<path d="M61.0973 211.33C59.5444 211.204 58.0184 210.851 56.5683 210.281C55.0744 209.841 53.6549 209.179 52.3571 208.318C52.4047 208.207 54.2958 209.065 56.7034 209.907C59.1109 210.75 61.1211 211.211 61.0973 211.33Z" fill="#263238"/>
<path d="M78.7605 131.444L64.6728 155.011L46.3977 142.194L37.7211 145.063C37.7211 145.063 59.373 169.647 62.6228 171.522C65.9997 173.469 70.4096 175.582 74.2553 170.775C77.7594 166.389 90.9413 139.231 90.9413 139.231L78.7605 131.444Z" fill="#C17560"/>
<path d="M25.2384 117.221C25.3802 117.033 25.5679 116.885 25.7836 116.79C25.9992 116.696 26.2356 116.658 26.4699 116.681L34.5587 117.475C34.9092 117.519 35.2468 117.635 35.5504 117.815C35.854 117.996 36.1169 118.237 36.3226 118.524L53.9302 143.633L52.6748 144.427H43.7598L25 117.515L25.2384 117.221Z" fill="#455A64"/>
<path d="M31.0547 120.36C30.9446 120.434 30.8119 120.468 30.6794 120.456C30.547 120.443 30.4231 120.385 30.3291 120.291C30.235 120.197 30.1767 120.073 30.1641 119.94C30.1515 119.808 30.1854 119.675 30.2601 119.565C30.3661 119.493 30.4959 119.466 30.6219 119.488C30.748 119.51 30.8604 119.581 30.9355 119.684C31.0376 119.761 31.1068 119.873 31.1289 119.998C31.1511 120.124 31.1245 120.253 31.0547 120.36Z" fill="white"/>
<path d="M25 117.547C25.5223 117.671 26.0537 117.754 26.5891 117.793L30.8798 118.31L33.8436 118.636C34.0923 118.65 34.3347 118.719 34.5533 118.839C34.7718 118.958 34.9609 119.125 35.1069 119.327L36.116 120.773L40.6133 127.201C43.7916 131.754 46.7394 135.862 48.8688 138.826L51.4194 142.314C51.7122 142.756 52.0446 143.171 52.4126 143.553C52.1652 143.085 51.8865 142.633 51.5783 142.202L49.1946 138.627C47.1287 135.615 44.2524 131.476 41.0503 126.923L36.5212 120.511L35.4963 119.073C35.3096 118.825 35.0702 118.621 34.7954 118.477C34.5206 118.333 34.2172 118.251 33.9071 118.238L30.9354 117.968L26.6209 117.611C26.0836 117.541 25.5411 117.52 25 117.547Z" fill="#263238"/>
<path d="M34.2487 126.407C34.2487 126.407 34.9638 126.256 35.4247 128.202C35.8855 130.149 37.3475 135.735 37.3475 135.735L41.0343 133.605L45.8017 134.058C45.8017 134.058 46.8585 134.964 46.1196 135.504C45.3806 136.045 42.4328 136.68 42.4328 136.68L40.3113 139.914L46.501 136.656C46.501 136.656 48.6145 137.133 48.0901 138.436C47.5657 139.739 43.418 143.895 43.418 143.895L46.5963 143.545L50.2672 141.162C50.2672 141.162 51.4193 141.162 51.0221 142.171C50.6248 143.18 46.8585 146.835 46.8585 146.835L42.2103 149.298C42.2103 149.298 39.62 149.187 39.3499 148.432C39.1578 147.838 39.03 147.226 38.9685 146.604C38.9685 146.604 37.5859 146.287 37.3078 145.635C37.1384 145.08 37.0869 144.495 37.1568 143.919C37.1568 143.919 35.0194 144.372 34.7175 143.18C34.4663 141.697 34.4663 140.182 34.7175 138.699C34.9003 137.769 33.47 129.235 33.5416 128.973C33.6131 128.711 32.8821 125.898 34.2487 126.407Z" fill="#C17560"/>
<path d="M39.7393 148.94C40.1214 149.153 40.5494 149.271 40.9867 149.282C42.0317 149.393 43.0883 149.307 44.1014 149.028C45.1132 148.753 46.0627 148.286 46.8983 147.653C47.534 147.161 47.8359 146.763 47.7962 146.724C47.7565 146.684 46.2547 147.955 43.9664 148.559C41.678 149.163 39.7631 148.789 39.7393 148.94Z" fill="#7C4236"/>
<path d="M40.1605 146.7C40.2399 146.811 41.0583 146.342 41.9324 145.571C42.8064 144.801 43.3705 144.054 43.2752 143.982C43.1798 143.911 42.4806 144.475 41.6145 145.23C40.7484 145.985 40.081 146.588 40.1605 146.7Z" fill="#7C4236"/>
<path d="M37.5145 142.711C37.5939 142.814 38.4124 142.361 39.2228 141.551C40.0333 140.74 40.502 139.962 40.3908 139.859C40.2796 139.755 39.6677 140.439 38.8811 141.209C38.0945 141.98 37.4509 142.6 37.5145 142.711Z" fill="#7C4236"/>
<path d="M34.8051 139.517C34.9322 139.565 35.3771 138.667 36.0923 137.674C36.8074 136.68 37.5145 135.957 37.4192 135.854C37.3238 135.751 36.4498 136.331 35.7029 137.388C35.1802 137.981 34.865 138.729 34.8051 139.517Z" fill="#7C4236"/>
<path d="M69.6468 162.615C68.8348 159.605 67.0874 156.931 64.6569 154.979C66.0508 155.745 67.2351 156.842 68.1052 158.174C68.9754 159.505 69.5047 161.031 69.6468 162.615Z" fill="#7C4236"/>
<path d="M133.157 190.155L76.0272 192.356C72.5549 202.59 72.0544 213.658 73.278 224.393C74.5016 235.127 77.4653 245.592 80.7946 255.921C101.032 257.677 121.389 259.425 141.635 257.788C143.295 257.653 145.131 257.407 146.227 256.152C147.125 255.111 147.284 253.641 147.379 252.274C148.889 230.749 143.494 209.042 133.157 190.155Z" fill="#FF725E"/>
<path d="M72.2053 207.643C72.3801 208.255 67.0803 222.811 68.2324 233.403C69.3845 243.995 74.0646 285.384 74.0646 285.384L79.3643 344.817H98.0446C98.0446 344.817 101.811 267.514 102.852 257.892C103.893 248.269 106.642 228.58 106.642 228.58C106.642 228.58 116.272 270.557 118.06 276.254C120.96 285.471 128.389 315.982 130.733 322.458C133.077 328.934 136.986 344.841 136.986 344.841L153.927 340.749C153.927 340.749 149.223 307.044 146.68 296.079C143.836 283.795 143.907 276.262 144.686 263.748C145.465 251.233 145.21 226.927 139.736 213.928L137.352 208.366L72.2053 207.643Z" fill="#263238"/>
<path d="M117.297 59.4959C117.935 58.337 118.958 57.4376 120.189 56.9532C121.552 56.3252 123.035 56 124.536 56C126.036 56 127.519 56.3252 128.882 56.9532C130.235 57.6078 131.407 58.5836 132.296 59.7955C133.186 61.0074 133.765 62.4185 133.983 63.9057C134.163 65.3969 133.934 66.9091 133.319 68.2797C132.705 69.6503 131.728 70.8274 130.495 71.6845C132.092 71.7371 133.652 72.179 135.04 72.9718C135.256 73.0667 135.452 73.2043 135.614 73.3762C135.777 73.5482 135.903 73.7512 135.985 73.9729C136.16 74.696 135.397 75.3713 134.65 75.4111C134.09 75.4029 133.542 75.2466 133.061 74.9582C133.337 75.0941 133.582 75.2847 133.781 75.5183C133.98 75.7519 134.13 76.0236 134.221 76.3169C134.452 77.3737 133.339 78.3351 132.259 78.3828C131.169 78.3231 130.12 77.9477 129.239 77.3021L117.988 63.0476C117.492 62.6182 117.155 62.035 117.029 61.3911C116.904 60.7472 116.998 60.0799 117.297 59.4959Z" fill="#263238"/>
<path d="M92.888 77.3735C92.888 77.3735 88.8675 92.3829 88.5258 102.998L88.4066 106.534C88.4066 106.534 97.2661 113.892 104.695 114.345L110.917 99.0335L92.888 77.3735Z" fill="#263238"/>
<path d="M132.219 86.5749C130.527 79.2569 129.835 70.7391 123.789 65.9638C119.276 62.4279 114.127 61.4347 108.398 61.681C105.569 61.7923 102.383 63.0954 99.9279 64.4938C96.5509 66.4008 95.1605 70.2703 93.4998 73.7903C90.2341 80.8301 90.6473 90.3729 92.8562 93.0268L122.303 108.576C128.175 105.509 131.838 104.294 132.799 96.4593C133.183 93.1558 132.987 89.8107 132.219 86.5749Z" fill="#263238"/>
<path d="M123.479 71.7799L104.95 66.3132C98.9823 65.4472 94.7076 72.6698 94.0878 78.6688C93.4045 85.3352 92.8324 93.5034 93.4283 98.533C94.6281 108.624 102.264 110.205 102.264 110.205C102.264 110.205 102.264 110.356 102.216 113.336V119.47C102.137 121.425 102.478 122.084 103.67 123.625C106.404 127.169 111.386 127.646 117.257 125.469C120.658 124.213 123.026 121.679 123.288 118.222V77.3895C123.328 75.5541 125.291 72.05 123.479 71.7799Z" fill="#C17560"/>
<path d="M96.1616 87.9969C96.1481 88.3322 96.2645 88.6598 96.4865 88.9114C96.7085 89.163 97.0191 89.3193 97.3534 89.3477C97.6745 89.3811 97.9959 89.2863 98.2474 89.0839C98.4989 88.8815 98.6603 88.5879 98.6963 88.267C98.7138 87.9328 98.5996 87.6051 98.3783 87.354C98.157 87.103 97.8461 86.9487 97.5124 86.9242C97.1916 86.8905 96.8704 86.984 96.6178 87.1846C96.3653 87.3852 96.2014 87.6768 96.1616 87.9969Z" fill="#263238"/>
<path d="M95.3193 84.7152C95.4703 84.89 96.4714 84.2067 97.854 84.2623C99.2365 84.3179 100.238 85.0569 100.381 84.89C100.524 84.7232 100.309 84.5086 99.8801 84.167C99.302 83.7522 98.613 83.5197 97.9017 83.4995C97.1829 83.4722 96.4738 83.6724 95.8755 84.0716C95.3988 84.3418 95.2399 84.6358 95.3193 84.7152Z" fill="#263238"/>
<path d="M107.993 88.5931C107.977 88.9281 108.093 89.2558 108.316 89.5066C108.538 89.7574 108.85 89.9114 109.185 89.9359C109.347 89.9557 109.512 89.9427 109.67 89.8975C109.827 89.8523 109.974 89.776 110.102 89.673C110.229 89.5699 110.335 89.4424 110.412 89.2978C110.489 89.1533 110.536 88.9947 110.551 88.8315C110.569 88.4964 110.455 88.1677 110.234 87.9154C110.013 87.6631 109.702 87.5071 109.367 87.4807C109.204 87.462 109.038 87.4761 108.88 87.5221C108.722 87.5681 108.575 87.6451 108.447 87.7486C108.319 87.8522 108.213 87.9802 108.135 88.1252C108.057 88.2702 108.009 88.4292 107.993 88.5931Z" fill="#263238"/>
<path d="M108.93 84.8821C109.081 85.049 110.082 84.3736 111.465 84.4292C112.847 84.4848 113.849 85.2238 113.992 85.0569C114.135 84.8901 113.92 84.6755 113.491 84.3339C112.908 83.8941 112.203 83.6469 111.473 83.6267C110.755 83.5932 110.044 83.7909 109.447 84.1909C109.026 84.5007 108.851 84.8027 108.93 84.8821Z" fill="#263238"/>
<path d="M103.535 93.8291C102.818 93.5689 102.07 93.4007 101.31 93.3285C100.953 93.2808 100.627 93.2014 100.571 92.9551C100.559 92.5883 100.656 92.2261 100.85 91.9142C101.215 91.0719 101.596 90.19 102.002 89.2683C103.591 85.4941 104.775 82.3873 104.624 82.3237C104.473 82.2602 103.035 85.2637 101.445 89.0379L100.341 91.7076C100.101 92.1261 100.017 92.6156 100.103 93.0902C100.149 93.2163 100.225 93.33 100.322 93.4223C100.42 93.5147 100.538 93.5832 100.667 93.6225C100.86 93.686 101.06 93.7234 101.263 93.7338C102.014 93.8543 102.777 93.8863 103.535 93.8291Z" fill="#263238"/>
<path d="M102.224 110.189C106.941 110.446 111.637 109.387 115.787 107.13C115.787 107.13 112.196 114.019 102.2 112.692L102.224 110.189Z" fill="#7C4236"/>
<path d="M108.406 79.8128C108.501 80.2021 109.9 80.1544 111.497 80.512C113.094 80.8696 114.357 81.4258 114.604 81.1159C114.715 80.9649 114.524 80.5915 114.031 80.1703C113.374 79.6532 112.603 79.2992 111.783 79.1374C110.965 78.953 110.114 78.9694 109.304 79.1851C108.692 79.3678 108.366 79.63 108.406 79.8128Z" fill="#263238"/>
<path d="M95.4306 80.9887C95.7484 81.2589 96.7576 80.7901 98.0209 80.5914C99.2843 80.3928 100.405 80.4563 100.595 80.0988C100.675 79.924 100.46 79.6379 99.9517 79.4075C99.2561 79.1394 98.5002 79.0679 97.7667 79.2009C97.0343 79.3157 96.3503 79.6383 95.7961 80.1306C95.3909 80.512 95.2876 80.8536 95.4306 80.9887Z" fill="#263238"/>
<path d="M123.495 115.235C118.489 114.941 118.251 109.76 118.553 107.13C118.909 104.204 119.475 101.307 120.245 98.4617C121.429 94.1313 119.8 89.5307 119.204 85.0493C116.644 84.6335 114.324 83.297 112.681 81.291C110.67 78.9073 109.455 76.0389 108.271 73.1864C108.35 76.0056 109.305 78.73 111.004 80.9811C110.439 81.067 109.862 81.0198 109.318 80.8432C108.775 80.6666 108.28 80.3656 107.874 79.9641C107.07 79.1511 106.445 78.1796 106.038 77.1116C104.952 74.5728 104.349 71.8541 104.258 69.0944C103.88 73.047 104.326 77.0352 105.569 80.8063C104.844 80.6743 104.098 80.7014 103.384 80.8858C103.028 80.9778 102.656 80.9863 102.296 80.9104C101.936 80.8346 101.599 80.6766 101.31 80.4488C100.999 80.0668 100.803 79.6036 100.746 79.1139C100.052 75.7546 99.939 72.3011 100.413 68.9037C99.4625 70.7101 98.6908 72.6049 98.1083 74.561C97.5442 76.5317 97.5442 78.6211 98.1083 80.5918C98.0264 80.6737 97.9292 80.7387 97.8221 80.7831C97.7151 80.8274 97.6004 80.8502 97.4845 80.8502C97.3687 80.8502 97.254 80.8274 97.147 80.7831C97.04 80.7387 96.9427 80.6737 96.8608 80.5918C96.5446 80.2461 96.3542 79.8037 96.3205 79.3364C96.1471 77.6376 96.2572 75.9218 96.6463 74.2591C95.6451 76.031 95.3114 78.0969 94.7552 80.0594C94.199 82.022 93.317 84.0323 91.5769 85.1526C91.2865 82.5904 91.3695 79.9996 91.8232 77.4612C92.2868 75.3292 93.0464 73.2725 94.0798 71.351C95.0593 69.221 96.4406 67.3001 98.148 65.6936C101.104 63.1033 102.335 64.2157 104.226 65.209L104.449 65.2964C104.445 65.2514 104.445 65.2062 104.449 65.1613L104.528 64.7561C109.47 63.6538 114.617 63.8952 119.435 65.4553C122.994 66.6153 123.32 74.275 124.202 70.6359C124.726 68.4349 127.579 70.4452 127.619 70.5087C131.814 78.073 136.256 90.0789 136.462 109.045L123.495 115.235Z" fill="#263238"/>
<path d="M127.587 70.1986C126.991 70.4767 125.29 67.8785 122.263 65.8364C119.236 63.7944 116.248 63.0554 116.296 62.396C116.296 62.094 117.178 61.8556 118.56 61.9987C120.36 62.2452 122.077 62.9116 123.572 63.9441C125.067 64.9765 126.298 66.346 127.166 67.942C127.785 69.1975 127.865 70.0635 127.587 70.1986Z" fill="#455A64"/>
<path d="M108.064 96.6897C107.723 96.0938 108.064 95.3548 107.468 95.5535C106.114 95.9728 104.819 96.5629 103.615 97.3095C103.392 97.5558 103.742 98.0008 103.821 98.1994C103.901 98.398 103.821 98.3027 103.98 98.4457C104.478 98.9979 105.102 99.4206 105.8 99.6773C106.179 99.7874 106.582 99.7811 106.957 99.6593C107.333 99.5374 107.663 99.3057 107.905 98.994C108.119 98.6524 108.245 98.2635 108.273 97.8617C108.3 97.4599 108.229 97.0574 108.064 96.6897Z" fill="#7C4236"/>
<path d="M105.259 99.4546C105.751 99.6036 106.278 99.5896 106.761 99.4149C107.015 99.3468 107.248 99.2169 107.44 99.0366C107.631 98.8563 107.775 98.6314 107.858 98.3819C108.03 97.7342 107.999 97.0493 107.77 96.4193C107.679 96.1454 107.565 95.8796 107.429 95.6248L107.691 95.7122C106.311 96.3793 104.878 96.9321 103.408 97.3649C104.723 96.579 106.099 95.9013 107.524 95.3387L107.691 95.2593L107.786 95.4182C107.934 95.685 108.059 95.9642 108.16 96.2525C108.417 96.9629 108.44 97.7374 108.223 98.4614C108.114 98.7622 107.931 99.0306 107.691 99.2417C107.451 99.4529 107.161 99.5999 106.849 99.6691C106.452 99.7864 106.03 99.7864 105.633 99.6691C105.355 99.6056 105.244 99.4705 105.259 99.4546Z" fill="#263238"/>
<path d="M131.687 119.581C132.648 119.581 141.611 122.084 143.875 128.584C145.719 133.891 150.931 157.021 150.931 157.021H129.478C129.478 157.021 124.988 143.99 125.624 136.776C126.26 129.561 131.687 119.581 131.687 119.581Z" fill="#E0E0E0"/>
<path d="M128.357 184.41L134.221 151.435L131.703 119.501L123.272 118.19C115.144 121.885 107.858 122.545 101.97 118.19L94.1434 119.16C94.1434 119.16 85.9514 119.533 79.1419 127.9C76.6152 130.999 66.1984 147.383 66.1984 147.383L78.2043 154.82C78.5539 162.48 79.3882 175.193 79.3882 175.193L68.5503 217.154C68.5503 217.154 90.1785 224.154 102.78 224.154C120.491 224.154 140.594 214.413 140.594 214.413L128.357 184.41Z" fill="#E0E0E0"/>
<path d="M85.6574 132.978C85.4903 133.322 85.2908 133.649 85.0615 133.955C84.8549 134.257 84.6086 134.63 84.3464 135.083C84.0842 135.536 83.7584 136.021 83.4565 136.601C82.7041 137.935 82.0303 139.312 81.4383 140.725C80.7286 142.455 80.134 144.231 79.6584 146.04C79.2059 147.857 78.8716 149.702 78.6573 151.562C78.4999 153.085 78.4283 154.616 78.4428 156.147C78.4428 156.799 78.4428 157.395 78.4984 157.911C78.554 158.428 78.546 158.88 78.5778 159.238C78.63 159.617 78.6486 160 78.6334 160.382C78.5241 160.017 78.4522 159.642 78.4189 159.262C78.3633 158.896 78.2997 158.467 78.2679 157.927C78.2361 157.387 78.1567 156.815 78.1488 156.155C78.0881 154.612 78.1332 153.067 78.2838 151.531C78.4755 149.656 78.7994 147.798 79.2532 145.969C79.7407 144.141 80.354 142.349 81.0887 140.605C81.7 139.185 82.4061 137.807 83.2022 136.482C83.52 135.909 83.8697 135.425 84.1557 134.988C84.4003 134.608 84.6655 134.242 84.9503 133.891C85.1581 133.566 85.3948 133.26 85.6574 132.978Z" fill="#263238"/>
<path d="M97.576 194.739C96.9643 194.377 96.401 193.94 95.8994 193.436C94.6305 192.288 93.4708 191.024 92.4351 189.662C91.3911 188.303 90.4785 186.847 89.7097 185.316C89.361 184.699 89.0939 184.039 88.9152 183.353C89.3126 183.934 89.6684 184.542 89.9799 185.173C90.8171 186.645 91.7515 188.06 92.7768 189.408C93.8069 190.751 94.9243 192.025 96.1219 193.222C96.6456 193.689 97.1318 194.196 97.576 194.739Z" fill="#263238"/>
<path d="M115.867 184.148C115.875 184.687 115.795 185.224 115.628 185.737C115.013 188.191 114.001 190.529 112.633 192.658C112.381 193.122 112.053 193.541 111.664 193.897C111.56 193.834 112.879 191.847 114.047 189.13C115.215 186.412 115.748 184.116 115.867 184.148Z" fill="#263238"/>
<path d="M107.85 162.71C107.85 162.71 107.643 162.71 107.286 162.71C106.779 162.64 106.28 162.529 105.792 162.377C104.171 161.871 102.666 161.049 101.365 159.958C100.064 158.867 98.992 157.528 98.2116 156.02C97.9766 155.567 97.7825 155.094 97.6315 154.606C97.5542 154.433 97.5111 154.247 97.5044 154.058C97.5759 154.058 97.8381 154.781 98.4737 155.885C100.135 158.769 102.76 160.974 105.887 162.115C107.079 162.504 107.866 162.639 107.85 162.71Z" fill="#263238"/>
<path d="M131.576 155.122C131.432 154.847 131.32 154.556 131.242 154.256C131.051 153.692 130.805 152.865 130.519 151.872C129.947 149.822 129.263 146.954 128.707 143.744C128.151 140.534 127.849 137.602 127.706 135.472C127.634 134.416 127.595 133.549 127.587 132.954C127.548 132.645 127.548 132.333 127.587 132.024C127.662 132.326 127.707 132.635 127.722 132.946C127.785 133.621 127.873 134.463 127.968 135.449C128.183 137.562 128.54 140.478 129.089 143.672C129.637 146.866 130.272 149.735 130.773 151.801C131.003 152.762 131.202 153.581 131.369 154.248C131.476 154.529 131.545 154.823 131.576 155.122Z" fill="#263238"/>
<path d="M77.521 185.205L102.669 195.073V201.509L72.2769 199.674C71.4505 196.487 71.4505 193.143 72.2769 189.956C73.6912 184.831 77.521 185.205 77.521 185.205Z" fill="#FF725E"/>
<path d="M102.669 195.073L128.659 185.205C128.659 185.205 137.106 191.331 135.509 201.017L102.677 201.549L102.669 195.073Z" fill="#FF725E"/>
<path d="M103.392 202.693C106.28 202.693 108.62 200.242 108.62 197.218C108.62 194.195 106.28 191.744 103.392 191.744C100.505 191.744 98.1639 194.195 98.1639 197.218C98.1639 200.242 100.505 202.693 103.392 202.693Z" fill="#FF725E"/>
<path d="M118.974 230.678C118.759 228.135 116.677 226.3 115.263 224.226C113.531 221.691 112.736 218.593 112.188 215.525C111.64 212.458 111.306 209.336 110.361 206.38C109.415 203.424 107.77 200.572 105.212 198.975L105.132 199.451C102.836 203.887 101.547 208.774 101.356 213.765C101.165 218.756 102.077 223.728 104.028 228.326C104.93 230.645 106.355 232.725 108.191 234.404C109.092 235.219 110.174 235.806 111.347 236.117C112.521 236.428 113.752 236.454 114.937 236.192C116.128 235.853 117.171 235.127 117.902 234.128C118.633 233.129 119.01 231.915 118.974 230.678Z" fill="#FF725E"/>
<g opacity="0.3">
<path d="M118.974 230.678C118.759 228.135 116.677 226.3 115.263 224.226C113.531 221.691 112.736 218.593 112.188 215.525C111.64 212.458 111.306 209.336 110.361 206.38C109.415 203.424 107.77 200.572 105.212 198.975L105.132 199.451C102.836 203.887 101.547 208.774 101.356 213.765C101.165 218.756 102.077 223.728 104.028 228.326C104.93 230.645 106.355 232.725 108.191 234.404C109.092 235.219 110.174 235.806 111.347 236.117C112.521 236.428 113.752 236.454 114.937 236.192C116.128 235.853 117.171 235.127 117.902 234.128C118.633 233.129 119.01 231.915 118.974 230.678Z" fill="black"/>
</g>
<path d="M108.39 227.904C107.866 225.664 106.666 223.669 105.792 221.548C102.987 214.723 103.734 206.952 104.536 199.57L99.2286 199.435C94.0798 206.761 92.9277 216.375 93.3012 225.457C93.3806 227.396 93.5395 231.075 94.2705 232.855C95.0015 234.634 96.0265 236.963 97.8381 237.376L97.7348 239.171L102.55 239.108L102.621 237.59C103.599 236.915 105.951 235.016 106.864 234.253C108.589 232.823 108.914 230.145 108.39 227.904Z" fill="#FF725E"/>
<path d="M107.166 193.897C106.522 193.397 105.839 192.948 105.124 192.554C104.344 192.166 103.476 191.985 102.606 192.03C101.547 192.131 100.559 192.604 99.8166 193.365C99.0618 194.122 98.5145 195.06 98.2274 196.09C97.9939 196.944 97.8842 197.827 97.9017 198.712C97.9017 200.23 98.1559 201.159 98.0844 201.175C97.9741 200.976 97.9014 200.758 97.8699 200.532C97.7278 199.937 97.6427 199.331 97.6157 198.72C97.5628 197.806 97.6539 196.889 97.8858 196.003C98.1778 194.898 98.7593 193.891 99.5703 193.087C100.381 192.257 101.465 191.752 102.621 191.664C103.553 191.631 104.477 191.854 105.291 192.308C105.835 192.6 106.335 192.966 106.777 193.397C107.047 193.683 107.182 193.881 107.166 193.897Z" fill="#263238"/>
<path d="M103.877 196.861C103.877 196.932 103.448 196.964 102.82 197.203C102 197.524 101.252 198.004 100.619 198.617C99.9808 199.241 99.3911 199.913 98.8551 200.627C98.4261 201.168 98.148 201.501 98.0606 201.469C97.9732 201.438 98.2115 201.048 98.577 200.46C99.0594 199.676 99.6387 198.955 100.301 198.315C100.966 197.659 101.786 197.18 102.685 196.925C103.064 196.772 103.483 196.749 103.877 196.861Z" fill="#263238"/>
<path d="M105.744 199.848C104.663 198.904 103.695 197.837 102.86 196.67C101.924 195.573 101.124 194.367 100.476 193.079C101.46 194.125 102.368 195.24 103.193 196.416C104.125 197.497 104.977 198.644 105.744 199.848Z" fill="#263238"/>
<path d="M107.492 201.096C107.916 199.914 108.097 198.659 108.025 197.406C107.952 196.153 107.628 194.927 107.071 193.802C107.071 193.802 107.413 194.088 107.739 194.716C108.147 195.547 108.385 196.453 108.438 197.378C108.491 198.303 108.359 199.229 108.048 200.103C107.944 200.473 107.754 200.813 107.492 201.096Z" fill="#263238"/>
<path d="M127.078 118.803L73.3654 182.297L75.7967 185.475L131.703 119.526C131.159 118.853 130.384 118.407 129.53 118.273C128.675 118.14 127.801 118.328 127.078 118.803Z" fill="#455A64"/>
<path d="M144.408 157.291C144.853 157.776 152.052 172.046 151.201 175.948C150.351 179.849 145.941 182.304 144.408 182.304C142.874 182.304 132.537 157.299 132.537 157.299L141.905 152.85L144.408 157.291Z" fill="#C17560"/>
<path d="M137.265 177.267H120.555L117.822 174.859L143.685 140.741L158.98 142.211L161.165 144.213L137.265 177.267Z" fill="#263238"/>
<path d="M160.72 147.351L139.458 176.607L126.387 176.107L124.313 174.112L148.15 144.292L159.409 145.698L160.72 147.351Z" fill="#455A64"/>
<path d="M124.909 174.645L148.516 144.983L159.083 146.088L159.989 147.176L149.191 146.08L126.141 175.733L124.909 174.645Z" fill="#E0E0E0"/>
<path d="M118.417 175.391L144.527 141.519L158.686 142.814L160.148 144.101L145.767 143.029L119.808 176.607L118.417 175.391Z" fill="#E0E0E0"/>
<path d="M145.282 174.12L141.905 173.389C141.905 173.389 141.047 168.209 139.919 167.565C138.79 166.921 129.049 166.929 128.064 168.145C127.078 169.361 127.499 169.853 127.499 169.853C127.499 169.853 124.822 169.242 124.393 172.412C124.393 172.412 121.564 172.825 122.7 175.217C122.7 175.217 119.879 176.679 121.572 178.395C121.429 179.157 121.53 179.944 121.859 180.646C122.188 181.347 122.73 181.928 123.407 182.304C124.97 183.108 126.745 183.405 128.485 183.155L144.376 182.304L145.282 174.12Z" fill="#C17560"/>
<path d="M134.277 171.268C133.831 171.182 133.372 171.182 132.926 171.268C131.829 171.595 130.694 171.777 129.549 171.808C128.882 171.77 128.245 171.513 127.738 171.077C127.531 170.89 127.367 170.66 127.258 170.403C127.148 170.147 127.095 169.87 127.102 169.591C127.098 169.219 127.234 168.859 127.483 168.582C127.666 168.391 127.801 168.352 127.817 168.367C127.537 168.713 127.388 169.146 127.396 169.591C127.408 169.821 127.467 170.046 127.57 170.253C127.672 170.459 127.816 170.642 127.992 170.791C128.448 171.149 129.002 171.36 129.581 171.395C130.69 171.351 131.793 171.213 132.879 170.982C133.8 170.846 134.333 171.228 134.277 171.268Z" fill="#7C4236"/>
<path d="M129.097 176.75C127.2 175.676 125.57 174.188 124.329 172.396C125.178 173.048 125.975 173.766 126.713 174.541C127.563 175.215 128.36 175.953 129.097 176.75Z" fill="#7C4236"/>
<path d="M127.476 180.572C125.204 179.283 123.455 177.24 122.533 174.796C122.645 174.732 123.447 176.258 124.822 177.847C126.196 179.436 127.547 180.437 127.476 180.572Z" fill="#7C4236"/>
<path d="M124.917 182.026C124.091 181.7 123.373 181.15 122.843 180.437C122.206 179.83 121.744 179.061 121.508 178.212C121.62 178.157 122.215 179.134 123.145 180.167C123.767 180.756 124.358 181.377 124.917 182.026Z" fill="#7C4236"/>
<path d="M141.913 173.008C141.995 173.958 141.875 174.915 141.562 175.816C141.248 176.717 140.748 177.542 140.093 178.236C139.99 178.165 140.681 177.116 141.174 175.678C141.667 174.239 141.794 173 141.913 173.008Z" fill="#7C4236"/>
<path d="M147.364 173.818C147.316 173.93 146.108 173.437 144.535 173.27C142.962 173.103 141.667 173.27 141.643 173.183C142.568 172.794 143.587 172.684 144.575 172.865C145.578 172.901 146.548 173.233 147.364 173.818Z" fill="#7C4236"/>
</g>
</g>
<defs>
<filter id="filter0_i_528_9792" x="0" y="0" width="191" height="296" filterUnits="userSpaceOnUse" color-interpolation-filters="sRGB">
<feFlood flood-opacity="0" result="BackgroundImageFix"/>
<feBlend mode="normal" in="SourceGraphic" in2="BackgroundImageFix" result="shape"/>
<feColorMatrix in="SourceAlpha" type="matrix" values="0 0 0 0 0 0 0 0 0 0 0 0 0 0 0 0 0 0 127 0" result="hardAlpha"/>
<feOffset dx="6" dy="6"/>
<feGaussianBlur stdDeviation="7.5"/>
<feComposite in2="hardAlpha" operator="arithmetic" k2="-1" k3="1"/>
<feColorMatrix type="matrix" values="0 0 0 0 0 0 0 0 0 0 0 0 0 0 0 0 0 0 0.25 0"/>
<feBlend mode="normal" in2="shape" result="effect1_innerShadow_528_9792"/>
</filter>
<clipPath id="clip0_528_9792">
<rect width="185" height="290" rx="92.5" fill="white"/>
</clipPath>
</defs>
</svg>
