<svg width="214" height="322" viewBox="0 0 214 322" fill="none" xmlns="http://www.w3.org/2000/svg">
<path d="M75.9763 81.3768C75.9763 81.3768 0.124756 195.231 0 251.209C0 288.433 9.35669 320.123 57.7932 321.23C106.23 322.336 169.356 321.925 169.356 321.925C169.356 321.925 237.629 306.112 205.317 220.911C176.779 145.673 133.021 81.7563 133.021 81.7563L75.9763 81.3768Z" fill="#FF725E"/>
<path d="M163.992 7.9092C163.181 2.343 156.506 -0.092214 150.955 0.00266451C131.493 0.318926 114.744 17.1441 95.2823 16.132C83.0562 15.5311 72.4208 7.94087 61.1927 3.00719C58.5178 1.68547 55.6158 0.901434 52.647 0.698444C51.1582 0.613595 49.6709 0.890807 48.3092 1.50695C46.9475 2.1231 45.7506 3.06037 44.8185 4.24061C42.0739 8.16225 43.7893 13.5703 45.5983 18.0296C54.6119 39.8517 69.5514 61.5156 80.3739 82.5153L136.67 84.8556C136.501 60.8993 144.426 37.6064 159.126 18.8519C161.684 15.626 164.584 11.989 163.992 7.9092Z" fill="#FF725E"/>
<g opacity="0.3">
<path d="M110.596 257.471V269.11H100.335V257.787C91.2267 257.433 82.3988 254.497 74.8535 249.312L80.5611 236.661C86.4179 240.866 93.255 243.45 100.397 244.157V226.794C89.0445 223.947 76.3817 220.026 76.4441 205.161C76.4441 194.124 84.4597 184.731 100.678 183.023V171.48H110.939V182.802C118.256 183.231 125.371 185.398 131.711 189.127L126.502 201.777C121.712 198.92 116.413 197.05 110.908 196.275V213.954C122.292 216.705 134.768 220.627 134.674 235.27C134.643 246.275 126.783 255.574 110.596 257.471ZM100.616 211.487V196.717C95.1887 197.919 93.0054 200.924 93.0054 204.371C93.0054 207.818 96.2179 210 100.709 211.487H100.616ZM118.113 236.63C118.113 232.993 115.181 231 110.783 229.419V243.745C115.898 242.638 118.175 239.95 118.206 236.63H118.113Z" fill="black"/>
</g>
<path d="M77.2864 113.382C77.4755 108.788 78.2084 104.232 79.4695 99.8148C80.2108 95.2732 81.4776 90.836 83.2435 86.5951C83.0544 91.19 82.3213 95.7452 81.0602 100.163C80.325 104.706 79.0581 109.144 77.2864 113.382Z" fill="#263238"/>
<path d="M81.8401 149.088C81.7338 145.851 81.9322 142.61 82.4327 139.411C83.0565 133.465 84.0857 125.274 85.5516 116.26C87.0175 107.247 88.6705 99.1191 89.9492 93.2999C90.4898 90.0658 91.3251 86.8896 92.4443 83.812C92.2398 87.007 91.7809 90.1799 91.072 93.2999C89.9804 99.6251 88.6393 107.563 87.1734 116.292C85.7075 125.021 84.5535 132.927 83.5554 139.348C83.2487 142.637 82.675 145.895 81.8401 149.088Z" fill="#263238"/>
<path d="M121.855 118.601C120.206 113.384 119.077 108.012 118.487 102.566C117.357 97.2106 116.751 91.7551 116.678 86.2788C118.309 91.4956 119.407 96.8687 119.953 102.313C121.124 107.664 121.761 113.121 121.855 118.601Z" fill="#263238"/>
<path d="M76.2883 40.3893C81.4737 45.3185 86.1072 50.8125 90.105 56.7717C94.5197 62.4268 98.3256 68.5443 101.458 75.0199C101.052 75.2729 95.7502 67.3032 88.7951 57.7521C81.8399 48.201 75.9764 40.7055 76.2883 40.3893Z" fill="#263238"/>
<path d="M93.6917 24.7028C94.616 27.1034 95.2953 29.5938 95.719 32.1349C96.9666 37.3532 98.4012 43.4254 100.023 50.1618C101.645 56.8981 103.329 62.8122 104.67 68.0938C105.487 70.5388 106.062 73.0603 106.386 75.6208C105.179 73.346 104.237 70.9368 103.579 68.4417C102.082 63.9191 100.21 57.6256 98.4324 50.5729C96.6547 43.5203 95.3135 37.0686 94.5962 32.3563C93.9955 29.8507 93.6919 27.2813 93.6917 24.7028Z" fill="#263238"/>
<path d="M163.119 271.26C162.931 271.07 164.678 269.584 166.768 266.643C169.502 262.9 171.358 258.573 172.195 253.992C172.925 249.352 172.605 244.605 171.259 240.108C170.198 236.661 169.076 234.669 169.294 234.542C170.734 235.989 171.804 237.769 172.413 239.729C174.195 244.344 174.704 249.365 173.885 254.251C173.066 259.137 170.951 263.706 167.766 267.465C166.542 269.093 164.947 270.395 163.119 271.26Z" fill="#263238"/>
<path d="M39.4541 235.902C39.2981 235.902 37.9882 234.732 36.6471 232.075C34.9323 228.586 34.1271 224.71 34.3079 220.816C34.4185 216.92 35.4908 213.115 37.4268 209.747C38.955 207.217 40.3897 206.047 40.5457 206.174C40.7016 206.3 39.6724 207.786 38.456 210.317C36.8929 213.619 36.012 217.211 35.8671 220.871C35.7223 224.531 36.3168 228.182 37.6139 231.601C38.3475 232.979 38.9632 234.418 39.4541 235.902Z" fill="#263238"/>
<g opacity="0.3">
<path d="M74.4794 87.5755L72.4209 89.0303C77.6086 91.133 83.1459 92.2066 88.7327 92.193C88.1365 104.127 86.866 116.017 84.9276 127.804C89.8555 116.187 94.2324 104.348 98.0582 92.2878C109.922 93.9042 121.997 92.3451 133.083 87.7653C113.566 86.6267 94.0031 86.5634 74.4794 87.5755Z" fill="black"/>
</g>
<path d="M134.75 73.427L71.9679 73.0492C67.8512 73.0245 64.4941 76.3885 64.4697 80.5629L64.4619 81.8912C64.4375 86.0656 67.7549 89.4698 71.8717 89.4945L134.654 89.8723C138.771 89.8971 142.128 86.5331 142.152 82.3587L142.16 81.0304C142.184 76.8559 138.867 73.4518 134.75 73.427Z" fill="#263238"/>
</svg>
