<svg width="1280" height="889" viewBox="0 0 1280 889" fill="none" xmlns="http://www.w3.org/2000/svg">
<path d="M-249.22 1313.07C-232.754 1347.56 -168.505 1406.83 -43.2375 1368.06C82.0297 1329.29 154.357 1387.94 174.862 1422.12C210.901 1458.16 308.518 1509.17 410.67 1424.92C512.822 1340.66 621.623 1387.94 663.255 1422.12C714.518 1469.65 847.614 1531.54 969.899 1398.82C1092.18 1266.09 1212.23 1328.6 1256.97 1376.45" stroke="#57C5B6"/>
<path d="M-239.13 1267.56C-222.664 1302.05 -158.415 1361.33 -33.1477 1322.55C92.1195 1283.78 164.447 1342.44 184.952 1376.61C220.991 1412.65 318.607 1463.67 420.76 1379.41C522.912 1295.15 631.713 1342.44 673.345 1376.61C724.607 1424.15 857.704 1486.03 979.989 1353.31C1102.27 1220.59 1222.32 1283.1 1267.06 1330.94" stroke="#57C5B6"/>
<path d="M-229.04 1222.06C-212.574 1256.54 -148.325 1315.82 -23.0579 1277.05C102.209 1238.27 174.536 1296.93 195.042 1331.11C231.081 1367.14 328.697 1418.16 430.85 1333.9C533.002 1249.64 641.803 1296.93 683.435 1331.11C734.697 1378.64 867.794 1440.53 990.078 1307.8C1112.36 1175.08 1232.41 1237.59 1277.15 1285.44" stroke="#57C5B6"/>
<path d="M-218.951 1176.55C-202.484 1211.03 -138.235 1270.31 -12.968 1231.54C112.299 1192.77 184.626 1251.42 205.131 1285.6C241.171 1321.64 338.787 1372.65 440.94 1288.39C543.092 1204.14 651.893 1251.42 693.525 1285.6C744.787 1333.13 877.884 1395.02 1000.17 1262.3C1122.45 1129.57 1242.5 1192.08 1287.24 1239.93" stroke="#57C5B6"/>
<path d="M-208.861 1131.04C-192.395 1165.53 -128.145 1224.8 -2.87816 1186.03C122.389 1147.26 194.716 1205.91 215.221 1240.09C251.26 1276.13 348.877 1327.14 451.029 1242.89C553.182 1158.63 661.983 1205.91 703.614 1240.09C754.877 1287.62 887.973 1349.51 1010.26 1216.79C1132.54 1084.06 1252.59 1146.57 1297.33 1194.42" stroke="#57C5B6"/>
<path d="M-198.771 1085.53C-182.305 1120.02 -118.056 1179.3 7.21168 1140.52C132.479 1101.75 204.806 1160.41 225.311 1194.58C261.35 1230.62 358.967 1281.64 461.119 1197.38C563.272 1113.12 672.073 1160.41 713.704 1194.58C764.967 1242.12 898.063 1304.01 1020.35 1171.28C1142.63 1038.56 1262.68 1101.07 1307.42 1148.91" stroke="#57C5B6"/>
<path d="M-188.681 1040.03C-172.215 1074.51 -107.966 1133.79 17.3015 1095.02C142.569 1056.24 214.896 1114.9 235.401 1149.08C271.44 1185.11 369.057 1236.13 471.209 1151.87C573.362 1067.61 682.163 1114.9 723.794 1149.08C775.057 1196.61 908.153 1258.5 1030.44 1125.77C1152.72 993.05 1272.77 1055.56 1317.51 1103.4" stroke="#57C5B6"/>
<path d="M-178.581 994.509C-162.115 1028.99 -97.8661 1088.27 27.4011 1049.5C152.668 1010.73 224.995 1069.38 245.501 1103.56C281.54 1139.6 379.156 1190.61 481.309 1106.35C583.461 1022.1 692.262 1069.38 733.894 1103.56C785.156 1151.09 918.253 1212.98 1040.54 1080.26C1162.82 947.534 1282.87 1010.04 1327.61 1057.89" stroke="#57C5B6"/>
<path d="M-168.492 949C-152.025 983.486 -87.7763 1042.76 37.491 1003.99C162.758 965.218 235.085 1023.87 255.59 1058.05C291.63 1094.09 389.246 1145.1 491.399 1060.85C593.551 976.589 702.352 1023.87 743.983 1058.05C795.246 1105.58 928.343 1167.47 1050.63 1034.75C1172.91 902.025 1292.96 964.534 1337.7 1012.38" stroke="#57C5B6"/>
<path d="M-158.404 903.494C-141.938 937.979 -77.6884 997.258 47.5789 958.484C172.846 919.711 245.173 978.368 265.678 1012.54C301.717 1048.58 399.334 1099.6 501.486 1015.34C603.639 931.082 712.44 978.368 754.071 1012.54C805.334 1060.08 938.43 1121.97 1060.72 989.242C1183 856.518 1303.05 919.027 1347.79 966.873" stroke="#57C5B6"/>
<path d="M-148.314 857.987C-131.848 892.472 -67.5985 951.751 57.6687 912.978C182.936 874.204 255.263 932.861 275.768 967.036C311.807 1003.08 409.424 1054.09 511.576 969.832C613.729 885.575 722.53 932.861 764.161 967.036C815.424 1014.57 948.52 1076.46 1070.8 943.735C1193.09 811.011 1313.14 873.521 1357.88 921.366" stroke="#57C5B6"/>
<path d="M-138.224 812.479C-121.758 846.965 -57.5087 906.243 67.7586 867.47C193.026 828.697 265.353 887.353 285.858 921.528C321.897 957.567 419.514 1008.58 521.666 924.324C623.819 840.067 732.62 887.353 774.251 921.528C825.514 969.063 958.61 1030.95 1080.89 898.227C1203.18 765.503 1323.23 828.013 1367.97 875.858" stroke="#57C5B6"/>
<path d="M-128.134 766.972C-111.668 801.458 -47.4188 860.736 77.8484 821.963C203.116 783.19 275.443 841.846 295.948 876.021C331.987 912.061 429.603 963.075 531.756 878.818C633.908 794.56 742.709 841.846 784.341 876.021C835.604 923.556 968.7 985.444 1090.98 852.72C1213.27 719.997 1333.32 782.506 1378.06 830.351" stroke="#57C5B6"/>
<path d="M-118.044 721.463C-101.578 755.949 -37.329 815.227 87.9382 776.454C213.205 737.681 285.533 796.338 306.038 830.513C342.077 866.552 439.693 917.566 541.846 833.309C643.998 749.052 752.799 796.338 794.431 830.513C845.693 878.047 978.79 939.935 1101.07 807.211C1223.36 674.488 1343.41 736.997 1388.15 784.842" stroke="#57C5B6"/>
</svg>
