<svg width="719" height="575" viewBox="0 0 719 575" fill="none" xmlns="http://www.w3.org/2000/svg">
<path d="M771.104 504.919H0V505.304H771.104V504.919Z" fill="#EBEBEB"/>
<path d="M693.84 529.733H642.762V530.119H693.84V529.733Z" fill="#EBEBEB"/>
<path d="M510.81 533.928H497.408V534.313H510.81V533.928Z" fill="#EBEBEB"/>
<path d="M641.219 515.421H611.625V515.807H641.219V515.421Z" fill="#EBEBEB"/>
<path d="M147.512 518.012H80.9041V518.398H147.512V518.012Z" fill="#EBEBEB"/>
<path d="M171.015 518.012H161.253V518.398H171.015V518.012Z" fill="#EBEBEB"/>
<path d="M347.228 524.52H202.754V524.906H347.228V524.52Z" fill="#EBEBEB"/>
<path d="M365.503 436.136H67.7183C65.3855 436.132 63.1496 435.203 61.5015 433.552C59.8534 431.901 58.9277 429.663 58.9277 427.33V8.7289C58.948 6.40945 59.8827 4.19169 61.5286 2.55732C63.1745 0.922947 65.3988 0.00397333 67.7183 0H365.503C367.839 0 370.079 0.927773 371.73 2.57922C373.382 4.23067 374.309 6.47051 374.309 8.80601V427.33C374.309 429.666 373.382 431.906 371.73 433.557C370.079 435.209 367.839 436.136 365.503 436.136ZM67.7183 0.308443C65.4878 0.312528 63.3499 1.20148 61.7741 2.78018C60.1983 4.35888 59.3133 6.49832 59.3133 8.7289V427.33C59.3133 429.561 60.1983 431.7 61.7741 433.279C63.3499 434.858 65.4878 435.747 67.7183 435.751H365.503C367.735 435.747 369.875 434.858 371.453 433.28C373.031 431.702 373.92 429.562 373.924 427.33V8.7289C373.92 6.4969 373.031 4.3575 371.453 2.77924C369.875 1.20098 367.735 0.312519 365.503 0.308443H67.7183Z" fill="#EBEBEB"/>
<path d="M699.099 436.136H401.298C398.964 436.132 396.726 435.203 395.076 433.553C393.425 431.902 392.496 429.665 392.492 427.33V8.7289C392.517 6.40805 393.455 4.1903 395.103 2.55635C396.751 0.922408 398.977 0.00392999 401.298 0H699.099C701.415 0.00802641 703.636 0.928793 705.278 2.56273C706.921 4.19667 707.853 6.41212 707.874 8.7289V427.33C707.874 429.661 706.95 431.896 705.305 433.546C703.661 435.197 701.429 436.128 699.099 436.136ZM401.298 0.308443C399.066 0.312519 396.927 1.20098 395.349 2.77924C393.77 4.3575 392.882 6.4969 392.878 8.7289V427.33C392.882 429.562 393.77 431.702 395.349 433.28C396.927 434.858 399.066 435.747 401.298 435.751H699.099C701.331 435.747 703.47 434.858 705.048 433.28C706.626 431.702 707.515 429.562 707.519 427.33V8.7289C707.515 6.4969 706.626 4.3575 705.048 2.77924C703.47 1.20098 701.331 0.312519 699.099 0.308443H401.298Z" fill="#EBEBEB"/>
<path d="M681.44 502.96V426.899H646.34V356.373H641.389V396.81H627.879V385.629H603.59V346.92H599.086V299.605H595.477V346.056H586.934V414.869H570.725V346.056H541.485V404.244H510.779V333.718H505.829V374.14H492.319V362.959H468.029V324.249H463.526V276.95H459.917V323.401H451.374V392.199H435.18V323.401H405.925V389.963H386.2V351.253H381.697V303.938H378.103V350.39H369.544V419.203H353.351V350.39H324.095V419.203H309.691V426.899H284.476V356.373H279.525V396.81H266.016V385.629H241.726V346.92H237.223V299.605H233.614V346.056H225.779V342.185H196.524V346.056H180.315V342.185H171.771V295.734H168.178V343.049H163.675V381.743H139.369V392.924H125.875V352.502H120.925V423.028H85.824V502.96H681.44Z" fill="#EBEBEB"/>
<path d="M229.067 149.073C250.935 140.015 261.32 114.945 252.262 93.0765C243.204 71.2085 218.133 60.8239 196.265 69.8819C174.397 78.94 164.013 104.011 173.071 125.879C182.129 147.747 207.199 158.131 229.067 149.073Z" fill="#FAFAFA"/>
<path d="M190.447 109.003C190.445 107.842 190.172 106.698 189.65 105.661C189.128 104.624 188.371 103.723 187.44 103.03C186.509 102.336 185.429 101.87 184.285 101.667C183.142 101.465 181.968 101.532 180.855 101.863C181.188 99.6214 181.033 97.3345 180.401 95.1584C179.769 92.9822 178.675 90.9681 177.193 89.2536C175.711 87.5392 173.877 86.1647 171.816 85.2241C169.754 84.2835 167.514 83.7989 165.248 83.8036C164.274 83.802 163.303 83.8949 162.348 84.0812C160.797 81.5273 158.459 79.5464 155.685 78.4366C152.911 77.3267 149.852 77.148 146.967 77.9274C144.083 78.7068 141.53 80.402 139.692 82.7579C137.855 85.1138 136.832 88.0029 136.778 90.9903H136.547C133.177 90.9903 129.945 92.3291 127.561 94.7123C125.178 97.0954 123.839 100.328 123.839 103.698C123.839 107.068 125.178 110.301 127.561 112.684C129.945 115.067 133.177 116.406 136.547 116.406H183.199C185.133 116.358 186.972 115.558 188.325 114.175C189.679 112.793 190.44 110.938 190.447 109.003Z" fill="#F0F0F0"/>
<path d="M659.726 212.223C659.723 211.062 659.45 209.918 658.928 208.881C658.406 207.844 657.65 206.943 656.718 206.25C655.787 205.556 654.707 205.09 653.564 204.887C652.42 204.685 651.246 204.752 650.133 205.083C650.466 202.841 650.311 200.554 649.679 198.378C649.047 196.202 647.953 194.188 646.471 192.474C644.99 190.759 643.155 189.385 641.094 188.444C639.032 187.503 636.792 187.019 634.526 187.024C633.548 187.025 632.573 187.112 631.611 187.286C630.046 184.745 627.698 182.781 624.921 181.689C622.144 180.596 619.088 180.434 616.211 181.227C613.334 182.019 610.792 183.724 608.967 186.085C607.141 188.445 606.131 191.334 606.088 194.318H605.856C602.486 194.318 599.254 195.657 596.87 198.04C594.487 200.423 593.148 203.656 593.148 207.026C593.148 210.396 594.487 213.629 596.87 216.012C599.254 218.395 602.486 219.734 605.856 219.734H652.508C654.455 219.677 656.303 218.859 657.652 217.454C659.002 216.05 659.747 214.171 659.726 212.223Z" fill="#F0F0F0"/>
<path d="M439.082 99.0868C439.075 97.2467 439.5 95.4306 440.322 93.7847C441.145 92.1388 442.343 90.7092 443.82 89.6109C445.296 88.5126 447.01 87.7763 448.823 87.4614C450.636 87.1465 452.497 87.2618 454.257 87.7979C454.084 86.5976 453.997 85.3865 453.995 84.1737C453.991 80.5061 454.795 76.8827 456.352 73.562C457.909 70.2413 460.18 67.3051 463.002 64.963C465.824 62.6209 469.129 60.9305 472.68 60.0126C476.23 59.0947 479.94 58.9717 483.544 59.6526C486 55.6024 489.707 52.4618 494.106 50.7058C498.505 48.9497 503.356 48.6737 507.926 49.9193C512.496 51.165 516.536 53.8647 519.435 57.6102C522.334 61.3556 523.935 65.9433 523.996 70.6794H524.351C529.682 70.6794 534.796 72.7973 538.566 76.5673C542.336 80.3373 544.454 85.4505 544.454 90.7821C544.454 96.1136 542.336 101.227 538.566 104.997C534.796 108.767 529.682 110.885 524.351 110.885H450.541C447.47 110.8 444.553 109.52 442.413 107.316C440.272 105.112 439.077 102.159 439.082 99.0868Z" fill="#F0F0F0"/>
<path d="M221.276 227.429C221.273 225.217 221.789 223.035 222.781 221.058C223.773 219.081 225.213 217.363 226.988 216.043C228.763 214.722 230.822 213.836 233.001 213.454C235.18 213.071 237.418 213.205 239.536 213.843C239.318 212.403 239.21 210.949 239.212 209.494C239.212 201.526 242.377 193.884 248.011 188.25C253.645 182.616 261.286 179.451 269.254 179.451C271.106 179.456 272.954 179.626 274.775 179.96C277.718 175.064 282.179 171.263 287.481 169.135C292.782 167.008 298.633 166.67 304.144 168.173C309.655 169.676 314.525 172.938 318.012 177.462C321.499 181.987 323.413 187.526 323.463 193.239H323.864C327.092 193.157 330.303 193.723 333.309 194.902C336.315 196.081 339.055 197.849 341.367 200.104C343.679 202.358 345.516 205.052 346.771 208.027C348.025 211.003 348.672 214.199 348.672 217.428C348.672 220.657 348.025 223.854 346.771 226.829C345.516 229.804 343.679 232.499 341.367 234.753C339.055 237.007 336.315 238.776 333.309 239.955C330.303 241.134 327.092 241.699 323.864 241.618H235.032C231.343 241.509 227.842 239.966 225.273 237.317C222.704 234.667 221.27 231.12 221.276 227.429Z" fill="#F0F0F0"/>
<path d="M283.92 131.319C283.92 130.092 283.433 128.915 282.565 128.047C281.698 127.18 280.521 126.692 279.294 126.692C278.844 126.687 278.396 126.755 277.968 126.893C278.035 126.418 278.071 125.939 278.075 125.459C278.075 122.857 277.042 120.362 275.203 118.523C273.363 116.684 270.868 115.65 268.267 115.65C267.662 115.652 267.058 115.708 266.463 115.82C265.496 114.23 264.039 112.998 262.31 112.309C260.582 111.621 258.676 111.513 256.882 112.002C255.087 112.491 253.499 113.551 252.359 115.022C251.22 116.492 250.589 118.293 250.563 120.153H250.424C248.33 120.153 246.321 120.985 244.84 122.466C243.36 123.947 242.528 125.955 242.528 128.05C242.528 130.144 243.36 132.152 244.84 133.633C246.321 135.114 248.33 135.946 250.424 135.946H279.433C280.635 135.91 281.777 135.406 282.615 134.542C283.453 133.679 283.921 132.522 283.92 131.319Z" fill="#F0F0F0"/>
<path d="M115.234 271.968C115.234 270.741 115.721 269.564 116.589 268.697C117.457 267.829 118.633 267.342 119.861 267.342C120.314 267.34 120.766 267.403 121.202 267.527C121.127 267.058 121.091 266.583 121.094 266.108C121.094 264.82 121.348 263.544 121.841 262.354C122.334 261.164 123.056 260.083 123.967 259.172C124.878 258.262 125.959 257.539 127.149 257.046C128.339 256.553 129.615 256.3 130.903 256.3C131.508 256.301 132.112 256.358 132.707 256.469C133.674 254.88 135.131 253.647 136.86 252.959C138.588 252.27 140.493 252.162 142.288 252.652C144.083 253.141 145.67 254.201 146.81 255.671C147.95 257.141 148.581 258.942 148.607 260.803H148.746C150.84 260.803 152.849 261.635 154.329 263.115C155.81 264.596 156.642 266.605 156.642 268.699C156.642 270.793 155.81 272.801 154.329 274.282C152.849 275.763 150.84 276.595 148.746 276.595H119.737C118.532 276.563 117.386 276.061 116.545 275.197C115.704 274.333 115.233 273.174 115.234 271.968Z" fill="#F0F0F0"/>
<path d="M549.35 287.082C549.35 285.855 549.837 284.678 550.705 283.81C551.572 282.943 552.749 282.455 553.976 282.455C554.43 282.454 554.882 282.516 555.318 282.64C555.243 282.171 555.206 281.697 555.21 281.222C555.21 278.62 556.243 276.125 558.083 274.286C559.922 272.447 562.417 271.413 565.018 271.413C565.624 271.415 566.228 271.471 566.823 271.583C567.79 269.993 569.247 268.761 570.975 268.072C572.704 267.384 574.609 267.276 576.404 267.765C578.199 268.254 579.786 269.314 580.926 270.785C582.066 272.255 582.697 274.056 582.723 275.916H582.862C584.956 275.916 586.964 276.748 588.445 278.229C589.926 279.71 590.758 281.718 590.758 283.813C590.758 285.907 589.926 287.915 588.445 289.396C586.964 290.877 584.956 291.709 582.862 291.709H553.853C552.647 291.676 551.502 291.175 550.661 290.311C549.82 289.446 549.349 288.288 549.35 287.082Z" fill="#F0F0F0"/>
<path d="M385.552 574.565C550.696 574.565 684.571 566.749 684.571 557.107C684.571 547.465 550.696 539.649 385.552 539.649C220.409 539.649 86.5334 547.465 86.5334 557.107C86.5334 566.749 220.409 574.565 385.552 574.565Z" fill="#D9D9D9"/>
<path d="M599.61 101.832L533.681 202.214L530.782 206.64L525.045 209.293L320.98 304.123L341.136 373.199L345.748 388.991L329.77 402.192L192.097 535.979H78.1746L284.152 364.917L271.675 296.998L268.283 278.507L284.229 271.166L501.711 171.031L572.545 83.4026L553.545 79.6396L613.274 54.8563L610.205 119.459L599.61 101.832Z" fill="#263238"/>
<path opacity="0.6" d="M599.61 101.832L533.681 202.214L530.782 206.64L525.045 209.293L320.98 304.123L341.136 373.199L345.748 388.991L329.77 402.192L192.097 535.979H78.1746L284.152 364.917L271.675 296.998L268.283 278.507L284.229 271.166L501.711 171.031L572.545 83.4026L553.545 79.6396L613.274 54.8563L610.205 119.459L599.61 101.832Z" fill="#FAFAFA"/>
<path d="M565.142 529.733H455.954C454.881 529.733 454.011 530.603 454.011 531.676V556.567C454.011 557.641 454.881 558.511 455.954 558.511H565.142C566.215 558.511 567.085 557.641 567.085 556.567V531.676C567.085 530.603 566.215 529.733 565.142 529.733Z" fill="#159895"/>
<path opacity="0.2" d="M463.541 531.398H459.069V557.107H463.541V531.398Z" fill="black"/>
<path opacity="0.2" d="M473.705 531.275H470.45V556.984H473.705V531.275Z" fill="black"/>
<path opacity="0.2" d="M483.066 531.398H481.431V557.107H483.066V531.398Z" fill="black"/>
<path opacity="0.2" d="M495.681 531.275H494.864V556.984H495.681V531.275Z" fill="black"/>
<path opacity="0.2" d="M557.554 556.984H562.027V531.275H557.554V556.984Z" fill="black"/>
<path opacity="0.2" d="M547.391 557.107H550.645V531.399H547.391V557.107Z" fill="black"/>
<path opacity="0.2" d="M538.046 556.984H539.665V531.275H538.046V556.984Z" fill="black"/>
<path opacity="0.2" d="M525.415 557.107H526.232V531.399H525.415V557.107Z" fill="black"/>
<path opacity="0.2" d="M510.348 557.107H510.749V531.399H510.348V557.107Z" fill="black"/>
<path opacity="0.2" d="M564.063 534.113H457.265C456.905 534.113 456.559 533.97 456.305 533.715C456.05 533.461 455.907 533.116 455.907 532.756C455.911 532.397 456.056 532.054 456.309 531.8C456.563 531.547 456.906 531.403 457.265 531.398H564.063C564.422 531.398 564.768 531.541 565.022 531.796C565.277 532.051 565.42 532.396 565.42 532.756C565.422 532.934 565.388 533.112 565.321 533.277C565.253 533.443 565.153 533.593 565.027 533.72C564.9 533.846 564.75 533.946 564.584 534.014C564.419 534.081 564.241 534.115 564.063 534.113Z" fill="white"/>
<path d="M568.226 501.032H459.038C457.965 501.032 457.095 501.902 457.095 502.976V527.867C457.095 528.94 457.965 529.81 459.038 529.81H568.226C569.3 529.81 570.17 528.94 570.17 527.867V502.976C570.17 501.902 569.3 501.032 568.226 501.032Z" fill="#159895"/>
<path opacity="0.2" d="M466.626 502.698H462.153V528.407H466.626V502.698Z" fill="black"/>
<path opacity="0.2" d="M476.804 502.575H473.55V528.283H476.804V502.575Z" fill="black"/>
<path opacity="0.2" d="M486.15 502.698H484.531V528.407H486.15V502.698Z" fill="black"/>
<path opacity="0.2" d="M498.766 502.575H497.948V528.283H498.766V502.575Z" fill="black"/>
<path opacity="0.2" d="M560.654 528.268H565.126V502.559H560.654V528.268Z" fill="black"/>
<path opacity="0.2" d="M550.475 528.391H553.729V502.683H550.475V528.391Z" fill="black"/>
<path opacity="0.2" d="M541.114 528.268H542.749V502.559H541.114V528.268Z" fill="black"/>
<path opacity="0.2" d="M528.499 528.391H529.316V502.683H528.499V528.391Z" fill="black"/>
<path opacity="0.2" d="M513.432 528.391H513.833V502.683H513.432V528.391Z" fill="black"/>
<path opacity="0.2" d="M567.147 505.412H460.349C459.99 505.408 459.648 505.264 459.394 505.01C459.14 504.757 458.996 504.414 458.992 504.055C458.992 503.695 459.135 503.35 459.389 503.096C459.644 502.841 459.989 502.698 460.349 502.698H567.147C567.326 502.696 567.503 502.73 567.669 502.797C567.834 502.865 567.985 502.964 568.111 503.091C568.238 503.217 568.338 503.368 568.405 503.533C568.472 503.699 568.506 503.876 568.504 504.055C568.504 504.415 568.361 504.76 568.107 505.015C567.852 505.269 567.507 505.412 567.147 505.412Z" fill="white"/>
<path d="M568.226 472.332H459.038C457.965 472.332 457.095 473.202 457.095 474.275V499.166C457.095 500.24 457.965 501.11 459.038 501.11H568.226C569.3 501.11 570.17 500.24 570.17 499.166V474.275C570.17 473.202 569.3 472.332 568.226 472.332Z" fill="#159895"/>
<path opacity="0.2" d="M466.626 473.982H462.153V499.691H466.626V473.982Z" fill="black"/>
<path opacity="0.2" d="M476.804 473.859H473.55V499.567H476.804V473.859Z" fill="black"/>
<path opacity="0.2" d="M486.15 473.982H484.531V499.691H486.15V473.982Z" fill="black"/>
<path opacity="0.2" d="M498.766 473.859H497.948V499.567H498.766V473.859Z" fill="black"/>
<path opacity="0.2" d="M560.654 499.567H565.126V473.859H560.654V499.567Z" fill="black"/>
<path opacity="0.2" d="M550.475 499.691H553.729V473.982H550.475V499.691Z" fill="black"/>
<path opacity="0.2" d="M541.114 499.567H542.749V473.859H541.114V499.567Z" fill="black"/>
<path opacity="0.2" d="M528.499 499.691H529.316V473.982H528.499V499.691Z" fill="black"/>
<path opacity="0.2" d="M513.432 499.691H513.833V473.982H513.432V499.691Z" fill="black"/>
<path opacity="0.2" d="M567.147 476.696H460.349C459.989 476.696 459.644 476.553 459.389 476.299C459.135 476.044 458.992 475.699 458.992 475.339C458.996 474.981 459.14 474.638 459.394 474.384C459.648 474.13 459.99 473.986 460.349 473.982H567.147C567.507 473.982 567.852 474.125 568.107 474.38C568.361 474.634 568.504 474.979 568.504 475.339C568.506 475.518 568.472 475.695 568.405 475.861C568.338 476.027 568.238 476.177 568.111 476.303C567.985 476.43 567.834 476.53 567.669 476.597C567.503 476.665 567.326 476.698 567.147 476.696Z" fill="white"/>
<path d="M565.142 443.616H455.954C454.881 443.616 454.011 444.486 454.011 445.559V470.45C454.011 471.524 454.881 472.394 455.954 472.394H565.142C566.215 472.394 567.085 471.524 567.085 470.45V445.559C567.085 444.486 566.215 443.616 565.142 443.616Z" fill="#159895"/>
<path opacity="0.2" d="M463.541 445.282H459.069V470.99H463.541V445.282Z" fill="black"/>
<path opacity="0.2" d="M473.705 445.158H470.45V470.867H473.705V445.158Z" fill="black"/>
<path opacity="0.2" d="M483.066 445.282H481.431V470.99H483.066V445.282Z" fill="black"/>
<path opacity="0.2" d="M495.681 445.158H494.864V470.867H495.681V445.158Z" fill="black"/>
<path opacity="0.2" d="M557.554 470.851H562.027V445.143H557.554V470.851Z" fill="black"/>
<path opacity="0.2" d="M547.391 470.975H550.645V445.266H547.391V470.975Z" fill="black"/>
<path opacity="0.2" d="M538.046 470.851H539.665V445.143H538.046V470.851Z" fill="black"/>
<path opacity="0.2" d="M525.415 470.975H526.232V445.266H525.415V470.975Z" fill="black"/>
<path opacity="0.2" d="M510.348 470.975H510.749V445.266H510.348V470.975Z" fill="black"/>
<path opacity="0.2" d="M564.063 447.996H457.265C456.906 447.992 456.563 447.848 456.309 447.594C456.056 447.34 455.911 446.997 455.907 446.639C455.907 446.279 456.05 445.934 456.305 445.679C456.559 445.425 456.905 445.282 457.265 445.282H564.063C564.241 445.28 564.419 445.313 564.584 445.381C564.75 445.448 564.9 445.548 565.027 445.675C565.153 445.801 565.253 445.951 565.321 446.117C565.388 446.283 565.422 446.46 565.42 446.639C565.42 446.999 565.277 447.344 565.022 447.598C564.768 447.853 564.422 447.996 564.063 447.996Z" fill="white"/>
<path d="M560.515 414.916H451.327C450.254 414.916 449.384 415.785 449.384 416.859V441.75C449.384 442.823 450.254 443.693 451.327 443.693H560.515C561.588 443.693 562.458 442.823 562.458 441.75V416.859C562.458 415.785 561.588 414.916 560.515 414.916Z" fill="#159895"/>
<path opacity="0.2" d="M458.915 416.566H454.442V442.274H458.915V416.566Z" fill="black"/>
<path opacity="0.2" d="M469.078 416.442H465.824V442.151H469.078V416.442Z" fill="black"/>
<path opacity="0.2" d="M478.423 416.566H476.804V442.274H478.423V416.566Z" fill="black"/>
<path opacity="0.2" d="M491.054 416.442H490.237V442.151H491.054V416.442Z" fill="black"/>
<path opacity="0.2" d="M552.928 442.151H557.4V416.442H552.928V442.151Z" fill="black"/>
<path opacity="0.2" d="M542.749 442.274H546.003V416.566H542.749V442.274Z" fill="black"/>
<path opacity="0.2" d="M533.419 442.151H535.038V416.442H533.419V442.151Z" fill="black"/>
<path opacity="0.2" d="M520.804 442.274H521.621V416.566H520.804V442.274Z" fill="black"/>
<path opacity="0.2" d="M505.721 442.274H506.122V416.566H505.721V442.274Z" fill="black"/>
<path opacity="0.2" d="M559.436 419.28H452.638C452.459 419.282 452.282 419.248 452.116 419.181C451.951 419.113 451.8 419.014 451.674 418.887C451.547 418.761 451.447 418.61 451.38 418.445C451.312 418.279 451.279 418.102 451.281 417.923C451.281 417.563 451.424 417.218 451.678 416.963C451.933 416.709 452.278 416.566 452.638 416.566H559.436C559.796 416.566 560.141 416.709 560.396 416.963C560.65 417.218 560.793 417.563 560.793 417.923C560.795 418.102 560.761 418.279 560.694 418.445C560.626 418.61 560.527 418.761 560.4 418.887C560.274 419.014 560.123 419.113 559.958 419.181C559.792 419.248 559.615 419.282 559.436 419.28Z" fill="white"/>
<path d="M565.142 386.2H455.954C454.881 386.2 454.011 387.07 454.011 388.143V413.034C454.011 414.107 454.881 414.977 455.954 414.977H565.142C566.215 414.977 567.085 414.107 567.085 413.034V388.143C567.085 387.07 566.215 386.2 565.142 386.2Z" fill="#159895"/>
<path opacity="0.2" d="M463.541 387.865H459.069V413.574H463.541V387.865Z" fill="black"/>
<path opacity="0.2" d="M473.705 387.742H470.45V413.45H473.705V387.742Z" fill="black"/>
<path opacity="0.2" d="M483.066 387.865H481.431V413.574H483.066V387.865Z" fill="black"/>
<path opacity="0.2" d="M495.681 387.742H494.864V413.45H495.681V387.742Z" fill="black"/>
<path opacity="0.2" d="M557.554 413.435H562.027V387.726H557.554V413.435Z" fill="black"/>
<path opacity="0.2" d="M547.391 413.558H550.645V387.85H547.391V413.558Z" fill="black"/>
<path opacity="0.2" d="M538.046 413.435H539.665V387.726H538.046V413.435Z" fill="black"/>
<path opacity="0.2" d="M525.415 413.558H526.232V387.85H525.415V413.558Z" fill="black"/>
<path opacity="0.2" d="M510.348 413.558H510.749V387.85H510.348V413.558Z" fill="black"/>
<path opacity="0.2" d="M564.063 390.58H457.265C456.905 390.58 456.559 390.437 456.305 390.182C456.05 389.927 455.907 389.582 455.907 389.222C455.907 388.862 456.05 388.517 456.305 388.263C456.559 388.008 456.905 387.865 457.265 387.865H564.063C564.241 387.863 564.419 387.897 564.584 387.964C564.75 388.032 564.9 388.132 565.027 388.258C565.153 388.385 565.253 388.535 565.321 388.701C565.388 388.866 565.422 389.044 565.42 389.222C565.422 389.401 565.388 389.579 565.321 389.744C565.253 389.91 565.153 390.06 565.027 390.187C564.9 390.313 564.75 390.413 564.584 390.48C564.419 390.548 564.241 390.582 564.063 390.58Z" fill="white"/>
<path d="M565.142 357.499H455.954C454.881 357.499 454.011 358.369 454.011 359.442V384.334C454.011 385.407 454.881 386.277 455.954 386.277H565.142C566.215 386.277 567.085 385.407 567.085 384.334V359.442C567.085 358.369 566.215 357.499 565.142 357.499Z" fill="#159895"/>
<path opacity="0.2" d="M463.541 359.149H459.069V384.858H463.541V359.149Z" fill="black"/>
<path opacity="0.2" d="M473.705 359.026H470.45V384.735H473.705V359.026Z" fill="black"/>
<path opacity="0.2" d="M483.066 359.149H481.431V384.858H483.066V359.149Z" fill="black"/>
<path opacity="0.2" d="M495.681 359.026H494.864V384.735H495.681V359.026Z" fill="black"/>
<path opacity="0.2" d="M557.554 384.735H562.027V359.026H557.554V384.735Z" fill="black"/>
<path opacity="0.2" d="M547.391 384.858H550.645V359.149H547.391V384.858Z" fill="black"/>
<path opacity="0.2" d="M538.046 384.735H539.665V359.026H538.046V384.735Z" fill="black"/>
<path opacity="0.2" d="M525.415 384.858H526.232V359.149H525.415V384.858Z" fill="black"/>
<path opacity="0.2" d="M510.348 384.858H510.749V359.149H510.348V384.858Z" fill="black"/>
<path opacity="0.2" d="M564.063 361.879H457.265C456.903 361.875 456.558 361.729 456.304 361.472C456.05 361.215 455.907 360.868 455.907 360.506C455.911 360.148 456.056 359.805 456.309 359.551C456.563 359.298 456.906 359.153 457.265 359.149H564.063C564.422 359.149 564.768 359.292 565.022 359.547C565.277 359.801 565.42 360.147 565.42 360.506C565.422 360.686 565.388 360.864 565.321 361.031C565.254 361.197 565.154 361.348 565.028 361.476C564.901 361.604 564.751 361.705 564.585 361.774C564.42 361.843 564.242 361.879 564.063 361.879Z" fill="white"/>
<path d="M569.769 328.783H460.58C459.507 328.783 458.637 329.653 458.637 330.726V355.618C458.637 356.691 459.507 357.561 460.58 357.561H569.769C570.842 357.561 571.712 356.691 571.712 355.618V330.726C571.712 329.653 570.842 328.783 569.769 328.783Z" fill="#159895"/>
<path opacity="0.2" d="M468.168 330.449H463.696V356.157H468.168V330.449Z" fill="black"/>
<path opacity="0.2" d="M478.347 330.325H475.093V356.034H478.347V330.325Z" fill="black"/>
<path opacity="0.2" d="M487.708 330.449H486.073V356.157H487.708V330.449Z" fill="black"/>
<path opacity="0.2" d="M500.308 330.325H499.49V356.034H500.308V330.325Z" fill="black"/>
<path opacity="0.2" d="M562.197 356.019H566.669V330.31H562.197V356.019Z" fill="black"/>
<path opacity="0.2" d="M552.018 356.157H555.272V330.449H552.018V356.157Z" fill="black"/>
<path opacity="0.2" d="M542.672 356.019H544.292V330.31H542.672V356.019Z" fill="black"/>
<path opacity="0.2" d="M530.042 356.157H530.859V330.449H530.042V356.157Z" fill="black"/>
<path opacity="0.2" d="M514.989 356.157H515.39V330.449H514.989V356.157Z" fill="black"/>
<path opacity="0.2" d="M568.689 333.117H461.907C461.727 333.119 461.549 333.085 461.383 333.018C461.216 332.951 461.065 332.851 460.937 332.725C460.809 332.599 460.708 332.448 460.639 332.283C460.57 332.117 460.534 331.939 460.534 331.76C460.534 331.58 460.57 331.402 460.639 331.237C460.708 331.071 460.809 330.921 460.937 330.795C461.065 330.668 461.216 330.569 461.383 330.501C461.549 330.434 461.727 330.4 461.907 330.403H568.689C568.869 330.4 569.047 330.434 569.213 330.501C569.38 330.569 569.531 330.668 569.659 330.795C569.787 330.921 569.888 331.071 569.957 331.237C570.026 331.402 570.062 331.58 570.062 331.76C570.062 331.939 570.026 332.117 569.957 332.283C569.888 332.448 569.787 332.599 569.659 332.725C569.531 332.851 569.38 332.951 569.213 333.018C569.047 333.085 568.869 333.119 568.689 333.117Z" fill="white"/>
<path d="M562.058 300.083H452.869C451.796 300.083 450.926 300.953 450.926 302.026V326.917C450.926 327.99 451.796 328.86 452.869 328.86H562.058C563.131 328.86 564.001 327.99 564.001 326.917V302.026C564.001 300.953 563.131 300.083 562.058 300.083Z" fill="#159895"/>
<path opacity="0.2" d="M460.457 301.748H455.985V327.457H460.457V301.748Z" fill="black"/>
<path opacity="0.2" d="M470.62 301.61H467.366V327.318H470.62V301.61Z" fill="black"/>
<path opacity="0.2" d="M479.966 301.748H478.347V327.457H479.966V301.748Z" fill="black"/>
<path opacity="0.2" d="M492.597 301.61H491.779V327.318H492.597V301.61Z" fill="black"/>
<path opacity="0.2" d="M554.47 327.318H558.942V301.61H554.47V327.318Z" fill="black"/>
<path opacity="0.2" d="M544.291 327.442H547.545V301.733H544.291V327.442Z" fill="black"/>
<path opacity="0.2" d="M534.961 327.318H536.581V301.61H534.961V327.318Z" fill="black"/>
<path opacity="0.2" d="M522.33 327.442H523.147V301.733H522.33V327.442Z" fill="black"/>
<path opacity="0.2" d="M507.263 327.442H507.664V301.733H507.263V327.442Z" fill="black"/>
<path opacity="0.2" d="M560.978 304.463H454.18C453.821 304.459 453.479 304.314 453.225 304.061C452.971 303.807 452.827 303.464 452.823 303.105C452.823 302.746 452.966 302.4 453.221 302.146C453.475 301.891 453.82 301.748 454.18 301.748H560.978C561.157 301.746 561.334 301.78 561.5 301.847C561.665 301.915 561.816 302.015 561.942 302.141C562.069 302.268 562.169 302.418 562.236 302.584C562.304 302.749 562.337 302.927 562.335 303.105C562.335 303.465 562.192 303.811 561.938 304.065C561.683 304.32 561.338 304.463 560.978 304.463Z" fill="white"/>
<path d="M558.973 271.367H449.785C448.712 271.367 447.842 272.237 447.842 273.31V298.201C447.842 299.274 448.712 300.144 449.785 300.144H558.973C560.046 300.144 560.916 299.274 560.916 298.201V273.31C560.916 272.237 560.046 271.367 558.973 271.367Z" fill="#159895"/>
<path opacity="0.2" d="M457.373 273.032H452.9V298.741H457.373V273.032Z" fill="black"/>
<path opacity="0.2" d="M467.536 272.909H464.281V298.618H467.536V272.909Z" fill="black"/>
<path opacity="0.2" d="M476.897 273.032H475.262V298.741H476.897V273.032Z" fill="black"/>
<path opacity="0.2" d="M489.512 272.909H488.695V298.618H489.512V272.909Z" fill="black"/>
<path opacity="0.2" d="M551.386 298.602H555.858V272.894H551.386V298.602Z" fill="black"/>
<path opacity="0.2" d="M541.207 298.741H544.461V273.032H541.207V298.741Z" fill="black"/>
<path opacity="0.2" d="M531.861 298.602H533.48V272.894H531.861V298.602Z" fill="black"/>
<path opacity="0.2" d="M519.261 298.741H520.079V273.032H519.261V298.741Z" fill="black"/>
<path opacity="0.2" d="M504.178 298.741H504.579V273.032H504.178V298.741Z" fill="black"/>
<path opacity="0.2" d="M557.894 275.747H451.096C450.917 275.749 450.74 275.715 450.574 275.648C450.408 275.58 450.258 275.48 450.132 275.354C450.005 275.227 449.905 275.077 449.838 274.911C449.77 274.746 449.737 274.568 449.739 274.39C449.737 274.211 449.77 274.033 449.838 273.868C449.905 273.702 450.005 273.552 450.132 273.425C450.258 273.299 450.408 273.199 450.574 273.132C450.74 273.064 450.917 273.03 451.096 273.032H557.894C558.072 273.03 558.25 273.064 558.415 273.132C558.581 273.199 558.731 273.299 558.858 273.425C558.984 273.552 559.084 273.702 559.152 273.868C559.219 274.033 559.253 274.211 559.251 274.39C559.253 274.568 559.219 274.746 559.152 274.911C559.084 275.077 558.984 275.227 558.858 275.354C558.731 275.48 558.581 275.58 558.415 275.648C558.25 275.715 558.072 275.749 557.894 275.747Z" fill="white"/>
<path d="M426.266 529.733H317.078C316.005 529.733 315.135 530.603 315.135 531.676V556.567C315.135 557.641 316.005 558.511 317.078 558.511H426.266C427.339 558.511 428.209 557.641 428.209 556.567V531.676C428.209 530.603 427.339 529.733 426.266 529.733Z" fill="#159895"/>
<path opacity="0.2" d="M324.65 531.398H320.177V557.107H324.65V531.398Z" fill="black"/>
<path opacity="0.2" d="M334.829 531.275H331.575V556.984H334.829V531.275Z" fill="black"/>
<path opacity="0.2" d="M344.174 531.398H342.555V557.107H344.174V531.398Z" fill="black"/>
<path opacity="0.2" d="M356.79 531.275H355.972V556.984H356.79V531.275Z" fill="black"/>
<path opacity="0.2" d="M418.679 556.984H423.151V531.275H418.679V556.984Z" fill="black"/>
<path opacity="0.2" d="M408.5 557.107H411.754V531.399H408.5V557.107Z" fill="black"/>
<path opacity="0.2" d="M399.154 556.984H400.773V531.275H399.154V556.984Z" fill="black"/>
<path opacity="0.2" d="M386.539 557.107H387.356V531.399H386.539V557.107Z" fill="black"/>
<path opacity="0.2" d="M371.472 557.107H371.873V531.399H371.472V557.107Z" fill="black"/>
<path opacity="0.2" d="M425.187 534.113H318.389C318.21 534.115 318.033 534.081 317.867 534.014C317.701 533.946 317.551 533.846 317.424 533.72C317.298 533.593 317.198 533.443 317.131 533.277C317.063 533.112 317.03 532.934 317.032 532.756C317.032 532.396 317.175 532.051 317.429 531.796C317.684 531.541 318.029 531.398 318.389 531.398H425.187C425.545 531.403 425.888 531.547 426.142 531.8C426.395 532.054 426.54 532.397 426.544 532.756C426.544 533.116 426.401 533.461 426.146 533.715C425.892 533.97 425.547 534.113 425.187 534.113Z" fill="white"/>
<path d="M421.624 501.032H312.436C311.363 501.032 310.493 501.902 310.493 502.976V527.867C310.493 528.94 311.363 529.81 312.436 529.81H421.624C422.697 529.81 423.567 528.94 423.567 527.867V502.976C423.567 501.902 422.697 501.032 421.624 501.032Z" fill="#159895"/>
<path opacity="0.2" d="M320.023 502.698H315.551V528.407H320.023V502.698Z" fill="black"/>
<path opacity="0.2" d="M330.202 502.575H326.948V528.283H330.202V502.575Z" fill="black"/>
<path opacity="0.2" d="M339.548 502.698H337.928V528.407H339.548V502.698Z" fill="black"/>
<path opacity="0.2" d="M352.163 502.575H351.346V528.283H352.163V502.575Z" fill="black"/>
<path opacity="0.2" d="M414.052 528.268H418.524V502.559H414.052V528.268Z" fill="black"/>
<path opacity="0.2" d="M403.873 528.391H407.127V502.683H403.873V528.391Z" fill="black"/>
<path opacity="0.2" d="M394.527 528.268H396.147V502.559H394.527V528.268Z" fill="black"/>
<path opacity="0.2" d="M381.897 528.391H382.714V502.683H381.897V528.391Z" fill="black"/>
<path opacity="0.2" d="M366.83 528.391H367.23V502.683H366.83V528.391Z" fill="black"/>
<path opacity="0.2" d="M420.545 505.412H313.747C313.388 505.408 313.045 505.264 312.792 505.01C312.538 504.757 312.394 504.414 312.39 504.055C312.39 503.695 312.533 503.35 312.787 503.096C313.042 502.841 313.387 502.698 313.747 502.698H420.545C420.723 502.696 420.901 502.73 421.067 502.797C421.232 502.865 421.383 502.964 421.509 503.091C421.635 503.217 421.735 503.368 421.803 503.533C421.87 503.699 421.904 503.876 421.902 504.055C421.902 504.415 421.759 504.76 421.504 505.015C421.25 505.269 420.905 505.412 420.545 505.412Z" fill="white"/>
<path d="M426.266 472.332H317.078C316.005 472.332 315.135 473.202 315.135 474.275V499.166C315.135 500.24 316.005 501.11 317.078 501.11H426.266C427.339 501.11 428.209 500.24 428.209 499.166V474.275C428.209 473.202 427.339 472.332 426.266 472.332Z" fill="#159895"/>
<path opacity="0.2" d="M324.65 473.982H320.177V499.691H324.65V473.982Z" fill="black"/>
<path opacity="0.2" d="M334.829 473.859H331.575V499.567H334.829V473.859Z" fill="black"/>
<path opacity="0.2" d="M344.174 473.982H342.555V499.691H344.174V473.982Z" fill="black"/>
<path opacity="0.2" d="M356.79 473.859H355.972V499.567H356.79V473.859Z" fill="black"/>
<path opacity="0.2" d="M418.679 499.567H423.151V473.859H418.679V499.567Z" fill="black"/>
<path opacity="0.2" d="M408.5 499.691H411.754V473.982H408.5V499.691Z" fill="black"/>
<path opacity="0.2" d="M399.154 499.567H400.773V473.859H399.154V499.567Z" fill="black"/>
<path opacity="0.2" d="M386.539 499.691H387.356V473.982H386.539V499.691Z" fill="black"/>
<path opacity="0.2" d="M371.472 499.691H371.873V473.982H371.472V499.691Z" fill="black"/>
<path opacity="0.2" d="M425.187 476.696H318.389C318.21 476.698 318.033 476.665 317.867 476.597C317.701 476.53 317.551 476.43 317.424 476.303C317.298 476.177 317.198 476.027 317.131 475.861C317.063 475.695 317.03 475.518 317.032 475.339C317.032 474.979 317.175 474.634 317.429 474.38C317.684 474.125 318.029 473.982 318.389 473.982H425.187C425.545 473.986 425.888 474.13 426.142 474.384C426.395 474.638 426.54 474.981 426.544 475.339C426.544 475.699 426.401 476.044 426.146 476.299C425.892 476.553 425.547 476.696 425.187 476.696Z" fill="white"/>
<path d="M423.166 443.616H313.978C312.905 443.616 312.035 444.486 312.035 445.559V470.45C312.035 471.524 312.905 472.394 313.978 472.394H423.166C424.24 472.394 425.11 471.524 425.11 470.45V445.559C425.11 444.486 424.24 443.616 423.166 443.616Z" fill="#159895"/>
<path opacity="0.2" d="M321.566 445.282H317.093V470.99H321.566V445.282Z" fill="black"/>
<path opacity="0.2" d="M331.744 445.158H328.49V470.867H331.744V445.158Z" fill="black"/>
<path opacity="0.2" d="M341.09 445.282H339.471V470.99H341.09V445.282Z" fill="black"/>
<path opacity="0.2" d="M353.705 445.158H352.888V470.867H353.705V445.158Z" fill="black"/>
<path opacity="0.2" d="M415.594 470.851H420.067V445.143H415.594V470.851Z" fill="black"/>
<path opacity="0.2" d="M405.416 470.975H408.67V445.266H405.416V470.975Z" fill="black"/>
<path opacity="0.2" d="M396.054 470.851H397.689V445.143H396.054V470.851Z" fill="black"/>
<path opacity="0.2" d="M383.439 470.975H384.256V445.266H383.439V470.975Z" fill="black"/>
<path opacity="0.2" d="M368.387 470.975H368.788V445.266H368.387V470.975Z" fill="black"/>
<path opacity="0.2" d="M422.087 447.996H315.304C314.943 447.996 314.596 447.853 314.339 447.599C314.082 447.345 313.936 447 313.932 446.639C313.932 446.459 313.967 446.281 314.037 446.116C314.106 445.95 314.207 445.8 314.335 445.674C314.462 445.547 314.614 445.448 314.78 445.38C314.947 445.313 315.125 445.28 315.304 445.282H422.087C422.266 445.28 422.445 445.313 422.611 445.38C422.777 445.448 422.929 445.547 423.057 445.674C423.184 445.8 423.286 445.95 423.355 446.116C423.424 446.281 423.459 446.459 423.459 446.639C423.455 447 423.309 447.345 423.052 447.599C422.795 447.853 422.448 447.996 422.087 447.996Z" fill="white"/>
<path d="M423.166 414.916H313.978C312.905 414.916 312.035 415.785 312.035 416.859V441.75C312.035 442.823 312.905 443.693 313.978 443.693H423.166C424.24 443.693 425.11 442.823 425.11 441.75V416.859C425.11 415.785 424.24 414.916 423.166 414.916Z" fill="#159895"/>
<path opacity="0.2" d="M321.566 416.566H317.093V442.274H321.566V416.566Z" fill="black"/>
<path opacity="0.2" d="M331.744 416.442H328.49V442.151H331.744V416.442Z" fill="black"/>
<path opacity="0.2" d="M341.09 416.566H339.471V442.274H341.09V416.566Z" fill="black"/>
<path opacity="0.2" d="M353.705 416.442H352.888V442.151H353.705V416.442Z" fill="black"/>
<path opacity="0.2" d="M415.594 442.151H420.067V416.442H415.594V442.151Z" fill="black"/>
<path opacity="0.2" d="M405.416 442.274H408.67V416.566H405.416V442.274Z" fill="black"/>
<path opacity="0.2" d="M396.054 442.151H397.689V416.442H396.054V442.151Z" fill="black"/>
<path opacity="0.2" d="M383.439 442.274H384.256V416.566H383.439V442.274Z" fill="black"/>
<path opacity="0.2" d="M368.387 442.274H368.788V416.566H368.387V442.274Z" fill="black"/>
<path opacity="0.2" d="M422.087 419.28H315.304C315.125 419.282 314.947 419.248 314.78 419.181C314.614 419.114 314.462 419.014 314.335 418.888C314.207 418.762 314.106 418.611 314.037 418.446C313.967 418.28 313.932 418.102 313.932 417.923C313.936 417.561 314.082 417.216 314.339 416.962C314.596 416.708 314.943 416.566 315.304 416.566H422.087C422.448 416.566 422.795 416.708 423.052 416.962C423.309 417.216 423.455 417.561 423.459 417.923C423.459 418.102 423.424 418.28 423.355 418.446C423.286 418.611 423.184 418.762 423.057 418.888C422.929 419.014 422.777 419.114 422.611 419.181C422.445 419.248 422.266 419.282 422.087 419.28Z" fill="white"/>
<path d="M423.166 386.2H313.978C312.905 386.2 312.035 387.07 312.035 388.143V413.034C312.035 414.107 312.905 414.977 313.978 414.977H423.166C424.24 414.977 425.11 414.107 425.11 413.034V388.143C425.11 387.07 424.24 386.2 423.166 386.2Z" fill="#159895"/>
<path opacity="0.2" d="M321.566 387.865H317.093V413.574H321.566V387.865Z" fill="black"/>
<path opacity="0.2" d="M331.744 387.742H328.49V413.45H331.744V387.742Z" fill="black"/>
<path opacity="0.2" d="M341.09 387.865H339.471V413.574H341.09V387.865Z" fill="black"/>
<path opacity="0.2" d="M353.705 387.742H352.888V413.45H353.705V387.742Z" fill="black"/>
<path opacity="0.2" d="M415.594 413.435H420.067V387.726H415.594V413.435Z" fill="black"/>
<path opacity="0.2" d="M405.416 413.558H408.67V387.85H405.416V413.558Z" fill="black"/>
<path opacity="0.2" d="M396.054 413.435H397.689V387.726H396.054V413.435Z" fill="black"/>
<path opacity="0.2" d="M383.439 413.558H384.256V387.85H383.439V413.558Z" fill="black"/>
<path opacity="0.2" d="M368.387 413.558H368.788V387.85H368.387V413.558Z" fill="black"/>
<path opacity="0.2" d="M422.087 390.58H315.304C315.125 390.582 314.947 390.548 314.78 390.481C314.614 390.413 314.462 390.314 314.335 390.188C314.207 390.061 314.106 389.911 314.037 389.745C313.967 389.58 313.932 389.402 313.932 389.222C313.932 389.043 313.967 388.865 314.037 388.699C314.106 388.534 314.207 388.383 314.335 388.257C314.462 388.131 314.614 388.031 314.78 387.964C314.947 387.897 315.125 387.863 315.304 387.865H422.087C422.266 387.863 422.445 387.897 422.611 387.964C422.777 388.031 422.929 388.131 423.057 388.257C423.184 388.383 423.286 388.534 423.355 388.699C423.424 388.865 423.459 389.043 423.459 389.222C423.459 389.402 423.424 389.58 423.355 389.745C423.286 389.911 423.184 390.061 423.057 390.188C422.929 390.314 422.777 390.413 422.611 390.481C422.445 390.548 422.266 390.582 422.087 390.58Z" fill="white"/>
<path d="M424.508 328.475H315.32C314.246 328.475 313.376 329.345 313.376 330.418V355.309C313.376 356.382 314.246 357.252 315.32 357.252H424.508C425.581 357.252 426.451 356.382 426.451 355.309V330.418C426.451 329.345 425.581 328.475 424.508 328.475Z" fill="#159895"/>
<path opacity="0.2" d="M322.907 330.14H318.435V355.849H322.907V330.14Z" fill="black"/>
<path opacity="0.2" d="M333.086 330.017H329.832V355.726H333.086V330.017Z" fill="black"/>
<path opacity="0.2" d="M342.432 330.14H340.812V355.849H342.432V330.14Z" fill="black"/>
<path opacity="0.2" d="M355.047 330.017H354.229V355.726H355.047V330.017Z" fill="black"/>
<path opacity="0.2" d="M416.936 355.71H421.408V330.002H416.936V355.71Z" fill="black"/>
<path opacity="0.2" d="M406.757 355.849H410.011V330.14H406.757V355.849Z" fill="black"/>
<path opacity="0.2" d="M397.411 355.71H399.031V330.002H397.411V355.71Z" fill="black"/>
<path opacity="0.2" d="M384.781 355.849H385.598V330.14H384.781V355.849Z" fill="black"/>
<path opacity="0.2" d="M369.729 355.849H370.13V330.14H369.729V355.849Z" fill="black"/>
<path opacity="0.2" d="M423.428 332.855H316.646C316.467 332.857 316.288 332.823 316.122 332.756C315.955 332.689 315.804 332.589 315.676 332.463C315.549 332.336 315.447 332.186 315.378 332.02C315.309 331.855 315.273 331.677 315.273 331.498C315.277 331.136 315.424 330.791 315.681 330.537C315.938 330.283 316.285 330.14 316.646 330.14H423.428C423.79 330.14 424.137 330.283 424.394 330.537C424.651 330.791 424.797 331.136 424.801 331.498C424.801 331.677 424.765 331.855 424.696 332.02C424.627 332.186 424.526 332.336 424.398 332.463C424.27 332.589 424.119 332.689 423.953 332.756C423.786 332.823 423.608 332.857 423.428 332.855Z" fill="white"/>
<path d="M426.266 357.499H317.078C316.005 357.499 315.135 358.369 315.135 359.442V384.334C315.135 385.407 316.005 386.277 317.078 386.277H426.266C427.339 386.277 428.209 385.407 428.209 384.334V359.442C428.209 358.369 427.339 357.499 426.266 357.499Z" fill="#159895"/>
<path opacity="0.2" d="M324.65 359.149H320.177V384.858H324.65V359.149Z" fill="black"/>
<path opacity="0.2" d="M334.829 359.026H331.575V384.735H334.829V359.026Z" fill="black"/>
<path opacity="0.2" d="M344.174 359.149H342.555V384.858H344.174V359.149Z" fill="black"/>
<path opacity="0.2" d="M356.79 359.026H355.972V384.735H356.79V359.026Z" fill="black"/>
<path opacity="0.2" d="M418.679 384.735H423.151V359.026H418.679V384.735Z" fill="black"/>
<path opacity="0.2" d="M408.5 384.858H411.754V359.149H408.5V384.858Z" fill="black"/>
<path opacity="0.2" d="M399.154 384.735H400.773V359.026H399.154V384.735Z" fill="black"/>
<path opacity="0.2" d="M386.539 384.858H387.356V359.149H386.539V384.858Z" fill="black"/>
<path opacity="0.2" d="M371.472 384.858H371.873V359.149H371.472V384.858Z" fill="black"/>
<path opacity="0.2" d="M425.187 361.879H318.389C318.209 361.879 318.031 361.843 317.866 361.774C317.7 361.705 317.55 361.604 317.424 361.476C317.297 361.348 317.198 361.197 317.13 361.031C317.063 360.864 317.03 360.686 317.032 360.506C317.032 360.147 317.175 359.801 317.429 359.547C317.684 359.292 318.029 359.149 318.389 359.149H425.187C425.545 359.153 425.888 359.298 426.142 359.551C426.395 359.805 426.54 360.148 426.544 360.506C426.544 360.868 426.401 361.215 426.147 361.472C425.893 361.729 425.548 361.875 425.187 361.879Z" fill="white"/>
<path d="M385.675 310.462L382.221 317.217L378.704 324.08L372.551 321.828L375.635 315.798L379.522 308.21L385.675 310.462Z" fill="#FFC2BC"/>
<path opacity="0.2" d="M385.675 310.462L382.221 317.217L375.635 315.798L379.522 308.21L385.675 310.462Z" fill="black"/>
<path d="M520.063 272.261C519.878 272.263 519.699 272.196 519.559 272.074C519.42 271.951 519.33 271.782 519.308 271.598C519.092 270.056 498.827 118.92 474.368 52.6046C474.318 52.508 474.29 52.402 474.284 52.2935C474.279 52.1851 474.296 52.0767 474.335 51.9755C474.374 51.8742 474.434 51.7824 474.512 51.706C474.589 51.6296 474.681 51.5703 474.783 51.5321C474.884 51.4938 474.993 51.4775 475.101 51.4841C475.21 51.4907 475.315 51.5201 475.412 51.5704C475.508 51.6207 475.592 51.6907 475.66 51.7759C475.727 51.8612 475.775 51.9596 475.802 52.0649C500.338 118.503 520.634 269.886 520.834 271.429C520.861 271.633 520.806 271.839 520.682 272.003C520.558 272.168 520.375 272.277 520.171 272.308L520.063 272.261Z" fill="#263238"/>
<path d="M481.015 267.912L487.569 267.65L488.849 252.444L482.279 252.706L481.015 267.912Z" fill="#FFC2BC"/>
<path d="M488.186 264.18L481.03 263.949C480.899 263.949 480.772 263.991 480.666 264.069C480.561 264.147 480.483 264.256 480.444 264.381L478.902 270.148C478.864 270.288 478.859 270.434 478.886 270.575C478.913 270.717 478.972 270.851 479.058 270.966C479.144 271.082 479.255 271.177 479.383 271.243C479.511 271.31 479.652 271.347 479.796 271.351C482.387 271.351 486.135 271.351 489.389 271.444C493.182 271.567 495.557 271.444 500.061 271.521C502.744 271.598 503.608 268.915 502.482 268.637C497.393 267.357 494.062 267.588 489.743 264.735C489.284 264.412 488.746 264.22 488.186 264.18Z" fill="#263238"/>
<path opacity="0.2" d="M488.849 252.444L488.186 260.278L481.631 260.556L482.279 252.706L488.849 252.444Z" fill="black"/>
<path d="M478.347 212.825C480.012 216.017 480.135 249.483 480.135 257.98H491.471C492.936 249.174 500.184 201.89 489.928 195.135C478.639 187.687 450.016 190.247 450.016 190.247L447.95 186.067L443.816 177.739L420.128 186.607L414.962 188.519L412.833 189.321H412.648C412.648 189.321 412.648 189.553 412.648 189.954C412.726 190.879 412.941 192.745 413.327 195.074C413.774 197.867 414.403 200.628 415.209 203.34C417.398 210.48 421.285 217.22 428.04 214.968C428.333 214.876 428.626 214.752 428.919 214.629C429.474 214.382 430.075 214.151 430.692 213.92C436.107 212.175 441.707 211.072 447.379 210.635C461.691 209.278 477.082 210.357 478.347 212.825Z" fill="#263238"/>
<path d="M491.98 258.967L478.732 259.322L478.655 255.05L493.214 254.449L491.98 258.967Z" fill="#159895"/>
<path d="M379.846 320.779H371.857C371.728 320.78 371.602 320.824 371.501 320.905C371.4 320.987 371.33 321.1 371.302 321.226L369.945 327.041C369.912 327.181 369.912 327.328 369.944 327.469C369.976 327.61 370.04 327.742 370.131 327.855C370.221 327.968 370.336 328.059 370.467 328.121C370.598 328.183 370.741 328.214 370.886 328.213C373.461 328.213 375.343 328.012 378.597 328.012C380.586 328.012 386.585 328.228 389.392 328.228C392.199 328.228 392.477 325.498 391.397 325.252C386.369 324.157 382.576 322.63 380.972 321.18C380.82 321.042 380.642 320.935 380.449 320.866C380.256 320.797 380.051 320.768 379.846 320.779Z" fill="#263238"/>
<path d="M437.987 189.26L436.614 193.994C435.889 196.523 434.887 199.963 433.715 203.957L430.785 213.935C425.788 230.822 419.434 251.904 415.918 261.913C408.916 281.777 385.49 317.109 385.49 317.109L374.217 312.976C374.217 312.976 391.52 279.695 397.195 259.554C401.159 245.489 407.374 220.212 411.461 203.232L413.419 195.089C414.083 192.313 414.622 190.046 414.962 188.458C415.301 186.869 415.579 185.851 415.579 185.851L420.128 186.545L437.987 189.26Z" fill="#263238"/>
<path d="M386.708 317.849L373.445 312.976L374.941 309.028L389.083 313.315L386.708 317.849Z" fill="#159895"/>
<path opacity="0.2" d="M447.996 186.052L437.987 197.726L436.614 193.994L435.072 189.923L433.669 203.957L415.255 203.355L411.415 203.232L413.373 195.089C412.988 192.76 412.772 190.894 412.695 189.969L412.818 189.275L414.946 188.473C415.347 186.808 415.563 185.867 415.563 185.867L420.113 186.561L443.847 177.739L447.996 186.052Z" fill="black"/>
<path opacity="0.2" d="M447.441 210.65C441.11 211.075 434.876 212.42 428.934 214.644C428.641 214.768 428.348 214.891 428.055 214.984L429.397 208.383C429.397 208.383 440.948 207.843 447.441 210.65Z" fill="black"/>
<path d="M361.308 192.39L357.283 197.726L353.875 191.234C353.875 191.234 357.746 186.684 360.044 188.782L361.308 192.39Z" fill="#FFC2BC"/>
<path d="M351.13 200.163L350.127 193.516L353.875 191.157L357.283 197.726L351.13 200.163Z" fill="#FFC2BC"/>
<path d="M362.403 191.897L361.278 192.467L359.612 188.242L361.401 187.378L362.403 191.897Z" fill="white"/>
<path d="M407.297 153.388C406.711 154.416 406.11 155.403 405.493 156.349C403.94 158.878 402.316 161.366 400.619 163.813L399.216 165.834C397.797 167.869 396.301 169.859 394.697 171.848C393.895 172.835 393.078 173.838 392.168 174.825C391.255 175.858 390.282 176.837 389.253 177.755C385.308 181.113 380.968 183.977 376.33 186.283C371.858 188.594 367.218 190.564 362.45 192.174L360.445 187.671C362.45 186.453 364.532 185.204 366.521 183.908C368.511 182.613 370.531 181.333 372.459 179.976C374.386 178.618 376.283 177.246 378.072 175.812C379.831 174.434 381.5 172.945 383.069 171.355C386.03 167.914 388.697 164.23 391.042 160.343C393.618 156.349 396.872 149.347 399.416 145.353L407.297 153.388Z" fill="#263238"/>
<path opacity="0.2" d="M405.493 156.349C403.94 158.878 402.316 161.366 400.619 163.813C400.791 160.57 401.693 157.407 403.257 154.56C404.186 154.881 404.975 155.513 405.493 156.349Z" fill="black"/>
<path d="M493.923 136.778L489.45 140.942L490.083 144.798C491.717 146.957 495.48 144.289 496.359 143.61C496.499 143.508 496.649 143.42 496.807 143.348L499.182 142.392C499.601 142.217 499.95 141.906 500.171 141.509C500.392 141.111 500.473 140.651 500.4 140.202L499.937 137.364C499.895 137.098 499.799 136.843 499.655 136.615C499.511 136.387 499.323 136.19 499.1 136.038C498.878 135.885 498.627 135.779 498.363 135.726C498.099 135.673 497.826 135.674 497.562 135.73L494.894 136.269C494.528 136.341 494.19 136.517 493.923 136.778Z" fill="#FFC2BC"/>
<path d="M488.417 140.973L489.651 140.665L490.36 145.137L488.417 145.6V140.973Z" fill="white"/>
<path d="M489.45 145.631C484.551 146.668 479.582 147.338 474.583 147.635C469.433 148.035 464.253 147.797 459.161 146.926C457.806 146.667 456.467 146.327 455.152 145.908C453.856 145.507 452.653 145.075 451.45 144.628C449.06 143.749 446.824 142.808 444.495 141.775L441.765 140.541C439.699 139.585 437.663 138.598 435.596 137.565C434.054 136.825 432.62 136.023 431.139 135.221L435.103 125.798C439.344 127.926 444.356 130.81 448.613 132.923C452.608 135.07 456.782 136.866 461.089 138.29C463.248 138.861 465.443 139.289 467.659 139.57C469.941 139.894 472.286 140.094 474.614 140.279C476.943 140.464 479.349 140.572 481.724 140.603C484.099 140.634 486.536 140.711 488.88 140.742L489.45 145.631Z" fill="#263238"/>
<path opacity="0.2" d="M441.719 140.541C439.653 139.585 437.617 138.598 435.55 137.565L434.748 133.185C437.834 134.782 440.291 137.374 441.719 140.541Z" fill="black"/>
<path d="M400.789 144.505C403.338 150.775 405.37 157.243 406.865 163.844C407.976 168.471 411.908 173.097 412.587 177.338C413.235 182.016 414.162 186.651 415.363 191.218C420.067 188.689 434.301 185.558 443.847 180.423C444.248 141.991 433.931 127.001 433.931 127.001C431.312 127.667 428.736 128.497 426.22 129.484L424.554 130.178C419.961 132.346 415.483 134.749 411.137 137.38C410.289 137.889 409.441 138.413 408.623 138.922C404.429 141.667 400.789 144.505 400.789 144.505Z" fill="#159895"/>
<path opacity="0.7" d="M400.789 144.505C403.338 150.775 405.37 157.243 406.865 163.844C407.976 168.471 411.908 173.097 412.587 177.338C413.235 182.016 414.162 186.651 415.363 191.218C420.067 188.689 434.301 185.558 443.847 180.423C444.248 141.991 433.931 127.001 433.931 127.001C431.312 127.667 428.736 128.497 426.22 129.484L424.554 130.178C419.961 132.346 415.483 134.749 411.137 137.38C410.289 137.889 409.441 138.413 408.623 138.922C404.429 141.667 400.789 144.505 400.789 144.505Z" fill="white"/>
<path d="M426.066 143.78L426.652 140.217L424.2 140.063L422.704 141.713L426.066 143.78Z" fill="#159895"/>
<path d="M424.199 140.063C419.665 142.592 415.177 139.647 412.278 137.627L411.97 137.411C413.25 135.637 413.373 132.784 412.957 129.916C412.464 126.746 411.616 123.642 410.427 120.662L420.807 126.615C420.807 127.325 420.683 127.957 420.652 128.512C420.514 129.854 420.498 130.764 421.238 131.35C422.389 131.992 423.702 132.286 425.017 132.198C426.204 133.571 427.315 138.321 424.199 140.063Z" fill="#FFC2BC"/>
<path d="M408.685 138.968C408.685 138.968 421.747 152.601 431.309 160.019C431.309 160.019 430.6 135.915 426.282 129.515L435.165 125.798C435.165 125.798 443.708 144.674 444.927 176.197L448.782 184.14L437.987 195.12L434.517 186.977L432.188 200.487L409.919 202.461L412.648 187.039L399.493 145.399L408.685 138.968Z" fill="#263238"/>
<path d="M424.894 143.055C424.894 143.055 427.978 153.573 427.762 159.187L431.741 161.253L432.451 158.169C432.451 158.169 428.95 144.613 425.727 142.238L424.894 143.055Z" fill="#159895"/>
<path d="M409.148 137.842C409.148 137.842 425.464 155.748 431.232 160.019C431.232 160.019 429.551 135.776 425.804 129.684C425.804 129.684 428.379 127.911 433.869 133.262L431.124 138.351L435.998 141.713C435.998 141.713 434.332 159.881 431.124 168.502C431.357 166.681 431.46 164.846 431.433 163.011L412.294 152.401L413.142 146.541L405.909 146.232C405.909 146.232 406.711 139.308 409.148 137.842Z" fill="#263238"/>
<path opacity="0.2" d="M409.148 137.842C409.148 137.842 425.464 155.748 431.232 160.019C431.232 160.019 429.551 135.776 425.804 129.684C425.804 129.684 428.379 127.911 433.869 133.262L431.124 138.351L435.998 141.713C435.998 141.713 434.332 159.881 431.124 168.502C431.357 166.681 431.46 164.846 431.433 163.011L412.294 152.401L413.142 146.541L405.909 146.232C405.909 146.232 406.711 139.308 409.148 137.842Z" fill="white"/>
<path d="M475.586 53.6996C475.586 53.6996 466.333 52.6509 461.166 55.0876C456 57.5243 450.803 65.4667 442.413 66.2224C434.024 66.978 432.343 64.2483 432.343 64.2483C432.343 64.2483 439.73 77.3571 453.933 77.2183C468.137 77.0795 475.524 74.7353 483.899 80.0097C483.929 80.0097 477.483 57.7865 475.586 53.6996Z" fill="#159895"/>
<path opacity="0.2" d="M421.238 131.319C420.375 134.002 418.231 137.796 413.157 137.704C412.865 137.728 412.571 137.728 412.278 137.704L411.97 137.488C413.25 135.714 413.373 132.861 412.957 129.993C415.237 128.517 418.009 128.001 420.668 128.558C420.514 129.823 420.498 130.733 421.238 131.319Z" fill="black"/>
<path d="M424.2 140.063C424.281 141.927 423.883 143.78 423.043 145.446C420.19 145.045 411.662 140.819 411.23 137.287C411.45 136.439 411.91 135.674 412.556 135.082C415.807 137.941 419.887 139.686 424.2 140.063Z" fill="white"/>
<path d="M424.2 140.063C425.787 140.475 427.266 141.228 428.533 142.269C429.335 138.953 426.019 130.98 425.171 130.548C423.788 130.414 422.394 130.648 421.131 131.226C421.131 131.226 425.788 135.575 424.2 140.063Z" fill="white"/>
<path d="M401.36 117.331C401.19 119.968 402.902 124.903 405.863 122.436C408.824 119.968 401.653 112.797 401.36 117.331Z" fill="#263238"/>
<path d="M419.82 116.329C421.732 122.497 423.166 126.075 421.269 130.316C418.401 136.701 409.826 136.686 406.079 131.149C402.717 126.183 400.141 116.868 405.215 112.257C406.337 111.24 407.698 110.524 409.171 110.175C410.644 109.826 412.182 109.857 413.641 110.263C415.099 110.67 416.431 111.439 417.512 112.5C418.592 113.561 419.386 114.878 419.82 116.329Z" fill="#FFC2BC"/>
<path d="M420.807 108.479C420.19 104.438 415.394 105.009 412.587 107.137V115.11C413.67 114.596 414.702 113.981 415.671 113.275C415.671 113.275 416.766 119.243 420.421 120.986C425.079 116.467 425.464 109.497 420.807 108.479Z" fill="#263238"/>
<path d="M424.107 120.508C424.195 122.129 423.641 123.719 422.565 124.934C421.1 126.476 419.218 125.474 418.679 123.485C418.139 121.495 418.355 118.75 420.221 117.902C420.648 117.723 421.114 117.654 421.575 117.699C422.036 117.745 422.479 117.903 422.864 118.162C423.249 118.42 423.563 118.769 423.78 119.178C423.997 119.588 424.11 120.045 424.107 120.508Z" fill="#FFC2BC"/>
<path d="M411.214 121.418C411.399 121.911 411.214 122.405 410.952 122.528C410.69 122.652 410.212 122.343 410.027 121.85C409.842 121.356 410.027 120.863 410.289 120.739C410.551 120.616 411.014 120.924 411.214 121.418Z" fill="#263238"/>
<path d="M405.6 123.469C405.801 123.963 405.678 124.456 405.354 124.579C405.03 124.703 404.613 124.394 404.428 123.901C404.243 123.407 404.351 122.914 404.675 122.791C404.999 122.667 405.4 122.976 405.6 123.469Z" fill="#263238"/>
<path d="M407.467 123.068C407.406 124.751 407.11 126.417 406.588 128.019C407.016 128.126 407.461 128.14 407.895 128.06C408.329 127.98 408.74 127.808 409.102 127.556L407.467 123.068Z" fill="#ED893E"/>
<path d="M412.479 128.481L411.847 128.759C411.808 128.773 411.765 128.771 411.727 128.754C411.69 128.737 411.66 128.705 411.646 128.666C411.632 128.627 411.633 128.585 411.651 128.547C411.668 128.509 411.7 128.48 411.739 128.466C412.359 128.254 412.921 127.9 413.379 127.431C413.837 126.962 414.179 126.392 414.376 125.767C414.379 125.747 414.387 125.727 414.399 125.71C414.41 125.692 414.425 125.677 414.442 125.666C414.459 125.654 414.479 125.646 414.499 125.643C414.52 125.639 414.541 125.639 414.561 125.644C414.581 125.647 414.6 125.655 414.617 125.666C414.634 125.678 414.648 125.693 414.659 125.711C414.669 125.728 414.675 125.748 414.677 125.769C414.679 125.789 414.676 125.809 414.669 125.829C414.504 126.397 414.225 126.925 413.848 127.382C413.472 127.838 413.006 128.212 412.479 128.481Z" fill="#263238"/>
<path d="M412.263 118.981C412.213 119.008 412.157 119.022 412.101 119.022C412.044 119.022 411.989 119.008 411.939 118.981C411.615 118.761 411.243 118.621 410.854 118.572C410.466 118.524 410.071 118.569 409.703 118.704C409.627 118.736 409.542 118.738 409.465 118.707C409.388 118.677 409.327 118.617 409.294 118.542C409.261 118.466 409.26 118.381 409.29 118.304C409.321 118.227 409.38 118.166 409.456 118.133C409.918 117.957 410.415 117.894 410.907 117.951C411.398 118.007 411.868 118.181 412.278 118.457C412.345 118.504 412.392 118.574 412.41 118.655C412.427 118.735 412.413 118.818 412.371 118.889C412.341 118.927 412.305 118.958 412.263 118.981Z" fill="#263238"/>
<path d="M402.516 122.436C402.456 122.458 402.391 122.458 402.331 122.436C402.29 122.432 402.251 122.42 402.215 122.401C402.179 122.382 402.147 122.356 402.121 122.324C402.096 122.293 402.076 122.256 402.065 122.217C402.053 122.178 402.049 122.137 402.053 122.097C402.097 121.601 402.261 121.123 402.529 120.704C402.798 120.285 403.164 119.938 403.596 119.691C403.632 119.672 403.672 119.661 403.712 119.658C403.753 119.655 403.794 119.66 403.833 119.673C403.872 119.686 403.907 119.706 403.938 119.733C403.969 119.76 403.994 119.793 404.012 119.829C404.051 119.901 404.059 119.985 404.036 120.063C404.013 120.141 403.96 120.207 403.889 120.246C403.555 120.446 403.275 120.725 403.073 121.059C402.872 121.392 402.754 121.769 402.732 122.158C402.729 122.221 402.706 122.281 402.668 122.331C402.629 122.38 402.576 122.417 402.516 122.436Z" fill="#263238"/>
<path d="M415.532 113.321C415.532 113.321 411.631 117.347 407.821 117.146C408.849 116.679 409.784 116.031 410.582 115.234C410.582 115.234 403.133 118.457 399.463 116.776C395.792 115.095 396.209 113.275 396.209 113.275C396.209 113.275 396.625 114.339 400.187 114.231C400.187 114.231 397.103 112.211 398.352 109.358C398.53 109.699 398.792 109.99 399.113 110.203C399.434 110.416 399.804 110.544 400.187 110.576C401.396 108.715 403.019 107.159 404.929 106.03C406.84 104.901 408.986 104.229 411.199 104.068C419.203 103.158 420.822 106.32 421.177 108.695C421.532 111.07 415.532 113.321 415.532 113.321Z" fill="#263238"/>
<path d="M287.375 529.733H178.187C177.114 529.733 176.244 530.603 176.244 531.676V556.567C176.244 557.641 177.114 558.51 178.187 558.51H287.375C288.448 558.51 289.318 557.641 289.318 556.567V531.676C289.318 530.603 288.448 529.733 287.375 529.733Z" fill="#159895"/>
<path opacity="0.2" d="M185.774 531.399H181.302V557.107H185.774V531.399Z" fill="black"/>
<path opacity="0.2" d="M195.937 531.275H192.683V556.984H195.937V531.275Z" fill="black"/>
<path opacity="0.2" d="M205.283 531.399H203.664V557.107H205.283V531.399Z" fill="black"/>
<path opacity="0.2" d="M217.898 531.275H217.081V556.984H217.898V531.275Z" fill="black"/>
<path opacity="0.2" d="M279.787 556.984H284.26V531.275H279.787V556.984Z" fill="black"/>
<path opacity="0.2" d="M269.624 557.107H272.878V531.399H269.624V557.107Z" fill="black"/>
<path opacity="0.2" d="M260.263 556.984H261.882V531.275H260.263V556.984Z" fill="black"/>
<path opacity="0.2" d="M247.648 557.107H248.465V531.399H247.648V557.107Z" fill="black"/>
<path opacity="0.2" d="M232.58 557.107H232.981V531.399H232.58V557.107Z" fill="black"/>
<path opacity="0.2" d="M286.296 534.113H179.498C179.319 534.115 179.141 534.081 178.976 534.014C178.81 533.946 178.66 533.846 178.533 533.72C178.407 533.593 178.307 533.443 178.24 533.277C178.172 533.112 178.138 532.934 178.14 532.756C178.14 532.396 178.283 532.051 178.538 531.796C178.792 531.542 179.138 531.399 179.498 531.399H286.296C286.655 531.399 287.001 531.542 287.255 531.796C287.51 532.051 287.653 532.396 287.653 532.756C287.655 532.934 287.621 533.112 287.554 533.277C287.486 533.443 287.386 533.593 287.26 533.72C287.133 533.846 286.983 533.946 286.817 534.014C286.652 534.081 286.474 534.115 286.296 534.113Z" fill="white"/>
<path d="M288.917 501.032H179.729C178.656 501.032 177.786 501.902 177.786 502.976V527.867C177.786 528.94 178.656 529.81 179.729 529.81H288.917C289.991 529.81 290.861 528.94 290.861 527.867V502.976C290.861 501.902 289.991 501.032 288.917 501.032Z" fill="#159895"/>
<path opacity="0.2" d="M187.316 502.698H182.844V528.407H187.316V502.698Z" fill="black"/>
<path opacity="0.2" d="M197.48 502.575H194.226V528.283H197.48V502.575Z" fill="black"/>
<path opacity="0.2" d="M206.825 502.698H205.206V528.407H206.825V502.698Z" fill="black"/>
<path opacity="0.2" d="M219.456 502.575H218.639V528.283H219.456V502.575Z" fill="black"/>
<path opacity="0.2" d="M281.33 528.268H285.802V502.559H281.33V528.268Z" fill="black"/>
<path opacity="0.2" d="M271.151 528.391H274.405V502.683H271.151V528.391Z" fill="black"/>
<path opacity="0.2" d="M261.805 528.268H263.425V502.559H261.805V528.268Z" fill="black"/>
<path opacity="0.2" d="M249.19 528.391H250.007V502.683H249.19V528.391Z" fill="black"/>
<path opacity="0.2" d="M234.123 528.391H234.524V502.683H234.123V528.391Z" fill="black"/>
<path opacity="0.2" d="M287.838 505.412H181.04C180.68 505.412 180.335 505.269 180.08 505.015C179.826 504.76 179.683 504.415 179.683 504.055C179.681 503.876 179.714 503.699 179.782 503.533C179.849 503.368 179.949 503.217 180.076 503.091C180.202 502.964 180.352 502.865 180.518 502.797C180.684 502.73 180.861 502.696 181.04 502.698H287.838C288.017 502.696 288.194 502.73 288.36 502.797C288.525 502.865 288.676 502.964 288.802 503.091C288.928 503.217 289.028 503.368 289.096 503.533C289.163 503.699 289.197 503.876 289.195 504.055C289.195 504.415 289.052 504.76 288.797 505.015C288.543 505.269 288.198 505.412 287.838 505.412Z" fill="white"/>
<path d="M282.748 472.332H173.56C172.487 472.332 171.617 473.202 171.617 474.275V499.166C171.617 500.24 172.487 501.11 173.56 501.11H282.748C283.822 501.11 284.692 500.24 284.692 499.166V474.275C284.692 473.202 283.822 472.332 282.748 472.332Z" fill="#159895"/>
<path opacity="0.2" d="M181.132 473.982H176.66V499.691H181.132V473.982Z" fill="black"/>
<path opacity="0.2" d="M191.311 473.859H188.057V499.567H191.311V473.859Z" fill="black"/>
<path opacity="0.2" d="M200.657 473.982H199.038V499.691H200.657V473.982Z" fill="black"/>
<path opacity="0.2" d="M213.272 473.859H212.455V499.567H213.272V473.859Z" fill="black"/>
<path opacity="0.2" d="M275.145 499.567H279.618V473.859H275.145V499.567Z" fill="black"/>
<path opacity="0.2" d="M264.998 499.691H268.252V473.982H264.998V499.691Z" fill="black"/>
<path opacity="0.2" d="M255.636 499.567H257.256V473.859H255.636V499.567Z" fill="black"/>
<path opacity="0.2" d="M243.021 499.691H243.838V473.982H243.021V499.691Z" fill="black"/>
<path opacity="0.2" d="M227.954 499.691H228.355V473.982H227.954V499.691Z" fill="black"/>
<path opacity="0.2" d="M281.669 476.696H174.871C174.692 476.698 174.515 476.665 174.349 476.597C174.184 476.53 174.033 476.43 173.907 476.303C173.78 476.177 173.68 476.027 173.613 475.861C173.545 475.695 173.512 475.518 173.514 475.339C173.514 474.979 173.657 474.634 173.911 474.38C174.166 474.125 174.511 473.982 174.871 473.982H281.669C282.027 473.986 282.37 474.13 282.624 474.384C282.878 474.638 283.022 474.981 283.026 475.339C283.026 475.699 282.883 476.044 282.628 476.299C282.374 476.553 282.029 476.696 281.669 476.696Z" fill="white"/>
<path d="M221.245 453.301L218.146 460.935L215.801 466.703L209.91 464.605L212.023 459.424L215.354 451.188L221.245 453.301Z" fill="#E4897B"/>
<path d="M347.151 412.433L342.139 416.149L340.304 412.078L336.047 402.67L341.059 398.938L345.084 407.852L347.151 412.433Z" fill="#E4897B"/>
<path opacity="0.2" d="M215.354 451.188L221.245 453.301L218.145 460.935L212.023 459.424L215.354 451.188Z" fill="black"/>
<path opacity="0.2" d="M345.084 407.852L340.304 412.078L336.047 402.67L341.059 398.938L345.084 407.852Z" fill="black"/>
<path d="M265.46 241.941C265.63 242.42 266.015 242.713 266.324 242.605C266.632 242.497 266.756 242.019 266.586 241.541C266.416 241.062 266.031 240.769 265.722 240.877C265.414 240.985 265.26 241.463 265.46 241.941Z" fill="#263238"/>
<path d="M265.969 242.728C267.048 243.978 268.293 245.073 269.671 245.982C269.432 246.332 269.119 246.624 268.753 246.837C268.388 247.05 267.979 247.18 267.558 247.216L265.969 242.728Z" fill="#DE5753"/>
<path d="M262.792 239.921C262.722 239.942 262.647 239.942 262.576 239.921C262.525 239.867 262.497 239.795 262.497 239.721C262.497 239.646 262.525 239.575 262.576 239.52C262.834 239.13 263.181 238.806 263.589 238.575C263.996 238.345 264.453 238.214 264.921 238.194C265 238.198 265.074 238.232 265.129 238.29C265.183 238.347 265.214 238.423 265.214 238.502C265.214 238.542 265.206 238.582 265.19 238.618C265.174 238.655 265.151 238.688 265.122 238.715C265.094 238.743 265.059 238.764 265.022 238.778C264.985 238.791 264.945 238.797 264.905 238.795C264.534 238.811 264.172 238.916 263.85 239.101C263.528 239.286 263.255 239.547 263.055 239.86C263.017 239.887 262.975 239.907 262.93 239.917C262.885 239.928 262.838 239.929 262.792 239.921Z" fill="#263238"/>
<path d="M254.048 249.714C254.125 254.341 253.539 262.761 249.853 265.213C249.853 265.213 250.269 269.994 258.628 271.475C267.881 273.125 263.841 267.696 263.841 267.696C259.045 265.614 259.831 261.913 261.327 258.567L254.048 249.714Z" fill="#E4897B"/>
<path d="M249.267 246.522C251.673 252.228 252.799 255.775 256.809 257.657C262.823 260.587 269.146 255.374 268.421 249.066C267.835 243.376 263.98 235.002 257.441 234.693C256.002 234.62 254.569 234.915 253.276 235.551C251.984 236.188 250.875 237.144 250.057 238.329C249.238 239.514 248.735 240.889 248.597 242.323C248.459 243.757 248.69 245.202 249.267 246.522Z" fill="#E4897B"/>
<path d="M253.339 255.806C256.053 256.901 264.581 250.794 261.667 243.761C261.667 243.761 264.581 239.058 263.533 234.508C262.484 229.959 259.06 228.586 255.822 230.066C252.953 231.362 253.262 232.981 253.262 232.981C253.262 232.981 239.382 236.621 243.176 241.942C238.287 248.974 249.93 254.464 253.339 255.806Z" fill="#263238"/>
<path d="M259.384 245.365C259.995 246.779 261.051 247.954 262.391 248.712C264.18 249.683 265.213 248.326 264.843 246.522C264.473 244.717 263.193 242.435 261.343 242.204C259.492 241.972 258.674 243.669 259.384 245.365Z" fill="#E4897B"/>
<path d="M247.632 265.26C246.985 263.964 246.275 262.484 247.848 262.083C249.421 261.682 260.587 261.034 263.779 262.083C262.731 263.825 264.35 266.046 264.35 266.046L247.632 265.26Z" fill="#159895"/>
<path opacity="0.5" d="M247.632 265.26C246.985 263.964 246.275 262.484 247.848 262.083C249.421 261.682 260.587 261.034 263.779 262.083C262.731 263.825 264.35 266.046 264.35 266.046L247.632 265.26Z" fill="#FAFAFA"/>
<path d="M216.202 464.204H209.385C209.262 464.206 209.142 464.249 209.047 464.328C208.951 464.406 208.886 464.515 208.861 464.636L207.627 470.188C207.594 470.322 207.592 470.462 207.622 470.597C207.652 470.732 207.712 470.858 207.799 470.966C207.885 471.073 207.996 471.159 208.121 471.217C208.247 471.275 208.384 471.303 208.522 471.299C210.974 471.299 214.536 471.114 217.621 471.114C221.245 471.114 224.36 471.314 228.601 471.314C231.177 471.314 231.886 468.723 230.807 468.492C225.918 467.412 221.939 467.304 217.713 464.698C217.264 464.399 216.741 464.229 216.202 464.204Z" fill="#263238"/>
<path d="M260.309 320.394C260.309 320.394 258.366 333.487 256.006 348.539C254.973 354.985 253.863 361.786 252.768 368.079C251.549 375.127 250.362 381.511 249.375 386.015C245.072 405.601 222.232 459.578 222.232 459.578L211.051 457.157C211.051 457.157 227.028 415.162 230.591 387.757C233.351 366.737 238.765 320.378 238.765 320.378L260.309 320.394Z" fill="#263238"/>
<path d="M224.9 455.83L222.818 459.871L210.234 457.141L211.283 453.409L224.9 455.83Z" fill="#159895"/>
<path opacity="0.3" d="M224.9 455.83L222.818 459.871L210.234 457.141L211.283 453.409L224.9 455.83Z" fill="black"/>
<path opacity="0.2" d="M256.006 348.539C254.973 354.985 253.863 361.786 252.768 368.079C249.683 355.633 250.686 348.184 250.686 348.184L256.006 348.539Z" fill="black"/>
<path d="M242.034 276.687C239.027 279.525 235.865 282.532 232.997 285.54C230.098 288.484 227.349 291.572 224.761 294.793C223.657 296.389 222.662 298.059 221.785 299.79C220.829 301.656 219.857 303.553 218.932 305.496L213.272 317.186L208.83 315.644C209.786 311.31 211.005 307.084 212.331 302.843C213.025 300.73 213.765 298.618 214.583 296.505C215.445 294.233 216.503 292.04 217.744 289.95C220.25 286.127 223.067 282.516 226.165 279.155C229.161 275.792 232.353 272.609 235.726 269.624L242.034 276.687Z" fill="#DC897C"/>
<path d="M208.46 327.056L210.727 323.031L203.818 320.933C203.429 321.865 203.238 322.867 203.26 323.877C203.281 324.886 203.513 325.88 203.942 326.794L208.46 327.056Z" fill="#E4897B"/>
<path d="M213.257 317.124L208.831 315.69L203.818 320.933L210.727 323.031L213.257 317.124Z" fill="#E4897B"/>
<path d="M347.074 411.584L341.445 415.764C341.347 415.839 341.277 415.946 341.246 416.066C341.215 416.186 341.225 416.313 341.275 416.427L343.589 421.624C343.643 421.751 343.727 421.864 343.833 421.954C343.938 422.043 344.064 422.107 344.198 422.14C344.333 422.173 344.473 422.174 344.608 422.143C344.743 422.113 344.869 422.051 344.977 421.963C346.92 420.421 347.799 419.65 350.266 417.815C351.809 416.689 355.325 414.206 357.438 412.649C359.551 411.091 358.271 408.793 357.268 409.256C352.78 411.276 350.189 411.492 348.123 411.291C347.749 411.258 347.376 411.362 347.074 411.584Z" fill="#263238"/>
<path d="M239.351 265.846C233.352 265.476 224.499 278.446 224.499 278.446L233.228 290.367C237.059 288.132 240.247 284.945 242.481 281.114C246.63 274.112 245.473 266.231 239.351 265.846Z" fill="#159895"/>
<path opacity="0.6" d="M239.351 265.846C233.352 265.476 224.499 278.446 224.499 278.446L233.228 290.367C237.059 288.132 240.247 284.945 242.481 281.114C246.63 274.112 245.473 266.231 239.351 265.846Z" fill="#FAFAFA"/>
<path opacity="0.2" d="M241.047 277.813C237.115 279.926 234.493 285.123 232.843 289.827L233.228 290.367C237.059 288.132 240.247 284.945 242.482 281.114C242.728 280.713 242.96 280.281 243.176 279.864L241.047 277.813Z" fill="black"/>
<path d="M274.852 264.89C274.852 264.89 278.446 273.927 272.154 320.409H238.765C238.533 315.273 241.757 290.259 236.806 266.108C240.498 265.392 244.233 264.918 247.987 264.689C252.259 264.489 266.494 261.605 270.257 261.959C275.207 262.391 274.852 264.89 274.852 264.89Z" fill="#159895"/>
<path opacity="0.6" d="M275.639 285.385C275.238 293.605 274.236 304.925 272.154 320.394H238.765C238.533 315.258 241.757 290.243 236.806 266.092C240.498 265.376 244.233 264.902 247.987 264.674C252.259 264.473 266.494 261.589 270.257 261.944C275.207 262.391 274.883 264.89 274.883 264.89C274.883 264.89 275.639 266.786 275.839 273.31C275.917 276.286 275.901 280.219 275.639 285.385Z" fill="#FAFAFA"/>
<path d="M270.796 317.695L277.397 333.117C277.397 333.117 309.367 337.127 318.435 348.123C327.503 359.118 344.653 403.735 344.653 403.735L336.109 410.998C336.109 410.998 311.588 365.904 304.725 360.46C297.862 355.016 258.798 355.032 250.069 351.778C241.34 348.523 238.826 320.347 238.826 320.347L270.796 317.695Z" fill="#263238"/>
<path d="M334.289 410.15L344.591 402.254L345.917 404.799L336.047 412.587L334.289 410.15Z" fill="#159895"/>
<path opacity="0.3" d="M334.289 410.15L344.591 402.254L345.917 404.799L336.047 412.587L334.289 410.15Z" fill="black"/>
<path d="M263.718 236.729C263.718 236.729 263.332 227.568 258.489 227.26C253.647 226.951 249.838 231.331 249.838 231.331C249.369 230.746 248.775 230.274 248.1 229.949C247.425 229.623 246.685 229.453 245.936 229.45C243.191 229.295 238.41 233.968 238.41 233.968C238.41 233.968 244.378 230.298 246.892 231.979C246.892 231.979 240.122 233.86 238.41 238.148C237.676 240.326 236.464 242.312 234.863 243.962H238.41L236.081 247.925C236.081 247.925 240.985 252.66 244.687 251.873L243.499 254.125C243.499 254.125 250.763 256.778 253.724 255.96C256.685 255.143 253.878 240.399 253.878 240.399L263.718 236.729Z" fill="#263238"/>
<path opacity="0.2" d="M275.639 285.385C269.578 281.268 269.67 271.783 269.67 271.783L275.839 273.325C275.916 276.286 275.901 280.219 275.639 285.385Z" fill="black"/>
<path d="M219.734 332.207L178.541 325.282L167.885 356.99L174.701 369.374L219.672 375.296L228.787 340.751L219.734 332.207Z" fill="#159895"/>
<path opacity="0.4" d="M167.885 356.99L170.537 361.817L171.139 362.881L174.701 369.374L219.672 375.296L228.787 340.751L224.916 337.111L223.728 335.985L219.749 332.207L178.541 325.282L167.885 356.99Z" fill="black"/>
<path opacity="0.2" d="M228.787 340.751L188.011 334.412L178.542 325.282L219.749 332.207L228.787 340.751Z" fill="white"/>
<path opacity="0.1" d="M188.011 334.412L174.701 369.374L167.885 356.99L178.541 325.282L188.011 334.412Z" fill="white"/>
<path d="M170.537 361.817L171.139 362.881L183.461 330.14L224.916 337.111L223.728 335.985L182.721 329.416L170.537 361.817Z" fill="#263238"/>
<path d="M211.005 334.088L208.923 332.161L198.544 330.279L200.363 332.377L211.005 334.088Z" fill="#263238"/>
<path d="M215.015 334.86C215.015 334.86 215.493 323.972 215.2 323.247C214.907 322.522 200.302 320.162 199.207 319.931C198.112 319.7 193.3 330.31 193.3 330.31L194.133 331.59L196.894 331.96C196.894 331.96 200.394 322.815 200.749 322.584C204.751 323.009 208.726 323.658 212.655 324.527C212.963 324.773 211.761 333.086 211.761 333.086L212.701 334.443L215.015 334.86Z" fill="#263238"/>
<path d="M170.676 352.163L173.761 356.127L174.054 355.34L176.382 349.171L176.66 348.431L177.154 347.105C177.154 347.105 176.274 348.092 175.072 349.217C173.824 350.491 172.328 351.493 170.676 352.163Z" fill="#159895"/>
<path opacity="0.2" d="M171.679 352.456L173.977 355.34L176.305 349.171L176.583 348.431C175.305 350.156 173.62 351.539 171.679 352.456Z" fill="white"/>
<path opacity="0.2" d="M174.994 349.202H176.305L177.076 347.135C177.076 347.135 176.197 348.076 174.994 349.202Z" fill="black"/>
<path d="M169.55 344.406L168.98 349.989C171.285 348.935 173.851 348.592 176.351 349.002L176.645 348.23L178.433 343.434L178.634 342.941C175.53 342.635 172.401 343.14 169.55 344.406Z" fill="#159895"/>
<path d="M175.411 334.937C176.488 337.036 177.906 338.944 179.605 340.581L179.821 339.995L180.377 338.453L181.302 335.908L181.749 334.674L181.872 334.32C181.134 333.189 180.494 331.998 179.96 330.757L175.411 334.937Z" fill="#159895"/>
<path d="M184.849 327.75C185.412 328.631 185.848 329.586 186.145 330.588L186.792 330.696L187.687 330.834L189.121 331.097L190.494 331.328L190.972 331.405C190.947 329.263 190.147 327.203 188.72 325.606L184.849 327.75Z" fill="#159895"/>
<path opacity="0.2" d="M185.713 327.904C186.173 328.793 186.535 329.729 186.792 330.696L187.687 330.834C187.611 330.717 187.562 330.584 187.544 330.445C187.525 330.307 187.537 330.166 187.579 330.032C187.619 329.911 187.683 329.798 187.766 329.701C187.85 329.604 187.952 329.524 188.067 329.467C188.182 329.41 188.307 329.376 188.435 329.367C188.563 329.358 188.691 329.375 188.812 329.416C188.934 329.454 189.046 329.516 189.143 329.598C189.24 329.681 189.319 329.782 189.377 329.895C189.434 330.009 189.468 330.132 189.478 330.259C189.487 330.386 189.47 330.513 189.429 330.634C189.373 330.814 189.266 330.975 189.121 331.097L190.493 331.328C190.412 329.513 189.783 327.766 188.689 326.316L185.713 327.904Z" fill="white"/>
<path opacity="0.2" d="M169.92 344.622L169.566 349.14C171.843 348.375 174.248 348.066 176.644 348.23L178.433 343.434C175.541 343.083 172.607 343.493 169.92 344.622ZM174.871 344.252C175.056 344.187 175.254 344.166 175.448 344.19C175.643 344.215 175.829 344.283 175.993 344.391C176.157 344.498 176.294 344.642 176.394 344.811C176.493 344.98 176.553 345.17 176.567 345.365C176.582 345.561 176.551 345.757 176.478 345.939C176.405 346.121 176.291 346.283 176.145 346.414C175.999 346.545 175.825 346.641 175.636 346.693C175.447 346.746 175.249 346.755 175.056 346.719C174.871 346.783 174.673 346.804 174.479 346.78C174.284 346.756 174.098 346.688 173.934 346.58C173.77 346.472 173.633 346.329 173.533 346.16C173.434 345.991 173.374 345.801 173.36 345.606C173.345 345.41 173.375 345.214 173.449 345.032C173.522 344.85 173.636 344.687 173.782 344.557C173.928 344.426 174.102 344.33 174.291 344.277C174.48 344.224 174.678 344.216 174.871 344.252Z" fill="white"/>
<path opacity="0.2" d="M176.197 335.183C177.211 336.925 178.428 338.54 179.821 339.995L180.377 338.453C180.061 338.325 179.808 338.081 179.67 337.77C179.532 337.459 179.52 337.107 179.636 336.787C179.733 336.47 179.945 336.201 180.231 336.033C180.516 335.864 180.854 335.809 181.179 335.877L181.626 334.644C180.842 333.777 180.207 332.787 179.744 331.713L176.197 335.183Z" fill="white"/>
<path d="M314.194 235.742L316.569 231.778L321.812 236.744C321.195 237.542 320.418 238.203 319.531 238.684C318.645 239.164 317.667 239.454 316.661 239.536L314.194 235.742Z" fill="#E4897B"/>
<path d="M320.24 226.473L323.956 231.701L321.813 236.744L316.569 231.778L320.24 226.473Z" fill="#E4897B"/>
<path d="M273.156 262.73C277.424 261.855 281.644 260.763 285.802 259.461C289.807 258.273 293.651 256.595 297.245 254.464C297.573 254.259 297.887 254.032 298.186 253.786L299.25 252.799C299.99 252.089 300.792 251.256 301.486 250.516C302.951 248.881 304.463 247.2 305.912 245.473C308.889 242.049 311.788 238.487 314.78 235.017L318.682 237.608C316.538 241.787 314.163 245.766 311.649 249.73C310.369 251.688 309.058 253.662 307.609 255.59C306.884 256.546 306.066 257.518 305.295 258.489C304.894 258.967 304.385 259.461 303.938 259.954C303.387 260.501 302.805 261.016 302.196 261.497C298.101 264.434 293.596 266.752 288.825 268.375C284.263 270.025 279.568 271.279 274.79 272.122L273.156 262.73Z" fill="#DC897C"/>
<path d="M271.166 276.209C277.659 281.838 291.925 272.184 291.925 272.184L286.234 258.135C280.999 258.745 275.835 259.855 270.812 261.45C261.79 264.519 266.201 271.922 271.166 276.209Z" fill="#159895"/>
<path opacity="0.6" d="M271.166 276.209C277.659 281.838 291.925 272.184 291.925 272.184L286.234 258.135C280.999 258.745 275.835 259.855 270.812 261.45C261.79 264.519 266.201 271.922 271.166 276.209Z" fill="#FAFAFA"/>
</svg>
