<svg width="1280" height="2557" viewBox="0 0 1280 2557" fill="none" xmlns="http://www.w3.org/2000/svg">
<path d="M-22.3484 644.669C-0.730507 645.883 554.424 593.375 642.5 533.5L758.151 536L1304 561.106V2557H-22.3482L-22.3484 644.669C-23.2031 644.621 -23.2238 644.489 -22.3484 644.27V644.669Z" fill="url(#paint0_linear_551_2107)"/>
<path d="M1332.1 504.919H561V505.304H1332.1V504.919Z" fill="#EBEBEB"/>
<path d="M1254.84 529.733H1203.76V530.118H1254.84V529.733Z" fill="#EBEBEB"/>
<path d="M1071.81 533.928H1058.41V534.313H1071.81V533.928Z" fill="#EBEBEB"/>
<path d="M1202.22 515.421H1172.62V515.807H1202.22V515.421Z" fill="#EBEBEB"/>
<path d="M708.512 518.012H641.904V518.398H708.512V518.012Z" fill="#EBEBEB"/>
<path d="M732.015 518.012H722.253V518.398H732.015V518.012Z" fill="#EBEBEB"/>
<path d="M908.228 524.521H763.754V524.906H908.228V524.521Z" fill="#EBEBEB"/>
<path d="M926.503 436.136H628.718C626.385 436.132 624.15 435.203 622.502 433.552C620.853 431.901 619.928 429.663 619.928 427.33V8.7289C619.948 6.40945 620.883 4.19169 622.529 2.55732C624.175 0.922947 626.399 0.00397333 628.718 0H926.503C928.839 0 931.079 0.927773 932.73 2.57922C934.382 4.23067 935.309 6.47051 935.309 8.80601V427.33C935.309 429.666 934.382 431.906 932.73 433.557C931.079 435.209 928.839 436.136 926.503 436.136ZM628.718 0.308443C626.488 0.312528 624.35 1.20148 622.774 2.78018C621.198 4.35888 620.313 6.49832 620.313 8.7289V427.33C620.313 429.561 621.198 431.7 622.774 433.279C624.35 434.858 626.488 435.747 628.718 435.751H926.503C928.735 435.747 930.875 434.858 932.453 433.28C934.031 431.702 934.92 429.562 934.924 427.33V8.7289C934.92 6.4969 934.031 4.3575 932.453 2.77924C930.875 1.20098 928.735 0.312519 926.503 0.308443H628.718Z" fill="#EBEBEB"/>
<path d="M1260.1 436.136H962.298C959.964 436.132 957.726 435.203 956.076 433.553C954.425 431.902 953.496 429.665 953.492 427.33V8.7289C953.516 6.40805 954.454 4.1903 956.103 2.55635C957.751 0.922408 959.977 0.00392999 962.298 0H1260.1C1262.42 0.00802641 1264.64 0.928793 1266.28 2.56273C1267.92 4.19667 1268.85 6.41212 1268.87 8.7289V427.33C1268.87 429.661 1267.95 431.896 1266.31 433.546C1264.66 435.197 1262.43 436.128 1260.1 436.136ZM962.298 0.308443C960.066 0.312519 957.927 1.20098 956.348 2.77924C954.77 4.3575 953.882 6.4969 953.878 8.7289V427.33C953.882 429.562 954.77 431.702 956.348 433.28C957.927 434.858 960.066 435.747 962.298 435.751H1260.1C1262.33 435.747 1264.47 434.858 1266.05 433.28C1267.63 431.702 1268.51 429.562 1268.52 427.33V8.7289C1268.51 6.4969 1267.63 4.3575 1266.05 2.77924C1264.47 1.20098 1262.33 0.312519 1260.1 0.308443H962.298Z" fill="#EBEBEB"/>
<path d="M1242.44 502.96V426.899H1207.34V356.373H1202.39V396.81H1188.88V385.629H1164.59V346.92H1160.09V299.605H1156.48V346.056H1147.93V414.869H1131.73V346.056H1102.48V404.244H1071.78V333.718H1066.83V374.14H1053.32V362.959H1029.03V324.249H1024.53V276.95H1020.92V323.401H1012.37V392.199H996.18V323.401H966.925V389.963H947.2V351.253H942.697V303.938H939.103V350.39H930.544V419.203H914.351V350.39H885.095V419.203H870.691V426.899H845.476V356.373H840.525V396.81H827.016V385.629H802.726V346.92H798.223V299.605H794.614V346.056H786.779V342.185H757.524V346.056H741.315V342.185H732.771V295.734H729.178V343.049H724.675V381.743H700.369V392.924H686.875V352.502H681.925V423.028H646.824V502.96H1242.44Z" fill="#EBEBEB"/>
<path d="M790.067 149.073C811.935 140.015 822.32 114.945 813.262 93.0767C804.204 71.2087 779.133 60.8241 757.265 69.8822C735.397 78.9402 725.013 104.011 734.071 125.879C743.129 147.747 768.199 158.131 790.067 149.073Z" fill="#FAFAFA"/>
<path d="M751.447 109.003C751.445 107.842 751.172 106.698 750.65 105.661C750.128 104.624 749.371 103.723 748.44 103.03C747.509 102.337 746.428 101.87 745.285 101.668C744.142 101.465 742.967 101.532 741.855 101.863C742.188 99.6215 742.033 97.3346 741.401 95.1585C740.769 92.9824 739.675 90.9683 738.193 89.2538C736.711 87.5393 734.877 86.1648 732.815 85.2242C730.754 84.2836 728.514 83.7991 726.248 83.8037C725.274 83.8021 724.303 83.8951 723.348 84.0813C721.797 81.5275 719.459 79.5465 716.685 78.4367C713.911 77.3268 710.851 77.1482 707.967 77.9275C705.083 78.7069 702.53 80.4021 700.692 82.7581C698.854 85.114 697.832 88.0031 697.778 90.9904H697.547C694.177 90.9904 690.944 92.3292 688.561 94.7124C686.178 97.0956 684.839 100.328 684.839 103.698C684.839 107.068 686.178 110.301 688.561 112.684C690.944 115.067 694.177 116.406 697.547 116.406H744.199C746.133 116.358 747.972 115.558 749.325 114.175C750.678 112.793 751.44 110.938 751.447 109.003Z" fill="#F0F0F0"/>
<path d="M1220.73 212.223C1220.72 211.062 1220.45 209.918 1219.93 208.881C1219.41 207.844 1218.65 206.943 1217.72 206.25C1216.79 205.556 1215.71 205.09 1214.56 204.887C1213.42 204.685 1212.25 204.752 1211.13 205.083C1211.47 202.841 1211.31 200.554 1210.68 198.378C1210.05 196.202 1208.95 194.188 1207.47 192.474C1205.99 190.759 1204.16 189.385 1202.09 188.444C1200.03 187.503 1197.79 187.019 1195.53 187.024C1194.55 187.024 1193.57 187.112 1192.61 187.286C1191.05 184.745 1188.7 182.781 1185.92 181.689C1183.14 180.596 1180.09 180.434 1177.21 181.227C1174.33 182.019 1171.79 183.724 1169.97 186.085C1168.14 188.445 1167.13 191.334 1167.09 194.318H1166.86C1163.49 194.318 1160.25 195.657 1157.87 198.04C1155.49 200.423 1154.15 203.656 1154.15 207.026C1154.15 210.396 1155.49 213.629 1157.87 216.012C1160.25 218.395 1163.49 219.734 1166.86 219.734H1213.51C1215.46 219.677 1217.3 218.859 1218.65 217.454C1220 216.049 1220.75 214.171 1220.73 212.223Z" fill="#F0F0F0"/>
<path d="M1000.08 99.087C1000.07 97.2469 1000.5 95.4308 1001.32 93.7849C1002.15 92.139 1003.34 90.7093 1004.82 89.611C1006.3 88.5127 1008.01 87.7765 1009.82 87.4616C1011.64 87.1467 1013.5 87.2619 1015.26 87.7981C1015.08 86.5978 1015 85.3866 1015 84.1739C1014.99 80.5063 1015.8 76.8829 1017.35 73.5622C1018.91 70.2415 1021.18 67.3053 1024 64.9632C1026.82 62.6211 1030.13 60.9307 1033.68 60.0128C1037.23 59.0948 1040.94 58.9719 1044.54 59.6528C1047 55.6026 1050.71 52.462 1055.11 50.706C1059.51 48.9499 1064.36 48.6738 1068.93 49.9195C1073.5 51.1652 1077.54 53.8648 1080.44 57.6103C1083.33 61.3558 1084.94 65.9434 1085 70.6796H1085.35C1090.68 70.6796 1095.8 72.7975 1099.57 76.5675C1103.34 80.3375 1105.45 85.4507 1105.45 90.7822C1105.45 96.1138 1103.34 101.227 1099.57 104.997C1095.8 108.767 1090.68 110.885 1085.35 110.885H1011.54C1008.47 110.8 1005.55 109.52 1003.41 107.316C1001.27 105.112 1000.08 102.159 1000.08 99.087Z" fill="#F0F0F0"/>
<path d="M782.276 227.43C782.273 225.218 782.789 223.036 783.781 221.058C784.773 219.081 786.213 217.364 787.988 216.043C789.763 214.723 791.822 213.836 794.001 213.454C796.18 213.072 798.418 213.205 800.536 213.843C800.318 212.403 800.21 210.949 800.212 209.494C800.212 201.526 803.377 193.885 809.011 188.251C814.645 182.617 822.286 179.452 830.254 179.452C832.106 179.456 833.954 179.626 835.775 179.96C838.718 175.064 843.179 171.263 848.481 169.136C853.782 167.008 859.633 166.67 865.144 168.173C870.655 169.676 875.525 172.938 879.012 177.462C882.499 181.987 884.413 187.527 884.463 193.239H884.864C888.092 193.157 891.303 193.723 894.309 194.902C897.315 196.081 900.055 197.849 902.367 200.104C904.679 202.358 906.516 205.052 907.771 208.028C909.025 211.003 909.672 214.199 909.672 217.428C909.672 220.657 909.025 223.854 907.771 226.829C906.516 229.805 904.679 232.499 902.367 234.753C900.055 237.007 897.315 238.776 894.309 239.955C891.303 241.134 888.092 241.699 884.864 241.618H796.032C792.343 241.51 788.842 239.966 786.273 237.317C783.704 234.667 782.27 231.12 782.276 227.43Z" fill="#F0F0F0"/>
<path d="M844.92 131.319C844.92 130.092 844.433 128.915 843.565 128.047C842.698 127.18 841.521 126.692 840.294 126.692C839.844 126.687 839.396 126.755 838.968 126.893C839.035 126.417 839.071 125.938 839.075 125.458C839.075 122.857 838.042 120.362 836.203 118.523C834.363 116.683 831.868 115.65 829.267 115.65C828.662 115.651 828.058 115.708 827.463 115.82C826.496 114.23 825.039 112.998 823.31 112.309C821.582 111.621 819.676 111.513 817.882 112.002C816.087 112.491 814.499 113.551 813.359 115.021C812.22 116.492 811.589 118.293 811.563 120.153H811.424C809.33 120.153 807.321 120.985 805.84 122.466C804.36 123.947 803.528 125.955 803.528 128.049C803.528 130.143 804.36 132.152 805.84 133.633C807.321 135.113 809.33 135.945 811.424 135.945H840.433C841.635 135.909 842.777 135.406 843.615 134.542C844.453 133.678 844.921 132.522 844.92 131.319Z" fill="#F0F0F0"/>
<path d="M676.234 271.968C676.234 270.741 676.721 269.564 677.589 268.697C678.457 267.829 679.633 267.342 680.861 267.342C681.314 267.34 681.766 267.403 682.202 267.527C682.127 267.058 682.091 266.583 682.094 266.108C682.094 264.82 682.348 263.544 682.841 262.354C683.334 261.164 684.056 260.083 684.967 259.172C685.878 258.261 686.959 257.539 688.149 257.046C689.339 256.553 690.615 256.299 691.903 256.299C692.508 256.301 693.112 256.358 693.707 256.469C694.674 254.879 696.131 253.647 697.86 252.959C699.588 252.27 701.493 252.162 703.288 252.651C705.083 253.141 706.67 254.2 707.81 255.671C708.95 257.141 709.581 258.942 709.607 260.803H709.746C711.84 260.803 713.849 261.635 715.329 263.115C716.81 264.596 717.642 266.605 717.642 268.699C717.642 270.793 716.81 272.801 715.329 274.282C713.849 275.763 711.84 276.595 709.746 276.595H680.737C679.532 276.563 678.386 276.061 677.545 275.197C676.704 274.333 676.233 273.174 676.234 271.968Z" fill="#F0F0F0"/>
<path d="M1110.35 287.082C1110.35 285.855 1110.84 284.678 1111.7 283.81C1112.57 282.943 1113.75 282.455 1114.98 282.455C1115.43 282.454 1115.88 282.516 1116.32 282.64C1116.24 282.171 1116.21 281.697 1116.21 281.222C1116.21 278.62 1117.24 276.125 1119.08 274.286C1120.92 272.447 1123.42 271.413 1126.02 271.413C1126.62 271.415 1127.23 271.471 1127.82 271.583C1128.79 269.993 1130.25 268.761 1131.98 268.072C1133.7 267.384 1135.61 267.276 1137.4 267.765C1139.2 268.254 1140.79 269.314 1141.93 270.785C1143.07 272.255 1143.7 274.056 1143.72 275.916H1143.86C1145.96 275.916 1147.96 276.748 1149.45 278.229C1150.93 279.71 1151.76 281.718 1151.76 283.812C1151.76 285.907 1150.93 287.915 1149.45 289.396C1147.96 290.877 1145.96 291.709 1143.86 291.709H1114.85C1113.65 291.676 1112.5 291.175 1111.66 290.311C1110.82 289.446 1110.35 288.288 1110.35 287.082Z" fill="#F0F0F0"/>
<path d="M946.552 574.565C1111.7 574.565 1245.57 566.749 1245.57 557.107C1245.57 547.465 1111.7 539.649 946.552 539.649C781.409 539.649 647.533 547.465 647.533 557.107C647.533 566.749 781.409 574.565 946.552 574.565Z" fill="#D9D9D9"/>
<path d="M1160.61 101.832L1094.68 202.214L1091.78 206.641L1086.04 209.293L881.98 304.124L902.136 373.199L906.748 388.991L890.77 402.192L753.097 535.979H639.175L845.152 364.917L832.675 296.999L829.283 278.507L845.229 271.167L1062.71 171.031L1133.54 83.4027L1114.54 79.6397L1174.27 54.8564L1171.21 119.46L1160.61 101.832Z" fill="#263238"/>
<path d="M1160.61 101.832L1094.68 202.214L1091.78 206.641L1086.04 209.293L881.98 304.124L902.136 373.199L906.748 388.991L890.77 402.192L753.097 535.979H639.175L845.152 364.917L832.675 296.999L829.283 278.507L845.229 271.167L1062.71 171.031L1133.54 83.4027L1114.54 79.6397L1174.27 54.8564L1171.21 119.46L1160.61 101.832Z" fill="#98A8AA"/>
<path d="M1126.14 529.732H1016.95C1015.88 529.732 1015.01 530.602 1015.01 531.676V556.567C1015.01 557.64 1015.88 558.51 1016.95 558.51H1126.14C1127.22 558.51 1128.09 557.64 1128.09 556.567V531.676C1128.09 530.602 1127.22 529.732 1126.14 529.732Z" fill="#159895"/>
<path opacity="0.2" d="M1024.54 531.398H1020.07V557.107H1024.54V531.398Z" fill="black"/>
<path opacity="0.2" d="M1034.7 531.275H1031.45V556.984H1034.7V531.275Z" fill="black"/>
<path opacity="0.2" d="M1044.07 531.398H1042.43V557.107H1044.07V531.398Z" fill="black"/>
<path opacity="0.2" d="M1056.68 531.275H1055.86V556.984H1056.68V531.275Z" fill="black"/>
<path opacity="0.2" d="M1118.55 556.983H1123.03V531.275H1118.55V556.983Z" fill="black"/>
<path opacity="0.2" d="M1108.39 557.107H1111.65V531.398H1108.39V557.107Z" fill="black"/>
<path opacity="0.2" d="M1099.05 556.983H1100.66V531.275H1099.05V556.983Z" fill="black"/>
<path opacity="0.2" d="M1086.41 557.107H1087.23V531.398H1086.41V557.107Z" fill="black"/>
<path opacity="0.2" d="M1071.35 557.107H1071.75V531.398H1071.35V557.107Z" fill="black"/>
<path opacity="0.2" d="M1125.06 534.113H1018.26C1017.9 534.113 1017.56 533.97 1017.3 533.715C1017.05 533.461 1016.91 533.116 1016.91 532.756C1016.91 532.397 1017.06 532.054 1017.31 531.8C1017.56 531.547 1017.91 531.402 1018.26 531.398H1125.06C1125.42 531.398 1125.77 531.541 1126.02 531.796C1126.28 532.05 1126.42 532.396 1126.42 532.756C1126.42 532.934 1126.39 533.112 1126.32 533.277C1126.25 533.443 1126.15 533.593 1126.03 533.72C1125.9 533.846 1125.75 533.946 1125.58 534.014C1125.42 534.081 1125.24 534.115 1125.06 534.113Z" fill="white"/>
<path d="M1129.23 501.032H1020.04C1018.97 501.032 1018.1 501.902 1018.1 502.975V527.867C1018.1 528.94 1018.97 529.81 1020.04 529.81H1129.23C1130.3 529.81 1131.17 528.94 1131.17 527.867V502.975C1131.17 501.902 1130.3 501.032 1129.23 501.032Z" fill="#159895"/>
<path opacity="0.2" d="M1027.63 502.698H1023.15V528.406H1027.63V502.698Z" fill="black"/>
<path opacity="0.2" d="M1037.8 502.574H1034.55V528.283H1037.8V502.574Z" fill="black"/>
<path opacity="0.2" d="M1047.15 502.698H1045.53V528.406H1047.15V502.698Z" fill="black"/>
<path opacity="0.2" d="M1059.77 502.574H1058.95V528.283H1059.77V502.574Z" fill="black"/>
<path opacity="0.2" d="M1121.65 528.268H1126.13V502.559H1121.65V528.268Z" fill="black"/>
<path opacity="0.2" d="M1111.48 528.391H1114.73V502.682H1111.48V528.391Z" fill="black"/>
<path opacity="0.2" d="M1102.11 528.268H1103.75V502.559H1102.11V528.268Z" fill="black"/>
<path opacity="0.2" d="M1089.5 528.391H1090.32V502.682H1089.5V528.391Z" fill="black"/>
<path opacity="0.2" d="M1074.43 528.391H1074.83V502.682H1074.43V528.391Z" fill="black"/>
<path opacity="0.2" d="M1128.15 505.412H1021.35C1020.99 505.408 1020.65 505.264 1020.39 505.01C1020.14 504.757 1020 504.414 1019.99 504.055C1019.99 503.695 1020.13 503.35 1020.39 503.095C1020.64 502.841 1020.99 502.698 1021.35 502.698H1128.15C1128.33 502.696 1128.5 502.729 1128.67 502.797C1128.83 502.864 1128.98 502.964 1129.11 503.091C1129.24 503.217 1129.34 503.368 1129.41 503.533C1129.47 503.699 1129.51 503.876 1129.5 504.055C1129.5 504.415 1129.36 504.76 1129.11 505.015C1128.85 505.269 1128.51 505.412 1128.15 505.412Z" fill="white"/>
<path d="M1129.23 472.332H1020.04C1018.97 472.332 1018.1 473.202 1018.1 474.275V499.166C1018.1 500.239 1018.97 501.109 1020.04 501.109H1129.23C1130.3 501.109 1131.17 500.239 1131.17 499.166V474.275C1131.17 473.202 1130.3 472.332 1129.23 472.332Z" fill="#159895"/>
<path opacity="0.2" d="M1027.63 473.982H1023.15V499.691H1027.63V473.982Z" fill="black"/>
<path opacity="0.2" d="M1037.8 473.858H1034.55V499.567H1037.8V473.858Z" fill="black"/>
<path opacity="0.2" d="M1047.15 473.982H1045.53V499.691H1047.15V473.982Z" fill="black"/>
<path opacity="0.2" d="M1059.77 473.858H1058.95V499.567H1059.77V473.858Z" fill="black"/>
<path opacity="0.2" d="M1121.65 499.567H1126.13V473.858H1121.65V499.567Z" fill="black"/>
<path opacity="0.2" d="M1111.48 499.69H1114.73V473.982H1111.48V499.69Z" fill="black"/>
<path opacity="0.2" d="M1102.11 499.567H1103.75V473.858H1102.11V499.567Z" fill="black"/>
<path opacity="0.2" d="M1089.5 499.69H1090.32V473.982H1089.5V499.69Z" fill="black"/>
<path opacity="0.2" d="M1074.43 499.69H1074.83V473.982H1074.43V499.69Z" fill="black"/>
<path opacity="0.2" d="M1128.15 476.696H1021.35C1020.99 476.696 1020.64 476.553 1020.39 476.299C1020.13 476.044 1019.99 475.699 1019.99 475.339C1020 474.98 1020.14 474.638 1020.39 474.384C1020.65 474.13 1020.99 473.986 1021.35 473.982H1128.15C1128.51 473.982 1128.85 474.125 1129.11 474.379C1129.36 474.634 1129.5 474.979 1129.5 475.339C1129.51 475.518 1129.47 475.695 1129.41 475.861C1129.34 476.026 1129.24 476.177 1129.11 476.303C1128.98 476.43 1128.83 476.53 1128.67 476.597C1128.5 476.665 1128.33 476.698 1128.15 476.696Z" fill="white"/>
<path d="M1126.14 443.616H1016.95C1015.88 443.616 1015.01 444.486 1015.01 445.559V470.45C1015.01 471.523 1015.88 472.393 1016.95 472.393H1126.14C1127.22 472.393 1128.09 471.523 1128.09 470.45V445.559C1128.09 444.486 1127.22 443.616 1126.14 443.616Z" fill="#159895"/>
<path opacity="0.2" d="M1024.54 445.281H1020.07V470.99H1024.54V445.281Z" fill="black"/>
<path opacity="0.2" d="M1034.7 445.158H1031.45V470.867H1034.7V445.158Z" fill="black"/>
<path opacity="0.2" d="M1044.07 445.281H1042.43V470.99H1044.07V445.281Z" fill="black"/>
<path opacity="0.2" d="M1056.68 445.158H1055.86V470.867H1056.68V445.158Z" fill="black"/>
<path opacity="0.2" d="M1118.55 470.851H1123.03V445.142H1118.55V470.851Z" fill="black"/>
<path opacity="0.2" d="M1108.39 470.975H1111.65V445.266H1108.39V470.975Z" fill="black"/>
<path opacity="0.2" d="M1099.05 470.851H1100.66V445.142H1099.05V470.851Z" fill="black"/>
<path opacity="0.2" d="M1086.41 470.975H1087.23V445.266H1086.41V470.975Z" fill="black"/>
<path opacity="0.2" d="M1071.35 470.975H1071.75V445.266H1071.35V470.975Z" fill="black"/>
<path opacity="0.2" d="M1125.06 447.996H1018.26C1017.91 447.992 1017.56 447.847 1017.31 447.594C1017.06 447.34 1016.91 446.997 1016.91 446.638C1016.91 446.279 1017.05 445.933 1017.3 445.679C1017.56 445.424 1017.9 445.281 1018.26 445.281H1125.06C1125.24 445.279 1125.42 445.313 1125.58 445.38C1125.75 445.448 1125.9 445.548 1126.03 445.674C1126.15 445.801 1126.25 445.951 1126.32 446.117C1126.39 446.282 1126.42 446.46 1126.42 446.638C1126.42 446.998 1126.28 447.344 1126.02 447.598C1125.77 447.853 1125.42 447.996 1125.06 447.996Z" fill="white"/>
<path d="M1121.52 414.915H1012.33C1011.25 414.915 1010.38 415.785 1010.38 416.858V441.749C1010.38 442.823 1011.25 443.693 1012.33 443.693H1121.52C1122.59 443.693 1123.46 442.823 1123.46 441.749V416.858C1123.46 415.785 1122.59 414.915 1121.52 414.915Z" fill="#159895"/>
<path opacity="0.2" d="M1019.91 416.565H1015.44V442.274H1019.91V416.565Z" fill="black"/>
<path opacity="0.2" d="M1030.08 416.442H1026.82V442.151H1030.08V416.442Z" fill="black"/>
<path opacity="0.2" d="M1039.42 416.565H1037.8V442.274H1039.42V416.565Z" fill="black"/>
<path opacity="0.2" d="M1052.05 416.442H1051.24V442.151H1052.05V416.442Z" fill="black"/>
<path opacity="0.2" d="M1113.93 442.151H1118.4V416.442H1113.93V442.151Z" fill="black"/>
<path opacity="0.2" d="M1103.75 442.274H1107V416.565H1103.75V442.274Z" fill="black"/>
<path opacity="0.2" d="M1094.42 442.151H1096.04V416.442H1094.42V442.151Z" fill="black"/>
<path opacity="0.2" d="M1081.8 442.274H1082.62V416.565H1081.8V442.274Z" fill="black"/>
<path opacity="0.2" d="M1066.72 442.274H1067.12V416.565H1066.72V442.274Z" fill="black"/>
<path opacity="0.2" d="M1120.44 419.28H1013.64C1013.46 419.282 1013.28 419.248 1013.12 419.181C1012.95 419.113 1012.8 419.013 1012.67 418.887C1012.55 418.76 1012.45 418.61 1012.38 418.444C1012.31 418.279 1012.28 418.101 1012.28 417.923C1012.28 417.563 1012.42 417.217 1012.68 416.963C1012.93 416.708 1013.28 416.565 1013.64 416.565H1120.44C1120.8 416.565 1121.14 416.708 1121.4 416.963C1121.65 417.217 1121.79 417.563 1121.79 417.923C1121.8 418.101 1121.76 418.279 1121.69 418.444C1121.63 418.61 1121.53 418.76 1121.4 418.887C1121.27 419.013 1121.12 419.113 1120.96 419.181C1120.79 419.248 1120.61 419.282 1120.44 419.28Z" fill="white"/>
<path d="M1126.14 386.199H1016.95C1015.88 386.199 1015.01 387.069 1015.01 388.142V413.034C1015.01 414.107 1015.88 414.977 1016.95 414.977H1126.14C1127.22 414.977 1128.09 414.107 1128.09 413.034V388.142C1128.09 387.069 1127.22 386.199 1126.14 386.199Z" fill="#159895"/>
<path opacity="0.2" d="M1024.54 387.865H1020.07V413.573H1024.54V387.865Z" fill="black"/>
<path opacity="0.2" d="M1034.7 387.742H1031.45V413.45H1034.7V387.742Z" fill="black"/>
<path opacity="0.2" d="M1044.07 387.865H1042.43V413.573H1044.07V387.865Z" fill="black"/>
<path opacity="0.2" d="M1056.68 387.742H1055.86V413.45H1056.68V387.742Z" fill="black"/>
<path opacity="0.2" d="M1118.55 413.435H1123.03V387.726H1118.55V413.435Z" fill="black"/>
<path opacity="0.2" d="M1108.39 413.558H1111.65V387.849H1108.39V413.558Z" fill="black"/>
<path opacity="0.2" d="M1099.05 413.435H1100.66V387.726H1099.05V413.435Z" fill="black"/>
<path opacity="0.2" d="M1086.41 413.558H1087.23V387.849H1086.41V413.558Z" fill="black"/>
<path opacity="0.2" d="M1071.35 413.558H1071.75V387.849H1071.35V413.558Z" fill="black"/>
<path opacity="0.2" d="M1125.06 390.579H1018.26C1017.9 390.579 1017.56 390.436 1017.3 390.182C1017.05 389.927 1016.91 389.582 1016.91 389.222C1016.91 388.862 1017.05 388.517 1017.3 388.262C1017.56 388.008 1017.9 387.865 1018.26 387.865H1125.06C1125.24 387.863 1125.42 387.896 1125.58 387.964C1125.75 388.031 1125.9 388.131 1126.03 388.258C1126.15 388.384 1126.25 388.535 1126.32 388.7C1126.39 388.866 1126.42 389.043 1126.42 389.222C1126.42 389.401 1126.39 389.578 1126.32 389.744C1126.25 389.909 1126.15 390.06 1126.03 390.186C1125.9 390.313 1125.75 390.413 1125.58 390.48C1125.42 390.547 1125.24 390.581 1125.06 390.579Z" fill="white"/>
<path d="M1126.14 357.499H1016.95C1015.88 357.499 1015.01 358.369 1015.01 359.442V384.333C1015.01 385.407 1015.88 386.277 1016.95 386.277H1126.14C1127.22 386.277 1128.09 385.407 1128.09 384.333V359.442C1128.09 358.369 1127.22 357.499 1126.14 357.499Z" fill="#159895"/>
<path opacity="0.2" d="M1024.54 359.149H1020.07V384.858H1024.54V359.149Z" fill="black"/>
<path opacity="0.2" d="M1034.7 359.026H1031.45V384.735H1034.7V359.026Z" fill="black"/>
<path opacity="0.2" d="M1044.07 359.149H1042.43V384.858H1044.07V359.149Z" fill="black"/>
<path opacity="0.2" d="M1056.68 359.026H1055.86V384.735H1056.68V359.026Z" fill="black"/>
<path opacity="0.2" d="M1118.55 384.734H1123.03V359.026H1118.55V384.734Z" fill="black"/>
<path opacity="0.2" d="M1108.39 384.857H1111.65V359.149H1108.39V384.857Z" fill="black"/>
<path opacity="0.2" d="M1099.05 384.734H1100.66V359.026H1099.05V384.734Z" fill="black"/>
<path opacity="0.2" d="M1086.41 384.857H1087.23V359.149H1086.41V384.857Z" fill="black"/>
<path opacity="0.2" d="M1071.35 384.857H1071.75V359.149H1071.35V384.857Z" fill="black"/>
<path opacity="0.2" d="M1125.06 361.879H1018.26C1017.9 361.875 1017.56 361.728 1017.3 361.471C1017.05 361.214 1016.91 360.867 1016.91 360.506C1016.91 360.147 1017.06 359.805 1017.31 359.551C1017.56 359.297 1017.91 359.153 1018.26 359.149H1125.06C1125.42 359.149 1125.77 359.292 1126.02 359.546C1126.28 359.801 1126.42 360.146 1126.42 360.506C1126.42 360.686 1126.39 360.864 1126.32 361.03C1126.25 361.197 1126.15 361.348 1126.03 361.476C1125.9 361.603 1125.75 361.705 1125.59 361.774C1125.42 361.843 1125.24 361.879 1125.06 361.879Z" fill="white"/>
<path d="M1130.77 328.783H1021.58C1020.51 328.783 1019.64 329.653 1019.64 330.726V355.618C1019.64 356.691 1020.51 357.561 1021.58 357.561H1130.77C1131.84 357.561 1132.71 356.691 1132.71 355.618V330.726C1132.71 329.653 1131.84 328.783 1130.77 328.783Z" fill="#159895"/>
<path opacity="0.2" d="M1029.17 330.449H1024.7V356.157H1029.17V330.449Z" fill="black"/>
<path opacity="0.2" d="M1039.35 330.325H1036.09V356.034H1039.35V330.325Z" fill="black"/>
<path opacity="0.2" d="M1048.71 330.449H1047.07V356.157H1048.71V330.449Z" fill="black"/>
<path opacity="0.2" d="M1061.31 330.325H1060.49V356.034H1061.31V330.325Z" fill="black"/>
<path opacity="0.2" d="M1123.2 356.019H1127.67V330.31H1123.2V356.019Z" fill="black"/>
<path opacity="0.2" d="M1113.02 356.157H1116.27V330.449H1113.02V356.157Z" fill="black"/>
<path opacity="0.2" d="M1103.67 356.019H1105.29V330.31H1103.67V356.019Z" fill="black"/>
<path opacity="0.2" d="M1091.04 356.157H1091.86V330.449H1091.04V356.157Z" fill="black"/>
<path opacity="0.2" d="M1075.99 356.157H1076.39V330.449H1075.99V356.157Z" fill="black"/>
<path opacity="0.2" d="M1129.69 333.117H1022.91C1022.73 333.119 1022.55 333.085 1022.38 333.018C1022.22 332.951 1022.06 332.851 1021.94 332.725C1021.81 332.599 1021.71 332.448 1021.64 332.283C1021.57 332.117 1021.53 331.939 1021.53 331.76C1021.53 331.58 1021.57 331.402 1021.64 331.237C1021.71 331.071 1021.81 330.921 1021.94 330.794C1022.06 330.668 1022.22 330.569 1022.38 330.501C1022.55 330.434 1022.73 330.4 1022.91 330.402H1129.69C1129.87 330.4 1130.05 330.434 1130.21 330.501C1130.38 330.569 1130.53 330.668 1130.66 330.794C1130.79 330.921 1130.89 331.071 1130.96 331.237C1131.03 331.402 1131.06 331.58 1131.06 331.76C1131.06 331.939 1131.03 332.117 1130.96 332.283C1130.89 332.448 1130.79 332.599 1130.66 332.725C1130.53 332.851 1130.38 332.951 1130.21 333.018C1130.05 333.085 1129.87 333.119 1129.69 333.117Z" fill="white"/>
<path d="M1123.06 300.083H1013.87C1012.8 300.083 1011.93 300.953 1011.93 302.026V326.917C1011.93 327.99 1012.8 328.86 1013.87 328.86H1123.06C1124.13 328.86 1125 327.99 1125 326.917V302.026C1125 300.953 1124.13 300.083 1123.06 300.083Z" fill="#159895"/>
<path opacity="0.2" d="M1021.46 301.748H1016.98V327.457H1021.46V301.748Z" fill="black"/>
<path opacity="0.2" d="M1031.62 301.609H1028.37V327.318H1031.62V301.609Z" fill="black"/>
<path opacity="0.2" d="M1040.97 301.748H1039.35V327.457H1040.97V301.748Z" fill="black"/>
<path opacity="0.2" d="M1053.6 301.609H1052.78V327.318H1053.6V301.609Z" fill="black"/>
<path opacity="0.2" d="M1115.47 327.318H1119.94V301.609H1115.47V327.318Z" fill="black"/>
<path opacity="0.2" d="M1105.29 327.441H1108.55V301.733H1105.29V327.441Z" fill="black"/>
<path opacity="0.2" d="M1095.96 327.318H1097.58V301.609H1095.96V327.318Z" fill="black"/>
<path opacity="0.2" d="M1083.33 327.441H1084.15V301.733H1083.33V327.441Z" fill="black"/>
<path opacity="0.2" d="M1068.26 327.441H1068.66V301.733H1068.26V327.441Z" fill="black"/>
<path opacity="0.2" d="M1121.98 304.462H1015.18C1014.82 304.458 1014.48 304.314 1014.22 304.06C1013.97 303.807 1013.83 303.464 1013.82 303.105C1013.82 302.745 1013.97 302.4 1014.22 302.146C1014.48 301.891 1014.82 301.748 1015.18 301.748H1121.98C1122.16 301.746 1122.33 301.78 1122.5 301.847C1122.67 301.915 1122.82 302.015 1122.94 302.141C1123.07 302.267 1123.17 302.418 1123.24 302.583C1123.3 302.749 1123.34 302.926 1123.34 303.105C1123.34 303.465 1123.19 303.81 1122.94 304.065C1122.68 304.319 1122.34 304.462 1121.98 304.462Z" fill="white"/>
<path d="M1119.97 271.367H1010.78C1009.71 271.367 1008.84 272.237 1008.84 273.31V298.201C1008.84 299.274 1009.71 300.144 1010.78 300.144H1119.97C1121.05 300.144 1121.92 299.274 1121.92 298.201V273.31C1121.92 272.237 1121.05 271.367 1119.97 271.367Z" fill="#159895"/>
<path opacity="0.2" d="M1018.37 273.032H1013.9V298.741H1018.37V273.032Z" fill="black"/>
<path opacity="0.2" d="M1028.54 272.909H1025.28V298.617H1028.54V272.909Z" fill="black"/>
<path opacity="0.2" d="M1037.9 273.032H1036.26V298.741H1037.9V273.032Z" fill="black"/>
<path opacity="0.2" d="M1050.51 272.909H1049.69V298.617H1050.51V272.909Z" fill="black"/>
<path opacity="0.2" d="M1112.39 298.602H1116.86V272.893H1112.39V298.602Z" fill="black"/>
<path opacity="0.2" d="M1102.21 298.741H1105.46V273.032H1102.21V298.741Z" fill="black"/>
<path opacity="0.2" d="M1092.86 298.602H1094.48V272.893H1092.86V298.602Z" fill="black"/>
<path opacity="0.2" d="M1080.26 298.741H1081.08V273.032H1080.26V298.741Z" fill="black"/>
<path opacity="0.2" d="M1065.18 298.741H1065.58V273.032H1065.18V298.741Z" fill="black"/>
<path opacity="0.2" d="M1118.89 275.747H1012.1C1011.92 275.749 1011.74 275.715 1011.57 275.648C1011.41 275.58 1011.26 275.48 1011.13 275.354C1011.01 275.227 1010.91 275.077 1010.84 274.911C1010.77 274.746 1010.74 274.568 1010.74 274.389C1010.74 274.211 1010.77 274.033 1010.84 273.868C1010.91 273.702 1011.01 273.552 1011.13 273.425C1011.26 273.299 1011.41 273.199 1011.57 273.131C1011.74 273.064 1011.92 273.03 1012.1 273.032H1118.89C1119.07 273.03 1119.25 273.064 1119.42 273.131C1119.58 273.199 1119.73 273.299 1119.86 273.425C1119.98 273.552 1120.08 273.702 1120.15 273.868C1120.22 274.033 1120.25 274.211 1120.25 274.389C1120.25 274.568 1120.22 274.746 1120.15 274.911C1120.08 275.077 1119.98 275.227 1119.86 275.354C1119.73 275.48 1119.58 275.58 1119.42 275.648C1119.25 275.715 1119.07 275.749 1118.89 275.747Z" fill="white"/>
<path d="M987.266 529.732H878.078C877.005 529.732 876.135 530.602 876.135 531.676V556.567C876.135 557.64 877.005 558.51 878.078 558.51H987.266C988.339 558.51 989.209 557.64 989.209 556.567V531.676C989.209 530.602 988.339 529.732 987.266 529.732Z" fill="#159895"/>
<path opacity="0.2" d="M885.65 531.398H881.178V557.107H885.65V531.398Z" fill="black"/>
<path opacity="0.2" d="M895.829 531.275H892.575V556.984H895.829V531.275Z" fill="black"/>
<path opacity="0.2" d="M905.174 531.398H903.555V557.107H905.174V531.398Z" fill="black"/>
<path opacity="0.2" d="M917.79 531.275H916.973V556.984H917.79V531.275Z" fill="black"/>
<path opacity="0.2" d="M979.679 556.983H984.151V531.275H979.679V556.983Z" fill="black"/>
<path opacity="0.2" d="M969.5 557.107H972.754V531.398H969.5V557.107Z" fill="black"/>
<path opacity="0.2" d="M960.154 556.983H961.773V531.275H960.154V556.983Z" fill="black"/>
<path opacity="0.2" d="M947.539 557.107H948.356V531.398H947.539V557.107Z" fill="black"/>
<path opacity="0.2" d="M932.472 557.107H932.873V531.398H932.472V557.107Z" fill="black"/>
<path opacity="0.2" d="M986.187 534.113H879.389C879.21 534.115 879.033 534.081 878.867 534.014C878.701 533.946 878.551 533.846 878.424 533.72C878.298 533.593 878.198 533.443 878.131 533.277C878.063 533.112 878.03 532.934 878.032 532.756C878.032 532.396 878.175 532.05 878.429 531.796C878.684 531.541 879.029 531.398 879.389 531.398H986.187C986.545 531.402 986.888 531.547 987.142 531.8C987.395 532.054 987.54 532.397 987.544 532.756C987.544 533.116 987.401 533.461 987.146 533.715C986.892 533.97 986.547 534.113 986.187 534.113Z" fill="white"/>
<path d="M982.624 501.032H873.436C872.363 501.032 871.493 501.902 871.493 502.975V527.867C871.493 528.94 872.363 529.81 873.436 529.81H982.624C983.697 529.81 984.567 528.94 984.567 527.867V502.975C984.567 501.902 983.697 501.032 982.624 501.032Z" fill="#159895"/>
<path opacity="0.2" d="M881.024 502.698H876.551V528.406H881.024V502.698Z" fill="black"/>
<path opacity="0.2" d="M891.202 502.574H887.948V528.283H891.202V502.574Z" fill="black"/>
<path opacity="0.2" d="M900.548 502.698H898.928V528.406H900.548V502.698Z" fill="black"/>
<path opacity="0.2" d="M913.163 502.574H912.346V528.283H913.163V502.574Z" fill="black"/>
<path opacity="0.2" d="M975.052 528.268H979.524V502.559H975.052V528.268Z" fill="black"/>
<path opacity="0.2" d="M964.873 528.391H968.127V502.682H964.873V528.391Z" fill="black"/>
<path opacity="0.2" d="M955.528 528.268H957.147V502.559H955.528V528.268Z" fill="black"/>
<path opacity="0.2" d="M942.897 528.391H943.714V502.682H942.897V528.391Z" fill="black"/>
<path opacity="0.2" d="M927.829 528.391H928.23V502.682H927.829V528.391Z" fill="black"/>
<path opacity="0.2" d="M981.545 505.412H874.747C874.388 505.408 874.045 505.264 873.792 505.01C873.538 504.757 873.394 504.414 873.39 504.055C873.39 503.695 873.533 503.35 873.787 503.095C874.042 502.841 874.387 502.698 874.747 502.698H981.545C981.723 502.696 981.901 502.729 982.067 502.797C982.232 502.864 982.383 502.964 982.509 503.091C982.635 503.217 982.735 503.368 982.803 503.533C982.87 503.699 982.904 503.876 982.902 504.055C982.902 504.415 982.759 504.76 982.504 505.015C982.25 505.269 981.905 505.412 981.545 505.412Z" fill="white"/>
<path d="M987.266 472.332H878.078C877.005 472.332 876.135 473.202 876.135 474.275V499.166C876.135 500.239 877.005 501.109 878.078 501.109H987.266C988.339 501.109 989.209 500.239 989.209 499.166V474.275C989.209 473.202 988.339 472.332 987.266 472.332Z" fill="#159895"/>
<path opacity="0.2" d="M885.65 473.982H881.178V499.691H885.65V473.982Z" fill="black"/>
<path opacity="0.2" d="M895.829 473.858H892.575V499.567H895.829V473.858Z" fill="black"/>
<path opacity="0.2" d="M905.174 473.982H903.555V499.691H905.174V473.982Z" fill="black"/>
<path opacity="0.2" d="M917.79 473.858H916.973V499.567H917.79V473.858Z" fill="black"/>
<path opacity="0.2" d="M979.679 499.567H984.151V473.858H979.679V499.567Z" fill="black"/>
<path opacity="0.2" d="M969.5 499.69H972.754V473.982H969.5V499.69Z" fill="black"/>
<path opacity="0.2" d="M960.154 499.567H961.773V473.858H960.154V499.567Z" fill="black"/>
<path opacity="0.2" d="M947.539 499.69H948.356V473.982H947.539V499.69Z" fill="black"/>
<path opacity="0.2" d="M932.472 499.69H932.873V473.982H932.472V499.69Z" fill="black"/>
<path opacity="0.2" d="M986.187 476.696H879.389C879.21 476.698 879.033 476.665 878.867 476.597C878.701 476.53 878.551 476.43 878.424 476.303C878.298 476.177 878.198 476.026 878.131 475.861C878.063 475.695 878.03 475.518 878.032 475.339C878.032 474.979 878.175 474.634 878.429 474.379C878.684 474.125 879.029 473.982 879.389 473.982H986.187C986.545 473.986 986.888 474.13 987.142 474.384C987.395 474.638 987.54 474.98 987.544 475.339C987.544 475.699 987.401 476.044 987.146 476.299C986.892 476.553 986.547 476.696 986.187 476.696Z" fill="white"/>
<path d="M984.166 443.616H874.978C873.905 443.616 873.035 444.486 873.035 445.559V470.45C873.035 471.523 873.905 472.393 874.978 472.393H984.166C985.24 472.393 986.109 471.523 986.109 470.45V445.559C986.109 444.486 985.24 443.616 984.166 443.616Z" fill="#159895"/>
<path opacity="0.2" d="M882.566 445.281H878.093V470.99H882.566V445.281Z" fill="black"/>
<path opacity="0.2" d="M892.744 445.158H889.49V470.867H892.744V445.158Z" fill="black"/>
<path opacity="0.2" d="M902.09 445.281H900.471V470.99H902.09V445.281Z" fill="black"/>
<path opacity="0.2" d="M914.705 445.158H913.888V470.867H914.705V445.158Z" fill="black"/>
<path opacity="0.2" d="M976.594 470.851H981.067V445.142H976.594V470.851Z" fill="black"/>
<path opacity="0.2" d="M966.416 470.975H969.67V445.266H966.416V470.975Z" fill="black"/>
<path opacity="0.2" d="M957.054 470.851H958.689V445.142H957.054V470.851Z" fill="black"/>
<path opacity="0.2" d="M944.439 470.975H945.256V445.266H944.439V470.975Z" fill="black"/>
<path opacity="0.2" d="M929.387 470.975H929.788V445.266H929.387V470.975Z" fill="black"/>
<path opacity="0.2" d="M983.087 447.996H876.304C875.943 447.996 875.596 447.853 875.339 447.599C875.082 447.345 874.936 447 874.932 446.638C874.932 446.459 874.967 446.281 875.037 446.116C875.106 445.95 875.207 445.8 875.335 445.673C875.462 445.547 875.614 445.447 875.78 445.38C875.947 445.313 876.125 445.279 876.304 445.281H983.087C983.266 445.279 983.445 445.313 983.611 445.38C983.777 445.447 983.929 445.547 984.057 445.673C984.184 445.8 984.286 445.95 984.355 446.116C984.424 446.281 984.459 446.459 984.459 446.638C984.455 447 984.309 447.345 984.052 447.599C983.795 447.853 983.448 447.996 983.087 447.996Z" fill="white"/>
<path d="M984.166 414.915H874.978C873.905 414.915 873.035 415.785 873.035 416.858V441.749C873.035 442.823 873.905 443.693 874.978 443.693H984.166C985.24 443.693 986.109 442.823 986.109 441.749V416.858C986.109 415.785 985.24 414.915 984.166 414.915Z" fill="#159895"/>
<path opacity="0.2" d="M882.566 416.565H878.093V442.274H882.566V416.565Z" fill="black"/>
<path opacity="0.2" d="M892.744 416.442H889.49V442.151H892.744V416.442Z" fill="black"/>
<path opacity="0.2" d="M902.09 416.565H900.471V442.274H902.09V416.565Z" fill="black"/>
<path opacity="0.2" d="M914.705 416.442H913.888V442.151H914.705V416.442Z" fill="black"/>
<path opacity="0.2" d="M976.594 442.151H981.067V416.442H976.594V442.151Z" fill="black"/>
<path opacity="0.2" d="M966.416 442.274H969.67V416.565H966.416V442.274Z" fill="black"/>
<path opacity="0.2" d="M957.054 442.151H958.689V416.442H957.054V442.151Z" fill="black"/>
<path opacity="0.2" d="M944.439 442.274H945.256V416.565H944.439V442.274Z" fill="black"/>
<path opacity="0.2" d="M929.387 442.274H929.788V416.565H929.387V442.274Z" fill="black"/>
<path opacity="0.2" d="M983.087 419.28H876.304C876.125 419.282 875.947 419.248 875.78 419.181C875.614 419.114 875.462 419.014 875.335 418.888C875.207 418.762 875.106 418.611 875.037 418.446C874.967 418.28 874.932 418.102 874.932 417.923C874.936 417.561 875.082 417.216 875.339 416.962C875.596 416.708 875.943 416.565 876.304 416.565H983.087C983.448 416.565 983.795 416.708 984.052 416.962C984.309 417.216 984.455 417.561 984.459 417.923C984.459 418.102 984.424 418.28 984.355 418.446C984.286 418.611 984.184 418.762 984.057 418.888C983.929 419.014 983.777 419.114 983.611 419.181C983.445 419.248 983.266 419.282 983.087 419.28Z" fill="white"/>
<path d="M984.166 386.199H874.978C873.905 386.199 873.035 387.069 873.035 388.142V413.034C873.035 414.107 873.905 414.977 874.978 414.977H984.166C985.24 414.977 986.109 414.107 986.109 413.034V388.142C986.109 387.069 985.24 386.199 984.166 386.199Z" fill="#159895"/>
<path opacity="0.2" d="M882.566 387.865H878.093V413.573H882.566V387.865Z" fill="black"/>
<path opacity="0.2" d="M892.744 387.742H889.49V413.45H892.744V387.742Z" fill="black"/>
<path opacity="0.2" d="M902.09 387.865H900.471V413.573H902.09V387.865Z" fill="black"/>
<path opacity="0.2" d="M914.705 387.742H913.888V413.45H914.705V387.742Z" fill="black"/>
<path opacity="0.2" d="M976.594 413.435H981.067V387.726H976.594V413.435Z" fill="black"/>
<path opacity="0.2" d="M966.416 413.558H969.67V387.849H966.416V413.558Z" fill="black"/>
<path opacity="0.2" d="M957.054 413.435H958.689V387.726H957.054V413.435Z" fill="black"/>
<path opacity="0.2" d="M944.439 413.558H945.256V387.849H944.439V413.558Z" fill="black"/>
<path opacity="0.2" d="M929.387 413.558H929.788V387.849H929.387V413.558Z" fill="black"/>
<path opacity="0.2" d="M983.087 390.579H876.304C876.125 390.581 875.947 390.548 875.78 390.48C875.614 390.413 875.462 390.313 875.335 390.187C875.207 390.061 875.106 389.911 875.037 389.745C874.967 389.579 874.932 389.402 874.932 389.222C874.932 389.042 874.967 388.865 875.037 388.699C875.106 388.533 875.207 388.383 875.335 388.257C875.462 388.131 875.614 388.031 875.78 387.964C875.947 387.896 876.125 387.863 876.304 387.865H983.087C983.266 387.863 983.445 387.896 983.611 387.964C983.777 388.031 983.929 388.131 984.057 388.257C984.184 388.383 984.286 388.533 984.355 388.699C984.424 388.865 984.459 389.042 984.459 389.222C984.459 389.402 984.424 389.579 984.355 389.745C984.286 389.911 984.184 390.061 984.057 390.187C983.929 390.313 983.777 390.413 983.611 390.48C983.445 390.548 983.266 390.581 983.087 390.579Z" fill="white"/>
<path d="M985.508 328.475H876.32C875.247 328.475 874.377 329.345 874.377 330.418V355.309C874.377 356.382 875.247 357.252 876.32 357.252H985.508C986.581 357.252 987.451 356.382 987.451 355.309V330.418C987.451 329.345 986.581 328.475 985.508 328.475Z" fill="#159895"/>
<path opacity="0.2" d="M883.907 330.14H879.435V355.849H883.907V330.14Z" fill="black"/>
<path opacity="0.2" d="M894.086 330.017H890.832V355.725H894.086V330.017Z" fill="black"/>
<path opacity="0.2" d="M903.432 330.14H901.812V355.849H903.432V330.14Z" fill="black"/>
<path opacity="0.2" d="M916.047 330.017H915.23V355.725H916.047V330.017Z" fill="black"/>
<path opacity="0.2" d="M977.936 355.71H982.408V330.001H977.936V355.71Z" fill="black"/>
<path opacity="0.2" d="M967.757 355.849H971.011V330.14H967.757V355.849Z" fill="black"/>
<path opacity="0.2" d="M958.411 355.71H960.031V330.001H958.411V355.71Z" fill="black"/>
<path opacity="0.2" d="M945.781 355.849H946.598V330.14H945.781V355.849Z" fill="black"/>
<path opacity="0.2" d="M930.729 355.849H931.13V330.14H930.729V355.849Z" fill="black"/>
<path opacity="0.2" d="M984.428 332.854H877.646C877.467 332.856 877.288 332.823 877.122 332.756C876.955 332.688 876.804 332.589 876.676 332.462C876.549 332.336 876.447 332.186 876.378 332.02C876.309 331.855 876.273 331.677 876.273 331.497C876.277 331.136 876.424 330.791 876.681 330.537C876.938 330.283 877.285 330.14 877.646 330.14H984.428C984.79 330.14 985.137 330.283 985.394 330.537C985.651 330.791 985.797 331.136 985.801 331.497C985.801 331.677 985.765 331.855 985.696 332.02C985.627 332.186 985.526 332.336 985.398 332.462C985.27 332.589 985.119 332.688 984.953 332.756C984.786 332.823 984.608 332.856 984.428 332.854Z" fill="white"/>
<path d="M987.266 357.499H878.078C877.005 357.499 876.135 358.369 876.135 359.442V384.333C876.135 385.407 877.005 386.277 878.078 386.277H987.266C988.339 386.277 989.209 385.407 989.209 384.333V359.442C989.209 358.369 988.339 357.499 987.266 357.499Z" fill="#159895"/>
<path opacity="0.2" d="M885.65 359.149H881.178V384.858H885.65V359.149Z" fill="black"/>
<path opacity="0.2" d="M895.829 359.026H892.575V384.735H895.829V359.026Z" fill="black"/>
<path opacity="0.2" d="M905.174 359.149H903.555V384.858H905.174V359.149Z" fill="black"/>
<path opacity="0.2" d="M917.79 359.026H916.973V384.735H917.79V359.026Z" fill="black"/>
<path opacity="0.2" d="M979.679 384.734H984.151V359.026H979.679V384.734Z" fill="black"/>
<path opacity="0.2" d="M969.5 384.857H972.754V359.149H969.5V384.857Z" fill="black"/>
<path opacity="0.2" d="M960.154 384.734H961.773V359.026H960.154V384.734Z" fill="black"/>
<path opacity="0.2" d="M947.539 384.857H948.356V359.149H947.539V384.857Z" fill="black"/>
<path opacity="0.2" d="M932.472 384.857H932.873V359.149H932.472V384.857Z" fill="black"/>
<path opacity="0.2" d="M986.187 361.879H879.389C879.209 361.879 879.031 361.843 878.866 361.774C878.7 361.705 878.55 361.603 878.424 361.476C878.297 361.348 878.198 361.197 878.13 361.03C878.063 360.864 878.03 360.686 878.032 360.506C878.032 360.146 878.175 359.801 878.429 359.546C878.684 359.292 879.029 359.149 879.389 359.149H986.187C986.545 359.153 986.888 359.297 987.142 359.551C987.395 359.805 987.54 360.147 987.544 360.506C987.544 360.867 987.401 361.214 987.147 361.471C986.893 361.728 986.548 361.875 986.187 361.879Z" fill="white"/>
<path d="M946.675 310.462L943.221 317.216L939.704 324.079L933.551 321.828L936.635 315.798L940.522 308.21L946.675 310.462Z" fill="#FFC2BC"/>
<path opacity="0.2" d="M946.675 310.462L943.221 317.216L936.635 315.798L940.522 308.21L946.675 310.462Z" fill="black"/>
<path d="M1081.06 272.261C1080.88 272.262 1080.7 272.196 1080.56 272.073C1080.42 271.951 1080.33 271.782 1080.31 271.598C1080.09 270.056 1059.83 118.919 1035.37 52.6044C1035.32 52.5077 1035.29 52.4017 1035.28 52.2933C1035.28 52.1849 1035.3 52.0765 1035.34 51.9753C1035.37 51.874 1035.43 51.7822 1035.51 51.7057C1035.59 51.6293 1035.68 51.5701 1035.78 51.5318C1035.88 51.4936 1035.99 51.4772 1036.1 51.4839C1036.21 51.4905 1036.32 51.5199 1036.41 51.5702C1036.51 51.6205 1036.59 51.6905 1036.66 51.7757C1036.73 51.8609 1036.78 51.9594 1036.8 52.0646C1061.34 118.503 1081.63 269.886 1081.83 271.428C1081.86 271.632 1081.81 271.839 1081.68 272.003C1081.56 272.168 1081.37 272.277 1081.17 272.307L1081.06 272.261Z" fill="#263238"/>
<path d="M1042.01 267.912L1048.57 267.65L1049.85 252.444L1043.28 252.706L1042.01 267.912Z" fill="#FFC2BC"/>
<path d="M1049.19 264.18L1042.03 263.949C1041.9 263.949 1041.77 263.991 1041.67 264.069C1041.56 264.147 1041.48 264.256 1041.44 264.381L1039.9 270.148C1039.86 270.288 1039.86 270.434 1039.89 270.575C1039.91 270.717 1039.97 270.85 1040.06 270.966C1040.14 271.082 1040.26 271.177 1040.38 271.243C1040.51 271.31 1040.65 271.347 1040.8 271.351C1043.39 271.351 1047.13 271.351 1050.39 271.444C1054.18 271.567 1056.56 271.444 1061.06 271.521C1063.74 271.598 1064.61 268.915 1063.48 268.637C1058.39 267.357 1055.06 267.588 1050.74 264.735C1050.28 264.412 1049.75 264.22 1049.19 264.18Z" fill="#263238"/>
<path opacity="0.2" d="M1049.85 252.444L1049.19 260.278L1042.63 260.556L1043.28 252.706L1049.85 252.444Z" fill="black"/>
<path d="M1039.35 212.824C1041.01 216.017 1041.14 249.483 1041.14 257.98H1052.47C1053.94 249.174 1061.18 201.89 1050.93 195.135C1039.64 187.686 1011.02 190.247 1011.02 190.247L1008.95 186.067L1004.82 177.739L981.128 186.607L975.962 188.519L973.833 189.321H973.648C973.648 189.321 973.648 189.553 973.648 189.954C973.726 190.879 973.941 192.745 974.327 195.074C974.774 197.867 975.403 200.628 976.209 203.34C978.398 210.48 982.285 217.22 989.04 214.968C989.333 214.876 989.626 214.752 989.919 214.629C990.474 214.382 991.075 214.151 991.692 213.919C997.107 212.175 1002.71 211.072 1008.38 210.635C1022.69 209.277 1038.08 210.357 1039.35 212.824Z" fill="#263238"/>
<path d="M1052.98 258.967L1039.73 259.322L1039.66 255.05L1054.21 254.449L1052.98 258.967Z" fill="#159895"/>
<path d="M940.846 320.779H932.857C932.728 320.779 932.602 320.824 932.501 320.905C932.4 320.986 932.33 321.1 932.302 321.226L930.945 327.04C930.912 327.181 930.912 327.328 930.944 327.469C930.976 327.61 931.04 327.742 931.131 327.855C931.221 327.967 931.336 328.058 931.467 328.12C931.598 328.182 931.741 328.214 931.886 328.212C934.461 328.212 936.342 328.012 939.597 328.012C941.586 328.012 947.585 328.228 950.392 328.228C953.199 328.228 953.476 325.498 952.397 325.251C947.369 324.156 943.575 322.629 941.972 321.18C941.82 321.041 941.642 320.935 941.449 320.866C941.256 320.797 941.051 320.767 940.846 320.779Z" fill="#263238"/>
<path d="M998.987 189.259L997.614 193.994C996.89 196.523 995.887 199.962 994.715 203.957L991.785 213.935C986.788 230.822 980.434 251.904 976.918 261.913C969.916 281.776 946.49 317.108 946.49 317.108L935.217 312.975C935.217 312.975 952.52 279.694 958.196 259.553C962.159 245.488 968.374 220.211 972.461 203.232L974.42 195.089C975.083 192.313 975.623 190.046 975.962 188.457C976.301 186.869 976.579 185.851 976.579 185.851L981.128 186.545L998.987 189.259Z" fill="#263238"/>
<path d="M947.708 317.849L934.445 312.975L935.941 309.027L950.083 313.315L947.708 317.849Z" fill="#159895"/>
<path opacity="0.2" d="M1009 186.052L998.987 197.726L997.614 193.994L996.072 189.923L994.669 203.957L976.255 203.355L972.415 203.232L974.373 195.089C973.988 192.76 973.772 190.894 973.695 189.969L973.818 189.275L975.946 188.473C976.347 186.807 976.563 185.867 976.563 185.867L981.113 186.561L1004.85 177.739L1009 186.052Z" fill="black"/>
<path opacity="0.2" d="M1008.44 210.65C1002.11 211.074 995.876 212.42 989.934 214.644C989.641 214.768 989.348 214.891 989.055 214.984L990.397 208.383C990.397 208.383 1001.95 207.843 1008.44 210.65Z" fill="black"/>
<path d="M922.308 192.39L918.283 197.726L914.875 191.234C914.875 191.234 918.746 186.684 921.044 188.782L922.308 192.39Z" fill="#FFC2BC"/>
<path d="M912.13 200.163L911.127 193.516L914.875 191.156L918.283 197.726L912.13 200.163Z" fill="#FFC2BC"/>
<path d="M923.403 191.897L922.278 192.467L920.612 188.242L922.401 187.378L923.403 191.897Z" fill="white"/>
<path d="M968.297 153.387C967.711 154.416 967.11 155.403 966.493 156.348C964.94 158.878 963.316 161.366 961.619 163.813L960.216 165.833C958.797 167.869 957.301 169.858 955.697 171.848C954.895 172.835 954.078 173.837 953.168 174.824C952.255 175.858 951.282 176.836 950.253 177.754C946.308 181.112 941.968 183.976 937.33 186.283C932.858 188.594 928.218 190.563 923.45 192.174L921.445 187.671C923.45 186.452 925.532 185.203 927.521 183.908C929.511 182.612 931.531 181.332 933.459 179.975C935.386 178.618 937.283 177.245 939.072 175.811C940.831 174.434 942.5 172.945 944.069 171.354C947.03 167.913 949.697 164.23 952.042 160.343C954.618 156.348 957.872 149.347 960.416 145.353L968.297 153.387Z" fill="#263238"/>
<path opacity="0.2" d="M966.493 156.349C964.94 158.878 963.316 161.366 961.619 163.813C961.791 160.569 962.693 157.406 964.257 154.56C965.186 154.881 965.975 155.513 966.493 156.349Z" fill="black"/>
<path d="M1054.92 136.778L1050.45 140.942L1051.08 144.797C1052.72 146.957 1056.48 144.289 1057.36 143.61C1057.5 143.508 1057.65 143.42 1057.81 143.348L1060.18 142.392C1060.6 142.217 1060.95 141.906 1061.17 141.508C1061.39 141.111 1061.47 140.651 1061.4 140.202L1060.94 137.364C1060.9 137.098 1060.8 136.843 1060.66 136.615C1060.51 136.387 1060.32 136.19 1060.1 136.037C1059.88 135.884 1059.63 135.778 1059.36 135.725C1059.1 135.672 1058.83 135.674 1058.56 135.729L1055.89 136.269C1055.53 136.34 1055.19 136.517 1054.92 136.778Z" fill="#FFC2BC"/>
<path d="M1049.42 140.973L1050.65 140.665L1051.36 145.137L1049.42 145.6V140.973Z" fill="white"/>
<path d="M1050.45 145.63C1045.55 146.667 1040.58 147.337 1035.58 147.635C1030.43 148.035 1025.25 147.797 1020.16 146.926C1018.81 146.666 1017.47 146.327 1016.15 145.908C1014.86 145.507 1013.65 145.075 1012.45 144.628C1010.06 143.749 1007.82 142.808 1005.49 141.775L1002.77 140.541C1000.7 139.585 998.663 138.598 996.596 137.564C995.054 136.824 993.62 136.022 992.139 135.22L996.103 125.797C1000.34 127.926 1005.36 130.81 1009.61 132.922C1013.61 135.07 1017.78 136.866 1022.09 138.289C1024.25 138.861 1026.44 139.288 1028.66 139.569C1030.94 139.893 1033.29 140.094 1035.61 140.279C1037.94 140.464 1040.35 140.572 1042.72 140.603C1045.1 140.633 1047.54 140.71 1049.88 140.741L1050.45 145.63Z" fill="#263238"/>
<path opacity="0.2" d="M1002.72 140.541C1000.65 139.585 998.617 138.598 996.55 137.564L995.748 133.185C998.834 134.781 1001.29 137.374 1002.72 140.541Z" fill="black"/>
<path d="M961.789 144.505C964.338 150.775 966.37 157.243 967.865 163.844C968.976 168.47 972.908 173.097 973.587 177.338C974.235 182.016 975.162 186.651 976.363 191.218C981.067 188.689 995.301 185.558 1004.85 180.423C1005.25 141.991 994.931 127 994.931 127C992.311 127.667 989.736 128.496 987.22 129.483L985.554 130.177C980.961 132.345 976.482 134.749 972.137 137.38C971.289 137.888 970.441 138.413 969.623 138.922C965.429 141.667 961.789 144.505 961.789 144.505Z" fill="#159895"/>
<path opacity="0.7" d="M961.789 144.505C964.338 150.775 966.37 157.243 967.865 163.844C968.976 168.47 972.908 173.097 973.587 177.338C974.235 182.016 975.162 186.651 976.363 191.218C981.067 188.689 995.301 185.558 1004.85 180.423C1005.25 141.991 994.931 127 994.931 127C992.311 127.667 989.736 128.496 987.22 129.483L985.554 130.177C980.961 132.345 976.482 134.749 972.137 137.38C971.289 137.888 970.441 138.413 969.623 138.922C965.429 141.667 961.789 144.505 961.789 144.505Z" fill="white"/>
<path d="M987.066 143.78L987.652 140.217L985.2 140.063L983.704 141.713L987.066 143.78Z" fill="#159895"/>
<path d="M985.2 140.063C980.665 142.592 976.178 139.647 973.278 137.626L972.97 137.41C974.25 135.637 974.373 132.784 973.957 129.915C973.464 126.746 972.616 123.642 971.428 120.662L981.807 126.615C981.807 127.324 981.683 127.957 981.652 128.512C981.514 129.854 981.498 130.764 982.239 131.35C983.389 131.992 984.702 132.286 986.017 132.198C987.204 133.57 988.315 138.32 985.2 140.063Z" fill="#FFC2BC"/>
<path d="M969.685 138.968C969.685 138.968 982.747 152.601 992.309 160.019C992.309 160.019 991.6 135.914 987.282 129.514L996.165 125.797C996.165 125.797 1004.71 144.674 1005.93 176.197L1009.78 184.139L998.987 195.12L995.517 186.977L993.188 200.486L970.919 202.461L973.648 187.038L960.493 145.399L969.685 138.968Z" fill="#263238"/>
<path d="M985.894 143.055C985.894 143.055 988.978 153.573 988.762 159.186L992.741 161.253L993.45 158.168C993.45 158.168 989.95 144.612 986.726 142.237L985.894 143.055Z" fill="#159895"/>
<path d="M970.148 137.842C970.148 137.842 986.464 155.747 992.232 160.019C992.232 160.019 990.551 135.776 986.804 129.684C986.804 129.684 989.379 127.911 994.869 133.262L992.124 138.351L996.998 141.713C996.998 141.713 995.332 159.881 992.124 168.502C992.357 166.681 992.46 164.846 992.433 163.011L973.294 152.401L974.142 146.54L966.909 146.232C966.909 146.232 967.711 139.308 970.148 137.842Z" fill="#263238"/>
<path opacity="0.2" d="M970.148 137.842C970.148 137.842 986.464 155.747 992.232 160.019C992.232 160.019 990.551 135.776 986.804 129.684C986.804 129.684 989.379 127.911 994.869 133.262L992.124 138.351L996.998 141.713C996.998 141.713 995.332 159.881 992.124 168.502C992.357 166.681 992.46 164.846 992.433 163.011L973.294 152.401L974.142 146.54L966.909 146.232C966.909 146.232 967.711 139.308 970.148 137.842Z" fill="white"/>
<path d="M1036.59 53.6995C1036.59 53.6995 1027.33 52.6508 1022.17 55.0875C1017 57.5242 1011.8 65.4666 1003.41 66.2222C995.024 66.9779 993.343 64.2482 993.343 64.2482C993.343 64.2482 1000.73 77.357 1014.93 77.2182C1029.14 77.0794 1036.52 74.7352 1044.9 80.0096C1044.93 80.0096 1038.48 57.7864 1036.59 53.6995Z" fill="#159895"/>
<path opacity="0.2" d="M982.238 131.319C981.375 134.002 979.231 137.796 974.157 137.703C973.865 137.728 973.571 137.728 973.278 137.703L972.97 137.487C974.25 135.714 974.373 132.861 973.957 129.992C976.237 128.516 979.009 128.001 981.668 128.558C981.514 129.823 981.498 130.733 982.238 131.319Z" fill="black"/>
<path d="M985.2 140.063C985.281 141.926 984.883 143.78 984.043 145.445C981.19 145.044 972.662 140.819 972.23 137.287C972.45 136.439 972.91 135.673 973.556 135.082C976.807 137.941 980.887 139.686 985.2 140.063Z" fill="white"/>
<path d="M985.2 140.063C986.787 140.475 988.266 141.227 989.533 142.268C990.335 138.953 987.019 130.979 986.171 130.547C984.788 130.413 983.394 130.648 982.131 131.226C982.131 131.226 986.788 135.575 985.2 140.063Z" fill="white"/>
<path d="M962.36 117.331C962.19 119.968 963.902 124.903 966.863 122.436C969.824 119.968 962.653 112.797 962.36 117.331Z" fill="#263238"/>
<path d="M980.82 116.328C982.732 122.497 984.166 126.075 982.27 130.316C979.401 136.701 970.826 136.685 967.079 131.149C963.717 126.183 961.141 116.868 966.215 112.257C967.337 111.24 968.698 110.523 970.171 110.174C971.645 109.826 973.182 109.856 974.641 110.263C976.099 110.669 977.431 111.439 978.512 112.5C979.592 113.56 980.386 114.877 980.82 116.328Z" fill="#FFC2BC"/>
<path d="M981.807 108.479C981.19 104.438 976.394 105.009 973.587 107.137V115.11C974.67 114.595 975.702 113.981 976.671 113.275C976.671 113.275 977.766 119.243 981.421 120.986C986.079 116.467 986.464 109.497 981.807 108.479Z" fill="#263238"/>
<path d="M985.107 120.508C985.195 122.129 984.641 123.719 983.565 124.934C982.1 126.476 980.218 125.474 979.679 123.484C979.139 121.495 979.355 118.75 981.221 117.901C981.649 117.723 982.114 117.654 982.575 117.699C983.036 117.744 983.479 117.903 983.864 118.161C984.249 118.419 984.564 118.769 984.781 119.178C984.998 119.588 985.11 120.044 985.107 120.508Z" fill="#FFC2BC"/>
<path d="M972.214 121.418C972.399 121.911 972.214 122.405 971.952 122.528C971.69 122.651 971.212 122.343 971.027 121.85C970.842 121.356 971.027 120.862 971.289 120.739C971.551 120.616 972.014 120.924 972.214 121.418Z" fill="#263238"/>
<path d="M966.6 123.469C966.801 123.962 966.678 124.456 966.354 124.579C966.03 124.703 965.613 124.394 965.428 123.901C965.243 123.407 965.351 122.914 965.675 122.79C965.999 122.667 966.4 122.975 966.6 123.469Z" fill="#263238"/>
<path d="M968.467 123.068C968.406 124.751 968.11 126.417 967.588 128.018C968.016 128.125 968.461 128.139 968.895 128.06C969.328 127.98 969.74 127.808 970.102 127.556L968.467 123.068Z" fill="#ED893E"/>
<path d="M973.479 128.481L972.847 128.759C972.808 128.773 972.765 128.771 972.727 128.754C972.69 128.736 972.66 128.705 972.646 128.666C972.632 128.627 972.633 128.584 972.651 128.547C972.668 128.509 972.7 128.48 972.739 128.466C973.359 128.254 973.921 127.899 974.379 127.431C974.837 126.962 975.179 126.392 975.376 125.767C975.379 125.746 975.387 125.727 975.399 125.709C975.41 125.692 975.425 125.677 975.442 125.666C975.459 125.654 975.479 125.646 975.499 125.642C975.52 125.638 975.541 125.639 975.561 125.643C975.581 125.647 975.6 125.654 975.617 125.666C975.634 125.677 975.648 125.693 975.659 125.71C975.669 125.728 975.675 125.748 975.677 125.768C975.679 125.789 975.676 125.809 975.669 125.828C975.504 126.397 975.225 126.925 974.848 127.381C974.472 127.837 974.006 128.212 973.479 128.481Z" fill="#263238"/>
<path d="M973.263 118.981C973.213 119.008 973.158 119.022 973.101 119.022C973.044 119.022 972.989 119.008 972.939 118.981C972.615 118.76 972.243 118.62 971.855 118.572C971.466 118.524 971.071 118.569 970.703 118.703C970.627 118.736 970.542 118.737 970.465 118.707C970.388 118.677 970.327 118.617 970.294 118.541C970.261 118.466 970.26 118.38 970.291 118.303C970.321 118.227 970.38 118.165 970.456 118.133C970.918 117.956 971.416 117.894 971.907 117.95C972.398 118.007 972.868 118.18 973.278 118.456C973.346 118.503 973.393 118.574 973.41 118.654C973.427 118.734 973.413 118.818 973.371 118.888C973.342 118.926 973.305 118.958 973.263 118.981Z" fill="#263238"/>
<path d="M963.516 122.436C963.457 122.458 963.391 122.458 963.331 122.436C963.291 122.432 963.251 122.42 963.215 122.401C963.179 122.382 963.147 122.356 963.122 122.324C963.096 122.293 963.076 122.256 963.065 122.217C963.053 122.178 963.049 122.137 963.054 122.097C963.097 121.601 963.261 121.123 963.529 120.704C963.798 120.285 964.164 119.938 964.596 119.691C964.632 119.672 964.672 119.661 964.713 119.658C964.753 119.655 964.794 119.66 964.833 119.673C964.872 119.686 964.907 119.706 964.938 119.733C964.969 119.76 964.994 119.793 965.012 119.829C965.051 119.901 965.059 119.985 965.036 120.063C965.013 120.141 964.96 120.207 964.889 120.246C964.555 120.446 964.275 120.725 964.073 121.059C963.872 121.392 963.755 121.769 963.732 122.158C963.729 122.221 963.706 122.281 963.668 122.331C963.629 122.38 963.576 122.417 963.516 122.436Z" fill="#263238"/>
<path d="M976.533 113.321C976.533 113.321 972.631 117.346 968.822 117.146C969.849 116.679 970.784 116.031 971.582 115.233C971.582 115.233 964.133 118.457 960.463 116.776C956.792 115.095 957.209 113.275 957.209 113.275C957.209 113.275 957.625 114.339 961.188 114.231C961.188 114.231 958.103 112.211 959.352 109.358C959.531 109.699 959.792 109.99 960.113 110.203C960.434 110.416 960.804 110.544 961.188 110.576C962.396 108.715 964.019 107.159 965.929 106.029C967.84 104.9 969.986 104.229 972.199 104.068C980.203 103.158 981.822 106.319 982.177 108.694C982.532 111.069 976.533 113.321 976.533 113.321Z" fill="#263238"/>
<path d="M848.375 529.733H739.187C738.114 529.733 737.244 530.603 737.244 531.676V556.567C737.244 557.641 738.114 558.511 739.187 558.511H848.375C849.448 558.511 850.318 557.641 850.318 556.567V531.676C850.318 530.603 849.448 529.733 848.375 529.733Z" fill="#159895"/>
<path opacity="0.2" d="M746.775 531.398H742.302V557.107H746.775V531.398Z" fill="black"/>
<path opacity="0.2" d="M756.938 531.275H753.683V556.984H756.938V531.275Z" fill="black"/>
<path opacity="0.2" d="M766.283 531.398H764.664V557.107H766.283V531.398Z" fill="black"/>
<path opacity="0.2" d="M778.899 531.275H778.081V556.984H778.899V531.275Z" fill="black"/>
<path opacity="0.2" d="M840.788 556.984H845.26V531.275H840.788V556.984Z" fill="black"/>
<path opacity="0.2" d="M830.624 557.107H833.878V531.398H830.624V557.107Z" fill="black"/>
<path opacity="0.2" d="M821.263 556.984H822.882V531.275H821.263V556.984Z" fill="black"/>
<path opacity="0.2" d="M808.648 557.107H809.465V531.398H808.648V557.107Z" fill="black"/>
<path opacity="0.2" d="M793.58 557.107H793.981V531.398H793.58V557.107Z" fill="black"/>
<path opacity="0.2" d="M847.296 534.113H740.498C740.319 534.115 740.142 534.081 739.976 534.014C739.81 533.946 739.66 533.846 739.533 533.72C739.407 533.593 739.307 533.443 739.24 533.277C739.172 533.112 739.139 532.934 739.141 532.756C739.141 532.396 739.284 532.05 739.538 531.796C739.793 531.541 740.138 531.398 740.498 531.398H847.296C847.656 531.398 848.001 531.541 848.255 531.796C848.51 532.05 848.653 532.396 848.653 532.756C848.655 532.934 848.621 533.112 848.554 533.277C848.486 533.443 848.386 533.593 848.26 533.72C848.133 533.846 847.983 533.946 847.817 534.014C847.652 534.081 847.474 534.115 847.296 534.113Z" fill="white"/>
<path d="M849.917 501.032H740.729C739.656 501.032 738.786 501.902 738.786 502.975V527.867C738.786 528.94 739.656 529.81 740.729 529.81H849.917C850.991 529.81 851.861 528.94 851.861 527.867V502.975C851.861 501.902 850.991 501.032 849.917 501.032Z" fill="#159895"/>
<path opacity="0.2" d="M748.317 502.698H743.844V528.406H748.317V502.698Z" fill="black"/>
<path opacity="0.2" d="M758.48 502.575H755.226V528.283H758.48V502.575Z" fill="black"/>
<path opacity="0.2" d="M767.826 502.698H766.206V528.406H767.826V502.698Z" fill="black"/>
<path opacity="0.2" d="M780.457 502.575H779.639V528.283H780.457V502.575Z" fill="black"/>
<path opacity="0.2" d="M842.33 528.268H846.802V502.559H842.33V528.268Z" fill="black"/>
<path opacity="0.2" d="M832.151 528.391H835.405V502.682H832.151V528.391Z" fill="black"/>
<path opacity="0.2" d="M822.805 528.268H824.425V502.559H822.805V528.268Z" fill="black"/>
<path opacity="0.2" d="M810.19 528.391H811.007V502.682H810.19V528.391Z" fill="black"/>
<path opacity="0.2" d="M795.123 528.391H795.524V502.682H795.123V528.391Z" fill="black"/>
<path opacity="0.2" d="M848.838 505.412H742.04C741.68 505.412 741.335 505.269 741.08 505.015C740.826 504.76 740.683 504.415 740.683 504.055C740.681 503.876 740.714 503.699 740.782 503.533C740.849 503.368 740.949 503.217 741.076 503.091C741.202 502.964 741.353 502.864 741.518 502.797C741.684 502.729 741.861 502.696 742.04 502.698H848.838C849.017 502.696 849.194 502.729 849.36 502.797C849.525 502.864 849.676 502.964 849.802 503.091C849.929 503.217 850.028 503.368 850.096 503.533C850.163 503.699 850.197 503.876 850.195 504.055C850.195 504.415 850.052 504.76 849.798 505.015C849.543 505.269 849.198 505.412 848.838 505.412Z" fill="white"/>
<path d="M843.749 472.332H734.56C733.487 472.332 732.617 473.202 732.617 474.275V499.166C732.617 500.24 733.487 501.11 734.56 501.11H843.749C844.822 501.11 845.692 500.24 845.692 499.166V474.275C845.692 473.202 844.822 472.332 843.749 472.332Z" fill="#159895"/>
<path opacity="0.2" d="M742.132 473.982H737.66V499.691H742.132V473.982Z" fill="black"/>
<path opacity="0.2" d="M752.311 473.859H749.057V499.567H752.311V473.859Z" fill="black"/>
<path opacity="0.2" d="M761.657 473.982H760.038V499.691H761.657V473.982Z" fill="black"/>
<path opacity="0.2" d="M774.272 473.859H773.455V499.567H774.272V473.859Z" fill="black"/>
<path opacity="0.2" d="M836.146 499.567H840.618V473.859H836.146V499.567Z" fill="black"/>
<path opacity="0.2" d="M825.998 499.691H829.252V473.982H825.998V499.691Z" fill="black"/>
<path opacity="0.2" d="M816.637 499.567H818.256V473.859H816.637V499.567Z" fill="black"/>
<path opacity="0.2" d="M804.021 499.691H804.839V473.982H804.021V499.691Z" fill="black"/>
<path opacity="0.2" d="M788.954 499.691H789.355V473.982H788.954V499.691Z" fill="black"/>
<path opacity="0.2" d="M842.669 476.696H735.871C735.692 476.698 735.515 476.665 735.349 476.597C735.184 476.53 735.033 476.43 734.907 476.303C734.78 476.177 734.68 476.026 734.613 475.861C734.546 475.695 734.512 475.518 734.514 475.339C734.514 474.979 734.657 474.634 734.911 474.379C735.166 474.125 735.511 473.982 735.871 473.982H842.669C843.028 473.986 843.37 474.13 843.624 474.384C843.878 474.638 844.022 474.98 844.026 475.339C844.026 475.699 843.883 476.044 843.629 476.299C843.374 476.553 843.029 476.696 842.669 476.696Z" fill="white"/>
<path d="M782.245 453.301L779.146 460.935L776.801 466.703L770.91 464.606L773.023 459.424L776.354 451.188L782.245 453.301Z" fill="#E4897B"/>
<path d="M908.151 412.433L903.139 416.15L901.304 412.078L897.047 402.671L902.059 398.938L906.085 407.852L908.151 412.433Z" fill="#E4897B"/>
<path opacity="0.2" d="M776.354 451.188L782.245 453.301L779.146 460.935L773.023 459.424L776.354 451.188Z" fill="black"/>
<path opacity="0.2" d="M906.085 407.852L901.304 412.078L897.047 402.671L902.059 398.938L906.085 407.852Z" fill="black"/>
<path d="M826.46 241.941C826.63 242.42 827.016 242.713 827.324 242.605C827.632 242.497 827.756 242.019 827.586 241.54C827.417 241.062 827.031 240.769 826.723 240.877C826.414 240.985 826.26 241.463 826.46 241.941Z" fill="#263238"/>
<path d="M826.969 242.728C828.048 243.978 829.293 245.073 830.671 245.982C830.432 246.332 830.119 246.624 829.753 246.837C829.388 247.05 828.979 247.18 828.558 247.216L826.969 242.728Z" fill="#DE5753"/>
<path d="M823.792 239.921C823.722 239.942 823.647 239.942 823.577 239.921C823.526 239.867 823.497 239.795 823.497 239.721C823.497 239.646 823.526 239.574 823.577 239.52C823.835 239.129 824.182 238.806 824.589 238.575C824.997 238.344 825.453 238.214 825.921 238.194C826 238.198 826.074 238.232 826.129 238.289C826.183 238.347 826.214 238.423 826.214 238.502C826.214 238.542 826.206 238.582 826.19 238.618C826.174 238.655 826.151 238.688 826.122 238.715C826.094 238.743 826.059 238.764 826.022 238.778C825.985 238.791 825.945 238.797 825.905 238.795C825.534 238.811 825.172 238.916 824.85 239.101C824.528 239.286 824.255 239.546 824.055 239.859C824.017 239.887 823.975 239.907 823.93 239.917C823.885 239.928 823.838 239.929 823.792 239.921Z" fill="#263238"/>
<path d="M815.048 249.714C815.125 254.341 814.539 262.761 810.853 265.214C810.853 265.214 811.27 269.994 819.628 271.475C828.882 273.125 824.841 267.697 824.841 267.697C820.045 265.615 820.831 261.913 822.327 258.567L815.048 249.714Z" fill="#E4897B"/>
<path d="M810.267 246.522C812.673 252.228 813.799 255.775 817.809 257.657C823.823 260.587 830.146 255.374 829.421 249.067C828.835 243.376 824.98 235.002 818.441 234.693C817.002 234.62 815.569 234.915 814.276 235.551C812.984 236.188 811.876 237.144 811.057 238.329C810.238 239.514 809.735 240.889 809.597 242.323C809.459 243.757 809.69 245.202 810.267 246.522Z" fill="#E4897B"/>
<path d="M814.339 255.806C817.053 256.901 825.581 250.794 822.667 243.761C822.667 243.761 825.581 239.057 824.533 234.508C823.484 229.958 820.06 228.586 816.822 230.066C813.953 231.362 814.262 232.981 814.262 232.981C814.262 232.981 800.382 236.621 804.176 241.941C799.287 248.974 810.93 254.464 814.339 255.806Z" fill="#263238"/>
<path d="M820.384 245.365C820.995 246.779 822.051 247.954 823.391 248.712C825.18 249.684 826.214 248.326 825.844 246.522C825.473 244.718 824.193 242.435 822.343 242.204C820.492 241.973 819.675 243.669 820.384 245.365Z" fill="#E4897B"/>
<path d="M808.632 265.26C807.985 263.964 807.275 262.484 808.848 262.083C810.421 261.682 821.587 261.034 824.779 262.083C823.731 263.825 825.35 266.046 825.35 266.046L808.632 265.26Z" fill="#159895"/>
<path opacity="0.5" d="M808.632 265.26C807.985 263.964 807.275 262.484 808.848 262.083C810.421 261.682 821.587 261.034 824.779 262.083C823.731 263.825 825.35 266.046 825.35 266.046L808.632 265.26Z" fill="#FAFAFA"/>
<path d="M777.202 464.205H770.386C770.262 464.206 770.142 464.249 770.047 464.328C769.952 464.406 769.886 464.515 769.861 464.636L768.627 470.188C768.594 470.322 768.592 470.462 768.622 470.597C768.652 470.732 768.712 470.858 768.799 470.966C768.885 471.073 768.996 471.159 769.121 471.217C769.247 471.275 769.384 471.303 769.522 471.299C771.974 471.299 775.537 471.114 778.621 471.114C782.245 471.114 785.36 471.314 789.602 471.314C792.177 471.314 792.886 468.723 791.807 468.492C786.918 467.412 782.939 467.304 778.714 464.698C778.264 464.4 777.741 464.229 777.202 464.205Z" fill="#263238"/>
<path d="M821.309 320.393C821.309 320.393 819.366 333.487 817.007 348.539C815.973 354.985 814.863 361.786 813.768 368.078C812.55 375.126 811.362 381.511 810.375 386.014C806.072 405.6 783.232 459.578 783.232 459.578L772.051 457.156C772.051 457.156 788.029 415.162 791.591 387.757C794.352 366.737 799.765 320.378 799.765 320.378L821.309 320.393Z" fill="#263238"/>
<path d="M785.901 455.83L783.819 459.871L771.234 457.141L772.283 453.409L785.901 455.83Z" fill="#159895"/>
<path opacity="0.3" d="M785.901 455.83L783.819 459.871L771.234 457.141L772.283 453.409L785.901 455.83Z" fill="black"/>
<path opacity="0.2" d="M817.007 348.539C815.973 354.985 814.863 361.786 813.768 368.079C810.684 355.633 811.686 348.184 811.686 348.184L817.007 348.539Z" fill="black"/>
<path d="M803.034 276.687C800.027 279.525 796.865 282.532 793.997 285.54C791.098 288.484 788.35 291.572 785.762 294.793C784.657 296.389 783.663 298.058 782.785 299.79C781.829 301.656 780.857 303.553 779.932 305.496L774.272 317.186L769.831 315.644C770.787 311.31 772.005 307.084 773.331 302.843C774.025 300.73 774.766 298.618 775.583 296.505C776.445 294.232 777.503 292.039 778.745 289.95C781.251 286.127 784.067 282.516 787.165 279.155C790.161 275.792 793.354 272.609 796.727 269.624L803.034 276.687Z" fill="#DC897C"/>
<path d="M769.46 327.056L771.727 323.031L764.818 320.934C764.429 321.865 764.238 322.868 764.26 323.877C764.281 324.886 764.513 325.88 764.942 326.794L769.46 327.056Z" fill="#E4897B"/>
<path d="M774.257 317.124L769.831 315.69L764.818 320.933L771.727 323.031L774.257 317.124Z" fill="#E4897B"/>
<path d="M908.074 411.584L902.445 415.764C902.347 415.84 902.277 415.946 902.246 416.066C902.215 416.186 902.225 416.313 902.275 416.427L904.589 421.624C904.643 421.752 904.727 421.864 904.833 421.954C904.938 422.043 905.064 422.107 905.198 422.14C905.333 422.173 905.473 422.174 905.608 422.143C905.743 422.113 905.869 422.051 905.977 421.963C907.92 420.421 908.799 419.65 911.266 417.815C912.809 416.689 916.325 414.206 918.438 412.649C920.551 411.091 919.271 408.793 918.268 409.256C913.78 411.276 911.189 411.492 909.123 411.291C908.749 411.258 908.376 411.363 908.074 411.584Z" fill="#263238"/>
<path d="M800.351 265.846C794.352 265.476 785.499 278.446 785.499 278.446L794.228 290.367C798.059 288.132 801.247 284.944 803.482 281.114C807.63 274.112 806.473 266.231 800.351 265.846Z" fill="#159895"/>
<path opacity="0.6" d="M800.351 265.846C794.352 265.476 785.499 278.446 785.499 278.446L794.228 290.367C798.059 288.132 801.247 284.944 803.482 281.114C807.63 274.112 806.473 266.231 800.351 265.846Z" fill="#FAFAFA"/>
<path opacity="0.2" d="M802.047 277.813C798.115 279.926 795.493 285.124 793.843 289.827L794.228 290.367C798.059 288.132 801.247 284.945 803.482 281.114C803.728 280.713 803.96 280.281 804.176 279.865L802.047 277.813Z" fill="black"/>
<path d="M835.852 264.89C835.852 264.89 839.446 273.927 833.154 320.409H799.765C799.533 315.274 802.757 290.259 797.806 266.108C801.498 265.392 805.233 264.918 808.987 264.689C813.259 264.489 827.494 261.605 831.257 261.959C836.207 262.391 835.852 264.89 835.852 264.89Z" fill="#159895"/>
<path opacity="0.6" d="M836.639 285.385C836.238 293.605 835.236 304.925 833.154 320.393H799.765C799.533 315.258 802.757 290.243 797.806 266.092C801.498 265.376 805.233 264.902 808.987 264.673C813.259 264.473 827.494 261.589 831.257 261.944C836.207 262.391 835.883 264.889 835.883 264.889C835.883 264.889 836.639 266.786 836.839 273.31C836.917 276.286 836.901 280.219 836.639 285.385Z" fill="#FAFAFA"/>
<path d="M831.796 317.695L838.397 333.117C838.397 333.117 870.367 337.127 879.435 348.123C888.503 359.119 905.653 403.735 905.653 403.735L897.109 410.998C897.109 410.998 872.588 365.904 865.725 360.46C858.862 355.016 819.798 355.032 811.069 351.778C802.34 348.524 799.826 320.347 799.826 320.347L831.796 317.695Z" fill="#263238"/>
<path d="M895.289 410.15L905.591 402.254L906.918 404.799L897.047 412.587L895.289 410.15Z" fill="#159895"/>
<path opacity="0.3" d="M895.289 410.15L905.591 402.254L906.918 404.799L897.047 412.587L895.289 410.15Z" fill="black"/>
<path d="M824.718 236.729C824.718 236.729 824.332 227.568 819.49 227.26C814.647 226.951 810.838 231.331 810.838 231.331C810.369 230.747 809.775 230.274 809.1 229.949C808.425 229.623 807.686 229.453 806.936 229.45C804.191 229.295 799.41 233.968 799.41 233.968C799.41 233.968 805.378 230.298 807.892 231.979C807.892 231.979 801.122 233.86 799.41 238.148C798.676 240.326 797.464 242.312 795.863 243.962H799.41L797.081 247.925C797.081 247.925 801.986 252.66 805.687 251.873L804.499 254.125C804.499 254.125 811.763 256.778 814.724 255.96C817.685 255.143 814.878 240.399 814.878 240.399L824.718 236.729Z" fill="#263238"/>
<path opacity="0.2" d="M836.639 285.385C830.578 281.268 830.67 271.783 830.67 271.783L836.839 273.325C836.916 276.286 836.901 280.219 836.639 285.385Z" fill="black"/>
<path d="M780.734 332.207L739.542 325.282L728.885 356.99L735.702 369.374L780.672 375.296L789.787 340.751L780.734 332.207Z" fill="#159895"/>
<path opacity="0.4" d="M728.885 356.99L731.538 361.817L732.139 362.881L735.702 369.374L780.672 375.296L789.787 340.751L785.916 337.111L784.728 335.985L780.749 332.207L739.542 325.282L728.885 356.99Z" fill="black"/>
<path opacity="0.2" d="M789.787 340.751L749.011 334.412L739.542 325.282L780.749 332.207L789.787 340.751Z" fill="white"/>
<path opacity="0.1" d="M749.011 334.412L735.702 369.374L728.885 356.99L739.542 325.282L749.011 334.412Z" fill="white"/>
<path d="M731.538 361.817L732.139 362.881L744.461 330.14L785.916 337.111L784.728 335.985L743.721 329.416L731.538 361.817Z" fill="#263238"/>
<path d="M772.005 334.089L769.923 332.161L759.544 330.279L761.364 332.377L772.005 334.089Z" fill="#263238"/>
<path d="M776.015 334.86C776.015 334.86 776.493 323.972 776.2 323.247C775.907 322.522 761.302 320.162 760.207 319.931C759.112 319.7 754.3 330.31 754.3 330.31L755.133 331.59L757.894 331.96C757.894 331.96 761.395 322.815 761.749 322.584C765.751 323.009 769.726 323.658 773.655 324.527C773.964 324.773 772.761 333.086 772.761 333.086L773.701 334.443L776.015 334.86Z" fill="#263238"/>
<path d="M731.676 352.163L734.761 356.126L735.054 355.34L737.383 349.171L737.66 348.431L738.154 347.104C738.154 347.104 737.275 348.091 736.072 349.217C734.824 350.49 733.328 351.493 731.676 352.163Z" fill="#159895"/>
<path opacity="0.2" d="M732.679 352.456L734.977 355.34L737.305 349.171L737.583 348.431C736.305 350.156 734.62 351.539 732.679 352.456Z" fill="white"/>
<path opacity="0.2" d="M735.995 349.202H737.305L738.076 347.135C738.076 347.135 737.197 348.076 735.995 349.202Z" fill="black"/>
<path d="M730.55 344.406L729.98 349.989C732.285 348.935 734.851 348.592 737.352 349.002L737.645 348.23L739.434 343.434L739.634 342.941C736.53 342.635 733.401 343.14 730.55 344.406Z" fill="#159895"/>
<path d="M736.411 334.937C737.488 337.037 738.906 338.944 740.606 340.581L740.822 339.995L741.377 338.453L742.302 335.908L742.749 334.675L742.873 334.32C742.134 333.19 741.494 331.998 740.96 330.757L736.411 334.937Z" fill="#159895"/>
<path d="M745.849 327.75C746.412 328.631 746.848 329.586 747.145 330.588L747.792 330.696L748.687 330.835L750.121 331.097L751.494 331.328L751.972 331.405C751.947 329.264 751.148 327.203 749.72 325.606L745.849 327.75Z" fill="#159895"/>
<path opacity="0.2" d="M746.713 327.904C747.173 328.792 747.535 329.728 747.792 330.695L748.687 330.834C748.611 330.716 748.562 330.584 748.544 330.445C748.525 330.307 748.537 330.166 748.579 330.032C748.619 329.91 748.683 329.798 748.767 329.701C748.85 329.604 748.953 329.524 749.067 329.467C749.182 329.409 749.307 329.375 749.435 329.367C749.563 329.358 749.691 329.374 749.813 329.415C749.934 329.454 750.046 329.516 750.143 329.598C750.24 329.681 750.319 329.781 750.377 329.895C750.434 330.008 750.469 330.132 750.478 330.259C750.487 330.386 750.47 330.513 750.429 330.634C750.373 330.814 750.266 330.975 750.121 331.096L751.494 331.328C751.412 329.513 750.783 327.766 749.689 326.315L746.713 327.904Z" fill="white"/>
<path opacity="0.2" d="M730.921 344.622L730.566 349.141C732.843 348.375 735.248 348.066 737.645 348.231L739.434 343.434C736.541 343.084 733.607 343.493 730.921 344.622ZM735.871 344.252C736.056 344.187 736.254 344.167 736.448 344.191C736.643 344.215 736.829 344.283 736.993 344.391C737.157 344.498 737.294 344.642 737.394 344.811C737.493 344.98 737.553 345.17 737.567 345.365C737.582 345.561 737.552 345.757 737.478 345.939C737.405 346.121 737.291 346.283 737.145 346.414C736.999 346.545 736.825 346.641 736.636 346.694C736.447 346.746 736.249 346.755 736.056 346.719C735.871 346.784 735.673 346.805 735.479 346.78C735.284 346.756 735.098 346.688 734.934 346.58C734.77 346.473 734.633 346.329 734.533 346.16C734.434 345.991 734.375 345.801 734.36 345.606C734.345 345.41 734.376 345.214 734.449 345.032C734.522 344.85 734.636 344.688 734.782 344.557C734.928 344.426 735.102 344.33 735.291 344.277C735.48 344.225 735.678 344.216 735.871 344.252Z" fill="white"/>
<path opacity="0.2" d="M737.197 335.183C738.211 336.925 739.428 338.54 740.821 339.995L741.377 338.453C741.061 338.325 740.808 338.081 740.67 337.77C740.532 337.459 740.52 337.107 740.636 336.787C740.733 336.47 740.945 336.201 741.231 336.033C741.516 335.864 741.854 335.809 742.179 335.877L742.626 334.644C741.842 333.777 741.207 332.787 740.744 331.713L737.197 335.183Z" fill="white"/>
<path d="M875.194 235.742L877.569 231.778L882.813 236.744C882.196 237.542 881.419 238.203 880.532 238.684C879.645 239.164 878.667 239.454 877.662 239.536L875.194 235.742Z" fill="#E4897B"/>
<path d="M881.24 226.473L884.956 231.701L882.813 236.744L877.569 231.778L881.24 226.473Z" fill="#E4897B"/>
<path d="M834.156 262.731C838.424 261.855 842.645 260.764 846.802 259.461C850.808 258.273 854.651 256.595 858.245 254.464C858.573 254.259 858.888 254.032 859.186 253.786L860.25 252.799C860.99 252.089 861.792 251.257 862.486 250.516C863.951 248.882 865.463 247.201 866.913 245.473C869.889 242.05 872.788 238.487 875.78 235.017L879.682 237.608C877.538 241.787 875.163 245.766 872.65 249.73C871.369 251.688 870.059 253.662 868.609 255.59C867.884 256.546 867.067 257.518 866.296 258.489C865.895 258.968 865.386 259.461 864.938 259.955C864.387 260.501 863.805 261.016 863.196 261.497C859.101 264.434 854.596 266.752 849.825 268.375C845.263 270.026 840.568 271.279 835.791 272.123L834.156 262.731Z" fill="#DC897C"/>
<path d="M832.167 276.209C838.659 281.839 852.925 272.184 852.925 272.184L847.234 258.135C841.999 258.745 836.835 259.856 831.812 261.451C822.79 264.519 827.201 271.922 832.167 276.209Z" fill="#159895"/>
<path opacity="0.6" d="M832.167 276.209C838.659 281.839 852.925 272.184 852.925 272.184L847.234 258.135C841.999 258.745 836.835 259.856 831.812 261.451C822.79 264.519 827.201 271.922 832.167 276.209Z" fill="#FAFAFA"/>
<defs>
<linearGradient id="paint0_linear_551_2107" x1="661.5" y1="1375.5" x2="743.881" y2="538.813" gradientUnits="userSpaceOnUse">
<stop stop-color="#1A5F7A"/>
<stop offset="0.494254" stop-color="#159895"/>
<stop offset="1" stop-color="#A5AAAC"/>
</linearGradient>
</defs>
</svg>
