<svg width="387" height="158" viewBox="0 0 387 158" fill="none" xmlns="http://www.w3.org/2000/svg">
<mask id="mask0_116_4137" style="mask-type:alpha" maskUnits="userSpaceOnUse" x="0" y="0" width="387" height="158">
<mask id="mask1_116_4137" style="mask-type:luminance" maskUnits="userSpaceOnUse" x="0" y="0" width="123" height="158">
<path d="M0 0H122.248V158H0V0Z" fill="white"/>
</mask>
<g mask="url(#mask1_116_4137)">
<path fill-rule="evenodd" clip-rule="evenodd" d="M105.471 76.8076V76.7956L122.26 83.2227V135.163L61.142 158.559L0.0239258 135.163V72.3987L16.8126 78.8258V123.612C29.715 128.549 50.8526 136.646 61.142 140.587L105.471 123.612V94.7856L92.9294 89.9802V72.0022L105.471 76.8076ZM16.8126 60.8418V60.8538L0.0239258 54.4206V0H122.26V65.2447L105.471 58.8175V16.7887H16.8126V42.8638L32.5021 48.8704V27.9431H89.7819V106.871H49.2908V124.939L32.5021 118.512V66.8485L16.8126 60.8418ZM49.2908 52.6727V90.0824H72.9932V44.7318C72.9932 44.7318 60.4272 44.7318 49.2908 44.7318V52.6727Z" fill="white"/>
</g>
<path d="M174.047 46.4291C174.047 50.9642 172.707 54.4721 170.034 56.9528C167.355 59.4216 163.559 60.653 158.646 60.653H155.546V74.132H144.59V33.5267H158.646C163.769 33.5267 167.613 34.65 170.178 36.8905C172.755 39.119 174.047 42.2965 174.047 46.4291ZM155.546 51.715H157.564C159.21 51.715 160.52 51.2525 161.481 50.3214C162.454 49.3964 162.946 48.123 162.946 46.5012C162.946 43.7501 161.421 42.3686 158.381 42.3686H155.546V51.715Z" fill="white"/>
<path d="M186.452 74.132V33.5267H197.48V74.132H186.452Z" fill="white"/>
<path d="M250.833 74.132H236.441L221.616 45.5161H221.352C221.7 50.0211 221.881 53.4569 221.881 55.8236V74.132H212.174V33.5267H226.494L241.27 61.7342H241.438C241.18 57.6496 241.054 54.37 241.054 51.8832V33.5267H250.833V74.132Z" fill="white"/>
<path d="M262.341 86.8902C260.341 86.8902 258.442 86.6859 256.646 86.2895V77.76C257.241 77.8681 257.872 78.0003 258.545 78.1444C259.205 78.2886 259.914 78.3607 260.683 78.3607C262.509 78.3607 263.806 77.8081 264.575 76.7028C265.356 75.6096 265.753 73.7475 265.753 71.1046V33.5267H276.781V70.1675C276.781 75.6577 275.568 79.8143 273.153 82.6374C270.75 85.4726 267.146 86.8902 262.341 86.8902Z" fill="white"/>
<path d="M316.397 74.1317L314.403 66.5152H301.188L299.146 74.1317H287.084L300.347 33.3583H314.98L328.386 74.1317H316.397ZM312.12 57.5292L310.366 50.8498C309.964 49.3781 309.465 47.462 308.877 45.1074C308.3 42.7527 307.916 41.0649 307.723 40.0377C307.561 40.9868 307.231 42.5485 306.738 44.7229C306.24 46.8853 305.153 51.1561 303.471 57.5292H312.12Z" fill="white"/>
<path d="M356.388 74.132L348.099 44.8674H347.835C348.219 49.8529 348.411 53.7272 348.411 56.4963V74.132H338.705V33.5267H353.313L361.794 62.3589H362.011L370.324 33.5267H384.956V74.132H374.865V56.3281C374.865 55.4031 374.877 54.376 374.913 53.2527C374.943 52.1174 375.063 49.3484 375.273 44.9394H375.033L366.84 74.132H356.388Z" fill="white"/>
<path d="M226.308 110.325C226.308 112.601 225.492 114.385 223.858 115.683C222.236 116.98 219.977 117.629 217.082 117.629C214.403 117.629 212.037 117.124 209.97 116.115V111.19C211.664 111.947 213.1 112.481 214.271 112.799C215.436 113.106 216.512 113.256 217.491 113.256C218.656 113.256 219.545 113.034 220.158 112.583C220.782 112.139 221.095 111.472 221.095 110.589C221.095 110.096 220.956 109.652 220.686 109.268C220.41 108.883 220.013 108.517 219.485 108.162C218.956 107.814 217.875 107.249 216.241 106.48C214.703 105.76 213.55 105.075 212.781 104.414C212.012 103.741 211.394 102.967 210.931 102.084C210.481 101.207 210.259 100.173 210.259 98.9841C210.259 96.7736 211.009 95.0377 212.517 93.7703C214.019 92.4909 216.103 91.8481 218.764 91.8481C220.061 91.8481 221.299 92.0103 222.488 92.3287C223.671 92.635 224.903 93.0675 226.188 93.6261L224.482 97.7587C223.149 97.2181 222.044 96.8397 221.167 96.6295C220.284 96.4072 219.419 96.2931 218.572 96.2931C217.575 96.2931 216.806 96.5274 216.265 96.9899C215.737 97.4584 215.472 98.0651 215.472 98.8159C215.472 99.2844 215.574 99.6929 215.785 100.041C216.007 100.396 216.349 100.738 216.818 101.074C217.298 101.399 218.428 101.975 220.206 102.804C222.542 103.928 224.146 105.057 225.011 106.192C225.876 107.315 226.308 108.691 226.308 110.325Z" fill="white"/>
<path d="M249.754 117.293H235.314V92.2087H249.754V96.5816H240.648V102.084H249.129V106.433H240.648V112.896H249.754V117.293Z" fill="white"/>
<path d="M264.78 103.357H266.486C268.168 103.357 269.405 103.081 270.21 102.516C271.009 101.958 271.412 101.075 271.412 99.8733C271.412 98.6719 271.003 97.825 270.186 97.3264C269.369 96.8339 268.102 96.5816 266.39 96.5816H264.78V103.357ZM264.78 107.682V117.293H259.446V92.2087H266.75C270.162 92.2087 272.685 92.8334 274.319 94.0828C275.953 95.3202 276.77 97.2003 276.77 99.7291C276.77 101.207 276.361 102.516 275.544 103.67C274.739 104.823 273.598 105.724 272.108 106.361C275.887 112.001 278.343 115.647 279.485 117.293H273.598L267.591 107.682H264.78Z" fill="white"/>
<path d="M302.446 117.293L300.644 111.335H291.49L289.664 117.293H283.946L292.788 92.1132H299.299L308.189 117.293H302.446ZM299.371 106.866C297.689 101.454 296.734 98.3962 296.512 97.6874C296.302 96.9846 296.157 96.426 296.079 96.0055C295.695 97.4651 294.614 101.087 292.836 106.866H299.371Z" fill="white"/>
<path d="M325.47 117.293H320.161V96.6537H313.337V92.2087H332.27V96.6537H325.47V117.293Z" fill="white"/>
<path d="M361.012 92.2087V108.451C361.012 110.295 360.592 111.911 359.763 113.304C358.928 114.698 357.727 115.773 356.159 116.524C354.603 117.263 352.753 117.629 350.609 117.629C347.389 117.629 344.878 116.806 343.088 115.154C341.31 113.508 340.421 111.25 340.421 108.379V92.2087H345.731V107.562C345.731 109.502 346.116 110.926 346.885 111.839C347.665 112.74 348.957 113.184 350.753 113.184C352.483 113.184 353.738 112.728 354.525 111.815C355.306 110.902 355.702 109.478 355.702 107.538V92.2087H361.012Z" fill="white"/>
<path d="M386.397 110.325C386.397 112.601 385.58 114.385 383.946 115.683C382.324 116.98 380.066 117.629 377.171 117.629C374.492 117.629 372.125 117.124 370.059 116.115V111.19C371.752 111.947 373.188 112.481 374.359 112.799C375.525 113.106 376.6 113.256 377.579 113.256C378.744 113.256 379.633 113.034 380.246 112.583C380.871 112.139 381.183 111.472 381.183 110.589C381.183 110.096 381.045 109.652 380.775 109.268C380.498 108.883 380.102 108.517 379.573 108.162C379.045 107.814 377.963 107.249 376.33 106.48C374.792 105.76 373.639 105.075 372.87 104.414C372.101 103.741 371.482 102.967 371.02 102.084C370.569 101.207 370.347 100.173 370.347 98.9841C370.347 96.7736 371.098 95.0377 372.605 93.7703C374.107 92.4909 376.191 91.8481 378.852 91.8481C380.15 91.8481 381.387 92.0103 382.577 92.3287C383.76 92.635 384.991 93.0675 386.277 93.6261L384.571 97.7587C383.237 97.2181 382.132 96.8397 381.255 96.6295C380.372 96.4072 379.507 96.2931 378.66 96.2931C377.663 96.2931 376.894 96.5274 376.354 96.9899C375.825 97.4584 375.561 98.0651 375.561 98.8159C375.561 99.2844 375.663 99.6929 375.873 100.041C376.095 100.396 376.438 100.738 376.906 101.074C377.387 101.399 378.516 101.975 380.294 102.804C382.631 103.928 384.234 105.057 385.099 106.192C385.964 107.315 386.397 108.691 386.397 110.325Z" fill="white"/>
<path d="M154.986 89.8985C154.986 91.8867 154.44 93.4064 153.352 94.4636C152.277 95.5207 150.722 96.0493 148.691 96.0493H145.352V83.9639H149.052C150.926 83.9639 152.379 84.4864 153.425 85.5256C154.464 86.5708 154.986 88.0244 154.986 89.8985ZM153.497 89.9465C153.497 88.3788 153.1 87.1955 152.319 86.3906C151.532 85.5917 150.355 85.1892 148.787 85.1892H146.769V94.824H148.475C150.139 94.824 151.388 94.4155 152.223 93.5986C153.07 92.7817 153.497 91.5683 153.497 89.9465Z" fill="white"/>
<path d="M170.916 83.9639V91.7966C170.916 93.1781 170.495 94.2593 169.666 95.0402C168.832 95.8271 167.684 96.2175 166.231 96.2175C164.771 96.2175 163.642 95.8271 162.843 95.0402C162.056 94.2413 161.666 93.1421 161.666 91.7485V83.9639H163.059V91.8446C163.059 92.8538 163.329 93.6346 163.876 94.1752C164.435 94.7219 165.252 94.9922 166.327 94.9922C167.336 94.9922 168.111 94.7219 168.657 94.1752C169.216 93.6346 169.498 92.8538 169.498 91.8446V83.9639H170.916Z" fill="white"/>
<path d="M178.2 96.0493V83.9639H179.618V94.7759H184.928V96.0493H178.2Z" fill="white"/>
<path d="M200.214 83.9639V91.7966C200.214 93.1781 199.794 94.2593 198.965 95.0402C198.13 95.8271 196.983 96.2175 195.529 96.2175C194.069 96.2175 192.94 95.8271 192.141 95.0402C191.354 94.2413 190.964 93.1421 190.964 91.7485V83.9639H192.357V91.8446C192.357 92.8538 192.628 93.6346 193.174 94.1752C193.733 94.7219 194.55 94.9922 195.625 94.9922C196.634 94.9922 197.409 94.7219 197.956 94.1752C198.514 93.6346 198.797 92.8538 198.797 91.8446V83.9639H200.214Z" fill="white"/>
</mask>
<g mask="url(#mask0_116_4137)">
<rect x="-16.6294" y="-23.4773" width="420.635" height="204.448" fill="#159895"/>
</g>
</svg>
