<svg width="1280" height="2103" viewBox="0 0 1280 2103" fill="none" xmlns="http://www.w3.org/2000/svg">
<g opacity="0.7">
<path d="M-141.082 1314.06C-124.616 1348.55 -60.3665 1407.82 64.9008 1369.05C190.168 1330.28 262.495 1388.93 283 1423.11C319.039 1459.15 416.656 1510.16 518.808 1425.91C620.961 1341.65 729.762 1388.93 771.393 1423.11C822.656 1470.64 955.752 1532.53 1078.04 1399.81C1200.32 1267.08 1320.37 1329.59 1365.11 1377.44" stroke="#159895"/>
<path d="M-130.992 1268.55C-114.526 1303.04 -50.2766 1362.32 74.9906 1323.54C200.258 1284.77 272.585 1343.43 293.09 1377.6C329.129 1413.64 426.746 1464.66 528.898 1380.4C631.051 1296.14 739.852 1343.43 781.483 1377.6C832.746 1425.14 965.842 1487.02 1088.13 1354.3C1210.41 1221.58 1330.46 1284.09 1375.2 1331.93" stroke="#159895"/>
<path d="M-120.902 1223.05C-104.436 1257.53 -40.187 1316.81 85.0802 1278.04C210.347 1239.26 282.675 1297.92 303.18 1332.09C339.219 1368.13 436.835 1419.15 538.988 1334.89C641.14 1250.63 749.941 1297.92 791.573 1332.09C842.835 1379.63 975.932 1441.52 1098.22 1308.79C1220.5 1176.07 1340.55 1238.58 1385.29 1286.42" stroke="#159895"/>
<path d="M-110.813 1177.54C-94.3466 1212.02 -30.0975 1271.3 95.1697 1232.53C220.437 1193.76 292.764 1252.41 313.269 1286.59C349.308 1322.63 446.925 1373.64 549.077 1289.38C651.23 1205.13 760.031 1252.41 801.662 1286.59C852.925 1334.12 986.021 1396.01 1108.31 1263.29C1230.59 1130.56 1350.64 1193.07 1395.38 1240.92" stroke="#159895"/>
<path d="M-100.723 1132.03C-84.257 1166.52 -20.0079 1225.79 105.259 1187.02C230.527 1148.25 302.854 1206.9 323.359 1241.08C359.398 1277.12 457.014 1328.13 559.167 1243.88C661.319 1159.62 770.12 1206.9 811.752 1241.08C863.014 1288.61 996.111 1350.5 1118.4 1217.78C1240.68 1085.05 1360.73 1147.56 1405.47 1195.41" stroke="#159895"/>
<path d="M-90.6337 1086.52C-74.1675 1121.01 -9.91835 1180.29 115.349 1141.51C240.616 1102.74 312.943 1161.4 333.448 1195.57C369.487 1231.61 467.104 1282.63 569.256 1198.37C671.409 1114.11 780.21 1161.4 821.841 1195.57C873.104 1243.11 1006.2 1304.99 1128.49 1172.27C1250.77 1039.55 1370.82 1102.06 1415.56 1149.9" stroke="#159895"/>
<path d="M-80.5441 1041.02C-64.0779 1075.5 0.171251 1134.78 125.438 1096.01C250.706 1057.23 323.033 1115.89 343.538 1150.06C379.577 1186.1 477.194 1237.12 579.346 1152.86C681.498 1068.6 790.3 1115.89 831.931 1150.06C883.194 1197.6 1016.29 1259.49 1138.57 1126.76C1260.86 994.04 1380.91 1056.55 1425.65 1104.39" stroke="#159895"/>
<path d="M-70.4447 995.499C-53.9785 1029.99 10.2707 1089.26 135.538 1050.49C260.805 1011.72 333.132 1070.37 353.637 1104.55C389.677 1140.59 487.293 1191.6 589.445 1107.34C691.598 1023.09 800.399 1070.37 842.03 1104.55C893.293 1152.08 1026.39 1213.97 1148.67 1081.25C1270.96 948.524 1391.01 1011.03 1435.74 1058.88" stroke="#159895"/>
<path d="M-60.3551 949.991C-43.8889 984.476 20.3602 1043.75 145.627 1004.98C270.895 966.208 343.222 1024.86 363.727 1059.04C399.766 1095.08 497.383 1146.09 599.535 1061.84C701.687 977.579 810.488 1024.86 852.12 1059.04C903.383 1106.57 1036.48 1168.46 1158.76 1035.74C1281.05 903.015 1401.1 965.525 1445.83 1013.37" stroke="#159895"/>
<path d="M-50.2656 904.483C-33.7994 938.969 30.4498 998.247 155.717 959.474C280.984 920.701 353.311 979.358 373.816 1013.53C409.856 1049.57 507.472 1100.59 609.625 1016.33C711.777 932.072 820.578 979.358 862.209 1013.53C913.472 1061.07 1046.57 1122.96 1168.85 990.231C1291.14 857.508 1411.19 920.017 1455.92 967.862" stroke="#159895"/>
<path d="M-40.176 858.976C-23.7099 893.462 40.5393 952.74 165.807 913.967C291.074 875.194 363.401 933.85 383.906 968.025C419.945 1004.06 517.562 1055.08 619.714 970.821C721.867 886.564 830.668 933.85 872.299 968.025C923.562 1015.56 1056.66 1077.45 1178.94 944.724C1301.23 812.001 1421.28 874.51 1466.01 922.355" stroke="#159895"/>
<path d="M-30.0861 813.47C-13.62 847.955 50.6292 907.234 175.896 868.46C301.164 829.687 373.491 888.344 393.996 922.519C430.035 958.558 527.652 1009.57 629.804 925.315C731.956 841.058 840.757 888.344 882.389 922.519C933.652 970.053 1066.75 1031.94 1189.03 899.218C1311.32 766.494 1431.37 829.004 1476.1 876.849" stroke="#159895"/>
<path d="M-19.9965 767.962C-3.53036 802.448 60.7188 861.726 185.986 822.953C311.253 784.18 383.58 842.837 404.085 877.012C440.125 913.051 537.741 964.065 639.894 879.808C742.046 795.551 850.847 842.837 892.479 877.012C943.741 924.546 1076.84 986.434 1199.12 853.71C1321.41 720.987 1441.45 783.496 1486.19 831.341" stroke="#159895"/>
<path d="M-9.90694 722.454C6.55924 756.939 70.8084 816.218 196.076 777.444C321.343 738.671 393.67 797.328 414.175 831.503C450.214 867.542 547.831 918.556 649.983 834.299C752.136 750.042 860.937 797.328 902.568 831.503C953.831 879.037 1086.93 940.925 1209.21 808.202C1331.5 675.478 1451.54 737.987 1496.28 785.833" stroke="#159895"/>
</g>
</svg>
