<svg width="514" height="86" viewBox="0 0 514 86" fill="none" xmlns="http://www.w3.org/2000/svg">
<rect width="514" height="86" rx="30" fill="#57C5B6"/>
<mask id="mask0_107_1491" style="mask-type:alpha" maskUnits="userSpaceOnUse" x="0" y="0" width="514" height="86">
<rect width="514" height="86" rx="30" fill="#159895"/>
</mask>
<g mask="url(#mask0_107_1491)">
<path d="M-76.3195 172.082C-70.0734 185.163 -45.7018 207.649 1.81575 192.941C49.3333 178.234 76.7691 200.484 84.5473 213.447C98.2181 227.118 135.247 246.469 173.996 214.508C212.746 182.547 254.017 200.484 269.809 213.447C289.255 231.479 339.742 254.955 386.128 204.609C432.515 154.263 478.052 177.974 495.023 196.123" stroke="white"/>
<path d="M-72.4934 154.82C-66.2473 167.902 -41.8757 190.388 5.64192 175.68C53.1595 160.972 80.5953 183.222 88.3735 196.186C102.044 209.856 139.073 229.208 177.823 197.246C216.572 165.285 257.843 183.222 273.635 196.186C293.081 214.217 343.568 237.693 389.955 187.347C436.341 137.001 481.878 160.713 498.849 178.862" stroke="white"/>
<path d="M-68.6653 137.558C-62.4191 150.639 -38.0475 173.125 9.47004 158.417C56.9876 143.71 84.4234 165.96 92.2016 178.923C105.872 192.594 142.901 211.945 181.651 179.984C220.4 148.023 261.672 165.96 277.464 178.923C296.909 196.955 347.396 220.431 393.783 170.085C440.169 119.739 485.707 143.45 502.677 161.599" stroke="white"/>
<path d="M-64.8381 120.295C-58.592 133.377 -34.2204 155.863 13.2972 141.155C60.8148 126.447 88.2506 148.697 96.0288 161.661C109.7 175.332 146.728 194.683 185.478 162.721C224.227 130.76 265.499 148.697 281.291 161.661C300.736 179.692 351.224 203.168 397.61 152.822C443.996 102.476 489.534 126.188 506.504 144.337" stroke="white"/>
<path d="M-61.0119 103.033C-54.7658 116.114 -30.3942 138.6 17.1234 123.893C64.6409 109.185 92.0767 131.435 99.8549 144.399C113.526 158.069 150.554 177.42 189.304 145.459C228.053 113.498 269.325 131.435 285.117 144.399C304.562 162.43 355.05 185.906 401.436 135.56C447.822 85.2138 493.36 108.925 510.33 127.074" stroke="white"/>
<path d="M-57.1828 85.7697C-50.9367 98.8512 -26.5651 121.337 20.9525 106.629C68.47 91.9216 95.9058 114.172 103.684 127.135C117.355 140.806 154.384 160.157 193.133 128.196C231.883 96.2348 273.154 114.172 288.946 127.135C308.391 145.167 358.879 168.643 405.265 118.297C451.651 67.9506 497.189 91.6622 514.16 109.811" stroke="white"/>
<path d="M-53.3567 68.508C-47.1105 81.5895 -22.7389 104.075 24.7786 89.3677C72.2962 74.6599 99.732 96.9101 107.51 109.874C121.181 123.544 158.21 142.896 196.959 110.934C235.709 78.9731 276.98 96.9101 292.772 109.874C312.218 127.905 362.705 151.381 409.091 101.035C455.477 50.6888 501.015 74.4005 517.986 92.5496" stroke="white"/>
<path d="M-49.5305 51.2463C-43.2844 64.3278 -18.9128 86.8138 28.6048 72.106C76.1224 57.3981 103.558 79.6484 111.336 92.612C125.007 106.283 162.036 125.634 200.785 93.6726C239.535 61.7114 280.806 79.6483 296.598 92.612C316.044 110.643 366.531 134.119 412.917 83.7731C459.304 33.4271 504.841 57.1388 521.812 75.2879" stroke="white"/>
<path d="M-45.7014 33.9831C-39.4553 47.0646 -15.0837 69.5506 32.4339 54.8428C79.9515 40.135 107.387 62.3852 115.165 75.3488C128.836 89.0195 165.865 108.371 204.614 76.4094C243.364 44.4482 284.635 62.3852 300.427 75.3488C319.873 93.38 370.36 116.856 416.747 66.5099C463.133 16.1639 508.67 39.8756 525.641 58.0247" stroke="white"/>
<path d="M-41.8762 16.7219C-35.6301 29.8034 -11.2585 52.2894 36.2591 37.5815C83.7767 22.8737 111.212 45.124 118.991 58.0876C132.661 71.7583 169.69 91.1094 208.44 59.1482C247.189 27.187 288.461 45.1239 304.253 58.0876C323.698 76.1188 374.186 99.5947 420.572 49.2487C466.958 -1.09728 512.496 22.6144 529.466 40.7634" stroke="white"/>
<path d="M-38.0481 -0.540802C-31.802 12.5407 -7.43034 35.0267 40.0872 20.3188C87.6048 5.61103 115.041 27.8613 122.819 40.8249C136.49 54.4956 173.518 73.8467 212.268 41.8855C251.017 9.92429 292.289 27.8612 308.081 40.8249C327.526 58.8561 378.014 82.332 424.4 31.986C470.786 -18.36 516.324 5.35167 533.294 23.5007" stroke="white"/>
<path d="M-34.2209 -17.803C-27.9748 -4.72153 -3.6032 17.7645 43.9144 3.05664C91.432 -11.6512 118.868 10.5991 126.646 23.5627C140.317 37.2334 177.346 56.5845 216.095 24.6233C254.844 -7.33791 296.116 10.599 311.908 23.5627C331.353 41.5939 381.841 65.0698 428.227 14.7238C474.613 -35.6222 520.151 -11.9105 537.121 6.23854" stroke="white"/>
<path d="M-30.3928 -35.0657C-24.1467 -21.9842 0.22493 0.501767 47.7425 -14.2061C95.2601 -28.9139 122.696 -6.66364 130.474 6.29996C144.145 19.9707 181.174 39.3218 219.923 7.36062C258.673 -24.6006 299.944 -6.66367 315.736 6.29996C335.181 24.3312 385.669 47.8071 432.055 -2.53888C478.441 -52.8849 523.979 -29.1732 540.95 -11.0242" stroke="white"/>
<path d="M-26.5666 -52.3274C-20.3205 -39.2459 4.0511 -16.76 51.5687 -31.4678C99.0863 -46.1756 126.522 -23.9254 134.3 -10.9618C147.971 2.70897 185 22.0601 223.749 -9.9011C262.499 -41.8623 303.77 -23.9254 319.562 -10.9618C339.008 7.06946 389.495 30.5454 435.881 -19.8006C482.267 -70.1466 527.805 -46.435 544.776 -28.2859" stroke="white"/>
</g>
</svg>
