<svg width="379" height="267" viewBox="0 0 379 267" fill="none" xmlns="http://www.w3.org/2000/svg">
<path d="M-203.088 124.5C-207.921 138.167 -206.588 171.3 -162.588 194.5C-118.588 217.7 -114.921 252.833 -118.587 267.5C-118.587 286.833 -106.087 326.7 -56.0874 331.5C-6.0874 336.3 10.4126 378.167 12.4126 398.5C13.4126 425 32.5126 477.3 100.913 474.5C169.313 471.7 184.746 520.667 183.913 545.5" stroke="white"/>
<path d="M-188.175 115C-193.009 128.667 -191.675 161.8 -147.675 185C-103.675 208.2 -100.009 243.333 -103.675 258C-103.675 277.333 -91.1753 317.2 -41.1753 322C8.82471 326.8 25.3247 368.667 27.3247 389C28.3247 415.5 47.4247 467.8 115.825 465C184.225 462.2 199.658 511.167 198.825 536" stroke="white"/>
<path d="M-173.262 105.5C-178.096 119.167 -176.762 152.3 -132.762 175.5C-88.7623 198.7 -85.0956 233.833 -88.7622 248.5C-88.7622 267.833 -76.2622 307.7 -26.2622 312.5C23.7378 317.3 40.2378 359.167 42.2378 379.5C43.2378 406 62.3378 458.3 130.738 455.5C199.138 452.7 214.571 501.667 213.738 526.5" stroke="white"/>
<path d="M-158.349 96C-163.183 109.667 -161.849 142.8 -117.849 166C-73.8492 189.2 -70.1825 224.333 -73.8491 239C-73.8491 258.333 -61.3491 298.2 -11.3491 303C38.6509 307.8 55.1509 349.667 57.1509 370C58.1509 396.5 77.2509 448.8 145.651 446C214.051 443.2 229.484 492.167 228.651 517" stroke="white"/>
<path d="M-143.437 86.5C-148.27 100.167 -146.937 133.3 -102.937 156.5C-58.9371 179.7 -55.2704 214.833 -58.937 229.5C-58.937 248.833 -46.437 288.7 3.56299 293.5C53.563 298.3 70.063 340.167 72.063 360.5C73.063 387 92.163 439.3 160.563 436.5C228.963 433.7 244.396 482.667 243.563 507.5" stroke="white"/>
<path d="M-128.524 77C-133.357 90.6667 -132.024 123.8 -88.024 147C-44.024 170.2 -40.3573 205.333 -44.0239 220C-44.0239 239.333 -31.5239 279.2 18.4761 284C68.4761 288.8 84.9761 330.667 86.9761 351C87.9761 377.5 107.076 429.8 175.476 427C243.876 424.2 259.309 473.167 258.476 498" stroke="white"/>
<path d="M-113.612 67.5C-118.445 81.1667 -117.112 114.3 -73.1119 137.5C-29.1119 160.7 -25.4452 195.833 -29.1118 210.5C-29.1118 229.833 -16.6118 269.7 33.3882 274.5C83.3882 279.3 99.8882 321.167 101.888 341.5C102.888 368 121.988 420.3 190.388 417.5C258.788 414.7 274.222 463.667 273.388 488.5" stroke="white"/>
<path d="M-98.6998 58C-103.533 71.6667 -102.2 104.8 -58.1998 128C-14.1998 151.2 -10.5331 186.333 -14.1997 201C-14.1997 220.333 -1.69971 260.2 48.3003 265C98.3003 269.8 114.8 311.667 116.8 332C117.8 358.5 136.9 410.8 205.3 408C273.7 405.2 289.134 454.167 288.3 479" stroke="white"/>
<path d="M-83.7867 48.5C-88.6201 62.1667 -87.2867 95.3 -43.2867 118.5C0.713257 141.7 4.38 176.833 0.713379 191.5C0.713379 210.833 13.2134 250.7 63.2134 255.5C113.213 260.3 129.713 302.167 131.713 322.5C132.713 349 151.813 401.3 220.213 398.5C288.613 395.7 304.047 444.667 303.213 469.5" stroke="white"/>
<path d="M-68.8746 39C-73.708 52.6667 -72.3746 85.8 -28.3746 109C15.6254 132.2 19.2921 167.333 15.6255 182C15.6255 201.333 28.1255 241.2 78.1255 246C128.125 250.8 144.625 292.667 146.625 313C147.625 339.5 166.725 391.8 235.125 389C303.525 386.2 318.959 435.167 318.125 460" stroke="white"/>
<path d="M-53.9615 29.5C-58.7949 43.1667 -57.4615 76.3 -13.4615 99.5C30.5385 122.7 34.2052 157.833 30.5386 172.5C30.5386 191.833 43.0386 231.7 93.0386 236.5C143.039 241.3 159.539 283.167 161.539 303.5C162.539 330 181.639 382.3 250.039 379.5C318.439 376.7 333.872 425.667 333.039 450.5" stroke="white"/>
<path d="M-39.0494 20C-43.8828 33.6667 -42.5494 66.8 1.45056 90C45.4506 113.2 49.1173 148.333 45.4507 163C45.4507 182.333 57.9507 222.2 107.951 227C157.951 231.8 174.451 273.667 176.451 294C177.451 320.5 196.551 372.8 264.951 370C333.351 367.2 348.784 416.167 347.951 441" stroke="white"/>
<path d="M-24.1364 10.5C-28.9697 24.1667 -27.6364 57.3 16.3636 80.5C60.3636 103.7 64.0304 138.833 60.3638 153.5C60.3638 172.833 72.8638 212.7 122.864 217.5C172.864 222.3 189.364 264.167 191.364 284.5C192.364 311 211.464 363.3 279.864 360.5C348.264 357.7 363.697 406.667 362.864 431.5" stroke="white"/>
<path d="M-9.22424 1C-14.0576 14.6667 -12.7242 47.8 31.2758 71C75.2758 94.2 78.9425 129.333 75.2759 144C75.2759 163.333 87.7759 203.2 137.776 208C187.776 212.8 204.276 254.667 206.276 275C207.276 301.5 226.376 353.8 294.776 351C363.176 348.2 378.609 397.167 377.776 422" stroke="white"/>
</svg>
