<svg width="106" height="176" viewBox="0 0 106 176" fill="none" xmlns="http://www.w3.org/2000/svg">
<path d="M99.7946 38.9255C99.7946 32.0535 95.2078 25.1761 86.0344 19.9388C67.693 9.44793 37.9466 9.44793 19.6051 19.9388C11.0016 24.8535 6.43645 31.1985 5.89873 37.635C5.86109 38.0651 5.84496 38.4953 5.84496 38.9255V44.8403C5.83871 45.3177 5.85666 45.7951 5.89873 46.2707C6.43645 52.7233 11.007 59.0522 19.6051 63.9669C37.9466 74.4577 67.693 74.4577 86.0344 63.9669C95.2078 58.7242 99.7946 51.8521 99.7946 44.9802V38.9255Z" fill="#BA68C8"/>
<path d="M101.016 31.978C101.016 24.9286 96.3113 17.8737 86.9013 12.4912C68.0813 1.7369 37.5444 1.7369 18.719 12.4912C9.9005 17.5403 5.20625 24.0521 4.65778 30.6552C4.62014 31.0961 4.59863 31.5371 4.59863 31.978C4.59863 32.4189 4.59863 37.6563 4.59863 38.0488C4.59863 38.5381 4.59863 39.0275 4.65778 39.5168C5.1955 46.1253 9.9005 52.6316 18.719 57.6808C37.5391 68.4351 68.0759 68.4351 86.9013 57.6808C96.3113 52.3036 101.016 45.2434 101.016 38.194V31.978Z" fill="#BA68C8"/>
<path opacity="0.7" d="M99.7946 38.9255C99.7946 32.0535 95.2078 25.1761 86.0344 19.9388C67.693 9.44793 37.9466 9.44793 19.6051 19.9388C11.0016 24.8535 6.43645 31.1985 5.89873 37.635C5.86109 38.0651 5.84496 38.4953 5.84496 38.9255V44.8403C5.83871 45.3177 5.85666 45.7951 5.89873 46.2707C6.43645 52.7233 11.007 59.0522 19.6051 63.9669C37.9466 74.4577 67.693 74.4577 86.0344 63.9669C95.2078 58.7242 99.7946 51.8521 99.7946 44.9802V38.9255Z" fill="white"/>
<path d="M105.317 52.6585V52.5886C104.349 45.7166 99.2784 38.9951 90.0835 33.7685C69.5159 22.0141 36.1721 22.0141 15.6099 33.7685C6.06547 39.2317 0.951802 46.2597 0.274281 53.4005C0.274281 53.4005 0.274281 53.4005 0.274281 53.4382C0.0894696 54.4547 -0.00232263 55.486 4.4639e-05 56.5193V144.979C4.4639e-05 152.797 5.16749 160.61 15.4862 166.568C36.1399 178.489 69.618 178.489 90.2717 166.568C100.601 160.61 105.763 152.797 105.763 144.979V56.5031C105.754 55.2092 105.604 53.9201 105.317 52.6585Z" fill="#BA68C8"/>
<path opacity="0.7" d="M105.317 52.6585V52.5886C104.349 45.7166 99.2784 38.9951 90.0835 33.7685C69.5159 22.0141 36.1721 22.0141 15.6099 33.7685C6.06547 39.2317 0.951802 46.2597 0.274281 53.4005C0.274281 53.4005 0.274281 53.4005 0.274281 53.4382C0.0894696 54.4547 -0.00232263 55.486 4.4639e-05 56.5193V144.979C4.4639e-05 152.797 5.16749 160.61 15.4862 166.568C36.1399 178.489 69.618 178.489 90.2717 166.568C100.601 160.61 105.763 152.797 105.763 144.979V56.5031C105.754 55.2092 105.604 53.9201 105.317 52.6585Z" fill="white"/>
<path opacity="0.4" d="M101.478 56.4977V137.865C101.478 145 96.7139 152.141 87.1856 157.583C68.1397 168.477 37.2426 168.477 18.1913 157.583C9.26526 152.475 4.51723 145.893 3.95801 139.204V56.4977C3.95801 49.8838 8.72754 43.485 17.4009 38.4789C19.53 37.2604 21.7439 36.1966 24.0255 35.2956C27.1819 34.0374 39.9365 30.1927 52.7019 30.1927C65.4672 30.1927 78.2756 34.0374 81.432 35.2956C83.7137 36.1966 85.9276 37.2604 88.0567 38.4789C96.7139 43.485 101.478 49.8838 101.478 56.4977Z" fill="white"/>
<path opacity="0.3" d="M101.606 137.865C101.606 145 96.8421 152.141 87.3138 157.583C68.2679 168.477 37.3708 168.477 18.3195 157.583C9.39346 152.474 4.64543 145.893 4.08621 139.204C4.01033 138.309 4.01033 137.41 4.08621 136.515C4.62392 129.837 9.39346 123.244 18.3195 118.136C37.3708 107.242 68.2679 107.242 87.3138 118.136C96.8421 123.578 101.606 130.719 101.606 137.865Z" fill="#BA68C8"/>
<path opacity="0.3" d="M99.7946 38.9254C99.7946 32.0534 95.2078 25.176 86.0344 19.9387C67.693 9.44784 37.9466 9.44784 19.6051 19.9387C11.0016 24.8534 6.43645 31.1984 5.89873 37.6349C5.86109 38.065 5.84496 38.4952 5.84496 38.9254V44.8403C5.83871 45.3176 5.85666 45.795 5.89873 46.2706C6.43645 52.7232 11.007 59.0521 19.6051 63.9668C37.9466 74.4576 67.693 74.4576 86.0344 63.9668C95.2078 58.7241 99.7946 51.8521 99.7946 44.9801V38.9254Z" fill="#BA68C8"/>
<path opacity="0.3" d="M99.796 38.9254C99.796 45.792 95.2093 52.6694 86.0359 57.9067C67.6944 68.3976 37.948 68.3976 19.6066 57.9067C11.0031 52.992 6.43793 46.6523 5.90021 40.2159C5.82493 39.3572 5.82493 38.4936 5.90021 37.6349C6.43793 31.1823 11.0085 24.8534 19.6066 19.9387C37.948 9.44784 67.6944 9.44784 86.0359 19.9387C95.2093 25.1599 99.796 32.0373 99.796 38.9254Z" fill="white"/>
<path opacity="0.5" d="M95.4977 38.9252C95.4977 44.9583 91.3304 51.0076 83.0012 55.5943C66.332 64.8162 39.3064 64.8162 22.6373 55.5943C14.8296 51.2926 10.6731 45.7004 10.1891 40.0436C10.1192 39.2888 10.1192 38.5292 10.1891 37.7745C10.6731 32.1177 14.8296 26.5416 22.6373 22.2184C39.3064 12.9965 66.332 12.9965 83.0012 22.2184C91.3357 26.8266 95.4977 32.8705 95.4977 38.9252Z" fill="white"/>
<path opacity="0.6" d="M83.0025 31.4242C66.3334 22.2078 39.3078 22.2078 22.6386 31.4242C16.4388 34.8602 12.5511 39.0866 10.9648 43.512C12.578 47.9428 16.4388 52.1639 22.6386 55.5945C39.3078 64.8163 66.3334 64.8163 83.0025 55.5945C89.2024 52.1639 93.0955 47.9374 94.6817 43.512C93.0955 39.0813 89.1863 34.8548 83.0025 31.4242Z" fill="white"/>
<path opacity="0.7" d="M101.016 31.9779C101.016 24.9285 96.3113 17.8736 86.9013 12.4911C68.0813 1.73681 37.5444 1.73681 18.719 12.4911C9.9005 17.5403 5.20625 24.052 4.65778 30.6551C4.62014 31.0961 4.59863 31.537 4.59863 31.9779C4.59863 32.4188 4.59863 37.6562 4.59863 38.0487C4.59863 38.538 4.59863 39.0274 4.65778 39.5167C5.1955 46.1252 9.9005 52.6316 18.719 57.6807C37.5391 68.435 68.0759 68.435 86.9013 57.6807C96.3113 52.3035 101.016 45.2433 101.016 38.1939V31.9779Z" fill="white"/>
<path d="M101.016 27.5525C101.016 20.5031 96.3113 13.4483 86.9013 8.06573C68.0813 -2.68858 37.5444 -2.68858 18.719 8.06573C9.9005 13.1149 5.20625 19.6266 4.65778 26.2297C4.62014 26.6707 4.59863 27.1116 4.59863 27.5525C4.59863 27.9935 4.59863 37.6562 4.59863 38.0487C4.59863 38.538 4.59863 39.0274 4.65778 39.5167C5.1955 46.1252 9.9005 52.6316 18.719 57.6807C37.5391 68.435 68.0759 68.435 86.9013 57.6807C96.3113 52.3036 101.016 45.2434 101.016 38.1939V27.5525Z" fill="#263238"/>
<path d="M47.7364 65.5957L49.0538 65.6603V29.3537H47.7364V65.5957ZM33.0084 63.3212L34.3365 63.66V29.3537H33.0191L33.0084 63.3212ZM50.6831 65.7248H52.0005V29.3537H50.6831V65.7248ZM35.9497 64.0095C36.3852 64.1009 36.8262 64.1977 37.2671 64.2837V29.3322H35.9497V64.0095ZM38.8964 64.5795C39.3319 64.6547 39.7728 64.7246 40.2138 64.7892V29.3537H38.8964V64.5795ZM44.7843 65.3591L46.1017 65.4828V29.3537H44.7843V65.3591ZM41.843 65.0258L43.1604 65.1925V29.3537H41.8646L41.843 65.0258ZM30.0617 62.4931C30.4973 62.6275 30.9382 62.7512 31.3791 62.8749V29.3537H30.0617V62.4931ZM9.4457 50.2171C9.85974 50.701 10.3007 51.1796 10.7631 51.6528V29.3537H9.4457V50.2171ZM15.3606 55.4974C15.7854 55.7986 16.2263 56.0943 16.678 56.3847V29.3537H15.3606V55.4974ZM12.4139 53.1799C12.8333 53.5509 13.2742 53.9166 13.7313 54.2553V29.3537H12.3924L12.4139 53.1799ZM6.49902 45.8239C6.89403 46.601 7.33576 47.3534 7.8218 48.077V29.3537H6.49902V45.8239ZM27.1204 61.5091C27.556 61.665 27.9915 61.8264 28.4378 61.9715V29.3537H27.1204V61.5091ZM24.1737 60.3584C24.6093 60.5466 25.0502 60.7187 25.4911 60.8961V29.3537H24.1737V60.3584ZM21.227 58.998C21.6626 59.2184 22.0981 59.4335 22.5444 59.6379V29.3537H21.227V58.998ZM18.2804 57.3848L18.7267 57.6537C19.0117 57.815 19.3128 57.9656 19.6031 58.1269V29.3537H18.2804V57.3848ZM71.2991 63.6223L72.6165 63.2943V29.3537H71.2991V63.6223ZM88.9738 56.3847C89.4201 56.0943 89.8664 55.8039 90.2912 55.5028V29.3537H88.9738V56.3847ZM53.6298 65.714H54.9472V29.3537H53.6298V65.714ZM80.1337 60.8746C80.58 60.6972 81.021 60.5251 81.4565 60.3369V29.3537H80.1337V60.8746ZM83.0804 59.6217C83.5267 59.4174 83.9623 59.1969 84.3978 58.9818V29.3537H83.0804V59.6217ZM97.7869 29.3537V48.0662C98.2711 47.3499 98.711 46.6047 99.1043 45.8347V29.3537H97.7869ZM91.8721 54.3145C92.3309 53.956 92.7719 53.5975 93.1948 53.239V29.3537H91.8721V54.3145ZM94.8187 51.6743C95.2866 51.1957 95.7275 50.7172 96.1361 50.2332V29.3537H94.8187V51.6743ZM85.9841 58.1591L86.8659 57.6806L87.3015 57.4171V29.3537H85.9841V58.1591ZM59.4747 65.4828C59.9156 65.4506 60.3566 65.4022 60.7921 65.3645V29.3376H59.4747V65.4828ZM56.528 65.6603C56.969 65.6603 57.4099 65.6388 57.8508 65.5957V29.3537H56.528V65.6603ZM62.4429 65.1925L63.7603 65.0258V29.3537H62.4429V65.1925ZM68.3309 64.2837C68.7772 64.1977 69.2127 64.1063 69.6537 64.0095V29.3537H68.3309V64.2837ZM74.2458 62.8803C74.6867 62.7512 75.1276 62.6275 75.5632 62.4931V29.3537H74.2458V62.8803ZM77.1924 61.9769C77.6334 61.8263 78.0689 61.665 78.5098 61.5091V29.3537H77.1924V61.9769ZM65.4111 64.7892C65.8466 64.7246 66.2876 64.6601 66.7285 64.5848V29.3537H65.4111V64.7892Z" fill="#37474F"/>
<path d="M101.016 27.5525C101.016 34.602 96.3106 41.6568 86.9006 47.034C68.0805 57.7883 37.5437 57.7883 18.7183 47.034C9.89977 41.9902 5.20551 35.4838 4.65705 28.8753C4.58177 27.9951 4.58177 27.11 4.65705 26.2297C5.19476 19.6266 9.89977 13.1149 18.7183 8.06573C37.5383 -2.68858 68.0752 -2.68858 86.9006 8.06573C96.3213 13.4483 101.016 20.5031 101.016 27.5525Z" fill="#455A64"/>
<path d="M67.2079 40.8933L30.0732 18.9168L38.4293 14.2118L75.5639 36.1883L67.2079 40.8933Z" fill="#263238"/>
<path d="M38.4298 14.2119L38.376 19.003L71.3863 38.5381L75.5644 36.1883L38.4298 14.2119Z" fill="#37474F"/>
<path opacity="0.2" d="M38.4307 14.2119L74.5436 36.2582L71.3872 38.5381L75.5653 36.1883L38.4307 14.2119Z" fill="white"/>
<path d="M38.4293 14.2118L38.3756 19.0029L34.1975 21.3581L30.0732 18.9168L38.4293 14.2118Z" fill="#455A64"/>
<path opacity="0.2" d="M67.2084 40.8933L30.0738 18.9168L38.4299 14.2118L29.5791 18.9383L67.2084 40.8933Z" fill="white"/>
<path opacity="0.3" d="M86.5584 128.723C77.1753 123.308 63.2054 122.169 51.8865 125.293C40.5622 122.169 26.6139 123.308 17.2146 128.723C5.32038 135.59 5.32038 146.721 17.2146 153.587C26.5924 159.002 40.5622 160.142 51.8865 157.018C63.2054 160.142 77.1591 159.002 86.5584 153.587C98.4473 146.721 98.4473 135.59 86.5584 128.723Z" fill="#BA68C8"/>
<path d="M11.9172 134.74C13.2399 132.514 15.4338 130.438 18.5096 128.642C29.2907 122.421 46.7611 122.421 57.5423 128.642C60.618 130.422 62.8119 132.514 64.1347 134.74H65.6242V140.381C65.4252 144.301 62.742 148.188 57.5584 151.178C46.8041 157.399 29.3015 157.399 18.5257 151.178C13.3421 148.188 10.6428 144.301 10.46 140.381V134.74H11.9172Z" fill="#BA68C8"/>
<path opacity="0.15" d="M11.9172 134.74C13.2399 132.514 15.4338 130.438 18.5096 128.642C29.2907 122.421 46.7611 122.421 57.5423 128.642C60.618 130.422 62.8119 132.514 64.1347 134.74H65.6242V140.381C65.4252 144.301 62.742 148.188 57.5584 151.178C46.8041 157.399 29.3015 157.399 18.5257 151.178C13.3421 148.188 10.6428 144.301 10.46 140.381V134.74H11.9172Z" fill="black"/>
<path opacity="0.1" d="M38.0254 123.98C45.091 123.98 52.1512 125.534 57.5445 128.642C60.6202 130.422 62.8141 132.514 64.1315 134.74H65.6263V140.381C65.4274 144.301 62.7442 148.188 57.5606 151.178C52.1834 154.291 45.1071 155.845 38.0415 155.845L38.0254 123.98Z" fill="black"/>
<path opacity="0.1" d="M53.0967 126.572C54.633 127.142 56.1202 127.836 57.5436 128.648C60.6193 130.427 62.8132 132.519 64.1306 134.745H65.6254V140.386C65.4265 144.306 62.7433 148.194 57.5597 151.183C56.1365 151.997 54.6493 152.693 53.1128 153.264L53.0967 126.572Z" fill="black"/>
<path opacity="0.5" d="M22.9521 126.572C21.418 127.143 19.9326 127.837 18.5106 128.648C15.4348 130.427 13.241 132.519 11.9182 134.745H10.4287V140.386C10.6277 144.306 13.327 148.194 18.4944 151.183C19.9163 151.996 21.4017 152.692 22.936 153.264L22.9521 126.572Z" fill="#BA68C8"/>
<path d="M57.5436 123.475C68.2979 129.702 68.2979 139.789 57.5436 146.011C48.1121 151.452 33.5561 152.135 22.8448 148.054L22.42 147.887C21.0758 147.355 19.7713 146.728 18.5162 146.011C9.53101 140.822 8.03616 132.944 14.0371 126.863C15.3711 125.541 16.8757 124.404 18.5109 123.48C29.2867 117.254 46.7624 117.254 57.5436 123.475Z" fill="#BA68C8"/>
<path opacity="0.2" d="M57.5436 123.475C68.2979 129.702 68.2979 139.789 57.5436 146.011C48.1121 151.452 33.5561 152.135 22.8448 148.054L22.42 147.887C21.0758 147.355 19.7713 146.728 18.5162 146.011C9.53101 140.822 8.03616 132.944 14.0371 126.863C15.3711 125.541 16.8757 124.404 18.5109 123.48C29.2867 117.254 46.7624 117.254 57.5436 123.475Z" fill="black"/>
<path opacity="0.5" d="M14.0324 126.862C13.9195 126.991 10.1501 130.971 11.1503 136.692C12.102 142.171 19.7537 146.779 22.4423 147.887C21.0981 147.355 19.7935 146.728 18.5385 146.01C9.52636 140.821 8.03151 132.944 14.0324 126.862Z" fill="#F5F5F5"/>
<path opacity="0.5" d="M62.0153 142.623C62.1336 142.494 65.903 138.52 64.9028 132.794C63.9457 127.32 56.2994 122.712 53.6377 121.604C54.981 122.132 56.284 122.757 57.5361 123.475C66.5267 128.664 68.0216 136.542 62.0153 142.623Z" fill="#F5F5F5"/>
<path d="M38.0333 149.538C52.2018 149.538 63.6877 142.905 63.6877 134.724C63.6877 126.542 52.2018 119.91 38.0333 119.91C23.8648 119.91 12.3789 126.542 12.3789 134.724C12.3789 142.905 23.8648 149.538 38.0333 149.538Z" fill="#BA68C8"/>
<path opacity="0.4" d="M38.0333 149.538C52.2018 149.538 63.6877 142.905 63.6877 134.724C63.6877 126.542 52.2018 119.91 38.0333 119.91C23.8648 119.91 12.3789 126.542 12.3789 134.724C12.3789 142.905 23.8648 149.538 38.0333 149.538Z" fill="white"/>
<path opacity="0.2" d="M62.5214 139.144C64.5862 135.332 63.914 131.132 60.5103 127.567C59.8472 126.874 59.1278 126.238 58.3594 125.664C57.6928 125.168 56.998 124.712 56.2785 124.298C55.8698 124.056 55.4504 123.83 55.0149 123.609C56.0903 125.368 55.6924 127.244 49.6377 127.599C37.808 128.288 52.7995 139.59 52.7995 139.59C52.7995 139.59 60.4135 135.907 62.5214 139.144Z" fill="white"/>
<path opacity="0.5" d="M61.3081 136.02C63.0826 135.821 63.959 133.998 63.2708 131.944C62.5825 129.89 60.5822 128.39 58.8077 128.589C57.0333 128.788 56.1568 130.61 56.8451 132.664C57.5333 134.719 59.5336 136.219 61.3081 136.02Z" fill="white"/>
<path d="M42.6004 145.435C42.0196 141.048 22.8286 128.89 22.8286 128.89C22.8286 128.89 18.5699 127.18 19.9841 124.206C19.2755 124.611 18.5897 125.054 17.93 125.535C17.4891 125.852 17.0697 126.185 16.6825 126.524C10.9666 131.471 10.9612 137.967 16.6825 142.924C17.0643 143.258 17.4837 143.591 17.9246 143.914C18.5161 144.338 19.1452 144.752 19.8281 145.15C20.511 145.548 21.1617 145.887 21.8607 146.226C22.3984 146.489 23.0007 146.764 23.5921 146.968C24.1836 147.172 24.7805 147.42 25.3881 147.618C27.2569 148.221 29.1698 148.678 31.1094 148.984C31.5396 149.054 31.9697 149.113 32.3999 149.172C34.2992 149.414 36.212 149.534 38.1266 149.533C40.4683 149.528 42.8059 149.336 45.1169 148.957C45.1169 148.957 42.0519 148.323 42.6004 145.435Z" fill="#BA68C8"/>
<path opacity="0.3" d="M42.6004 145.435C42.0196 141.048 22.8286 128.89 22.8286 128.89C22.8286 128.89 18.5699 127.18 19.9841 124.206C19.2755 124.611 18.5897 125.054 17.93 125.535C17.4891 125.852 17.0697 126.185 16.6825 126.524C10.9666 131.471 10.9612 137.967 16.6825 142.924C17.0643 143.258 17.4837 143.591 17.9246 143.914C18.5161 144.338 19.1452 144.752 19.8281 145.15C20.511 145.548 21.1617 145.887 21.8607 146.226C22.3984 146.489 23.0007 146.764 23.5921 146.968C24.1836 147.172 24.7805 147.42 25.3881 147.618C27.2569 148.221 29.1698 148.678 31.1094 148.984C31.5396 149.054 31.9697 149.113 32.3999 149.172C34.2992 149.414 36.212 149.534 38.1266 149.533C40.4683 149.528 42.8059 149.336 45.1169 148.957C45.1169 148.957 42.0519 148.323 42.6004 145.435Z" fill="white"/>
<path d="M24.5117 126.917C17.3547 131.052 17.0644 137.671 23.6406 141.973C23.9202 142.155 24.2106 142.338 24.5171 142.51C31.9806 146.812 44.0792 146.812 51.5427 142.51C59.0061 138.209 59.0061 131.218 51.5427 126.917C51.2415 126.745 50.9243 126.572 50.607 126.411C43.0952 122.615 31.6741 122.808 24.5117 126.917Z" fill="#BA68C8"/>
<path opacity="0.2" d="M24.5117 126.917C17.3547 131.052 17.0644 137.671 23.6406 141.973C23.9202 142.155 24.2106 142.338 24.5171 142.51C31.9806 146.812 44.0792 146.812 51.5427 142.51C59.0061 138.209 59.0061 131.218 51.5427 126.917C51.2415 126.745 50.9243 126.572 50.607 126.411C43.0952 122.615 31.6741 122.808 24.5117 126.917Z" fill="black"/>
<path d="M38.0343 145.269C48.1254 145.269 56.3058 140.545 56.3058 134.719C56.3058 128.892 48.1254 124.169 38.0343 124.169C27.9432 124.169 19.7627 128.892 19.7627 134.719C19.7627 140.545 27.9432 145.269 38.0343 145.269Z" fill="#BA68C8"/>
<path opacity="0.5" d="M38.0343 145.269C48.1254 145.269 56.3058 140.545 56.3058 134.719C56.3058 128.892 48.1254 124.169 38.0343 124.169C27.9432 124.169 19.7627 128.892 19.7627 134.719C19.7627 140.545 27.9432 145.269 38.0343 145.269Z" fill="black"/>
<path d="M25.1215 130.207C32.257 126.088 43.8233 126.088 50.9587 130.207C53.8731 131.89 55.5992 134.003 56.1315 136.192C55.5938 138.38 53.8731 140.494 50.9587 142.177C43.8233 146.301 32.257 146.301 25.1484 142.177C22.2286 140.494 20.5079 138.38 19.9756 136.192C20.481 134.003 22.2017 131.89 25.1215 130.207Z" fill="#BA68C8"/>
<path opacity="0.35" d="M25.1215 130.207C32.257 126.088 43.8233 126.088 50.9587 130.207C53.8731 131.89 55.5992 134.003 56.1315 136.192C55.5938 138.38 53.8731 140.494 50.9587 142.177C43.8233 146.301 32.257 146.301 25.1484 142.177C22.2286 140.494 20.5079 138.38 19.9756 136.192C20.481 134.003 22.2017 131.89 25.1215 130.207Z" fill="black"/>
<path d="M49.5435 137.897C49.5435 137.542 49.5435 136.09 49.5435 135.719C49.5435 134.826 48.9251 133.955 47.5916 133.176H47.5485C45.0966 131.761 42.5585 131.944 40.3001 132.514C39.3376 132.756 38.4289 133.052 37.6116 133.353C36.6623 133.71 35.6927 134.01 34.7079 134.251C34.2571 134.357 33.7939 134.4 33.3314 134.38C32.9331 134.358 32.5435 134.256 32.186 134.079L32.2774 134.014L32.5624 133.837C32.8099 133.694 33.0668 133.569 33.3314 133.461C33.9685 133.179 34.655 133.025 35.3516 133.008C36.0482 132.992 36.7412 133.112 37.3911 133.364L39.714 130.982V128.831C37.6485 128.127 35.4217 128.045 33.3098 128.594C32.6138 128.778 31.9325 129.013 31.2719 129.299L28.9275 127.949L26.1367 129.562V131.713L27.0939 132.251C26.8362 132.623 26.6924 133.062 26.6798 133.514C26.6798 133.875 26.6798 135.316 26.6798 135.665C26.6798 136.558 27.3197 137.424 28.6694 138.203C29.8431 138.89 31.1707 139.271 32.5302 139.311C32.7883 139.311 33.0464 139.311 33.3045 139.311C34.7214 139.206 36.1167 138.903 37.4502 138.413C37.7245 138.322 37.988 138.23 38.2568 138.133L35.8962 140.499V142.65C37.35 143.2 38.9 143.449 40.4527 143.382C42.0054 143.315 43.5285 142.935 44.9299 142.263L47.242 143.597L50.0382 141.983V139.833L49.081 139.295C49.3699 138.885 49.5309 138.398 49.5435 137.897ZM43.6286 137.714C42.8444 138.167 41.9683 138.437 41.0654 138.505C40.1625 138.573 39.2559 138.437 38.4128 138.106C40.6013 137.332 42.4295 136.655 43.9835 137.488C43.8867 137.563 43.7738 137.639 43.6447 137.714H43.6286Z" fill="#BA68C8"/>
<path d="M40.2982 132.487C39.3356 132.729 38.4269 133.025 37.6096 133.326C36.6603 133.683 35.6907 133.982 34.7059 134.224C34.2551 134.33 33.792 134.373 33.3294 134.353C32.8592 134.33 32.4016 134.194 31.9958 133.955C31.0978 133.417 30.9688 132.675 32.2754 131.804L32.5604 131.627C32.809 131.485 33.0658 131.357 33.3294 131.245C33.9669 130.964 34.6535 130.811 35.3501 130.795C36.0468 130.78 36.7396 130.901 37.3891 131.154L39.7336 128.793C37.668 128.089 35.4412 128.007 33.3294 128.556C32.6333 128.74 31.9521 128.975 31.2914 129.261L28.947 127.911L26.1562 129.524L28.42 130.874C26.0702 132.659 26.0218 134.514 28.6674 136.041C29.8422 136.726 31.1692 137.107 32.5282 137.149C32.7863 137.149 33.0659 137.149 33.3025 137.149C34.7192 137.046 36.1145 136.745 37.4483 136.257C40.1368 135.359 42.2877 134.305 44.1106 135.342C45.3204 136.047 44.987 136.923 43.6535 137.692C42.8558 138.153 41.963 138.424 41.0438 138.486C40.1247 138.548 39.2037 138.397 38.3516 138.047L35.8835 140.553C37.3376 141.101 38.8879 141.349 40.4405 141.282C41.9932 141.215 43.5161 140.833 44.9171 140.16L47.2293 141.499L50.0254 139.886L47.7133 138.547C50.0416 136.751 50.305 134.783 47.5896 133.17H47.5466C45.0892 131.734 42.5566 131.917 40.2982 132.487Z" fill="#BA68C8"/>
<g opacity="0.3">
<path d="M40.2982 132.487C39.3356 132.729 38.4269 133.024 37.6096 133.325C36.6603 133.682 35.6907 133.982 34.7059 134.223C34.2551 134.329 33.792 134.372 33.3294 134.352C32.8592 134.33 32.4016 134.193 31.9958 133.955C31.0978 133.417 30.9688 132.675 32.2754 131.804L32.5604 131.626C32.809 131.484 33.0658 131.356 33.3294 131.244C33.9669 130.963 34.6535 130.81 35.3501 130.795C36.0468 130.779 36.7396 130.901 37.3891 131.153L39.7336 128.792C37.668 128.088 35.4412 128.006 33.3294 128.556C32.6333 128.739 31.9521 128.975 31.2914 129.26L28.947 127.911L26.1562 129.524L28.42 130.873C26.0702 132.659 26.0218 134.514 28.6674 136.041C29.8422 136.725 31.1692 137.106 32.5282 137.149C32.7863 137.149 33.0659 137.149 33.3025 137.149C34.7192 137.045 36.1145 136.744 37.4483 136.256C40.1368 135.358 42.2877 134.304 44.1106 135.342C45.3204 136.046 44.987 136.923 43.6535 137.692C42.8558 138.152 41.963 138.424 41.0438 138.485C40.1247 138.547 39.2037 138.397 38.3516 138.047L35.8835 140.552C37.3376 141.101 38.8879 141.349 40.4405 141.281C41.9932 141.214 43.5161 140.832 44.9171 140.16L47.2293 141.499L50.0254 139.886L47.7133 138.547C50.0416 136.751 50.305 134.783 47.5896 133.169H47.5466C45.0892 131.734 42.5566 131.917 40.2982 132.487Z" fill="white"/>
</g>
<path opacity="0.45" d="M26.1201 129.546L28.9431 128.266L31.2553 129.287L28.9162 127.932L26.1201 129.546Z" fill="#F5F5F5"/>
<path opacity="0.45" d="M32.9648 128.669C34.9573 128.268 37.0159 128.338 38.9765 128.874L37.3634 131.175L39.7078 128.814C37.5289 128.072 35.1737 128.021 32.9648 128.669Z" fill="#F5F5F5"/>
<path opacity="0.45" d="M47.5472 133.149H47.5902C50.2788 134.762 50.0422 136.703 47.7139 138.526C49.7734 136.284 49.4023 134.719 47.1762 133.423C44.9501 132.127 42.084 132.149 40.3096 132.487C42.5572 131.917 45.0899 131.735 47.5472 133.149Z" fill="#F5F5F5"/>
<path opacity="0.45" d="M47.7139 138.526L49.4884 139.892L47.2354 141.478L50.0261 139.859L47.7139 138.526Z" fill="#F5F5F5"/>
<path opacity="0.45" d="M42.9987 138.036C41.6185 138.736 40.0213 138.874 38.5411 138.423L35.8848 140.553L38.3421 138.09C39.0828 138.392 39.8762 138.542 40.6759 138.533C41.4755 138.524 42.2652 138.355 42.9987 138.036Z" fill="#F5F5F5"/>
<path opacity="0.45" d="M34.6701 134.229C33.5947 134.643 32.0945 134.573 31.3256 133.912C30.5566 133.25 31.0352 132.471 32.2397 131.826C30.933 132.68 31.0621 133.439 31.9601 133.976C32.3658 134.215 32.8234 134.352 33.2936 134.374C33.7569 134.389 34.2201 134.34 34.6701 134.229Z" fill="#F5F5F5"/>
<path opacity="0.45" d="M28.4195 130.901C28.2206 131.078 26.5375 132.649 27.285 134.213C28.07 135.886 30.5112 136.961 32.5277 137.176C31.1687 137.134 29.8417 136.753 28.6669 136.068C26.0106 134.541 26.059 132.686 28.4195 130.901Z" fill="#F5F5F5"/>
<path d="M12.6447 125.218C13.9621 122.992 16.156 120.916 19.2371 119.12C29.9914 112.899 47.4887 112.899 58.2645 119.12C61.3402 120.9 63.5395 122.992 64.8569 125.218H66.3463V130.875C66.1474 134.795 63.4642 138.677 58.2806 141.672C47.5263 147.894 30.029 147.894 19.2532 141.672C14.0697 138.677 11.3649 134.795 11.1875 130.875V125.218H12.6447Z" fill="#BA68C8"/>
<path opacity="0.15" d="M12.6447 125.218C13.9621 122.992 16.156 120.916 19.2371 119.12C29.9914 112.899 47.4887 112.899 58.2645 119.12C61.3402 120.9 63.5395 122.992 64.8569 125.218H66.3463V130.875C66.1474 134.795 63.4642 138.677 58.2806 141.672C47.5263 147.894 30.029 147.894 19.2532 141.672C14.0697 138.677 11.3649 134.795 11.1875 130.875V125.218H12.6447Z" fill="black"/>
<path opacity="0.1" d="M38.751 114.453C45.8112 114.453 52.8768 116.012 58.2647 119.12C61.3458 120.9 63.5396 122.992 64.857 125.218H66.3465V130.875C66.1476 134.794 63.4644 138.677 58.2808 141.672C52.9036 144.785 45.8273 146.339 38.7671 146.339L38.751 114.453Z" fill="black"/>
<path opacity="0.1" d="M53.8213 117.039C55.3551 117.613 56.8403 118.309 58.2628 119.12C61.3439 120.9 63.5378 122.992 64.8552 125.218H66.3447V130.875C66.1457 134.795 63.4625 138.677 58.2789 141.672C56.8576 142.486 55.3721 143.182 53.8374 143.753L53.8213 117.039Z" fill="black"/>
<path opacity="0.5" d="M23.6796 117.039C22.1459 117.613 20.6606 118.309 19.2381 119.12C16.157 120.9 13.9631 122.992 12.6457 125.218H11.1562V130.875C11.3552 134.795 14.0545 138.677 19.222 141.672C20.6433 142.486 22.1288 143.182 23.6635 143.753L23.6796 117.039Z" fill="#BA68C8"/>
<path d="M58.2649 113.953C69.0461 120.174 69.0192 130.267 58.2649 136.488C48.8334 141.93 34.2774 142.613 23.5661 138.532L23.1359 138.365C21.7935 137.833 20.4907 137.206 19.2375 136.488C10.2469 131.299 8.75744 123.422 14.7583 117.34C16.0914 116.018 17.5962 114.88 19.2321 113.958C30.0348 107.753 47.4891 107.753 58.2649 113.953Z" fill="#BA68C8"/>
<path opacity="0.2" d="M58.2649 113.953C69.0461 120.174 69.0192 130.267 58.2649 136.488C48.8334 141.93 34.2774 142.613 23.5661 138.532L23.1359 138.365C21.7935 137.833 20.4907 137.206 19.2375 136.488C10.2469 131.299 8.75744 123.422 14.7583 117.34C16.0914 116.018 17.5962 114.88 19.2321 113.958C30.0348 107.753 47.4891 107.753 58.2649 113.953Z" fill="black"/>
<path opacity="0.5" d="M14.7595 117.34C14.6466 117.469 10.8772 121.449 11.872 127.17C12.8291 132.644 20.4755 137.257 23.164 138.365C21.8216 137.833 20.5188 137.206 19.2656 136.488C10.2481 131.3 8.75864 123.422 14.7595 117.34Z" fill="#F5F5F5"/>
<path opacity="0.5" d="M62.7448 133.101C62.8577 132.972 66.6271 128.993 65.6323 123.272C64.6752 117.798 57.0289 113.19 54.3672 112.082C55.7105 112.61 57.0134 113.235 58.2656 113.953C67.2562 119.142 68.7511 127.02 62.7448 133.101Z" fill="#F5F5F5"/>
<path d="M56.9218 135.671C66.9448 129.891 66.9448 120.508 56.9218 114.727C46.8988 108.947 30.6598 108.941 20.6421 114.727C10.6245 120.513 10.6245 129.891 20.6421 135.671C30.6598 141.452 46.8826 141.457 56.9218 135.671Z" fill="#BA68C8"/>
<path opacity="0.4" d="M56.9218 135.671C66.9448 129.891 66.9448 120.508 56.9218 114.727C46.8988 108.947 30.6598 108.941 20.6421 114.727C10.6245 120.513 10.6245 129.891 20.6421 135.671C30.6598 141.452 46.8826 141.457 56.9218 135.671Z" fill="white"/>
<path opacity="0.2" d="M63.2509 129.622C65.3157 125.81 64.6382 121.61 61.2398 118.045C60.5701 117.353 59.8454 116.716 59.0728 116.142C58.4072 115.648 57.7143 115.192 56.9972 114.776C56.5886 114.534 56.1692 114.308 55.7336 114.087C56.809 115.84 56.4111 117.722 50.3565 118.077C38.5267 118.766 53.5182 130.068 53.5182 130.068C53.5182 130.068 61.1376 126.385 63.2509 129.622Z" fill="white"/>
<path opacity="0.5" d="M62.031 126.498C63.8055 126.299 64.6873 124.476 63.999 122.422C63.3108 120.368 61.3105 118.868 59.536 119.067C57.7615 119.266 56.8797 121.088 57.568 123.143C58.2562 125.197 60.2565 126.697 62.031 126.498Z" fill="white"/>
<path d="M43.3269 135.913C42.7462 131.526 23.5498 119.368 23.5498 119.368C23.5498 119.368 19.2965 117.658 20.7053 114.684C19.9984 115.089 19.3144 115.532 18.6566 116.013C18.2103 116.33 17.7962 116.663 17.4091 116.997C11.6932 121.949 11.6878 128.445 17.4091 133.402C17.7962 133.736 18.2156 134.069 18.6566 134.386C19.2688 134.834 19.9042 135.248 20.5601 135.628C21.2107 136.01 21.8882 136.36 22.5926 136.704C23.1304 136.967 23.7326 137.215 24.3187 137.446C24.9048 137.677 25.5071 137.898 26.1201 138.097C27.9905 138.704 29.9051 139.166 31.8467 139.478C32.2715 139.548 32.7071 139.608 33.1372 139.667C35.0346 139.909 36.9457 140.028 38.8585 140.022C41.2002 140.021 43.538 139.83 45.8488 139.452C45.8488 139.452 42.7785 138.801 43.3269 135.913Z" fill="#BA68C8"/>
<path opacity="0.3" d="M43.3269 135.913C42.7462 131.526 23.5498 119.368 23.5498 119.368C23.5498 119.368 19.2965 117.658 20.7053 114.684C19.9984 115.089 19.3144 115.532 18.6566 116.013C18.2103 116.33 17.7962 116.663 17.4091 116.997C11.6932 121.949 11.6878 128.445 17.4091 133.402C17.7962 133.736 18.2156 134.069 18.6566 134.386C19.2688 134.834 19.9042 135.248 20.5601 135.628C21.2107 136.01 21.8882 136.36 22.5926 136.704C23.1304 136.967 23.7326 137.215 24.3187 137.446C24.9048 137.677 25.5071 137.898 26.1201 138.097C27.9905 138.704 29.9051 139.166 31.8467 139.478C32.2715 139.548 32.7071 139.608 33.1372 139.667C35.0346 139.909 36.9457 140.028 38.8585 140.022C41.2002 140.021 43.538 139.83 45.8488 139.452C45.8488 139.452 42.7785 138.801 43.3269 135.913Z" fill="white"/>
<path d="M25.2392 117.395C18.0768 121.53 17.7864 128.149 24.3627 132.451C24.6423 132.633 24.938 132.816 25.2392 132.988C32.7026 137.29 44.8012 137.29 52.2647 132.988C59.7282 128.687 59.7336 121.696 52.2647 117.395C51.9582 117.222 51.6464 117.05 51.3237 116.889C43.8226 113.093 32.3962 113.265 25.2392 117.395Z" fill="#BA68C8"/>
<path opacity="0.2" d="M25.2392 117.395C18.0768 121.53 17.7864 128.149 24.3627 132.451C24.6423 132.633 24.938 132.816 25.2392 132.988C32.7026 137.29 44.8012 137.29 52.2647 132.988C59.7282 128.687 59.7336 121.696 52.2647 117.395C51.9582 117.222 51.6464 117.05 51.3237 116.889C43.8226 113.093 32.3962 113.265 25.2392 117.395Z" fill="black"/>
<path d="M25.8467 117.739C18.7112 121.857 18.7112 128.536 25.8467 132.655C32.9822 136.774 44.5485 136.774 51.6571 132.655C58.7657 128.536 58.7925 121.857 51.6571 117.739C44.5216 113.62 32.9768 113.62 25.8467 117.739Z" fill="#BA68C8"/>
<path opacity="0.5" d="M25.8467 117.739C18.7112 121.857 18.7112 128.536 25.8467 132.655C32.9822 136.774 44.5485 136.774 51.6571 132.655C58.7657 128.536 58.7925 121.857 51.6571 117.739C44.5216 113.62 32.9768 113.62 25.8467 117.739Z" fill="black"/>
<path d="M25.8457 120.658C32.9758 116.539 44.5474 116.539 51.656 120.658C54.5758 122.347 56.2965 124.46 56.8288 126.648C56.2911 128.837 54.5758 130.95 51.656 132.633C44.5259 136.752 32.9543 136.752 25.8457 132.633C22.9259 130.95 21.2052 128.837 20.6729 126.648C21.2052 124.481 22.9259 122.368 25.8457 120.658Z" fill="#BA68C8"/>
<path opacity="0.35" d="M25.8457 120.658C32.9758 116.539 44.5474 116.539 51.656 120.658C54.5758 122.347 56.2965 124.46 56.8288 126.648C56.2911 128.837 54.5758 130.95 51.656 132.633C44.5259 136.752 32.9543 136.752 25.8457 132.633C22.9259 130.95 21.2052 128.837 20.6729 126.648C21.2052 124.481 22.9259 122.368 25.8457 120.658Z" fill="black"/>
<path d="M50.2627 128.375C50.2627 128.02 50.2627 126.568 50.2627 126.197C50.2627 125.304 49.639 124.433 48.3108 123.653L48.2624 123.627C45.8104 122.207 43.2778 122.395 41.0194 122.965C40.0623 123.207 39.1481 123.503 38.3308 123.804C37.3834 124.161 36.4156 124.46 35.4325 124.702C34.9799 124.808 34.515 124.851 34.0506 124.831C33.6541 124.809 33.2662 124.707 32.9107 124.53L33.0021 124.465C33.0881 124.406 33.1849 124.347 33.2871 124.288C33.5344 124.147 33.7893 124.019 34.0506 123.906C35.3406 123.341 36.8017 123.308 38.1157 123.815L40.4548 121.454V119.303C38.3799 118.584 36.1388 118.495 34.013 119.045C33.3172 119.224 32.6373 119.459 31.9804 119.75L29.636 118.4L26.8398 120.013V122.164L27.797 122.702C27.5407 123.074 27.3987 123.513 27.3883 123.965C27.3883 124.326 27.3883 125.767 27.3883 126.116C27.3883 127.009 28.0336 127.875 29.3832 128.654C30.5582 129.357 31.8919 129.751 33.2602 129.8C33.5129 129.8 33.7979 129.8 34.0291 129.8C35.4462 129.695 36.8417 129.393 38.1749 128.902C38.4491 128.81 38.7126 128.719 38.9815 128.622L36.6263 130.988V133.139C38.0801 133.689 39.6305 133.937 41.1834 133.87C42.7362 133.802 44.2592 133.42 45.6599 132.746L47.972 134.085L50.7682 132.472V130.321L49.8057 129.783C50.0993 129.372 50.2589 128.88 50.2627 128.375ZM44.3478 128.192C44.1381 128.313 43.9208 128.421 43.6972 128.514C42.2417 129.137 40.5991 129.161 39.1266 128.579C41.3151 127.81 43.1434 127.132 44.7027 127.961C44.5958 128.042 44.4845 128.117 44.3694 128.186L44.3478 128.192Z" fill="#BA68C8"/>
<path d="M41.0248 122.965C40.0676 123.207 39.1535 123.503 38.3362 123.804C37.3887 124.161 36.4209 124.46 35.4379 124.702C34.9853 124.808 34.5204 124.851 34.056 124.831C33.5875 124.808 33.1317 124.672 32.7278 124.433C31.8298 123.895 31.7008 123.153 33.0074 122.282C33.0935 122.223 33.1903 122.164 33.2924 122.105C33.5386 121.962 33.7936 121.834 34.056 121.723C34.6941 121.441 35.3817 121.287 36.0794 121.271C36.7771 121.256 37.471 121.378 38.1211 121.632L40.4602 119.271C38.3804 118.562 36.1373 118.483 34.013 119.045C33.3172 119.224 32.6373 119.459 31.9804 119.75L29.636 118.4L26.8398 120.013L29.1574 121.352C26.8076 123.137 26.7592 124.992 29.4047 126.514C30.5745 127.209 31.9003 127.6 33.2602 127.649C33.5129 127.649 33.7979 127.649 34.0291 127.649C35.4459 127.546 36.8414 127.246 38.1749 126.756C40.8635 125.858 43.0143 124.799 44.8372 125.842C46.0524 126.541 45.7136 127.423 44.3855 128.192C44.1758 128.313 43.9585 128.421 43.7349 128.514C43.0008 128.829 42.2112 128.994 41.4125 129C40.6138 129.006 39.822 128.851 39.0836 128.547L36.6263 131.009C38.0804 131.558 39.6306 131.806 41.1833 131.739C42.736 131.671 44.2588 131.29 45.6599 130.617L47.972 131.956L50.7682 130.343L48.456 129.009C50.7789 127.208 51.0478 125.245 48.3323 123.659L48.2839 123.632C45.8158 122.207 43.2832 122.395 41.0248 122.965Z" fill="#BA68C8"/>
<g opacity="0.3">
<path d="M41.0277 122.965C40.0706 123.207 39.1565 123.502 38.3391 123.803C37.3917 124.16 36.4239 124.46 35.4408 124.701C34.9882 124.807 34.5233 124.851 34.0589 124.83C33.5904 124.808 33.1346 124.671 32.7308 124.433C31.8328 123.895 31.7037 123.153 33.0104 122.282C33.0964 122.223 33.1932 122.163 33.2954 122.104C33.5415 121.961 33.7966 121.833 34.0589 121.722C34.697 121.44 35.3847 121.286 36.0823 121.271C36.78 121.255 37.4739 121.377 38.124 121.631L40.4631 119.27C38.3833 118.561 36.1402 118.482 34.0159 119.045C33.3201 119.223 32.6403 119.459 31.9833 119.749L29.6389 118.399L26.8428 120.013L29.1603 121.351C26.8105 123.137 26.7621 124.992 29.4077 126.514C30.5774 127.209 31.9032 127.599 33.2631 127.648C33.5158 127.648 33.8008 127.648 34.032 127.648C35.4488 127.546 36.8443 127.245 38.1778 126.755C40.8664 125.857 43.0172 124.798 44.8401 125.841C46.0553 126.54 45.7166 127.422 44.3884 128.191C44.1787 128.313 43.9614 128.42 43.7378 128.514C43.0037 128.829 42.2142 128.994 41.4154 128.999C40.6167 129.005 39.8249 128.851 39.0865 128.546L36.6292 131.009C38.0833 131.557 39.6335 131.805 41.1862 131.738C42.7389 131.67 44.2618 131.289 45.6628 130.616L47.975 131.955L50.7711 130.342L48.4589 129.008C50.7818 127.207 51.0507 125.244 48.3352 123.658L48.2869 123.631C45.8187 122.206 43.2861 122.395 41.0277 122.965Z" fill="white"/>
</g>
<path opacity="0.45" d="M26.8398 120.024L29.6628 118.744L31.9804 119.76L29.636 118.41L26.8398 120.024Z" fill="#F5F5F5"/>
<path opacity="0.45" d="M33.6914 119.147C35.6838 118.746 37.7425 118.816 39.7031 119.351L38.0899 121.653L40.429 119.292C38.252 118.549 35.8984 118.499 33.6914 119.147Z" fill="#F5F5F5"/>
<path opacity="0.45" d="M48.2664 123.627L48.3148 123.653C51.0303 125.267 50.7614 127.202 48.4385 129.004C50.498 126.761 50.1269 125.191 47.9008 123.901C45.6747 122.61 42.8033 122.626 41.0342 122.965C43.2818 122.395 45.8145 122.207 48.2664 123.627Z" fill="#F5F5F5"/>
<path opacity="0.45" d="M48.44 129.004L50.2145 130.37L47.9561 131.956L50.7522 130.337L48.44 129.004Z" fill="#F5F5F5"/>
<path opacity="0.45" d="M43.718 128.514C42.3386 129.21 40.7445 129.348 39.2657 128.901L36.6094 131.009L39.0667 128.546C39.8051 128.851 40.5969 129.005 41.3956 128.999C42.1943 128.994 42.9839 128.829 43.718 128.514Z" fill="#F5F5F5"/>
<path opacity="0.45" d="M35.4117 124.707C34.3362 125.121 32.8306 125.051 32.0617 124.39C31.2928 123.729 31.7713 122.949 32.9812 122.304C31.6745 123.159 31.8036 123.917 32.7016 124.454C33.1054 124.693 33.5613 124.83 34.0297 124.852C34.4948 124.867 34.9598 124.818 35.4117 124.707Z" fill="#F5F5F5"/>
<path opacity="0.45" d="M29.137 121.378C28.938 121.556 27.255 123.121 27.997 124.691C28.7875 126.363 31.2556 127.438 33.2451 127.654C31.8871 127.611 30.5615 127.228 29.3897 126.54C26.7388 125.019 26.8087 123.164 29.137 121.378Z" fill="#F5F5F5"/>
<path d="M7.28289 118.916C8.60567 116.684 10.7995 114.614 13.8753 112.818C24.6296 106.597 42.1268 106.597 52.9026 112.818C55.9837 114.593 58.1776 116.684 59.495 118.916H60.9899V124.551C60.7909 128.471 58.1077 132.359 52.9242 135.348C42.1698 141.575 24.6726 141.575 13.8968 135.348C8.71321 132.359 6.01388 128.471 5.83105 124.551V118.916H7.28289Z" fill="#BA68C8"/>
<path opacity="0.15" d="M7.28289 118.916C8.60567 116.684 10.7995 114.614 13.8753 112.818C24.6296 106.597 42.1268 106.597 52.9026 112.818C55.9837 114.593 58.1776 116.684 59.495 118.916H60.9899V124.551C60.7909 128.471 58.1077 132.359 52.9242 135.348C42.1698 141.575 24.6726 141.575 13.8968 135.348C8.71321 132.359 6.01388 128.471 5.83105 124.551V118.916H7.28289Z" fill="black"/>
<path opacity="0.1" d="M33.3896 108.15C40.4498 108.15 47.5154 109.704 52.9033 112.818C55.9844 114.592 58.1783 116.684 59.4957 118.915H60.9906V124.551C60.7916 128.471 58.1084 132.358 52.9248 135.348C47.5477 138.461 40.4714 140.015 33.4112 140.015L33.3896 108.15Z" fill="black"/>
<path opacity="0.1" d="M48.4609 110.736C49.9957 111.308 51.4811 112.004 52.9025 112.817C55.9836 114.592 58.1774 116.684 59.4948 118.915H60.9897V124.55C60.7907 128.47 58.1075 132.358 52.924 135.348C51.5037 136.163 50.0181 136.859 48.4824 137.429L48.4609 110.736Z" fill="black"/>
<path opacity="0.5" d="M18.3183 110.736C16.784 111.309 15.2987 112.005 13.8768 112.817C10.801 114.592 8.60717 116.683 7.2844 118.915H5.79492V124.55C5.99388 128.47 8.69321 132.358 13.8607 135.348C15.2814 136.162 16.767 136.858 18.3022 137.429L18.3183 110.736Z" fill="#BA68C8"/>
<path d="M52.903 107.65C63.6842 113.871 63.6842 123.959 52.903 130.18C43.4768 135.627 28.9209 136.31 18.2042 132.224L17.7794 132.057C16.4328 131.53 15.1278 130.903 13.8756 130.18C4.89038 124.991 3.39554 117.114 9.39644 111.032C10.7295 109.71 12.2343 108.572 13.8702 107.65C24.6568 101.429 42.1272 101.423 52.903 107.65Z" fill="#BA68C8"/>
<path opacity="0.2" d="M52.903 107.65C63.6842 113.871 63.6842 123.959 52.903 130.18C43.4768 135.627 28.9209 136.31 18.2042 132.224L17.7794 132.057C16.4328 131.53 15.1278 130.903 13.8756 130.18C4.89038 124.991 3.39554 117.114 9.39644 111.032C10.7295 109.71 12.2343 108.572 13.8702 107.65C24.6568 101.429 42.1272 101.423 52.903 107.65Z" fill="black"/>
<path opacity="0.5" d="M9.39644 111.032C9.28352 111.166 5.51413 115.14 6.51428 120.867C7.46604 126.341 15.1177 130.949 17.7794 132.057C16.4328 131.53 15.1278 130.903 13.8756 130.18C4.89038 124.991 3.39554 117.114 9.39644 111.032Z" fill="#F5F5F5"/>
<path opacity="0.5" d="M57.3825 126.798C57.5008 126.669 61.2702 122.69 60.27 116.968C59.3129 111.489 51.6666 106.881 49.0049 105.773C50.3483 106.303 51.6513 106.93 52.9033 107.65C61.8939 112.839 63.3726 120.716 57.3825 126.798Z" fill="#F5F5F5"/>
<path d="M33.4005 133.707C47.569 133.707 59.0549 127.075 59.0549 118.893C59.0549 110.712 47.569 104.079 33.4005 104.079C19.232 104.079 7.74609 110.712 7.74609 118.893C7.74609 127.075 19.232 133.707 33.4005 133.707Z" fill="#BA68C8"/>
<path opacity="0.4" d="M33.4005 133.707C47.569 133.707 59.0549 127.075 59.0549 118.893C59.0549 110.712 47.569 104.079 33.4005 104.079C19.232 104.079 7.74609 110.712 7.74609 118.893C7.74609 127.075 19.232 133.707 33.4005 133.707Z" fill="white"/>
<path opacity="0.2" d="M57.8885 123.346C59.9534 119.534 59.2812 115.329 55.8775 111.769C55.2158 111.075 54.4962 110.438 53.7266 109.866C53.0606 109.368 52.3657 108.91 51.6457 108.495C51.237 108.258 50.8176 108.027 50.382 107.812C51.4575 109.565 51.0596 111.447 45.0049 111.796C33.1752 112.49 48.1667 123.787 48.1667 123.787C48.1667 123.787 55.7753 120.082 57.8885 123.346Z" fill="white"/>
<path opacity="0.5" d="M56.6672 120.19C58.4417 119.991 59.3235 118.168 58.6353 116.114C57.947 114.06 55.9467 112.56 54.1722 112.758C52.3978 112.957 51.5159 114.78 52.2096 116.834C52.9032 118.888 54.8928 120.389 56.6672 120.19Z" fill="white"/>
<path d="M37.9646 129.61C37.3839 125.217 18.1875 113.059 18.1875 113.059C18.1875 113.059 13.9341 111.355 15.3483 108.376C14.6402 108.781 13.9545 109.225 13.2943 109.704C12.848 110.027 12.4339 110.355 12.0468 110.694C6.33085 115.64 6.32547 122.141 12.0468 127.094C12.4339 127.433 12.8533 127.761 13.2943 128.083C13.9066 128.529 14.5419 128.942 15.1978 129.32C15.8484 129.702 16.5313 130.057 17.2303 130.395C17.7681 130.659 18.3703 130.933 18.9618 131.143C19.5533 131.353 20.1448 131.589 20.7577 131.793C22.6278 132.4 24.5426 132.858 26.4844 133.165C26.9146 133.235 27.3448 133.299 27.7749 133.353C29.674 133.597 31.5869 133.717 33.5016 133.713C35.8434 133.711 38.1812 133.519 40.4919 133.138C40.4919 133.138 37.4162 132.487 37.9646 129.61Z" fill="#BA68C8"/>
<path opacity="0.3" d="M37.9646 129.61C37.3839 125.217 18.1875 113.059 18.1875 113.059C18.1875 113.059 13.9341 111.355 15.3483 108.376C14.6402 108.781 13.9545 109.225 13.2943 109.704C12.848 110.027 12.4339 110.355 12.0468 110.694C6.33085 115.64 6.32547 122.141 12.0468 127.094C12.4339 127.433 12.8533 127.761 13.2943 128.083C13.9066 128.529 14.5419 128.942 15.1978 129.32C15.8484 129.702 16.5313 130.057 17.2303 130.395C17.7681 130.659 18.3703 130.933 18.9618 131.143C19.5533 131.353 20.1448 131.589 20.7577 131.793C22.6278 132.4 24.5426 132.858 26.4844 133.165C26.9146 133.235 27.3448 133.299 27.7749 133.353C29.674 133.597 31.5869 133.717 33.5016 133.713C35.8434 133.711 38.1812 133.519 40.4919 133.138C40.4919 133.138 37.4162 132.487 37.9646 129.61Z" fill="white"/>
<path d="M19.8751 111.091C12.7128 115.226 12.4224 121.845 19.004 126.147C19.2783 126.33 19.574 126.513 19.8751 126.685C27.344 130.987 39.4372 130.987 46.9061 126.685C54.3749 122.383 54.3696 115.393 46.9061 111.091C46.6049 110.914 46.2877 110.747 45.9704 110.586C38.4586 106.789 27.0375 106.956 19.8751 111.091Z" fill="#BA68C8"/>
<path opacity="0.2" d="M19.8751 111.091C12.7128 115.226 12.4224 121.845 19.004 126.147C19.2783 126.33 19.574 126.513 19.8751 126.685C27.344 130.987 39.4372 130.987 46.9061 126.685C54.3749 122.383 54.3696 115.393 46.9061 111.091C46.6049 110.914 46.2877 110.747 45.9704 110.586C38.4586 106.789 27.0375 106.956 19.8751 111.091Z" fill="black"/>
<path d="M33.4014 129.444C43.4925 129.444 51.673 124.72 51.673 118.894C51.673 113.067 43.4925 108.344 33.4014 108.344C23.3103 108.344 15.1299 113.067 15.1299 118.894C15.1299 124.72 23.3103 129.444 33.4014 129.444Z" fill="#BA68C8"/>
<path opacity="0.5" d="M33.4014 129.444C43.4925 129.444 51.673 124.72 51.673 118.894C51.673 113.067 43.4925 108.344 33.4014 108.344C23.3103 108.344 15.1299 113.067 15.1299 118.894C15.1299 124.72 23.3103 129.444 33.4014 129.444Z" fill="black"/>
<path d="M20.4848 114.377C27.6203 110.258 39.1865 110.258 46.322 114.377C49.2364 116.06 50.9625 118.173 51.4895 120.362C50.9517 122.556 49.2364 124.664 46.322 126.352C39.1865 130.471 27.6203 130.471 20.5117 126.352C17.5919 124.669 15.8712 122.556 15.3389 120.362C15.8443 118.173 17.565 116.06 20.4848 114.377Z" fill="#BA68C8"/>
<path opacity="0.35" d="M20.4848 114.377C27.6203 110.258 39.1865 110.258 46.322 114.377C49.2364 116.06 50.9625 118.173 51.4895 120.362C50.9517 122.556 49.2364 124.664 46.322 126.352C39.1865 130.471 27.6203 130.471 20.5117 126.352C17.5919 124.669 15.8712 122.556 15.3389 120.362C15.8443 118.173 17.565 116.06 20.4848 114.377Z" fill="black"/>
<path d="M44.9073 122.071C44.9073 121.716 44.9073 120.265 44.9073 119.888C44.9073 118.996 44.2889 118.13 42.9554 117.35L42.9123 117.318C40.455 115.904 37.9223 116.087 35.6639 116.657C34.7068 116.899 33.7927 117.194 32.9754 117.495C32.0244 117.847 31.0551 118.147 30.0717 118.393C29.6211 118.501 29.158 118.546 28.6951 118.528C28.2965 118.505 27.9067 118.401 27.5498 118.221L27.6412 118.162C27.7179 118.093 27.7987 118.028 27.8832 117.969C28.1306 117.824 28.3875 117.697 28.6521 117.587C29.2892 117.304 29.976 117.15 30.6729 117.135C31.3697 117.119 32.0627 117.242 32.7119 117.495L35.0563 115.129V112.979C32.9902 112.276 30.7635 112.196 28.6521 112.747C27.9546 112.926 27.273 113.161 26.6142 113.452L24.2697 112.097L21.4736 113.71V115.861L22.4361 116.398C22.1777 116.77 22.0337 117.209 22.0221 117.662C22.0221 118.022 22.0221 119.463 22.0221 119.813C22.0221 120.711 22.662 121.571 24.0116 122.351C25.1861 123.037 26.513 123.42 27.8724 123.464C28.1305 123.464 28.4102 123.464 28.6468 123.464C30.063 123.358 31.458 123.057 32.7925 122.571L33.5991 122.292L31.2385 124.652V126.803C32.6926 127.352 34.2429 127.6 35.7956 127.532C37.3482 127.465 38.8711 127.083 40.2722 126.411L42.5843 127.744L45.3804 126.131V123.98L44.4233 123.443C44.7135 123.042 44.8816 122.566 44.9073 122.071ZM38.9924 121.883C38.2082 122.336 37.3321 122.606 36.4292 122.674C35.5263 122.742 34.6197 122.606 33.7766 122.276C35.9651 121.501 37.7933 120.829 39.3473 121.657C39.2505 121.733 39.1376 121.808 39.0085 121.883H38.9924Z" fill="#BA68C8"/>
<path d="M35.6639 116.657C34.7014 116.899 33.7873 117.195 32.9754 117.496C32.0244 117.847 31.0551 118.147 30.0717 118.394C29.6211 118.501 29.158 118.546 28.6951 118.528C28.2259 118.5 27.7694 118.364 27.3616 118.13C26.4636 117.593 26.3346 116.851 27.6412 115.979L27.8832 115.818C28.1307 115.676 28.3876 115.55 28.6521 115.442C29.2892 115.159 29.976 115.005 30.6729 114.99C31.3697 114.974 32.0627 115.097 32.7119 115.35L35.0563 112.984C32.9902 112.282 30.7635 112.202 28.6521 112.753C27.9546 112.932 27.273 113.167 26.6142 113.458L24.2697 112.103L21.4736 113.716L23.7912 115.049C21.4414 116.834 21.393 118.684 24.0385 120.211C25.213 120.897 26.5399 121.28 27.8993 121.324C28.1574 121.324 28.4155 121.324 28.6736 121.324C30.0906 121.219 31.4859 120.917 32.8194 120.426C35.508 119.528 37.6589 118.474 39.4817 119.518C40.6916 120.217 40.3528 121.093 39.0247 121.862C38.2269 122.323 37.3344 122.594 36.4155 122.657C35.4965 122.719 34.5755 122.571 33.7228 122.222L31.2654 124.68C32.7189 125.23 34.2691 125.48 35.822 125.413C37.3748 125.347 38.898 124.966 40.299 124.293L42.6112 125.626L45.4073 124.013L43.0952 122.679C45.4181 120.878 45.6869 118.915 42.9715 117.329L42.9285 117.297C40.455 115.904 37.9223 116.087 35.6639 116.657Z" fill="#BA68C8"/>
<g opacity="0.3">
<path d="M35.663 116.657C34.7004 116.899 33.7863 117.195 32.9744 117.496C32.0235 117.848 31.0541 118.147 30.0707 118.394C29.6201 118.501 29.157 118.546 28.6942 118.528C28.2249 118.5 27.7684 118.364 27.3606 118.13C26.4627 117.593 26.3336 116.851 27.6402 115.98L27.8822 115.818C28.1297 115.676 28.3866 115.55 28.6512 115.442C29.2882 115.159 29.9751 115.006 30.6719 114.99C31.3687 114.974 32.0617 115.097 32.7109 115.35L35.0553 112.985C32.9893 112.282 30.7625 112.202 28.6512 112.753C27.9536 112.932 27.272 113.167 26.6132 113.458L24.2688 112.103L21.4727 113.716L23.7902 115.049C21.4404 116.835 21.392 118.684 24.0376 120.211C25.212 120.897 26.5389 121.28 27.8984 121.324C28.1565 121.324 28.4146 121.324 28.6727 121.324C30.0896 121.219 31.4849 120.917 32.8184 120.426C35.507 119.528 37.6579 118.475 39.4807 119.518C40.6906 120.217 40.3518 121.093 39.0237 121.862C38.2259 122.323 37.3335 122.594 36.4145 122.657C35.4955 122.719 34.5745 122.571 33.7218 122.222L31.2644 124.68C32.7179 125.23 34.2681 125.48 35.821 125.414C37.3739 125.347 38.897 124.966 40.2981 124.293L42.6102 125.626L45.4064 124.013L43.0942 122.68C45.4171 120.878 45.686 118.915 42.9705 117.329L42.9275 117.297C40.454 115.904 37.9214 116.087 35.663 116.657Z" fill="white"/>
</g>
<path opacity="0.45" d="M21.4844 113.721L24.302 112.441L26.6196 113.457L24.2751 112.108L21.4844 113.721Z" fill="#F5F5F5"/>
<path opacity="0.45" d="M28.3301 112.839C30.3227 112.441 32.3807 112.511 34.3417 113.044L32.7286 115.351L35.073 112.985C32.8941 112.242 30.5389 112.191 28.3301 112.839Z" fill="#F5F5F5"/>
<path opacity="0.45" d="M42.9388 117.318L42.9818 117.351C45.6973 118.964 45.4284 120.899 43.1055 122.701C45.165 120.453 44.7939 118.888 42.5678 117.598C40.3417 116.307 37.4703 116.318 35.7012 116.657C37.9219 116.087 40.4546 115.904 42.9388 117.318Z" fill="#F5F5F5"/>
<path opacity="0.45" d="M43.0787 122.7L44.8531 124.061L42.5947 125.647L45.3908 124.034L43.0787 122.7Z" fill="#F5F5F5"/>
<path opacity="0.45" d="M38.363 122.206C36.9828 122.905 35.3864 123.046 33.9053 122.598L31.249 124.701L33.7064 122.244C34.4461 122.547 35.2389 122.7 36.0385 122.694C36.8381 122.687 37.6283 122.522 38.363 122.206Z" fill="#F5F5F5"/>
<path opacity="0.45" d="M30.034 118.399C28.9585 118.813 27.4583 118.743 26.684 118.081C25.9097 117.42 26.399 116.64 27.6035 115.995C26.2968 116.855 26.4259 117.608 27.3239 118.146C27.7317 118.38 28.1881 118.516 28.6574 118.544C29.1207 118.558 29.5839 118.51 30.034 118.399Z" fill="#F5F5F5"/>
<path opacity="0.45" d="M23.7737 115.076C23.5747 115.248 21.8917 116.818 22.6337 118.388C23.4242 120.06 25.8923 121.13 27.8818 121.345C26.5224 121.301 25.1955 120.918 24.021 120.232C21.3755 118.71 21.4292 116.861 23.7737 115.076Z" fill="#F5F5F5"/>
<path d="M9.50652 109.403C10.8293 107.177 13.0232 105.102 16.0989 103.311C26.8532 97.0843 44.3505 97.0843 55.1263 103.311C58.2074 105.085 60.4013 107.177 61.724 109.403H63.2135V115.044C63.0146 118.964 60.3314 122.852 55.1478 125.841C44.3935 132.063 26.8962 132.063 16.1204 125.841C10.9368 122.852 8.23751 118.964 8.05469 115.044V109.403H9.50652Z" fill="#BA68C8"/>
<path opacity="0.15" d="M9.50652 109.403C10.8293 107.177 13.0232 105.102 16.0989 103.311C26.8532 97.0843 44.3505 97.0843 55.1263 103.311C58.2074 105.085 60.4013 107.177 61.724 109.403H63.2135V115.044C63.0146 118.964 60.3314 122.852 55.1478 125.841C44.3935 132.063 26.8962 132.063 16.1204 125.841C10.9368 122.852 8.23751 118.964 8.05469 115.044V109.403H9.50652Z" fill="black"/>
<path opacity="0.1" d="M35.6113 98.6435C42.6769 98.6435 49.7371 100.198 55.125 103.311C58.2061 105.085 60.4 107.177 61.7174 109.403H63.2122V115.044C63.0133 118.964 60.3301 122.851 55.1465 125.841C49.7694 128.955 42.6984 130.509 35.6328 130.509L35.6113 98.6435Z" fill="black"/>
<path opacity="0.1" d="M50.6846 101.23C52.2207 101.799 53.7064 102.495 55.1261 103.311C58.2072 105.086 60.4011 107.178 61.7185 109.404H63.2133V115.044C63.0144 118.964 60.3312 122.852 55.1476 125.842C53.7268 126.656 52.2412 127.352 50.7061 127.923L50.6846 101.23Z" fill="black"/>
<path opacity="0.5" d="M20.54 101.23C19.0048 101.801 17.5192 102.497 16.0985 103.311C13.0227 105.086 10.8289 107.178 9.50607 109.404H8.0166V115.044C8.21556 118.964 10.9149 122.852 16.0823 125.842C17.5042 126.654 18.9896 127.35 20.5239 127.923L20.54 101.23Z" fill="#BA68C8"/>
<path d="M55.1315 98.1386C65.8858 104.365 65.8858 114.453 55.1315 120.674C45.7 126.121 31.144 126.799 20.4327 122.718L20.0079 122.551C18.6637 122.019 17.3592 121.392 16.1041 120.674C7.1189 115.485 5.62405 107.608 11.625 101.526C12.9604 100.206 14.4647 99.0689 16.0987 98.144C26.8746 91.9172 44.3503 91.9172 55.1315 98.1386Z" fill="#BA68C8"/>
<path opacity="0.2" d="M55.1315 98.1386C65.8858 104.365 65.8858 114.453 55.1315 120.674C45.7 126.121 31.144 126.799 20.4327 122.718L20.0079 122.551C18.6637 122.019 17.3592 121.392 16.1041 120.674C7.1189 115.485 5.62405 107.608 11.625 101.526C12.9604 100.206 14.4647 99.0689 16.0987 98.144C26.8746 91.9172 44.3503 91.9172 55.1315 98.1386Z" fill="black"/>
<path opacity="0.5" d="M11.6203 101.526C11.5074 101.655 7.738 105.634 8.73815 111.355C9.6899 116.834 17.3416 121.443 20.0302 122.55C18.686 122.018 17.3814 121.391 16.1264 120.674C7.11425 115.485 5.6194 107.607 11.6203 101.526Z" fill="#F5F5F5"/>
<path opacity="0.5" d="M59.6105 117.292C59.7288 117.158 63.4982 113.184 62.4981 107.457C61.5409 101.983 53.8946 97.375 51.2061 96.2673C52.5505 96.7949 53.8536 97.4222 55.1045 98.1439C64.1166 103.333 65.6114 111.205 59.6105 117.292Z" fill="#F5F5F5"/>
<path d="M35.6212 124.202C49.7897 124.202 61.2756 117.569 61.2756 109.388C61.2756 101.206 49.7897 94.5736 35.6212 94.5736C21.4527 94.5736 9.9668 101.206 9.9668 109.388C9.9668 117.569 21.4527 124.202 35.6212 124.202Z" fill="#BA68C8"/>
<path opacity="0.4" d="M35.6212 124.202C49.7897 124.202 61.2756 117.569 61.2756 109.388C61.2756 101.206 49.7897 94.5736 35.6212 94.5736C21.4527 94.5736 9.9668 101.206 9.9668 109.388C9.9668 117.569 21.4527 124.202 35.6212 124.202Z" fill="white"/>
<path opacity="0.2" d="M60.1102 113.807C62.175 110 61.5029 105.795 58.0992 102.23C57.4347 101.539 56.7154 100.902 55.9483 100.327C55.2817 99.8317 54.5869 99.3756 53.8674 98.9611C53.4587 98.7191 53.0393 98.4932 52.6037 98.2728C53.6791 100.031 53.2812 101.908 47.2266 102.263C35.3968 102.951 50.3883 114.254 50.3883 114.254C50.3883 114.254 57.997 110.576 60.1102 113.807Z" fill="white"/>
<path opacity="0.5" d="M58.894 110.684C60.6685 110.485 61.545 108.662 60.8567 106.608C60.1684 104.554 58.1681 103.053 56.3937 103.252C54.6192 103.451 53.7427 105.274 54.431 107.328C55.1193 109.382 57.1196 110.883 58.894 110.684Z" fill="white"/>
<path d="M40.1883 120.12C39.6075 115.732 20.4165 103.575 20.4165 103.575C20.4165 103.575 16.1578 101.87 17.572 98.891C16.8632 99.2973 16.1775 99.7425 15.5179 100.225C15.077 100.547 14.6576 100.875 14.2704 101.214C8.55448 106.161 8.54911 112.662 14.2704 117.614C14.6522 117.948 15.0716 118.281 15.5125 118.604C16.104 119.028 16.7331 119.443 17.416 119.84C18.0989 120.238 18.7496 120.577 19.4486 120.916C19.9863 121.179 20.5885 121.454 21.18 121.663C21.7715 121.873 22.363 122.11 22.976 122.309C24.8455 122.918 26.7604 123.378 28.7027 123.685C29.1328 123.755 29.563 123.82 29.9932 123.873C31.8925 124.115 33.8053 124.235 35.7199 124.234C38.0616 124.229 40.3992 124.036 42.7102 123.658C42.7102 123.658 39.6398 122.986 40.1883 120.12Z" fill="#BA68C8"/>
<path opacity="0.3" d="M40.1883 120.12C39.6075 115.732 20.4165 103.575 20.4165 103.575C20.4165 103.575 16.1578 101.87 17.572 98.891C16.8632 99.2973 16.1775 99.7425 15.5179 100.225C15.077 100.547 14.6576 100.875 14.2704 101.214C8.55448 106.161 8.54911 112.662 14.2704 117.614C14.6522 117.948 15.0716 118.281 15.5125 118.604C16.104 119.028 16.7331 119.443 17.416 119.84C18.0989 120.238 18.7496 120.577 19.4486 120.916C19.9863 121.179 20.5885 121.454 21.18 121.663C21.7715 121.873 22.363 122.11 22.976 122.309C24.8455 122.918 26.7604 123.378 28.7027 123.685C29.1328 123.755 29.563 123.82 29.9932 123.873C31.8925 124.115 33.8053 124.235 35.7199 124.234C38.0616 124.229 40.3992 124.036 42.7102 123.658C42.7102 123.658 39.6398 122.986 40.1883 120.12Z" fill="white"/>
<path d="M22.0996 101.585C14.9426 105.715 14.6523 112.339 21.2285 116.641C21.5081 116.824 21.7985 117.007 22.105 117.179C29.5685 121.481 41.6671 121.481 49.1306 117.179C56.594 112.877 56.594 105.887 49.1306 101.585C48.8294 101.408 48.5122 101.236 48.1949 101.074C40.683 97.2781 29.262 97.4501 22.0996 101.585Z" fill="#BA68C8"/>
<path opacity="0.2" d="M22.0996 101.585C14.9426 105.715 14.6523 112.339 21.2285 116.641C21.5081 116.824 21.7985 117.007 22.105 117.179C29.5685 121.481 41.6671 121.481 49.1306 117.179C56.594 112.877 56.594 105.887 49.1306 101.585C48.8294 101.408 48.5122 101.236 48.1949 101.074C40.683 97.2781 29.262 97.4501 22.0996 101.585Z" fill="black"/>
<path d="M22.7071 101.929C15.5716 106.048 15.5716 112.726 22.7071 116.845C29.8426 120.964 41.4088 120.964 48.5174 116.845C55.626 112.726 55.6529 106.048 48.5174 101.929C41.3819 97.81 29.8426 97.81 22.7071 101.929Z" fill="#BA68C8"/>
<path opacity="0.5" d="M22.7071 101.929C15.5716 106.048 15.5716 112.726 22.7071 116.845C29.8426 120.964 41.4088 120.964 48.5174 116.845C55.626 112.726 55.6529 106.048 48.5174 101.929C41.3819 97.81 29.8426 97.81 22.7071 101.929Z" fill="black"/>
<path d="M22.706 104.871C29.8415 100.752 41.4078 100.752 48.5163 104.871C51.4308 106.554 53.1568 108.667 53.6892 110.856C53.1515 113.05 51.4308 115.157 48.5163 116.846C41.3809 120.965 29.8146 120.965 22.706 116.846C19.7862 115.157 18.0655 113.044 17.5332 110.856C18.0655 108.667 19.7862 106.554 22.706 104.871Z" fill="#BA68C8"/>
<path opacity="0.35" d="M22.706 104.871C29.8415 100.752 41.4078 100.752 48.5163 104.871C51.4308 106.554 53.1568 108.667 53.6892 110.856C53.1515 113.05 51.4308 115.157 48.5163 116.846C41.3809 120.965 29.8146 120.965 22.706 116.846C19.7862 115.157 18.0655 113.044 17.5332 110.856C18.0655 108.667 19.7862 106.554 22.706 104.871Z" fill="black"/>
<path d="M47.1294 112.56C47.1294 112.205 47.1294 110.753 47.1294 110.382C47.1294 109.49 46.511 108.618 45.1775 107.844C45.1775 107.844 45.1452 107.844 45.1345 107.812C42.6825 106.398 40.1445 106.58 37.8861 107.15C36.9235 107.392 36.0148 107.688 35.1975 107.989C34.2474 108.345 33.2779 108.646 32.2938 108.893C31.843 108.998 31.3798 109.042 30.9173 109.022C30.519 109 30.1294 108.897 29.7719 108.721L29.8633 108.656L30.1483 108.479C30.3959 108.336 30.6527 108.21 30.9173 108.102C31.5544 107.82 32.2412 107.666 32.938 107.65C33.6348 107.635 34.3278 107.757 34.977 108.011L37.3214 105.645V103.494C35.2554 102.792 33.0286 102.711 30.9173 103.263C30.2197 103.441 29.5381 103.677 28.8793 103.967L26.5349 102.612L23.7441 104.225V106.376L24.7013 106.914C24.4426 107.288 24.2987 107.729 24.2872 108.183C24.2872 108.543 24.2872 109.979 24.2872 110.334C24.2872 111.232 24.9271 112.092 26.2768 112.872C27.4512 113.558 28.7781 113.94 30.1376 113.985C30.3957 113.985 30.6538 113.985 30.9119 113.985C32.3288 113.879 33.7241 113.577 35.0577 113.087L35.8642 112.813L33.5037 115.173V117.324C34.9572 117.875 36.5074 118.124 38.0602 118.058C39.6131 117.991 41.1362 117.61 42.5373 116.937L44.8495 118.27L47.6456 116.657V114.506L46.6884 113.969C46.97 113.552 47.1233 113.063 47.1294 112.56ZM41.2145 112.377C40.4303 112.83 39.5543 113.1 38.6513 113.168C37.7484 113.236 36.8418 113.1 35.9987 112.77C38.1872 111.995 40.0154 111.323 41.5694 112.151C41.4726 112.227 41.3597 112.302 41.2306 112.377H41.2145Z" fill="#BA68C8"/>
<path d="M37.8861 107.15C36.9235 107.392 36.0148 107.688 35.1975 107.989C34.2474 108.345 33.2779 108.646 32.2938 108.892C31.843 108.998 31.3798 109.041 30.9173 109.021C30.4479 108.998 29.9909 108.864 29.5837 108.629C28.6857 108.091 28.5567 107.349 29.8633 106.478L30.1483 106.301C30.3969 106.158 30.6537 106.031 30.9173 105.919C32.2053 105.353 33.6648 105.32 34.977 105.827L37.3214 103.467C35.2554 102.765 33.0286 102.684 30.9173 103.236C30.2197 103.414 29.5381 103.65 28.8793 103.94L26.5349 102.585L23.7441 104.198L26.0563 105.537C23.7065 107.322 23.6581 109.177 26.3037 110.705C27.4774 111.391 28.805 111.772 30.1645 111.812C30.4226 111.812 30.6807 111.812 30.9388 111.812C32.3557 111.707 33.751 111.405 35.0846 110.914C37.7731 110.016 39.924 108.962 41.7468 110.006C42.9567 110.705 42.6233 111.581 41.2898 112.35C40.492 112.811 39.5993 113.082 38.6801 113.144C37.7609 113.205 36.8399 113.055 35.9879 112.705L33.5306 115.168C34.9843 115.718 36.5348 115.967 38.0877 115.899C39.6406 115.832 41.1636 115.449 42.5642 114.775L44.8763 116.114L47.6725 114.501L45.3603 113.162C47.6886 111.366 47.9521 109.398 45.2366 107.817C45.2366 107.817 45.2044 107.817 45.1936 107.785C42.6825 106.397 40.1445 106.58 37.8861 107.15Z" fill="#BA68C8"/>
<g opacity="0.3">
<path d="M37.887 107.15C36.9245 107.392 36.0158 107.688 35.1985 107.989C34.2483 108.345 33.2789 108.646 32.2948 108.893C31.844 108.998 31.3808 109.042 30.9182 109.022C30.4489 108.998 29.9919 108.864 29.5847 108.629C28.6867 108.091 28.5577 107.349 29.8643 106.478L30.1493 106.301C30.3979 106.159 30.6546 106.031 30.9182 105.919C32.2062 105.353 33.6658 105.321 34.978 105.828L37.3224 103.467C35.2563 102.765 33.0296 102.684 30.9182 103.236C30.2207 103.414 29.5391 103.65 28.8803 103.94L26.5359 102.585L23.7451 104.198L26.0573 105.537C23.7075 107.323 23.6591 109.178 26.3046 110.705C27.4784 111.392 28.806 111.773 30.1654 111.812C30.4235 111.812 30.6816 111.812 30.9397 111.812C32.3567 111.707 33.752 111.405 35.0855 110.914C37.7741 110.016 39.925 108.963 41.7478 110.006C42.9577 110.705 42.6243 111.581 41.2908 112.35C40.493 112.811 39.6002 113.082 38.6811 113.144C37.7619 113.205 36.8409 113.055 35.9889 112.705L33.5315 115.168C34.9853 115.718 36.5357 115.967 38.0887 115.899C39.6416 115.832 41.1646 115.449 42.5651 114.775L44.8773 116.114L47.6734 114.501L45.3613 113.162C47.6896 111.366 47.9531 109.398 45.2376 107.817C45.2376 107.817 45.2053 107.817 45.1946 107.785C42.6834 106.398 40.1454 106.58 37.887 107.15Z" fill="white"/>
</g>
<path opacity="0.45" d="M23.7061 104.209L26.5291 102.935L28.8412 103.951L26.5022 102.596L23.7061 104.209Z" fill="#F5F5F5"/>
<path opacity="0.45" d="M30.5752 103.333C32.5676 102.931 34.6262 103.001 36.5868 103.537L34.9737 105.838L37.3181 103.478C35.1392 102.735 32.7841 102.685 30.5752 103.333Z" fill="#F5F5F5"/>
<path opacity="0.45" d="M45.1351 107.812C45.1351 107.812 45.1674 107.812 45.1781 107.844C47.8936 109.431 47.6301 111.393 45.3018 113.189C47.3613 110.947 46.9902 109.382 44.7641 108.086C42.5379 106.79 39.6665 106.812 37.8975 107.151C40.1451 106.581 42.6831 106.398 45.1351 107.812Z" fill="#F5F5F5"/>
<path opacity="0.45" d="M45.3013 113.189L47.0758 114.555L44.8174 116.141L47.6135 114.528L45.3013 113.189Z" fill="#F5F5F5"/>
<path opacity="0.45" d="M40.5856 112.7C39.2054 113.399 37.6082 113.538 36.128 113.087L33.4717 115.195L35.929 112.732C36.668 113.038 37.4608 113.193 38.2606 113.187C39.0604 113.182 39.851 113.016 40.5856 112.7Z" fill="#F5F5F5"/>
<path opacity="0.45" d="M32.2561 108.893C31.1807 109.307 29.6804 109.237 28.9115 108.576C28.1426 107.915 28.6211 107.135 29.8256 106.49C28.519 107.35 28.648 108.103 29.546 108.64C29.9532 108.875 30.4102 109.01 30.8795 109.033C31.3426 109.049 31.8058 109.002 32.2561 108.893Z" fill="#F5F5F5"/>
<path opacity="0.45" d="M25.9994 105.564C25.8005 105.741 24.1174 107.311 24.8649 108.876C25.6499 110.548 28.118 111.624 30.1076 111.839C28.7482 111.799 27.4205 111.418 26.2468 110.731C23.5851 109.204 23.6496 107.349 25.9994 105.564Z" fill="#F5F5F5"/>
<path d="M32.9435 101.386C34.2609 99.16 36.4548 97.0844 39.5359 95.2884C50.2902 89.067 67.7875 89.067 78.5633 95.2884C81.6444 97.0683 83.8383 99.16 85.1557 101.386H86.6452V107.027C86.4462 110.947 83.763 114.834 78.5794 117.824C67.8251 124.045 50.3279 124.045 39.5521 117.824C34.3685 114.834 31.6638 110.947 31.4863 107.027V101.386H32.9435Z" fill="#BA68C8"/>
<path opacity="0.15" d="M32.9435 101.386C34.2609 99.16 36.4548 97.0844 39.5359 95.2884C50.2902 89.067 67.7875 89.067 78.5633 95.2884C81.6444 97.0683 83.8383 99.16 85.1557 101.386H86.6452V107.027C86.4462 110.947 83.763 114.834 78.5794 117.824C67.8251 124.045 50.3279 124.045 39.5521 117.824C34.3685 114.834 31.6638 110.947 31.4863 107.027V101.386H32.9435Z" fill="black"/>
<path opacity="0.1" d="M59.0713 90.6211C66.1315 90.6211 73.1971 92.1805 78.585 95.2885C81.6661 97.0683 83.86 99.16 85.1774 101.386H86.6668V107.027C86.4679 110.947 83.7847 114.834 78.6011 117.824C73.224 120.937 66.1476 122.491 59.0874 122.491L59.0713 90.6211Z" fill="black"/>
<path opacity="0.1" d="M74.127 93.2342C75.6615 93.8039 77.147 94.4981 78.5685 95.3098C81.6496 97.0896 83.8435 99.1813 85.1609 101.407H86.6503V107.048C86.4514 110.968 83.7682 114.856 78.5846 117.845C77.1574 118.652 75.6665 119.341 74.127 119.905V93.2342Z" fill="black"/>
<path opacity="0.5" d="M43.9775 93.2342C42.4429 93.8039 40.9574 94.4981 39.536 95.3098C36.4602 97.0896 34.261 99.1813 32.9436 101.407H31.4541V107.048C31.6531 110.968 34.3524 114.856 39.5198 117.845C40.9412 118.659 42.4266 119.355 43.9614 119.926L43.9775 93.2342Z" fill="#BA68C8"/>
<path d="M78.5637 90.121C89.3449 96.3477 89.318 106.435 78.5637 112.657C69.1376 118.098 54.5762 118.781 43.8649 114.7L43.4348 114.533C42.0923 114.001 40.7895 113.374 39.5363 112.657C30.5457 107.468 29.0563 99.5902 35.0572 93.5086C36.3903 92.186 37.895 91.0484 39.531 90.1264C50.3121 83.8996 67.7879 83.8996 78.5637 90.121Z" fill="#BA68C8"/>
<path opacity="0.2" d="M78.5637 90.121C89.3449 96.3477 89.318 106.435 78.5637 112.657C69.1376 118.098 54.5762 118.781 43.8649 114.7L43.4348 114.533C42.0923 114.001 40.7895 113.374 39.5363 112.657C30.5457 107.468 29.0563 99.5902 35.0572 93.5086C36.3903 92.186 37.895 91.0484 39.531 90.1264C50.3121 83.8996 67.7879 83.8996 78.5637 90.121Z" fill="black"/>
<path opacity="0.5" d="M35.0563 93.5083C34.9433 93.6374 31.174 97.6165 32.1687 103.338C33.1259 108.817 40.7722 113.425 43.4339 114.533C42.0914 114.001 40.7886 113.374 39.5354 112.656C30.5717 107.467 29.0554 99.5899 35.0563 93.5083Z" fill="#F5F5F5"/>
<path opacity="0.5" d="M83.0417 109.269C83.1546 109.14 86.924 105.166 85.9292 99.4397C84.9721 93.9657 77.3258 89.3575 74.6641 88.2498C76.0074 88.7778 77.3103 89.4032 78.5625 90.1211C87.5692 95.31 89.0426 103.188 83.0417 109.269Z" fill="#F5F5F5"/>
<path d="M77.1981 111.839C87.2212 106.059 87.2212 96.6811 77.1981 90.8684C67.1751 85.0557 50.9361 85.0826 40.9185 90.8684C30.9009 96.6543 30.9009 106.032 40.9185 111.839C50.9361 117.647 67.1805 117.625 77.1981 111.839Z" fill="#BA68C8"/>
<path opacity="0.4" d="M77.1981 111.839C87.2212 106.059 87.2212 96.6811 77.1981 90.8684C67.1751 85.0557 50.9361 85.0826 40.9185 90.8684C30.9009 96.6543 30.9009 106.032 40.9185 111.839C50.9361 117.647 67.1805 117.625 77.1981 111.839Z" fill="white"/>
<path opacity="0.2" d="M83.5477 105.79C85.6126 101.977 84.9404 97.7778 81.5367 94.2128C80.8648 93.519 80.1364 92.8823 79.3589 92.3093C78.6933 91.8153 78.0004 91.3593 77.2834 90.9435C76.8747 90.7015 76.4553 90.4757 76.0197 90.2552C77.0952 92.0135 76.6973 93.8902 70.6426 94.2451C58.8129 94.9333 73.8043 106.236 73.8043 106.236C73.8043 106.236 81.4345 102.553 83.5477 105.79Z" fill="white"/>
<path opacity="0.5" d="M82.3264 102.666C84.1009 102.467 84.9827 100.644 84.2944 98.5897C83.6062 96.5356 81.6059 95.0354 79.8314 95.2343C78.0569 95.4333 77.1751 97.2561 77.8687 99.3102C78.5624 101.364 80.5788 102.865 82.3264 102.666Z" fill="white"/>
<path d="M63.6258 112.081C63.045 107.693 43.8486 95.5358 43.8486 95.5358C43.8486 95.5358 39.5953 93.8258 41.0041 90.8523C40.2972 91.2568 39.6132 91.7002 38.9554 92.1804C38.5232 92.489 38.1068 92.8192 37.7079 93.1698C31.992 98.1168 31.9866 104.612 37.7079 109.57C38.0951 109.904 38.5145 110.237 38.9554 110.56C39.5415 110.984 40.176 111.398 40.8589 111.796C41.5418 112.194 42.1871 112.533 42.8915 112.872C43.4292 113.135 44.0314 113.383 44.6175 113.614C45.2036 113.845 45.8059 114.065 46.4189 114.264C48.2888 114.872 50.2036 115.333 52.1455 115.641C52.5703 115.711 53.0059 115.77 53.4361 115.829C55.3353 116.071 57.2481 116.191 59.1627 116.189C61.5044 116.184 63.842 115.992 66.153 115.614C66.153 115.614 63.0773 114.969 63.6258 112.081Z" fill="#BA68C8"/>
<path opacity="0.3" d="M63.6258 112.081C63.045 107.693 43.8486 95.5358 43.8486 95.5358C43.8486 95.5358 39.5953 93.8258 41.0041 90.8523C40.2972 91.2568 39.6132 91.7002 38.9554 92.1804C38.5232 92.489 38.1068 92.8192 37.7079 93.1698C31.992 98.1168 31.9866 104.612 37.7079 109.57C38.0951 109.904 38.5145 110.237 38.9554 110.56C39.5415 110.984 40.176 111.398 40.8589 111.796C41.5418 112.194 42.1871 112.533 42.8915 112.872C43.4292 113.135 44.0314 113.383 44.6175 113.614C45.2036 113.845 45.8059 114.065 46.4189 114.264C48.2888 114.872 50.2036 115.333 52.1455 115.641C52.5703 115.711 53.0059 115.77 53.4361 115.829C55.3353 116.071 57.2481 116.191 59.1627 116.189C61.5044 116.184 63.842 115.992 66.153 115.614C66.153 115.614 63.0773 114.969 63.6258 112.081Z" fill="white"/>
<path d="M45.536 93.5622C38.3737 97.6973 38.0833 104.317 44.6596 108.618C44.9392 108.801 45.2349 108.984 45.536 109.156C52.9995 113.458 65.0981 113.458 72.5616 109.156C80.0251 104.854 80.0305 97.864 72.5616 93.5622C72.2551 93.3902 71.9432 93.2181 71.6206 93.0568C64.1195 89.2605 52.693 89.4326 45.536 93.5622Z" fill="#BA68C8"/>
<path opacity="0.2" d="M45.536 93.5622C38.3737 97.6973 38.0833 104.317 44.6596 108.618C44.9392 108.801 45.2349 108.984 45.536 109.156C52.9995 113.458 65.0981 113.458 72.5616 109.156C80.0251 104.854 80.0305 97.864 72.5616 93.5622C72.2551 93.3902 71.9432 93.2181 71.6206 93.0568C64.1195 89.2605 52.693 89.4326 45.536 93.5622Z" fill="black"/>
<path d="M59.0606 111.915C69.1517 111.915 77.3322 107.191 77.3322 101.365C77.3322 95.538 69.1517 90.8147 59.0606 90.8147C48.9695 90.8147 40.7891 95.538 40.7891 101.365C40.7891 107.191 48.9695 111.915 59.0606 111.915Z" fill="#BA68C8"/>
<path opacity="0.5" d="M59.0606 111.915C69.1517 111.915 77.3322 107.191 77.3322 101.365C77.3322 95.538 69.1517 90.8147 59.0606 90.8147C48.9695 90.8147 40.7891 95.538 40.7891 101.365C40.7891 107.191 48.9695 111.915 59.0606 111.915Z" fill="black"/>
<path d="M46.167 96.8531C53.2971 92.7288 64.8687 92.7288 71.9773 96.8531C74.8971 98.5361 76.6178 100.649 77.1501 102.838C76.6124 105.026 74.8971 107.14 71.9773 108.823C64.8472 112.941 53.2756 112.941 46.167 108.823C43.2472 107.14 41.5265 105.026 40.9941 102.838C41.505 100.649 43.2257 98.5361 46.167 96.8531Z" fill="#BA68C8"/>
<path opacity="0.35" d="M46.167 96.8531C53.2971 92.7288 64.8687 92.7288 71.9773 96.8531C74.8971 98.5361 76.6178 100.649 77.1501 102.838C76.6124 105.026 74.8971 107.14 71.9773 108.823C64.8472 112.941 53.2756 112.941 46.167 108.823C43.2472 107.14 41.5265 105.026 40.9941 102.838C41.505 100.649 43.2257 98.5361 46.167 96.8531Z" fill="black"/>
<path d="M70.564 104.526C70.564 104.171 70.564 102.719 70.564 102.375C70.564 101.483 69.9402 100.612 68.6121 99.8319L68.5637 99.805C66.1117 98.3908 63.5791 98.5737 61.3207 99.1436C60.3635 99.3856 59.4494 99.6814 58.6321 99.9825C57.6846 100.339 56.7168 100.639 55.7338 100.88C55.2812 100.986 54.8163 101.03 54.3519 101.01C53.9554 100.988 53.5675 100.885 53.2119 100.708L53.3033 100.644C53.3894 100.585 53.4862 100.526 53.5883 100.466C53.8346 100.325 54.0896 100.199 54.3519 100.09C54.9899 99.8078 55.6773 99.6539 56.3748 99.6373C57.0723 99.6207 57.7662 99.7417 58.417 99.9932L60.7561 97.6327V95.4818C58.6906 94.7774 56.4637 94.6952 54.3519 95.2452C53.6576 95.4284 52.9781 95.6639 52.3193 95.9496L49.9319 94.5784L47.1357 96.1916V98.3425L48.0929 98.8802C47.8366 99.2526 47.6946 99.6918 47.6842 100.144C47.6842 100.504 47.6842 101.945 47.6842 102.295C47.6842 103.187 48.3295 104.053 49.6791 104.833C50.8513 105.519 52.177 105.9 53.5345 105.94C53.7873 105.94 54.0723 105.94 54.3035 105.94C55.7206 105.836 57.1161 105.534 58.4493 105.042C58.7289 104.951 58.987 104.86 59.2558 104.763L56.9007 107.129V109.28C58.3544 109.829 59.9044 110.078 61.4571 110.011C63.0098 109.945 64.5329 109.564 65.9343 108.892L68.2464 110.226L71.0426 108.613V106.462L70.08 105.924C70.3811 105.519 70.5501 105.031 70.564 104.526ZM64.6491 104.343C64.4394 104.465 64.2221 104.573 63.9985 104.666C62.5431 105.288 60.9016 105.313 59.4279 104.736C61.6164 103.962 63.4446 103.284 65.004 104.118C64.9108 104.204 64.7997 104.284 64.6706 104.359L64.6491 104.343Z" fill="#BA68C8"/>
<path d="M61.326 99.149C60.3689 99.391 59.4548 99.6867 58.6375 99.9879C57.69 100.344 56.7222 100.644 55.7392 100.886C55.2866 100.992 54.8216 101.035 54.3573 101.015C53.8888 100.992 53.4329 100.856 53.0291 100.617C52.1311 100.079 52.0021 99.3372 53.3087 98.4661C53.3947 98.407 53.4915 98.3478 53.5937 98.2887C53.841 98.1475 54.0959 98.0201 54.3573 97.9069C54.9957 97.6255 55.6832 97.4726 56.3807 97.4569C57.0782 97.4412 57.772 97.5631 58.4224 97.8155L60.7614 95.4549C58.696 94.7506 56.4691 94.6683 54.3573 95.2183C53.6629 95.4015 52.9835 95.637 52.3247 95.9227L49.9319 94.5784L47.1357 96.1916L49.4533 97.5305C47.1035 99.3157 47.0551 101.171 49.7006 102.693C50.8724 103.38 52.198 103.763 53.5561 103.806C53.8088 103.806 54.0938 103.806 54.325 103.806C55.7418 103.703 57.1373 103.403 58.4708 102.913C61.1594 102.015 63.3102 100.956 65.1331 101.999C66.3483 102.698 66.0095 103.58 64.6814 104.349C64.4717 104.47 64.2544 104.578 64.0308 104.671C63.2967 104.986 62.5071 105.151 61.7084 105.157C60.9097 105.162 60.1179 105.008 59.3795 104.704L56.9222 107.177C58.3763 107.726 59.9265 107.974 61.4792 107.906C63.0318 107.839 64.5547 107.457 65.9558 106.785L68.2679 108.123L71.0641 106.51L68.7519 105.171C71.0748 103.375 71.3437 101.407 68.6282 99.8212L68.5798 99.7943C66.1171 98.3801 63.5844 98.5629 61.326 99.149Z" fill="#BA68C8"/>
<g opacity="0.3">
<path d="M61.3231 99.1491C60.366 99.391 59.4519 99.6868 58.6345 99.9879C57.6871 100.344 56.7193 100.644 55.7363 100.886C55.2837 100.992 54.8187 101.035 54.3543 101.015C53.8859 100.992 53.43 100.856 53.0262 100.617C52.1282 100.079 51.9991 99.3373 53.3058 98.4662C53.3918 98.407 53.4886 98.3479 53.5908 98.2887C53.8381 98.1476 54.093 98.0201 54.3543 97.9069C54.9927 97.6255 55.6803 97.4726 56.3778 97.4569C57.0753 97.4412 57.769 97.5631 58.4194 97.8155L60.7585 95.455C58.693 94.7506 56.4662 94.6683 54.3543 95.2184C53.66 95.4016 52.9805 95.637 52.3218 95.9228L49.9289 94.5785L47.1328 96.1916L49.4504 97.5305C47.1005 99.3157 47.0522 101.171 49.6977 102.693C50.8695 103.38 52.1951 103.763 53.5531 103.806C53.8059 103.806 54.0908 103.806 54.3221 103.806C55.7389 103.703 57.1344 103.403 58.4678 102.913C61.1564 102.015 63.3073 100.956 65.1301 101.999C66.3454 102.698 66.0066 103.58 64.6785 104.349C64.4688 104.47 64.2514 104.578 64.0278 104.671C63.2938 104.986 62.5042 105.151 61.7055 105.157C60.9067 105.162 60.1149 105.008 59.3766 104.704L56.9192 107.177C58.3733 107.726 59.9236 107.974 61.4762 107.906C63.0289 107.839 64.5518 107.457 65.9528 106.785L68.265 108.124L71.0611 106.51L68.749 105.171C71.0719 103.376 71.3407 101.407 68.6253 99.8212L68.5769 99.7943C66.1142 98.3801 63.5815 98.5629 61.3231 99.1491Z" fill="white"/>
</g>
<path opacity="0.45" d="M47.1387 96.1915L49.9617 94.9117L52.2792 95.9334L49.9348 94.5784L47.1387 96.1915Z" fill="#F5F5F5"/>
<path opacity="0.45" d="M53.9893 95.3155C55.9817 94.9143 58.0403 94.9843 60.0009 95.5198L58.3878 97.8212L60.7268 95.4607C58.5498 94.7179 56.1963 94.6672 53.9893 95.3155Z" fill="#F5F5F5"/>
<path opacity="0.45" d="M68.5653 99.7943L68.6137 99.8212C71.3291 101.434 71.0603 103.376 68.7373 105.171C70.7968 102.929 70.4258 101.364 68.1996 100.069C65.9735 98.7727 63.1021 98.7942 61.333 99.1329C63.5807 98.563 66.1133 98.3801 68.5653 99.7943Z" fill="#F5F5F5"/>
<path opacity="0.45" d="M68.7378 105.172L70.5123 106.537L68.2539 108.124L71.05 106.511L68.7378 105.172Z" fill="#F5F5F5"/>
<path opacity="0.45" d="M64.0178 104.682C62.6384 105.378 61.0442 105.517 59.5655 105.069L56.9199 107.177L59.3773 104.714C60.1141 105.018 60.904 105.171 61.7008 105.166C62.4975 105.16 63.2852 104.996 64.0178 104.682Z" fill="#F5F5F5"/>
<path opacity="0.45" d="M55.6939 100.876C54.6185 101.29 53.1129 101.22 52.3439 100.558C51.575 99.897 52.0535 99.1173 53.2634 98.4721C51.9568 99.327 52.0858 100.085 52.9838 100.623C53.3876 100.861 53.8435 100.998 54.312 101.021C54.7771 101.036 55.242 100.987 55.6939 100.876Z" fill="#F5F5F5"/>
<path opacity="0.45" d="M49.4343 97.5361C49.2353 97.7135 47.5523 99.2783 48.2943 100.848C49.0848 102.521 51.5529 103.596 53.5424 103.811C52.1844 103.769 50.8588 103.386 49.687 102.698C47.0361 101.187 47.0845 99.3321 49.4343 97.5361Z" fill="#F5F5F5"/>
<path d="M93.3729 108.716C94.6472 110.958 95.3624 113.883 95.3624 117.411C95.3624 129.778 86.6138 144.791 75.8272 150.969C72.7461 152.733 69.8317 153.583 67.2238 153.609L66.4817 154.895L61.5939 152.093C58.2977 149.975 56.2705 145.743 56.2705 139.801C56.2705 127.434 65.0138 112.421 75.8057 106.242C80.9947 103.269 85.7158 102.876 89.2109 104.629L94.0988 107.431L93.3729 108.716Z" fill="#BA68C8"/>
<path opacity="0.15" d="M93.3729 108.716C94.6472 110.958 95.3624 113.883 95.3624 117.411C95.3624 129.778 86.6138 144.791 75.8272 150.969C72.7461 152.733 69.8317 153.583 67.2238 153.609L66.4817 154.895L61.5939 152.093C58.2977 149.975 56.2705 145.743 56.2705 139.801C56.2705 127.434 65.0138 112.421 75.8057 106.242C80.9947 103.269 85.7158 102.876 89.2109 104.629L94.0988 107.431L93.3729 108.716Z" fill="black"/>
<path opacity="0.1" d="M89.6411 136.505C86.103 142.581 81.2205 147.883 75.8272 150.969C72.7461 152.733 69.8317 153.583 67.2238 153.609L66.4817 154.895L61.5939 152.093C58.2977 149.974 56.2705 145.743 56.2705 139.801C56.2705 133.623 58.459 126.777 61.9918 120.701L89.6411 136.505Z" fill="black"/>
<path opacity="0.1" d="M79.8547 148.184C78.5891 149.219 77.2422 150.15 75.8272 150.969C72.7461 152.733 69.8317 153.582 67.2238 153.609L66.4817 154.894L61.5939 152.093C58.2977 149.974 56.2705 145.742 56.2705 139.801C56.2776 138.179 56.4179 136.56 56.6899 134.961L79.8547 148.184Z" fill="black"/>
<path opacity="0.5" d="M94.9431 122.271C95.213 120.672 95.3532 119.054 95.3625 117.432C95.3625 113.905 94.6473 110.979 93.3729 108.737L94.1204 107.457L89.2325 104.656C85.7374 102.881 81.0162 103.274 75.8273 106.269C74.4123 107.088 73.0654 108.019 71.7998 109.054L94.9431 122.271Z" fill="#BA68C8"/>
<path d="M80.3077 153.534C69.5211 159.712 60.7725 154.706 60.7725 142.349C60.7725 131.536 67.467 118.69 76.3662 111.501C76.4845 111.404 76.6028 111.307 76.7265 111.216C77.8579 110.322 79.053 109.511 80.3023 108.791C89.2982 103.639 96.8747 106.263 99.1223 114.447C99.6013 116.25 99.8346 118.11 99.816 119.975C99.8428 132.332 91.0942 147.356 80.3077 153.534Z" fill="#BA68C8"/>
<path opacity="0.2" d="M80.3077 153.534C69.5211 159.712 60.7725 154.706 60.7725 142.349C60.7725 131.536 67.467 118.69 76.3662 111.501C76.4845 111.404 76.6028 111.307 76.7265 111.216C77.8579 110.322 79.053 109.511 80.3023 108.791C89.2982 103.639 96.8747 106.263 99.1223 114.447C99.6013 116.25 99.8346 118.11 99.816 119.975C99.8428 132.332 91.0942 147.356 80.3077 153.534Z" fill="black"/>
<path opacity="0.5" d="M99.1498 114.447C99.096 114.281 97.5366 109.07 92.0734 107.086C86.8468 105.188 79.0123 109.49 76.7324 111.216C77.8639 110.322 79.059 109.511 80.3082 108.791C89.3042 103.639 96.8806 106.263 99.1498 114.447Z" fill="#F5F5F5"/>
<path opacity="0.5" d="M61.4648 147.877C61.5186 148.044 63.078 153.254 68.5412 155.239C73.7678 157.137 81.6023 152.835 83.8822 151.109C82.7507 152.003 81.5556 152.814 80.3064 153.534C71.3104 158.685 63.734 156.061 61.4648 147.877Z" fill="#F5F5F5"/>
<path d="M93.0785 138.678C100.214 126.52 100.285 113.311 93.237 109.174C86.1886 105.037 74.6901 111.539 67.5543 123.697C60.4185 135.855 60.3476 149.064 67.3959 153.201C74.4442 157.338 85.9427 150.836 93.0785 138.678Z" fill="#BA68C8"/>
<path opacity="0.4" d="M93.0785 138.678C100.214 126.52 100.285 113.311 93.237 109.174C86.1886 105.037 74.6901 111.539 67.5543 123.697C60.4185 135.855 60.3476 149.064 67.3959 153.201C74.4442 157.338 85.9427 150.836 93.0785 138.678Z" fill="white"/>
<path opacity="0.2" d="M88.7452 107.931C93.0792 108.049 96.3861 110.711 97.7734 115.411C98.0304 116.331 98.2102 117.272 98.3112 118.223C98.4093 119.04 98.4596 119.862 98.4617 120.686C98.4617 121.159 98.4617 121.632 98.4241 122.116C97.4347 120.325 95.6065 119.728 92.278 124.751C85.7609 134.575 83.4648 116.083 83.4648 116.083C83.4648 116.083 90.4928 111.351 88.7452 107.931Z" fill="white"/>
<path opacity="0.5" d="M90.8397 110.528C91.9151 109.103 93.9208 109.253 95.3565 110.866C96.7922 112.479 97.0933 114.942 96.034 116.367C94.9747 117.792 92.9529 117.647 91.5172 116.034C90.0815 114.421 89.7804 111.958 90.8397 110.528Z" fill="white"/>
<path d="M73.3172 121.938C76.8339 124.626 77.7641 147.157 77.7641 147.157C77.7641 147.157 77.1135 151.663 80.3989 151.926C79.7029 152.333 78.9848 152.701 78.2481 153.029C77.748 153.254 77.2587 153.448 76.7694 153.615C69.6231 156.072 63.9825 152.851 62.5522 145.468C62.4554 144.968 62.3747 144.447 62.3209 143.909C62.2404 143.161 62.1992 142.409 62.1973 141.656C62.1973 140.908 62.2295 140.145 62.2941 139.381C62.3425 138.768 62.4177 138.145 62.5145 137.521C62.6113 136.897 62.7189 136.279 62.8479 135.655C63.2599 133.745 63.8209 131.869 64.5256 130.047C64.6761 129.643 64.8374 129.245 65.0041 128.848C65.7461 127.094 66.5992 125.39 67.5583 123.745C68.7376 121.728 70.0772 119.809 71.5643 118.007C71.5643 118.007 70.5372 120.975 73.3172 121.938Z" fill="#BA68C8"/>
<path opacity="0.3" d="M73.3172 121.938C76.8339 124.626 77.7641 147.157 77.7641 147.157C77.7641 147.157 77.1135 151.663 80.3989 151.926C79.7029 152.333 78.9848 152.701 78.2481 153.029C77.748 153.254 77.2587 153.448 76.7694 153.615C69.6231 156.072 63.9825 152.851 62.5522 145.468C62.4554 144.968 62.3747 144.447 62.3209 143.909C62.2404 143.161 62.1992 142.409 62.1973 141.656C62.1973 140.908 62.2295 140.145 62.2941 139.381C62.3425 138.768 62.4177 138.145 62.5145 137.521C62.6113 136.897 62.7189 136.279 62.8479 135.655C63.2599 133.745 63.8209 131.869 64.5256 130.047C64.6761 129.643 64.8374 129.245 65.0041 128.848C65.7461 127.094 66.5992 125.39 67.5583 123.745C68.7376 121.728 70.0772 119.809 71.5643 118.007C71.5643 118.007 70.5372 120.975 73.3172 121.938Z" fill="white"/>
<path d="M80.318 146.684C73.1502 150.787 67.2891 147.759 66.8213 139.957C66.8213 139.629 66.7891 139.285 66.7891 138.935C66.7891 130.38 72.8437 119.976 80.318 115.695C87.7922 111.415 93.8469 114.883 93.8469 123.444C93.8469 123.788 93.8469 124.148 93.8146 124.519C93.3468 132.843 87.4857 142.581 80.318 146.684Z" fill="#BA68C8"/>
<path opacity="0.2" d="M80.318 146.684C73.1502 150.787 67.2891 147.759 66.8213 139.957C66.8213 139.629 66.7891 139.285 66.7891 138.935C66.7891 130.38 72.8437 119.976 80.318 115.695C87.7922 111.415 93.8469 114.883 93.8469 123.444C93.8469 123.788 93.8469 124.148 93.8146 124.519C93.3468 132.843 87.4857 142.581 80.318 146.684Z" fill="black"/>
<path d="M80.3237 145.99C73.1828 150.082 67.3916 146.764 67.3916 138.586C67.3916 130.407 73.1828 120.459 80.3237 116.373C87.4645 112.286 93.2288 115.598 93.2288 123.777C93.2288 131.956 87.4645 141.903 80.3237 145.99Z" fill="#BA68C8"/>
<path opacity="0.5" d="M80.3237 145.99C73.1828 150.082 67.3916 146.764 67.3916 138.586C67.3916 130.407 73.1828 120.459 80.3237 116.373C87.4645 112.286 93.2288 115.598 93.2288 123.777C93.2288 131.956 87.4645 141.903 80.3237 145.99Z" fill="black"/>
<path d="M77.77 144.532C84.9163 140.44 90.6752 130.493 90.6752 122.314C90.6752 118.969 89.7073 116.442 88.0726 114.899C85.9218 114.264 83.2332 114.7 80.2973 116.372C73.1564 120.459 67.3652 130.407 67.3652 138.585C67.3652 141.93 68.3331 144.462 69.9678 146.006C72.1563 146.635 74.8502 146.205 77.77 144.532Z" fill="#BA68C8"/>
<path opacity="0.35" d="M77.77 144.532C84.9163 140.44 90.6752 130.493 90.6752 122.314C90.6752 118.969 89.7073 116.442 88.0726 114.899C85.9218 114.264 83.2332 114.7 80.2973 116.372C73.1564 120.459 67.3652 130.407 67.3652 138.585C67.3652 141.93 68.3331 144.462 69.9678 146.006C72.1563 146.635 74.8502 146.205 77.77 144.532Z" fill="black"/>
<path d="M83.7697 127.912C83.1849 127.613 82.5172 127.516 81.8716 127.638C81.1726 127.745 80.4825 127.903 79.8068 128.111C79.2691 128.262 78.8066 128.391 78.3926 128.482C78.3926 127.45 79.0002 126.288 80.3714 125.396L80.6671 125.213C80.8948 125.081 81.1321 124.966 81.3769 124.869C81.4361 124.842 81.4952 124.831 81.5544 124.81C82.6298 124.449 83.2535 124.89 83.4525 125.923L86.6519 123.067C86.5827 122.673 86.4334 122.297 86.2133 121.962C85.9933 121.627 85.707 121.341 85.3721 121.121C85.0549 120.938 83.9418 120.298 83.6192 120.121C83.1522 119.847 82.6171 119.711 82.0759 119.728V118.594L80.1671 117.491L77.3925 119.104V121.793H77.3656C74.677 123.783 73.0638 126.546 73.0316 129.611C73.0316 131.117 73.3918 131.967 73.978 132.408C74.0963 132.499 75.661 133.343 75.8868 133.515C76.0045 133.606 76.1327 133.682 76.2686 133.741C77.0537 134.064 78.0861 133.886 79.0916 133.607C79.8606 133.402 80.6187 133.15 81.2425 133.004C81.2425 133.037 81.2425 133.058 81.2425 133.09C81.2425 134.494 80.3122 135.709 78.9895 136.473C78.7989 136.587 78.5993 136.686 78.3926 136.768C78.275 136.813 78.1547 136.851 78.0323 136.881C78.0021 136.776 77.9805 136.668 77.9678 136.559L76.0589 135.483L72.7412 138.403C72.9348 139.554 73.3703 140.258 73.9618 140.635C74.3113 140.866 75.6126 141.576 75.8976 141.753C76.3922 142.043 76.9691 142.16 77.5376 142.086V143.162L79.4411 144.264L82.2211 142.651V139.962C84.9097 137.941 86.7487 135.085 86.781 131.897V131.843C86.781 130.23 86.3346 129.386 85.6517 128.988L83.7697 127.912Z" fill="#BA68C8"/>
<path d="M83.8082 128.724C83.1114 128.831 82.4232 128.987 81.7487 129.192C81.0315 129.435 80.2908 129.603 79.5387 129.692C79.2564 129.725 78.9721 129.65 78.7429 129.482C78.6215 129.351 78.5306 129.195 78.4767 129.025C78.4228 128.855 78.4072 128.675 78.431 128.498C78.431 127.455 79.0225 126.277 80.4098 125.374L80.7055 125.191C80.9332 125.059 81.1705 124.944 81.4153 124.847C82.6359 124.363 83.2866 124.804 83.5016 125.895L86.7011 123.04C86.2816 121.373 85.2707 120.626 83.7329 120.814C83.1776 120.899 82.6355 121.054 82.1197 121.276V118.588L79.3397 120.201V122.89H79.3129C76.6243 124.879 74.9842 127.643 74.9735 130.708C74.9735 132.214 75.3391 133.063 75.9252 133.504C76.0429 133.595 76.1711 133.67 76.307 133.73C77.0921 134.053 78.1245 133.875 79.13 133.595C81.2325 133.058 83.222 132.09 83.2113 134.182C83.2113 135.585 82.281 136.8 80.9636 137.564C80.7713 137.679 80.5699 137.778 80.3614 137.86C78.8934 138.456 78.1783 137.677 78.0331 136.548L74.667 139.51C75.1617 142.489 77.3125 142.489 79.4688 141.57V144.258L82.2488 142.645V139.957C84.9374 137.935 86.7763 135.08 86.8086 131.891V131.837C86.7978 129.009 85.3837 128.546 83.8082 128.724Z" fill="#BA68C8"/>
<g opacity="0.3">
<path d="M83.8082 128.724C83.1114 128.831 82.4232 128.987 81.7487 129.192C81.0315 129.435 80.2908 129.603 79.5387 129.692C79.2564 129.725 78.9721 129.65 78.7429 129.482C78.6215 129.351 78.5306 129.195 78.4767 129.025C78.4228 128.855 78.4072 128.675 78.431 128.498C78.431 127.455 79.0225 126.277 80.4098 125.374L80.7055 125.191C80.9332 125.059 81.1705 124.944 81.4153 124.847C82.6359 124.363 83.2866 124.804 83.5016 125.895L86.7011 123.04C86.2816 121.373 85.2707 120.626 83.7329 120.814C83.1776 120.899 82.6355 121.054 82.1197 121.276V118.588L79.3397 120.201V122.89H79.3129C76.6243 124.879 74.9842 127.643 74.9735 130.708C74.9735 132.214 75.3391 133.063 75.9252 133.504C76.0429 133.595 76.1711 133.67 76.307 133.73C77.0921 134.053 78.1245 133.875 79.13 133.595C81.2325 133.058 83.222 132.09 83.2113 134.182C83.2113 135.585 82.281 136.8 80.9636 137.564C80.7713 137.679 80.5699 137.778 80.3614 137.86C78.8934 138.456 78.1783 137.677 78.0331 136.548L74.667 139.51C75.1617 142.489 77.3125 142.489 79.4688 141.57V144.258L82.2488 142.645V139.957C84.9374 137.935 86.7763 135.08 86.8086 131.891V131.837C86.7978 129.009 85.3837 128.546 83.8082 128.724Z" fill="white"/>
</g>
<path opacity="0.45" d="M79.3008 120.185L81.8012 119.094L82.07 121.293L82.0754 118.583L79.3008 120.185Z" fill="#F5F5F5"/>
<path opacity="0.45" d="M83.4453 120.873C84.0755 120.85 84.695 121.041 85.2027 121.415C85.7105 121.789 86.0766 122.324 86.2414 122.933L83.4507 125.912L86.6447 123.056C86.1016 121.131 84.9617 120.567 83.4453 120.873Z" fill="#F5F5F5"/>
<path opacity="0.45" d="M86.7864 131.854V131.907C86.7541 135.091 84.9313 137.946 82.2266 139.973C85.184 137.209 86.3508 134.752 86.3616 132.16C86.3723 129.568 84.942 128.756 83.7806 128.746C85.383 128.547 86.7971 129.009 86.7864 131.854Z" fill="#F5F5F5"/>
<path opacity="0.45" d="M82.2258 139.968L81.9247 142.527L79.4404 144.248L82.2204 142.646L82.2258 139.968Z" fill="#F5F5F5"/>
<path opacity="0.45" d="M80.3184 137.865C78.103 138.892 77.7804 137.145 77.7804 137.145L74.667 139.511L78.0062 136.537C78.1353 137.666 78.8504 138.446 80.3184 137.865Z" fill="#F5F5F5"/>
<path opacity="0.45" d="M79.5059 129.708C78.6241 130.02 77.9358 129.466 78.124 128.251C78.2493 127.631 78.5184 127.049 78.9098 126.552C79.3011 126.055 79.8037 125.657 80.377 125.39C78.9897 126.293 78.3982 127.471 78.3982 128.514C78.3744 128.691 78.39 128.871 78.444 129.041C78.4979 129.211 78.5888 129.367 78.7101 129.498C78.9393 129.666 79.2237 129.741 79.5059 129.708Z" fill="#F5F5F5"/>
<path opacity="0.45" d="M79.2701 122.885C77.7851 124.144 76.6126 125.731 75.8448 127.52C74.7694 130.257 75.0867 132.59 75.8825 133.494C75.2964 133.053 74.9253 132.203 74.9307 130.698C74.9415 127.649 76.5654 124.874 79.2701 122.885Z" fill="#F5F5F5"/>
<path d="M93.583 111.711L97.804 114.921L92.8893 112.905L87.9746 120.551L92.1957 112.501L87.9746 109.291L92.8893 111.308L97.804 103.661L93.583 111.711Z" fill="white"/>
</svg>
