<svg width="68" height="44" viewBox="0 0 68 44" fill="none" xmlns="http://www.w3.org/2000/svg">
<path d="M33.4106 8.43018L1.30212 14.548L33.4106 20.8829L64.4265 14.7651L33.4106 8.43018Z" fill="#263238"/>
<path d="M33.4107 21.0703H33.3733L1.26481 14.7316C1.22255 14.723 1.18457 14.7 1.1573 14.6666C1.13002 14.6332 1.11513 14.5914 1.11514 14.5483C1.1144 14.505 1.12903 14.4628 1.15643 14.4292C1.18383 14.3957 1.22222 14.3729 1.26481 14.3649L33.377 8.24707H33.4481L64.464 14.582C64.5136 14.582 64.5612 14.6017 64.5963 14.6368C64.6314 14.6718 64.6511 14.7194 64.6511 14.769C64.6511 14.8187 64.6314 14.8663 64.5963 14.9013C64.5612 14.9364 64.5136 14.9561 64.464 14.9561L33.4481 21.0665L33.4107 21.0703ZM2.28258 14.552L33.4107 20.6923L63.4762 14.7616L33.4107 8.62125L2.28258 14.552Z" fill="#263238"/>
<path d="M18.4097 31.0383C18.4097 31.0383 31.8802 34.6454 46.4994 30.7427L45.6201 28.5986H19.8727L18.4097 31.0383Z" fill="#C2C2C2"/>
<path d="M32.1009 32.7333C27.4783 32.7709 22.8671 32.2686 18.361 31.2365C18.333 31.2289 18.3072 31.2148 18.2857 31.1953C18.2643 31.1758 18.2478 31.1514 18.2375 31.1243C18.2238 31.099 18.2166 31.0707 18.2166 31.042C18.2166 31.0132 18.2238 30.9849 18.2375 30.9596L19.6968 28.52C19.7139 28.4927 19.7376 28.4701 19.7657 28.4544C19.7938 28.4387 19.8255 28.4304 19.8577 28.4302H45.6051C45.6422 28.4299 45.6784 28.4408 45.7092 28.4615C45.7399 28.4822 45.7636 28.5117 45.7772 28.5462L46.6566 30.6902C46.6677 30.7149 46.6735 30.7417 46.6735 30.7688C46.6735 30.7959 46.6677 30.8227 46.6566 30.8474C46.6443 30.8709 46.6273 30.8917 46.6068 30.9084C46.5862 30.9251 46.5624 30.9375 46.5368 30.9447C41.8222 32.1612 36.9699 32.7624 32.1009 32.7333ZM18.7015 30.9147C20.5724 31.3675 32.9728 34.0953 46.245 30.6191L45.4966 28.7857H19.9812L18.7015 30.9147Z" fill="#263238"/>
<path d="M18.4097 15.3336V31.0492C18.4097 31.0492 22.9934 27.5356 31.9663 30.675C31.9663 30.675 38.8923 27.8499 46.4994 30.7723V15.2363C46.4994 15.2363 29.6276 9.19327 18.4097 15.3336Z" fill="#263238"/>
<path d="M18.4098 31.2254C18.3809 31.2249 18.3526 31.2172 18.3274 31.2029C18.2962 31.1881 18.2699 31.1648 18.2513 31.1357C18.2328 31.1066 18.2229 31.0728 18.2227 31.0383V15.3227C18.2224 15.2895 18.2314 15.2569 18.2486 15.2285C18.2657 15.2001 18.2905 15.177 18.32 15.1618C29.4818 9.04765 46.3835 14.9896 46.5594 15.0495C46.596 15.0624 46.6277 15.0862 46.6504 15.1176C46.6732 15.149 46.6858 15.1866 46.6866 15.2254V30.7427C46.6858 30.7734 46.6779 30.8035 46.6636 30.8308C46.6494 30.858 46.6291 30.8816 46.6043 30.8998C46.5777 30.9136 46.5482 30.9208 46.5182 30.9208C46.4883 30.9208 46.4588 30.9136 46.4322 30.8998C38.986 28.0373 32.1048 30.7726 32.0374 30.8025C31.995 30.8174 31.9489 30.8174 31.9065 30.8025C23.1469 27.753 18.5706 31.1281 18.5257 31.1767C18.4937 31.2056 18.4528 31.2227 18.4098 31.2254ZM18.5968 15.4461V30.6865C19.7605 29.9681 24.2096 27.7717 31.9626 30.4471C32.6922 30.1702 39.218 27.8577 46.3124 30.4733V15.3713C44.7596 14.8437 29.1076 9.77356 18.5968 15.4461Z" fill="#263238"/>
<path d="M31.9663 27.3416C22.9859 24.2209 18.4097 27.7158 18.4097 27.7158V31.0235C18.4097 31.0235 22.9934 27.51 31.9663 30.6494C31.9663 30.6494 38.8923 27.8243 46.4994 30.7466V27.4389C38.8923 24.5128 31.9663 27.3416 31.9663 27.3416Z" fill="#57C5B6"/>
<path d="M18.4097 31.2255C18.3809 31.225 18.3525 31.2173 18.3274 31.203C18.2962 31.1882 18.2699 31.1649 18.2513 31.1358C18.2328 31.1067 18.2228 31.0729 18.2227 31.0384V27.7306C18.2232 27.7022 18.2303 27.6743 18.2432 27.649C18.2562 27.6237 18.2747 27.6017 18.2975 27.5847C18.4883 27.4387 23.0421 24.0636 31.9626 27.1431C32.7109 26.8625 39.3751 24.4977 46.5556 27.2629C46.5908 27.277 46.621 27.3013 46.6423 27.3326C46.6636 27.3639 46.6751 27.4009 46.6754 27.4387V30.7428C46.6745 30.7735 46.6667 30.8036 46.6524 30.8309C46.6381 30.8581 46.6178 30.8817 46.5931 30.8999C46.5665 30.9137 46.537 30.9209 46.507 30.9209C46.477 30.9209 46.4475 30.9137 46.4209 30.8999C38.9747 28.0374 32.0935 30.7727 32.0262 30.8026C31.9838 30.8175 31.9376 30.8175 31.8952 30.8026C23.1357 27.7531 18.5594 31.1282 18.5145 31.1768C18.4855 31.2035 18.4489 31.2205 18.4097 31.2255ZM18.5968 27.8279V30.6866C19.7605 29.9682 24.2096 27.7718 31.9626 30.4472C32.6922 30.1703 39.218 27.8578 46.3124 30.4734V27.5697C38.9111 24.7783 32.0935 27.4874 32.0374 27.5136C31.9954 27.5304 31.9485 27.5304 31.9065 27.5136C23.7343 24.6735 19.218 27.4088 18.5968 27.8279Z" fill="#263238"/>
<path d="M52.1046 22.1704C52.0252 22.1704 51.9491 22.1388 51.893 22.0827C51.8368 22.0266 51.8053 21.9504 51.8053 21.871V12.2134C51.8053 12.134 51.8368 12.0579 51.893 12.0017C51.9491 11.9456 52.0252 11.9141 52.1046 11.9141C52.184 11.9141 52.2602 11.9456 52.3163 12.0017C52.3725 12.0579 52.404 12.134 52.404 12.2134V21.871C52.404 21.9103 52.3962 21.9493 52.3812 21.9856C52.3662 22.0219 52.3441 22.0549 52.3163 22.0827C52.2885 22.1105 52.2555 22.1325 52.2192 22.1476C52.1829 22.1626 52.1439 22.1704 52.1046 22.1704Z" fill="#57C5B6"/>
<path d="M52.1047 22.357C51.9757 22.357 51.852 22.3058 51.7608 22.2146C51.6695 22.1233 51.6183 21.9996 51.6183 21.8706V12.213C51.6183 12.084 51.6695 11.9603 51.7608 11.869C51.852 11.7778 51.9757 11.7266 52.1047 11.7266C52.2337 11.7266 52.3575 11.7778 52.4487 11.869C52.5399 11.9603 52.5912 12.084 52.5912 12.213V21.8706C52.5912 21.9996 52.5399 22.1233 52.4487 22.2146C52.3575 22.3058 52.2337 22.357 52.1047 22.357ZM52.1047 12.1007C52.0749 12.1007 52.0464 12.1126 52.0253 12.1336C52.0043 12.1547 51.9925 12.1832 51.9925 12.213V21.8706C51.9925 21.9004 52.0043 21.9289 52.0253 21.95C52.0464 21.971 52.0749 21.9829 52.1047 21.9829C52.1345 21.9829 52.163 21.971 52.1841 21.95C52.2051 21.9289 52.217 21.9004 52.217 21.8706V12.213C52.217 12.1983 52.2141 12.1837 52.2084 12.17C52.2028 12.1564 52.1945 12.144 52.1841 12.1336C52.1737 12.1232 52.1613 12.1149 52.1477 12.1093C52.1341 12.1036 52.1195 12.1007 52.1047 12.1007Z" fill="#263238"/>
<path d="M53.0813 21.186H51.1318V24.9877H53.0813V21.186Z" fill="#57C5B6"/>
<path d="M53.0813 25.1786H51.1318C51.0822 25.1786 51.0346 25.1589 50.9995 25.1238C50.9644 25.0887 50.9447 25.0412 50.9447 24.9915V21.1861C50.9447 21.1365 50.9644 21.0889 50.9995 21.0538C51.0346 21.0187 51.0822 20.999 51.1318 20.999H53.0813C53.1306 21 53.1776 21.02 53.2125 21.0549C53.2474 21.0898 53.2674 21.1368 53.2684 21.1861V24.9915C53.2674 25.0409 53.2474 25.0879 53.2125 25.1228C53.1776 25.1576 53.1306 25.1777 53.0813 25.1786ZM51.3189 24.8044H52.8942V21.3732H51.3189V24.8044Z" fill="#263238"/>
<path d="M51.1843 24.9912C51.1843 24.9912 50.7914 27.4271 49.4256 32.7929C48.0598 38.1586 50.1104 43.8125 50.1104 43.8125L51.9626 43.2251V40.1044L52.9392 42.9332L56.5463 42.559C56.5463 42.559 55.3751 40.1194 55.2778 35.6367C55.1805 31.154 53.13 24.9912 53.13 24.9912H51.1843Z" fill="#57C5B6"/>
<path d="M50.1065 44.0002C50.0681 44.0002 50.0306 43.9883 49.9991 43.9662C49.9676 43.9441 49.9437 43.9129 49.9307 43.8767C49.9082 43.8206 47.8801 38.1031 49.2422 32.7448C50.5892 27.4539 50.9896 24.9843 50.9933 24.9618C51.0012 24.9179 51.0242 24.8781 51.0584 24.8494C51.0926 24.8207 51.1358 24.8049 51.1804 24.8047H53.1299C53.1689 24.8044 53.2071 24.8166 53.2387 24.8395C53.2703 24.8624 53.2938 24.8947 53.3058 24.9319C53.3282 24.9918 55.3638 31.1545 55.461 35.6148C55.5583 40.0114 56.6996 42.4398 56.7108 42.4623C56.7246 42.4889 56.7318 42.5184 56.7318 42.5484C56.7318 42.5783 56.7246 42.6078 56.7108 42.6344C56.6958 42.6609 56.6748 42.6835 56.6494 42.7004C56.6241 42.7173 56.5951 42.728 56.5649 42.7317L52.9578 43.1059C52.9156 43.1109 52.873 43.1013 52.837 43.0789C52.8009 43.0565 52.7736 43.0224 52.7595 42.9824L52.1495 41.2088V43.2107C52.1498 43.2507 52.1372 43.2897 52.1136 43.322C52.0901 43.3543 52.0568 43.3783 52.0186 43.3903L50.1477 43.974C50.1355 43.9849 50.1216 43.9938 50.1065 44.0002ZM51.3376 25.1789C51.2291 25.8 50.7651 28.2771 49.6051 32.8384C48.4003 37.5717 49.9045 42.6007 50.2225 43.5774L51.7716 43.0909V40.0975C51.7719 40.0533 51.7879 40.0106 51.8167 39.977C51.8454 39.9435 51.8851 39.9212 51.9288 39.9141C51.9721 39.9073 52.0165 39.9159 52.0541 39.9385C52.0917 39.9611 52.1202 39.9962 52.1346 40.0376L53.0625 42.7242L56.2693 42.38C55.9774 41.6578 55.1692 39.3528 55.0869 35.6185C55.0008 31.5661 53.2833 26.0732 52.9915 25.1714L51.3376 25.1789Z" fill="#263238"/>
<path d="M49.7773 35.9174C49.7277 35.9174 49.6801 35.8977 49.645 35.8626C49.6099 35.8275 49.5902 35.7799 49.5902 35.7303C49.5902 34.634 49.9644 33.111 50.694 30.6714C51.1588 28.8414 51.4544 26.9727 51.5771 25.0886C51.578 25.0638 51.584 25.0395 51.5946 25.0171C51.6051 24.9947 51.6201 24.9747 51.6387 24.9583C51.6572 24.9418 51.6789 24.9293 51.7024 24.9215C51.7259 24.9137 51.7507 24.9107 51.7754 24.9127C51.8 24.9142 51.8241 24.9204 51.8462 24.9312C51.8684 24.9419 51.8882 24.9569 51.9045 24.9754C51.9209 24.9938 51.9334 25.0153 51.9414 25.0386C51.9495 25.0618 51.9528 25.0865 51.9513 25.111C51.9513 25.1447 51.738 28.4525 51.0533 30.7761C50.3461 33.1784 49.9644 34.6789 49.9644 35.7303C49.9634 35.7796 49.9434 35.8267 49.9085 35.8615C49.8737 35.8964 49.8266 35.9164 49.7773 35.9174Z" fill="#263238"/>
<path d="M50.1179 39.7568C50.0735 39.7572 50.0304 39.7415 49.9967 39.7126C49.9629 39.6837 49.9409 39.6436 49.9345 39.5996C49.797 38.7068 49.7046 37.8076 49.6576 36.9055C49.6556 36.8555 49.6733 36.8067 49.7068 36.7696C49.7404 36.7325 49.7873 36.7101 49.8372 36.7072C49.8618 36.7062 49.8863 36.71 49.9094 36.7185C49.9325 36.727 49.9537 36.74 49.9718 36.7566C49.9898 36.7733 50.0044 36.7934 50.0147 36.8157C50.025 36.8381 50.0308 36.8622 50.0318 36.8868C50.0785 37.7751 50.1697 38.6605 50.305 39.5397C50.3125 39.5883 50.3007 39.6379 50.272 39.6778C50.2433 39.7177 50.2 39.7448 50.1515 39.753L50.1179 39.7568Z" fill="#263238"/>
<path d="M51.491 35.7787C51.4414 35.7787 51.3938 35.7589 51.3588 35.7239C51.3237 35.6888 51.304 35.6412 51.304 35.5916C51.356 34.7355 51.4812 33.8855 51.6781 33.0509C51.8128 32.3549 51.97 31.5542 52.1271 30.6224C52.3687 29.0979 52.414 27.5486 52.2619 26.0125C52.2587 25.9884 52.2604 25.9639 52.2668 25.9405C52.2732 25.917 52.2843 25.8951 52.2992 25.876C52.3142 25.8568 52.3328 25.8408 52.354 25.8289C52.3753 25.8171 52.3986 25.8095 52.4228 25.8067C52.4719 25.8004 52.5215 25.8137 52.5608 25.8439C52.6001 25.874 52.6258 25.9185 52.6323 25.9676C52.7887 27.5399 52.7422 29.1257 52.4938 30.6861C52.3367 31.6327 52.1795 32.426 52.0448 33.122C51.8507 33.9331 51.7255 34.7593 51.6706 35.5916C51.6707 35.6399 51.652 35.6864 51.6185 35.7213C51.585 35.7562 51.5394 35.7767 51.491 35.7787Z" fill="#263238"/>
<path d="M54.9896 42.2933C54.9475 42.2937 54.9065 42.2798 54.8732 42.254C54.8399 42.2282 54.8163 42.192 54.8062 42.1511C54.539 41.0405 54.3317 39.9163 54.1851 38.7835C54.0772 37.3076 54.0998 35.8251 54.2524 34.3532C54.2581 34.3038 54.2828 34.2587 54.3212 34.2272C54.3596 34.1958 54.4088 34.1806 54.4582 34.1848C54.5072 34.1913 54.5518 34.2162 54.5831 34.2544C54.6143 34.2926 54.6299 34.3413 54.6266 34.3906C54.4782 35.8301 54.4531 37.2798 54.5518 38.7236C54.6953 39.8465 54.9002 40.9607 55.1654 42.0613C55.1769 42.1094 55.1693 42.16 55.1442 42.2026C55.119 42.2452 55.0784 42.2763 55.0307 42.2895L54.9896 42.2933Z" fill="#263238"/>
<path d="M53.8895 42.8433C53.8486 42.8431 53.8088 42.8294 53.7764 42.8044C53.7439 42.7794 53.7206 42.7444 53.7099 42.7048C53.3172 41.2536 53.0172 39.7788 52.8119 38.2895C52.8059 38.2399 52.8199 38.1899 52.8508 38.1506C52.8817 38.1113 52.9269 38.0859 52.9765 38.08C53.0262 38.074 53.0761 38.088 53.1154 38.1189C53.1547 38.1498 53.1801 38.195 53.1861 38.2446C53.3882 39.7185 53.6832 41.1782 54.0691 42.615C54.083 42.6627 54.0774 42.7139 54.0536 42.7574C54.0297 42.8009 53.9895 42.8331 53.9419 42.847L53.8895 42.8433Z" fill="#263238"/>
<path d="M54.3012 33.1038C54.2548 33.1033 54.2103 33.0858 54.1759 33.0549C54.1415 33.0239 54.1195 32.9814 54.1141 32.9355C54.0354 32.2753 53.923 31.6196 53.7773 30.971C53.7719 30.9464 53.7714 30.921 53.7758 30.8963C53.7802 30.8715 53.7894 30.8479 53.803 30.8267C53.8165 30.8055 53.8341 30.7871 53.8548 30.7727C53.8754 30.7584 53.8987 30.7482 53.9232 30.7428C53.9478 30.7373 53.9732 30.7368 53.998 30.7412C54.0227 30.7457 54.0464 30.7549 54.0676 30.7684C54.0888 30.782 54.1071 30.7996 54.1215 30.8202C54.1359 30.8409 54.1461 30.8641 54.1515 30.8887C54.2999 31.5535 54.4148 32.2254 54.4957 32.9018C54.4983 32.9262 54.496 32.9508 54.4888 32.9743C54.4817 32.9978 54.4699 33.0196 54.4542 33.0384C54.4385 33.0572 54.4192 33.0727 54.3974 33.084C54.3756 33.0952 54.3518 33.102 54.3273 33.1038H54.3012Z" fill="#263238"/>
<path d="M8.86435 23.7531H0.187091C0.137471 23.7531 0.0898865 23.7334 0.0548003 23.6983C0.019714 23.6632 0 23.6156 0 23.566C0.000957931 23.5167 0.0209815 23.4696 0.0558622 23.4348C0.090743 23.3999 0.137771 23.3799 0.187091 23.3789H8.86435C8.91397 23.3789 8.96155 23.3986 8.99664 23.4337C9.03173 23.4688 9.05144 23.5164 9.05144 23.566C9.05144 23.6156 9.03173 23.6632 8.99664 23.6983C8.96155 23.7334 8.91397 23.7531 8.86435 23.7531Z" fill="#263238"/>
<path d="M6.93728 37.7514C6.90414 37.7511 6.87162 37.7424 6.84281 37.726C6.814 37.7097 6.78984 37.6862 6.77264 37.6579C6.74938 37.6145 6.74379 37.5638 6.75704 37.5164C6.77029 37.469 6.80135 37.4285 6.84373 37.4034L14.7951 32.8235C14.8384 32.7987 14.8896 32.7919 14.9379 32.8045C14.9862 32.8171 15.0276 32.8481 15.0533 32.8908C15.0767 32.9348 15.0824 32.9861 15.0692 33.0341C15.056 33.0821 15.0248 33.1233 14.9822 33.149L7.03083 37.7065C7.00487 37.7306 6.97227 37.7462 6.93728 37.7514Z" fill="#263238"/>
<path d="M33.6876 5.19737C33.6383 5.19642 33.5912 5.1764 33.5564 5.14152C33.5215 5.10664 33.5014 5.0596 33.5005 5.01028V0.187091C33.5014 0.137771 33.5215 0.0907382 33.5564 0.0558574C33.5912 0.0209766 33.6383 0.000957931 33.6876 0C33.7372 0 33.7848 0.0197113 33.8199 0.0547976C33.855 0.0898839 33.8747 0.137471 33.8747 0.187091V5.01028C33.8747 5.0599 33.855 5.10749 33.8199 5.14258C33.7848 5.17766 33.7372 5.19737 33.6876 5.19737Z" fill="#263238"/>
<path d="M16.3367 7.36411C16.2869 7.36385 16.2389 7.3452 16.202 7.31172L11.6258 2.73175C11.6082 2.71435 11.5943 2.69366 11.5848 2.67086C11.5753 2.64807 11.5704 2.62361 11.5704 2.59891C11.5704 2.57421 11.5753 2.54976 11.5848 2.52696C11.5943 2.50416 11.6082 2.48347 11.6258 2.46608C11.6607 2.4318 11.7078 2.4126 11.7567 2.4126C11.8057 2.4126 11.8527 2.4318 11.8877 2.46608L16.4677 7.04605C16.4852 7.06345 16.4991 7.08414 16.5086 7.10694C16.5181 7.12974 16.523 7.15419 16.523 7.17889C16.523 7.20359 16.5181 7.22804 16.5086 7.25084C16.4991 7.27364 16.4852 7.29433 16.4677 7.31172C16.4321 7.34495 16.3854 7.36364 16.3367 7.36411Z" fill="#263238"/>
<path d="M67.1916 23.7531H58.5144C58.4647 23.7531 58.4172 23.7334 58.3821 23.6983C58.347 23.6632 58.3273 23.6156 58.3273 23.566C58.3273 23.5164 58.347 23.4688 58.3821 23.4337C58.4172 23.3986 58.4647 23.3789 58.5144 23.3789H67.1916C67.2409 23.3799 67.288 23.3999 67.3229 23.4348C67.3577 23.4696 67.3778 23.5167 67.3787 23.566C67.3787 23.6156 67.359 23.6632 67.3239 23.6983C67.2888 23.7334 67.2412 23.7531 67.1916 23.7531Z" fill="#263238"/>
<path d="M60.4415 37.751C60.4084 37.7513 60.376 37.7422 60.3479 37.7248L56.5425 35.5059C56.4999 35.4802 56.4687 35.4391 56.4555 35.391C56.4422 35.343 56.4479 35.2917 56.4714 35.2478C56.4971 35.205 56.5385 35.174 56.5868 35.1615C56.635 35.1489 56.6863 35.1557 56.7296 35.1804L60.5388 37.3768C60.5739 37.3977 60.6012 37.4294 60.6166 37.4672C60.632 37.5051 60.6346 37.5469 60.624 37.5863C60.6134 37.6258 60.5902 37.6606 60.5579 37.6856C60.5256 37.7107 60.486 37.7244 60.4452 37.7248L60.4415 37.751Z" fill="#263238"/>
<path d="M51.042 7.36396C51.0054 7.36345 50.9697 7.3522 50.9394 7.3316C50.9092 7.31101 50.8856 7.28199 50.8716 7.24812C50.8577 7.21426 50.854 7.17705 50.861 7.1411C50.868 7.10516 50.8854 7.07206 50.911 7.04591L55.4873 2.46593C55.5229 2.43141 55.5705 2.41211 55.6201 2.41211C55.6697 2.41211 55.7173 2.43141 55.7529 2.46593C55.7705 2.48332 55.7844 2.50402 55.7939 2.52681C55.8034 2.54961 55.8083 2.57407 55.8083 2.59876C55.8083 2.62346 55.8034 2.64792 55.7939 2.67072C55.7844 2.69351 55.7705 2.71421 55.7529 2.7316L51.1842 7.31157C51.1655 7.32974 51.1431 7.34379 51.1186 7.35281C51.0942 7.36183 51.068 7.36563 51.042 7.36396Z" fill="#263238"/>
</svg>
