<svg width="264" height="172" viewBox="0 0 264 172" fill="none" xmlns="http://www.w3.org/2000/svg">
<path d="M85.6617 31.4035L61.6668 154.632L58.5488 170.764L218.515 169.991C225.7 169.957 232.071 163.579 234.369 154.103L262.743 37.7683C264.498 30.5766 260.648 23.0934 255.199 23.1002L93.2533 23.2697C89.7287 23.2629 86.57 26.5978 85.6617 31.4035Z" fill="#57C5B6"/>
<g opacity="0.5">
<path d="M85.6617 31.4035L61.6668 154.632L58.5488 170.764L218.515 169.991C225.7 169.957 232.071 163.579 234.369 154.103L262.743 37.7683C264.498 30.5766 260.648 23.0934 255.199 23.1002L93.2533 23.2697C89.7287 23.2629 86.57 26.5978 85.6617 31.4035Z" fill="black"/>
</g>
<path d="M203.189 146.267L186.244 9.74715C185.566 4.15512 181.099 -0.0202607 175.832 7.39541e-05L138.688 0.115303C137.307 0.130862 135.945 0.427358 134.683 0.98672C133.421 1.54608 132.286 2.35659 131.347 3.36884L113.724 22.1242L10.4234 22.68C4.1129 22.7139 -0.740314 28.6923 0.0934075 35.4027L15.8257 161.579C16.5035 167.165 20.9703 171.333 26.2235 171.326L206.287 170.967C226.337 171.381 228.255 165.463 228.255 165.463C205.236 170.554 203.189 146.301 203.189 146.267Z" fill="#57C5B6"/>
<g opacity="0.5">
<path d="M125.545 118.965L119.472 125.485L72.7018 83.406L78.7751 76.8854L125.545 118.965Z" fill="white"/>
<path d="M116.93 75.4417L123.64 81.4811L81.3237 126.929L74.6064 120.89L116.93 75.4417Z" fill="white"/>
</g>
</svg>
