<svg width="185" height="290" viewBox="0 0 185 290" fill="none" xmlns="http://www.w3.org/2000/svg">
<g filter="url(#filter0_i_528_9573)">
<g clip-path="url(#clip0_528_9573)">
<rect width="185" height="290" rx="92.5" fill="#159895"/>
<path d="M52.1807 90.6862C51.7437 86.4193 50.6949 82.2161 50.4724 77.9333C50.2499 73.6506 50.9889 69.1057 53.6507 65.7764C56.3125 62.4472 61.4295 60.8183 65.1322 62.9795L66.1731 66.5472C66.2684 83.1457 67.945 99.8714 68.0403 116.462C68.0403 118.647 66.4512 120.761 65.6566 122.819C64.8621 124.876 63.0107 126.609 60.8336 126.672C57.9811 126.752 55.8596 124.042 54.7393 121.42C50.7187 111.885 53.2216 100.968 52.1807 90.6862Z" fill="#263238"/>
<path d="M60.4761 67.6197C60.9436 66.468 61.5869 65.3959 62.3831 64.4414C62.7843 63.9726 63.2866 63.601 63.8523 63.3547C64.418 63.1083 65.0323 62.9936 65.6487 63.0191C65.9388 63.027 66.222 63.1094 66.471 63.2582C66.7201 63.4071 66.9267 63.6176 67.071 63.8693C67.3094 64.4017 66.9677 65.1645 66.3877 65.1645L66.2764 65.2836C65.0925 66.5311 63.8927 67.7468 62.6691 68.9466C62.3802 69.2766 62.0292 69.5466 61.6362 69.7412C61.4406 69.834 61.2228 69.8698 61.0078 69.8445C60.7927 69.8192 60.5892 69.7338 60.4205 69.5981C59.904 69.0896 60.1742 68.2951 60.4761 67.6197Z" fill="#FF725E"/>
<path d="M58.4578 72.0298C60.2159 69.3057 62.5627 67.0107 65.3253 65.3138C68.0879 63.6169 71.196 62.5613 74.4207 62.2249C78.2028 61.8276 79.8476 62.4791 82.6445 62.9718C85.4361 63.3819 87.9936 64.7633 89.8671 66.8731C92.0522 69.4475 93.9512 72.3794 94.6345 75.6849C95.2751 78.8469 95.3825 82.0937 94.9524 85.2912C94.2321 89.4057 92.8388 93.3734 90.8285 97.0349L85.0759 98.2665C80.2528 98.8624 75.3583 99.4583 70.5512 98.775C65.744 98.0917 60.9369 95.9622 58.0447 92.053C53.9765 86.634 54.6439 77.6077 58.4578 72.0298Z" fill="#263238"/>
<path d="M66.2208 71.2749L77.5275 65.5938L80.6104 65.6732C87.4358 65.117 92.8388 72.2681 93.4189 77.8301C94.0227 84.0039 94.5074 91.5602 93.9353 96.2005C92.7753 105.529 85.0362 106.983 85.0362 106.983C85.0362 106.983 85.6321 111.846 85.9579 114.929L67.9688 115.23L63.4557 74.7075C63.4065 73.8937 63.6626 73.0909 64.174 72.4561C64.6854 71.8213 65.4152 71.4001 66.2208 71.2749Z" fill="#FFBF9D"/>
<path d="M79.9747 95.239C80.0014 94.9045 80.1117 94.5822 80.2955 94.3015C80.4793 94.0208 80.7306 93.7908 81.0265 93.6326C81.3223 93.4744 81.6532 93.3931 81.9886 93.3961C82.3241 93.3991 82.6535 93.4863 82.9464 93.6498C83.345 93.9019 83.6692 94.2556 83.8856 94.6746C84.1021 95.0935 84.203 95.5626 84.178 96.0335C84.003 96.3343 83.7657 96.5941 83.482 96.7955C83.1983 96.997 82.8748 97.1354 82.5332 97.2015L82.2075 97.2413C81.6631 97.2823 81.1227 97.1211 80.6898 96.7884C80.4612 96.601 80.2781 96.3642 80.1543 96.0958C80.0304 95.8275 79.969 95.5345 79.9747 95.239Z" fill="#FF9A6C"/>
<path d="M91.5913 85.5533C91.6066 85.8635 91.4993 86.1673 91.2927 86.3991C91.0861 86.631 90.7967 86.7724 90.4868 86.7929C90.3358 86.8093 90.1831 86.7956 90.0374 86.7523C89.8918 86.7091 89.7562 86.6374 89.6386 86.5412C89.521 86.4451 89.4238 86.3265 89.3525 86.1923C89.2812 86.0582 89.2374 85.9112 89.2235 85.7599C89.2082 85.4498 89.3154 85.146 89.522 84.9141C89.7286 84.6823 90.0181 84.5409 90.3279 84.5204C90.4789 84.5039 90.6317 84.5177 90.7773 84.5609C90.923 84.6041 91.0585 84.6759 91.1761 84.7721C91.2937 84.8682 91.391 84.9868 91.4623 85.121C91.5336 85.2551 91.5774 85.4021 91.5913 85.5533Z" fill="#263238"/>
<path d="M91.5675 81.0638C91.4245 81.2227 90.4948 80.587 89.1838 80.6347C87.8728 80.6824 86.9908 81.3498 86.8478 81.1988C86.7047 81.0479 86.9113 80.8492 87.3166 80.5394C87.8562 80.1335 88.5088 79.9057 89.1838 79.8878C89.85 79.8668 90.506 80.0558 91.059 80.4281C91.488 80.7142 91.6311 81.0082 91.5675 81.0638Z" fill="#263238"/>
<path d="M84.2655 91.7825C84.9343 91.5537 85.6277 91.4043 86.3314 91.3375C86.6571 91.3375 86.967 91.2184 87.0147 90.9959C87.035 90.6564 86.9459 90.3195 86.7604 90.0344L85.7116 87.5792C84.2496 84.0752 83.1769 81.2227 83.3279 81.1353C83.4789 81.0479 84.7661 83.8686 86.2281 87.3647L87.2451 89.8437C87.4602 90.2304 87.5359 90.6792 87.4596 91.1151C87.4155 91.2326 87.3454 91.3386 87.2547 91.4253C87.1639 91.512 87.0547 91.577 86.9352 91.6156C86.7547 91.6711 86.5677 91.7031 86.379 91.711C85.6808 91.8289 84.97 91.8529 84.2655 91.7825Z" fill="#263238"/>
<path d="M85.0123 106.935C80.6441 107.151 76.3015 106.152 72.4661 104.051C72.4661 104.051 76.0019 110.368 85.2586 109.184L85.0123 106.935Z" fill="#FF9A6C"/>
<path d="M80.5309 92.7999C80.7375 92.7999 80.7852 94.1745 82.0088 95.1201C83.2324 96.0656 84.7103 95.859 84.7262 96.0577C84.7262 96.1371 84.4005 96.3358 83.7807 96.3755C82.9662 96.4129 82.1646 96.1626 81.5162 95.6683C80.8925 95.195 80.4789 94.4962 80.3641 93.7216C80.2925 93.1416 80.4356 92.792 80.5309 92.7999Z" fill="#263238"/>
<path d="M90.7332 76.6384C90.5266 76.9562 89.5413 76.7814 88.3971 76.9165C87.2529 77.0515 86.3154 77.3853 86.0134 77.1151C85.9022 76.98 86.0134 76.6701 86.4028 76.3205C86.934 75.9151 87.5671 75.6648 88.232 75.5975C88.8968 75.5302 89.5673 75.6484 90.169 75.9391C90.6458 76.2411 90.8206 76.4874 90.7332 76.6384Z" fill="#263238"/>
<path d="M77.5911 86.2526C77.6115 86.5617 77.7515 86.8507 77.9814 87.0584C78.2113 87.266 78.5131 87.376 78.8227 87.365C78.9749 87.3661 79.1259 87.3368 79.2667 87.2787C79.4074 87.2207 79.5352 87.1352 79.6425 87.0271C79.7498 86.9191 79.8345 86.7907 79.8916 86.6495C79.9486 86.5084 79.9769 86.3572 79.9748 86.2049C79.9543 85.8958 79.8143 85.6068 79.5844 85.3992C79.3545 85.1915 79.0528 85.0815 78.7432 85.0925C78.5906 85.0904 78.4392 85.119 78.2979 85.1766C78.1566 85.2342 78.0284 85.3197 77.9209 85.428C77.8133 85.5363 77.7287 85.6651 77.6721 85.8068C77.6154 85.9484 77.5879 86.1001 77.5911 86.2526Z" fill="#263238"/>
<path d="M74.2778 82.1046C74.4367 82.2476 75.2869 81.5246 76.5661 81.4292C77.8454 81.3339 78.8227 81.9139 78.9498 81.7471C79.077 81.5802 78.8465 81.4054 78.4175 81.1432C77.836 80.7967 77.1616 80.6385 76.4867 80.6903C75.8238 80.7394 75.193 80.995 74.683 81.4213C74.3493 81.755 74.1983 82.041 74.2778 82.1046Z" fill="#263238"/>
<path d="M74.675 77.9572C74.9531 78.2274 75.9145 77.8539 77.0587 77.7586C78.2028 77.6632 79.2596 77.7586 79.4424 77.4725C79.5298 77.3216 79.355 77.0435 78.8941 76.7972C78.2706 76.5024 77.5773 76.3868 76.8918 76.4634C76.2052 76.5181 75.5487 76.7691 75.0007 77.1865C74.675 77.5123 74.5558 77.8301 74.675 77.9572Z" fill="#263238"/>
<path d="M66.4035 90.0585C66.4035 89.3672 65.5216 87.7622 64.8144 87.6748C62.9789 87.4523 59.7053 87.6748 59.8325 92.3389C59.9993 98.6954 66.3161 97.1857 66.3241 97.003C66.332 96.8202 66.475 92.4422 66.4035 90.0585Z" fill="#FFBF9D"/>
<path d="M64.5284 94.7465C64.5284 94.7465 64.4172 94.8339 64.2344 94.9213C63.9832 95.0305 63.7007 95.0447 63.4398 94.961C62.7645 94.7306 62.1765 93.6897 62.1129 92.5773C62.08 92.0346 62.1696 91.4915 62.3751 90.9882C62.4276 90.7893 62.5272 90.6061 62.6655 90.4539C62.8038 90.3018 62.9768 90.1852 63.1697 90.1141C63.2958 90.0792 63.43 90.0886 63.55 90.1406C63.67 90.1927 63.7685 90.2843 63.8292 90.4002C63.9166 90.575 63.8769 90.7021 63.9086 90.7101C63.9404 90.718 64.0437 90.6068 63.9881 90.3446C63.9464 90.1892 63.8542 90.0522 63.7259 89.9552C63.639 89.891 63.5399 89.8453 63.4347 89.8207C63.3295 89.7961 63.2204 89.7932 63.1141 89.8122C62.8569 89.8733 62.6191 89.9976 62.4221 90.1738C62.225 90.35 62.0751 90.5725 61.9858 90.8213C61.7371 91.3776 61.6228 91.9846 61.6521 92.5932C61.7315 93.8724 62.4466 95.0484 63.3365 95.2868C63.5075 95.3328 63.6867 95.3388 63.8603 95.3044C64.0339 95.2699 64.1973 95.1959 64.3377 95.0881C64.5205 94.9054 64.5443 94.7624 64.5284 94.7465Z" fill="#FF9A6C"/>
<path d="M64.5681 87.7222L66.3162 89.2398C72.625 82.0172 84.6469 64.2665 83.9794 65.3153C80.7291 64.4213 77.3069 64.353 74.0235 65.1167C68.9621 66.4516 59.459 69.8841 60.1424 75.9308C60.8257 81.9774 64.5681 87.7222 64.5681 87.7222Z" fill="#263238"/>
<path d="M55.2795 87.1504C55.2911 87.0245 55.3124 86.8997 55.3431 86.777C55.4284 86.4239 55.5427 86.0784 55.6848 85.7441C56.2417 84.5256 57.0547 83.4416 58.0685 82.5658C59.5744 81.2786 61.2888 80.2575 63.1378 79.5464C65.1799 78.6724 67.508 77.9573 69.7486 76.7257C71.8649 75.6113 73.8459 74.2569 75.6523 72.6893C77.1244 71.4044 78.478 69.9897 79.6966 68.4622C80.5171 67.4271 81.2759 66.3447 81.9691 65.2203C82.1916 64.8469 82.3743 64.537 82.5253 64.2987C82.5831 64.1884 82.6523 64.0845 82.7319 63.9888C82.6934 64.1075 82.6428 64.222 82.5809 64.3304C82.4697 64.5529 82.3108 64.8787 82.0803 65.2839C81.4311 66.4324 80.7065 67.5367 79.9112 68.5893C78.708 70.1494 77.3591 71.5914 75.8827 72.8959C74.0605 74.5094 72.0519 75.8991 69.8996 77.0356C67.7333 78.0884 65.5134 79.0273 63.2491 79.8484C61.4221 80.534 59.7222 81.5196 58.2194 82.7644C57.2205 83.6133 56.4087 84.6604 55.8357 85.8394C55.4305 86.6419 55.3352 87.1584 55.2795 87.1504Z" fill="#455A64"/>
<path d="M57.2183 87.9767C57.1577 87.5074 57.1984 87.0306 57.3375 86.5783C57.7023 85.3305 58.4364 84.2225 59.4431 83.4C60.9444 82.2279 62.6654 81.3688 64.5045 80.8733C66.7146 80.2253 68.8463 79.3353 70.8611 78.2194C72.8592 77.0867 74.7066 75.7065 76.3595 74.1115C77.7107 72.8103 78.9297 71.3783 79.9986 69.8368C80.7192 68.7938 81.3721 67.7056 81.9532 66.579L82.4061 65.6494C82.4557 65.5373 82.5169 65.4308 82.5889 65.3315C82.5623 65.4496 82.5223 65.5642 82.4697 65.6732C82.3585 65.9275 82.2313 66.2453 82.0645 66.6346C81.5242 67.7901 80.8974 68.903 80.1893 69.9639C79.1345 71.5385 77.9204 73.0002 76.5661 74.3261C74.8975 75.948 73.0283 77.3498 71.0041 78.4975C68.9752 79.6245 66.8238 80.5149 64.5919 81.1514C62.7824 81.6147 61.0798 82.4242 59.5782 83.5351C58.5913 84.3194 57.8541 85.3741 57.4567 86.5704C57.3264 87.0291 57.2464 87.5007 57.2183 87.9767Z" fill="#455A64"/>
<path d="M65.7202 98.3615C65.7202 98.3139 65.1799 98.298 64.2264 98.1311C62.885 97.8689 61.6213 97.3036 60.5317 96.4784C58.9338 95.2271 57.6588 93.6115 56.8131 91.7666C55.7441 89.5135 55.0644 87.0956 54.8028 84.6155C54.6589 83.3409 54.6455 82.055 54.7631 80.7777C55.1071 77.5487 56.3362 74.4773 58.3148 71.9024C59.4818 70.4318 60.7855 69.075 62.2082 67.8501C62.2082 67.8501 62.0811 67.9057 61.8745 68.0567C61.6679 68.2076 61.3501 68.4222 60.9766 68.748C59.9076 69.6362 58.9355 70.635 58.0764 71.7276C56.7921 73.3543 55.7976 75.1901 55.1365 77.1545C54.3315 79.5705 54.0764 82.1359 54.3896 84.6632C54.6547 87.1868 55.3593 89.6447 56.4714 91.9255C57.3532 93.811 58.6881 95.4488 60.3569 96.6929C61.4921 97.5245 62.8114 98.0697 64.2026 98.2821C64.5757 98.3407 64.9532 98.3673 65.3309 98.3615C65.4599 98.3806 65.5911 98.3806 65.7202 98.3615Z" fill="#455A64"/>
<path d="M113.402 141.396C113.498 141.396 126.91 146.091 129.905 160.267C132.901 174.442 133.084 210.245 127.561 211.731C122.039 213.217 109.453 211.731 109.453 211.731L99.4337 170.318L113.402 141.396Z" fill="#455A64"/>
<g opacity="0.3">
<path d="M117.526 143.461L101.984 166.075C101.021 167.323 100.282 168.729 99.7992 170.23C99.1397 172.813 100.046 175.498 100.935 178.001L112.377 210.102L117.534 212.486C118.172 212.13 118.716 211.627 119.121 211.019C119.526 210.411 119.78 209.715 119.862 208.99C120.012 207.537 119.893 206.069 119.512 204.659C118.688 200.793 117.547 197.001 116.104 193.321C115.222 191.072 114.26 188.41 115.587 186.4C116.604 184.858 118.567 184.342 120.124 183.357C123.597 181.164 124.892 176.706 125.09 172.606C125.647 162.515 121.547 152.782 117.526 143.461Z" fill="black"/>
</g>
<path d="M125.758 202.387C125.753 202.205 125.772 202.023 125.813 201.846L126.052 200.321C126.171 199.661 126.298 198.851 126.425 197.937C126.552 197.023 126.735 195.919 126.87 194.759C127.188 192.375 127.458 189.546 127.665 186.384C127.871 183.222 127.975 179.741 127.935 176.055C127.895 172.368 127.665 168.904 127.379 165.773C127.093 162.642 126.703 159.79 126.306 157.422C126.131 156.238 125.917 155.181 125.742 154.244C125.567 153.306 125.416 152.504 125.273 151.86L124.963 150.35C124.918 150.173 124.892 149.992 124.884 149.81C124.957 149.975 125.01 150.149 125.043 150.327C125.143 150.708 125.27 151.209 125.424 151.828C125.578 152.448 125.76 153.243 125.972 154.212C126.163 155.142 126.401 156.206 126.592 157.39C127.029 159.774 127.426 162.587 127.76 165.749C128.094 168.911 128.292 172.4 128.348 176.078C128.404 179.757 128.261 183.23 128.046 186.408C127.832 189.586 127.506 192.423 127.148 194.799C126.997 195.99 126.807 197.063 126.648 197.977C126.489 198.891 126.346 199.725 126.203 200.361C126.06 200.996 125.964 201.489 125.885 201.87C125.854 202.045 125.811 202.217 125.758 202.387Z" fill="#263238"/>
<path d="M130.056 206.455C129.545 206.632 129.008 206.72 128.467 206.717C125.904 206.884 123.337 206.446 120.974 205.438C120.472 205.252 120.005 204.984 119.592 204.643C121.267 205.231 122.979 205.709 124.717 206.073C126.487 206.311 128.27 206.438 130.056 206.455Z" fill="#263238"/>
<path d="M57.0435 118.155L69.256 111.671L85.4731 112.259L95.3655 115.739L80.2528 125.314L72.0052 126.871L57.0435 118.639" fill="#FFBF9D"/>
<path d="M55.8994 178.629C55.8994 178.629 47.3101 197.985 46.6268 207.233C45.9434 216.482 52.1887 232.731 55.4147 252.897C58.0288 269.154 59.0061 298.935 60.8257 308.628C62.6453 318.322 69.272 343.319 69.272 343.319L83.8046 344.217C83.8046 344.217 83.8523 277.783 83.8523 269.893C83.8523 262.003 83.5186 223.379 83.5186 223.379L103.899 286.007L113.49 345.838L130.39 345.043C130.39 345.043 128.07 294.191 127.212 284.704C125.933 270.68 120.108 219.176 117.375 210.158C114.642 201.139 104.011 178.534 104.011 178.534L55.8994 178.629Z" fill="#263238"/>
<path d="M60.1661 272.706C65.9427 275.288 77.6069 275.209 82.573 270.759C76.8521 268.026 65.2355 268.916 60.1661 272.706Z" fill="#FFBF9D"/>
<path d="M44.6959 127.586C44.6959 127.586 49.6302 121.595 52.8879 119.577C55.9406 117.845 59.0866 116.282 62.3115 114.897C62.3115 114.897 70.8452 121.929 78.1393 119.664C82.3723 118.424 86.193 116.066 89.1997 112.839L105.52 114.722C105.52 114.722 108.214 151.987 107.109 156.588C106.005 161.188 105.727 180.91 105.727 180.91L54.4056 179.94L55.955 139.695L44.6959 127.586Z" fill="#FF725E"/>
<path d="M62.3512 133.569L63.4477 187.186H101.031L100.991 133.474L62.3512 133.569Z" fill="#E0E0E0"/>
<path d="M100.212 153.894C99.822 153.862 99.4359 153.79 99.0602 153.679L97.7254 153.362C97.1326 153.225 96.551 153.045 95.9853 152.821C92.6185 151.727 89.5096 149.959 86.8477 147.625L85.7035 146.6C85.338 146.25 85.0123 145.877 84.6785 145.519C83.9873 144.828 83.439 144.057 82.8669 143.366C81.9231 142.092 81.091 140.739 80.3799 139.322C79.8921 138.37 79.4803 137.382 79.1483 136.366C79.0021 136.002 78.9058 135.619 78.8623 135.229C78.8623 135.229 79.0133 135.619 79.2993 136.318C79.6919 137.299 80.1402 138.257 80.6421 139.186C81.3789 140.577 82.2265 141.905 83.1768 143.159C83.741 143.835 84.2892 144.597 84.9725 145.273C85.3063 145.615 85.632 145.98 85.9896 146.322L87.1179 147.331C89.7497 149.613 92.7912 151.373 96.0806 152.519C96.6356 152.757 97.2064 152.956 97.7889 153.115L99.1 153.497C99.4816 153.597 99.8538 153.729 100.212 153.894Z" fill="#263238"/>
<path d="M59.451 146.703L60.333 184.604H91.2576L89.9625 146.29L59.451 146.703Z" fill="#455A64"/>
<path d="M62.6532 184.461C62.6175 184.343 62.6014 184.219 62.6055 184.096V183.031C62.6055 182.046 62.534 180.727 62.4784 179.122C62.3513 175.769 62.1765 171.24 61.9778 166.242C61.7792 161.244 61.6203 156.643 61.5964 153.346C61.5964 151.693 61.5964 150.35 61.5964 149.429C61.5964 149.008 61.5964 148.634 61.5964 148.364C61.5849 148.242 61.5849 148.12 61.5964 147.999C61.6321 148.117 61.6482 148.24 61.6441 148.364C61.6441 148.658 61.6441 149.008 61.6441 149.429C61.6441 150.422 61.7156 151.741 61.7712 153.338C61.8984 156.699 62.0732 161.22 62.2718 166.226C62.4705 171.232 62.6294 175.816 62.6532 179.122C62.6532 180.774 62.6532 182.109 62.6532 183.031C62.6532 183.452 62.6532 183.826 62.6532 184.096C62.6698 184.217 62.6698 184.34 62.6532 184.461Z" fill="#263238"/>
<path d="M82.716 152.837H67.4205V157.962H82.716V152.837Z" fill="white"/>
<path d="M115.484 127.888C115.81 127.816 121.904 160.743 121.904 166.122C121.904 171.502 121.245 178.041 114.824 179.582C108.404 181.124 67.4205 177.54 67.4205 177.54L81.1745 168.625L89.3109 167.926L108.857 164.986L105.194 137.852C105.194 137.852 111.503 128.746 115.484 127.888Z" fill="#FFBF9D"/>
<path d="M113.974 169.579C113.809 169.231 113.665 168.872 113.545 168.506C113.169 167.68 112.601 166.956 111.887 166.395C111.174 165.833 110.337 165.451 109.445 165.28C109.061 165.246 108.679 165.191 108.301 165.113C108.676 164.961 109.086 164.917 109.485 164.986C110.455 165.084 111.376 165.46 112.139 166.067C112.912 166.669 113.496 167.479 113.823 168.403C113.99 168.771 114.042 169.18 113.974 169.579Z" fill="#FF9A6C"/>
<path d="M102.159 114.38C102.159 114.38 107.936 114.285 111.924 117.813C115.913 121.341 117.367 130.272 117.367 130.272L104.749 139.385L102.159 114.38Z" fill="#FF725E"/>
<path d="M40 137.709L56.6383 142.985L52.8959 119.577C52.8959 119.577 41.7719 123.764 40 137.709Z" fill="#FF725E"/>
<path d="M52.1729 129.906C52.4674 130.519 52.7041 131.157 52.88 131.813C53.317 133.14 53.8414 134.713 54.4215 136.453L56.0106 141.078C56.2678 141.705 56.4698 142.354 56.6145 143.017C56.2494 142.442 55.9534 141.826 55.7325 141.181C55.2478 140.021 54.6201 138.4 54.0083 136.589C53.3965 134.777 52.8959 133.108 52.5781 131.893C52.3702 131.247 52.2343 130.581 52.1729 129.906Z" fill="#263238"/>
<path d="M98.5756 113.943L106.354 165.383L108.857 164.954L105.56 114.38C105.56 114.38 99.2589 112.537 98.5756 113.943Z" fill="#455A64"/>
<path d="M93.7128 155.634L57.1627 162.317L56.4873 142.691L41.3905 138.066C40.4132 147.093 42.2884 175.554 46.0705 177.509C49.8527 179.463 60.8257 179.455 67.4126 177.509C73.9996 175.562 93.0534 166.027 93.0534 166.027L93.7128 155.634Z" fill="#FFBF9D"/>
<path d="M89.3109 157.215L93.7128 155.626C94.7115 154.03 95.8495 152.525 97.1136 151.129C98.7027 149.54 108.039 145.718 108.039 145.718C108.039 145.718 110.367 145.996 108.611 148.181C107.714 149.357 106.642 150.389 105.433 151.24C105.433 151.24 107.951 151.463 108.428 152.146C108.905 152.829 108.563 155.213 108.357 155.96C108.838 157.257 108.838 158.683 108.357 159.98L108.293 160.6C108.293 160.6 108.563 162.094 106.863 163.659C106.863 163.659 107.538 165.058 105.766 165.653C103.995 166.249 92.8944 166.051 92.8944 166.051L89.3109 157.215Z" fill="#FFBF9D"/>
<path d="M92.8944 166.027C92.8944 166.027 92.9898 166.027 93.1805 166.027H94.0148H97.193C98.5517 166.027 100.204 165.987 102.088 165.908C103.025 165.86 104.026 165.821 105.059 165.678C105.566 165.64 106.051 165.452 106.45 165.137C106.628 164.97 106.749 164.751 106.795 164.511C106.84 164.271 106.809 164.023 106.704 163.802L106.648 163.675L106.744 163.58C107.152 163.21 107.494 162.772 107.753 162.285C108.021 161.8 108.143 161.248 108.102 160.696V160.64C108.102 160.449 108.15 160.235 108.174 160.028V159.973C108.635 158.727 108.635 157.357 108.174 156.111V156.039V155.976C108.341 155.275 108.439 154.559 108.468 153.838C108.492 153.475 108.476 153.11 108.42 152.75C108.397 152.594 108.34 152.445 108.253 152.313C108.144 152.197 108.011 152.105 107.864 152.043C107.08 151.75 106.259 151.568 105.425 151.502L104.869 151.439L105.337 151.129C106.406 150.364 107.367 149.461 108.198 148.443C108.631 148.026 108.937 147.494 109.08 146.91C109.151 146.377 108.563 146.044 108.031 145.972H108.126C105.743 146.973 103.486 147.943 101.531 148.864C100.554 149.325 99.6482 149.778 98.8219 150.231C98.0507 150.606 97.3577 151.123 96.7798 151.757C95.9667 152.673 95.2079 153.636 94.5074 154.641L93.9353 155.436C93.875 155.532 93.8059 155.622 93.7287 155.706C93.7287 155.706 93.7287 155.594 93.8797 155.404C94.0306 155.213 94.1657 154.927 94.4041 154.609C95.0665 153.568 95.802 152.575 96.605 151.637C97.1902 150.982 97.8938 150.443 98.6789 150.048C99.4734 149.58 100.419 149.111 101.388 148.634C103.343 147.688 105.56 146.695 107.983 145.678H108.031H108.079C108.416 145.728 108.737 145.855 109.016 146.052C109.17 146.163 109.294 146.312 109.374 146.485C109.455 146.657 109.49 146.847 109.477 147.037C109.328 147.705 108.992 148.317 108.508 148.801C107.651 149.853 106.657 150.786 105.552 151.574L105.464 151.193C106.345 151.261 107.212 151.454 108.039 151.765C108.247 151.85 108.432 151.984 108.579 152.154C108.708 152.339 108.793 152.551 108.826 152.774C108.887 153.162 108.906 153.557 108.881 153.95C108.85 154.7 108.747 155.445 108.571 156.174V156.039C109.076 157.384 109.076 158.866 108.571 160.211V160.163C108.571 160.378 108.524 160.584 108.5 160.775V160.719C108.514 161.338 108.387 161.951 108.126 162.512C107.866 163.072 107.48 163.566 106.998 163.953L107.038 163.739C107.179 164.03 107.221 164.36 107.16 164.677C107.098 164.995 106.936 165.285 106.696 165.503C106.241 165.865 105.687 166.081 105.107 166.122C104.042 166.258 103.041 166.281 102.096 166.321C100.204 166.369 98.5517 166.321 97.193 166.321C95.8343 166.321 94.7537 166.281 94.0148 166.258H93.1805C93.0765 166.192 92.9805 166.115 92.8944 166.027Z" fill="#FF9A6C"/>
<path d="M53.4838 169.531C53.3352 169.136 53.2861 168.71 53.3408 168.292C53.3913 167.271 53.6617 166.273 54.1334 165.367C54.6052 164.46 55.2672 163.667 56.0741 163.04C56.6939 162.571 57.1468 162.396 57.1706 162.444C56.0559 163.264 55.1449 164.33 54.5084 165.559C53.8718 166.788 53.5267 168.147 53.4997 169.531H53.4838Z" fill="#FF9A6C"/>
<path d="M92.8389 166.13C92.4732 166.403 92.0821 166.64 91.6709 166.838C90.8763 167.275 89.7798 167.87 88.3813 168.578C85.5765 170.008 81.6355 171.843 77.17 173.623C72.7045 175.403 68.5807 176.754 65.5613 177.644C64.0517 178.089 62.828 178.438 61.9699 178.637C61.5327 178.767 61.0866 178.866 60.635 178.931C61.0523 178.742 61.4858 178.59 61.9302 178.478L65.4739 177.366C68.4615 176.404 72.5694 174.982 77.019 173.234C81.4686 171.486 85.4176 169.674 88.2463 168.315L91.5994 166.726C91.9987 166.5 92.4128 166.301 92.8389 166.13Z" fill="#FF9A6C"/>
<path d="M70.9564 116.303C73.0461 120.633 72.6806 125.146 70.1618 126.37C67.643 127.594 63.8529 125.083 61.7632 120.752C59.6735 116.422 60.047 111.909 62.5578 110.677C65.0686 109.446 68.8667 111.996 70.9564 116.303Z" fill="#455A64"/>
<path d="M65.6804 119.839C66.8167 122.819 66.475 125.719 64.8859 126.323C63.2967 126.927 61.1037 125.004 59.9596 122.024C58.8154 119.045 59.165 116.152 60.7541 115.548C62.3433 114.945 64.5442 116.867 65.6804 119.839Z" fill="#455A64"/>
<path d="M85.4175 116.692C83.9476 112.116 84.9408 107.698 87.6344 106.832C90.328 105.966 93.7049 108.985 95.1748 113.57C96.6448 118.154 95.6436 122.564 92.95 123.43C90.2565 124.296 86.8875 121.277 85.4175 116.692Z" fill="#455A64"/>
<path d="M91.1385 113.927C90.4234 110.821 91.1782 107.992 92.8229 107.618C94.4677 107.245 96.3906 109.446 97.1057 112.553C97.8208 115.659 97.058 118.48 95.4132 118.862C93.7685 119.243 91.8297 117.026 91.1385 113.927Z" fill="#455A64"/>
<path d="M62.8201 117.948C62.8201 117.948 58.728 112.616 59.1253 110.145C59.5226 107.674 66.2764 102.041 66.2764 102.041L66.7134 105.934C66.7134 105.934 61.5964 107.793 61.7633 110.376C61.9301 112.958 64.1947 117.209 64.1947 117.209L62.8201 117.948Z" fill="#455A64"/>
<path d="M65.3071 126.092C65.6281 125.496 65.8762 124.864 66.046 124.209C66.1907 123.497 66.2095 122.766 66.1016 122.048C65.9614 121.166 65.6938 120.31 65.3071 119.505C64.9264 118.69 64.4603 117.918 63.9166 117.201C63.4844 116.627 62.8889 116.198 62.2082 115.969C61.7465 115.834 61.2556 115.834 60.7939 115.969C60.4602 116.073 60.3013 116.192 60.2774 116.16C60.2536 116.128 60.3966 115.977 60.7383 115.818C61.2405 115.603 61.8015 115.566 62.3274 115.715C63.0863 115.921 63.7581 116.367 64.2423 116.986C64.8306 117.717 65.3269 118.518 65.7202 119.37C66.1233 120.213 66.3915 121.114 66.5148 122.04C66.6077 122.805 66.5564 123.581 66.3638 124.328C66.2288 124.827 66.0113 125.3 65.7202 125.727C65.4819 125.973 65.323 126.108 65.3071 126.092Z" fill="#263238"/>
<path d="M67.5954 125.79C68.0623 125.135 68.3648 124.378 68.4773 123.581C68.7237 122.103 68.088 120.069 67.3093 117.916C66.9509 116.911 66.4124 115.979 65.7202 115.167C65.1448 114.526 64.4101 114.049 63.5907 113.784C62.8126 113.556 61.9852 113.556 61.207 113.784C61.207 113.784 61.3898 113.617 61.8109 113.498C62.4122 113.338 63.0451 113.338 63.6464 113.498C64.5394 113.743 65.346 114.233 65.9744 114.913C66.7176 115.747 67.2899 116.719 67.6589 117.773C68.0496 118.81 68.3708 119.872 68.6204 120.951C68.838 121.838 68.8785 122.759 68.7395 123.661C68.7008 124.074 68.5796 124.476 68.3831 124.841C68.1865 125.207 67.9187 125.53 67.5954 125.79Z" fill="#263238"/>
<path d="M95.8741 117.916C95.8741 117.916 95.7311 118.043 95.4133 118.099C94.9475 118.151 94.477 118.054 94.0705 117.82C93.4904 117.461 93.0161 116.953 92.6959 116.351C91.5456 114.359 91.0378 112.062 91.2418 109.772C91.2984 109.316 91.4738 108.883 91.7503 108.516C91.9648 108.262 92.1317 108.19 92.1476 108.206C91.793 108.666 91.5778 109.217 91.5278 109.795C91.4713 111.22 91.6677 112.643 92.1079 113.999C92.6323 115.588 93.3156 117.002 94.2214 117.558C94.7161 117.861 95.2987 117.987 95.8741 117.916Z" fill="#263238"/>
<path d="M95.3338 121.317C95.3338 121.317 95.1431 121.523 94.6663 121.658C93.9903 121.842 93.2724 121.798 92.6243 121.531C91.6825 121.096 90.8796 120.408 90.3042 119.545C89.5791 118.533 88.9913 117.43 88.5561 116.263C87.6503 113.8 87.3563 111.297 88.0238 109.621C88.2611 108.964 88.6732 108.384 89.2156 107.944C89.597 107.634 89.8671 107.555 89.8751 107.579C89.883 107.602 89.6526 107.738 89.3189 108.063C88.8516 108.526 88.5003 109.092 88.2939 109.716C87.7457 111.305 88.0635 113.689 88.9375 116.12C89.8115 118.552 91.202 120.586 92.7355 121.261C93.3304 121.538 93.9941 121.632 94.6425 121.531C95.0875 121.42 95.3179 121.285 95.3338 121.317Z" fill="#263238"/>
</g>
</g>
<defs>
<filter id="filter0_i_528_9573" x="0" y="0" width="191" height="296" filterUnits="userSpaceOnUse" color-interpolation-filters="sRGB">
<feFlood flood-opacity="0" result="BackgroundImageFix"/>
<feBlend mode="normal" in="SourceGraphic" in2="BackgroundImageFix" result="shape"/>
<feColorMatrix in="SourceAlpha" type="matrix" values="0 0 0 0 0 0 0 0 0 0 0 0 0 0 0 0 0 0 127 0" result="hardAlpha"/>
<feOffset dx="6" dy="6"/>
<feGaussianBlur stdDeviation="7.5"/>
<feComposite in2="hardAlpha" operator="arithmetic" k2="-1" k3="1"/>
<feColorMatrix type="matrix" values="0 0 0 0 0 0 0 0 0 0 0 0 0 0 0 0 0 0 0.25 0"/>
<feBlend mode="normal" in2="shape" result="effect1_innerShadow_528_9573"/>
</filter>
<clipPath id="clip0_528_9573">
<rect width="185" height="290" rx="92.5" fill="white"/>
</clipPath>
</defs>
</svg>
