<svg width="130" height="130" viewBox="0 0 130 130" fill="none" xmlns="http://www.w3.org/2000/svg">
<g filter="url(#filter0_i_116_5282)">
<g clip-path="url(#clip0_116_5282)">
<rect width="130" height="130" rx="65" fill="white"/>
<path d="M150.6 70.0553H123.222L125.21 63.5176L125.282 63.2849L131.071 44.26H142.75L148.543 63.2891V63.2934L148.607 63.5092L150.6 70.0553Z" fill="#EBEBEB"/>
<path d="M128.672 53.5609C128.671 53.6096 128.651 53.6559 128.616 53.6899C128.582 53.7239 128.535 53.7429 128.486 53.7429C128.462 53.7429 128.439 53.7382 128.417 53.729C128.394 53.7199 128.374 53.7065 128.357 53.6896C128.341 53.6727 128.327 53.6526 128.318 53.6306C128.309 53.6085 128.304 53.5848 128.304 53.5609C128.304 53.5123 128.323 53.4656 128.357 53.4308C128.391 53.396 128.438 53.3759 128.486 53.3748C128.536 53.3748 128.583 53.3944 128.618 53.4293C128.653 53.4642 128.672 53.5116 128.672 53.5609Z" fill="white"/>
<path d="M130.356 51.1997C130.356 51.248 130.337 51.2943 130.303 51.3284C130.269 51.3625 130.223 51.3817 130.174 51.3817C130.126 51.3817 130.079 51.3627 130.044 51.3287C130.009 51.2947 129.989 51.2484 129.988 51.1997C129.988 51.1504 130.008 51.103 130.043 51.0681C130.078 51.0332 130.125 51.0135 130.174 51.0135C130.223 51.0147 130.269 51.0348 130.303 51.0696C130.337 51.1044 130.356 51.1511 130.356 51.1997Z" fill="white"/>
<path d="M128.672 58.461C128.672 58.5104 128.653 58.5577 128.618 58.5927C128.583 58.6276 128.536 58.6472 128.486 58.6472C128.438 58.6461 128.391 58.626 128.357 58.5912C128.323 58.5564 128.304 58.5097 128.304 58.461C128.304 58.4371 128.309 58.4135 128.318 58.3914C128.327 58.3693 128.341 58.3492 128.357 58.3323C128.374 58.3155 128.394 58.302 128.417 58.2929C128.439 58.2838 128.462 58.2791 128.486 58.2791C128.535 58.279 128.582 58.2981 128.616 58.3321C128.651 58.3661 128.671 58.4124 128.672 58.461Z" fill="white"/>
<path d="M130.356 56.0998C130.356 56.1485 130.337 56.1952 130.303 56.23C130.269 56.2648 130.223 56.2849 130.174 56.286C130.125 56.286 130.078 56.2664 130.043 56.2315C130.008 56.1965 129.988 56.1492 129.988 56.0998C129.989 56.0512 130.009 56.0049 130.044 55.9709C130.079 55.9369 130.126 55.9178 130.174 55.9178C130.223 55.9178 130.269 55.937 130.303 55.9711C130.337 56.0053 130.356 56.0515 130.356 56.0998Z" fill="white"/>
<path d="M125.3 63.361C125.301 63.3927 125.293 63.4241 125.277 63.4517C125.262 63.4793 125.239 63.5021 125.211 63.5175L125.283 63.2848C125.295 63.3085 125.3 63.3346 125.3 63.361Z" fill="white"/>
<path d="M128.672 63.3654C128.671 63.414 128.651 63.4603 128.616 63.4943C128.582 63.5283 128.535 63.5474 128.486 63.5473C128.438 63.5473 128.392 63.5282 128.357 63.494C128.323 63.4599 128.304 63.4136 128.304 63.3654C128.304 63.3167 128.323 63.27 128.357 63.2352C128.391 63.2004 128.438 63.1803 128.486 63.1792C128.536 63.1792 128.583 63.1988 128.618 63.2337C128.653 63.2686 128.672 63.316 128.672 63.3654Z" fill="white"/>
<path d="M126.984 61.0041C126.984 61.0523 126.965 61.0986 126.931 61.1327C126.896 61.1668 126.85 61.186 126.802 61.186C126.753 61.186 126.707 61.167 126.672 61.133C126.637 61.099 126.617 61.0527 126.616 61.0041C126.616 60.9547 126.635 60.9073 126.67 60.8724C126.705 60.8375 126.753 60.8179 126.802 60.8179C126.851 60.819 126.897 60.8391 126.931 60.8739C126.965 60.9087 126.984 60.9554 126.984 61.0041Z" fill="white"/>
<path d="M130.175 61.1861C130.275 61.1861 130.357 61.1046 130.357 61.0041C130.357 60.9036 130.275 60.8221 130.175 60.8221C130.074 60.8221 129.993 60.9036 129.993 61.0041C129.993 61.1046 130.074 61.1861 130.175 61.1861Z" fill="white"/>
<path d="M125.3 68.2654C125.304 68.2919 125.302 68.319 125.295 68.3447C125.287 68.3705 125.275 68.3944 125.257 68.4147C125.24 68.4351 125.218 68.4514 125.194 68.4626C125.169 68.4738 125.143 68.4796 125.116 68.4796C125.089 68.4796 125.063 68.4738 125.038 68.4626C125.014 68.4514 124.992 68.4351 124.975 68.4147C124.957 68.3944 124.944 68.3705 124.937 68.3447C124.93 68.319 124.928 68.2919 124.932 68.2654C124.939 68.2214 124.961 68.1812 124.995 68.1522C125.028 68.1231 125.071 68.1072 125.116 68.1072C125.16 68.1072 125.203 68.1231 125.237 68.1522C125.271 68.1812 125.293 68.2214 125.3 68.2654Z" fill="white"/>
<path d="M128.672 68.2653C128.672 68.3147 128.653 68.3621 128.618 68.397C128.583 68.4319 128.536 68.4515 128.486 68.4515C128.438 68.4504 128.391 68.4303 128.357 68.3955C128.323 68.3607 128.304 68.314 128.304 68.2653C128.304 68.2171 128.323 68.1708 128.357 68.1367C128.392 68.1025 128.438 68.0834 128.486 68.0834C128.535 68.0834 128.582 68.1024 128.616 68.1364C128.651 68.1704 128.671 68.2167 128.672 68.2653Z" fill="white"/>
<path d="M126.984 65.9042C126.984 65.9529 126.965 65.9996 126.931 66.0344C126.897 66.0692 126.851 66.0893 126.802 66.0904C126.753 66.0904 126.705 66.0708 126.67 66.0359C126.635 66.001 126.616 65.9536 126.616 65.9042C126.617 65.8556 126.637 65.8093 126.672 65.7753C126.707 65.7413 126.753 65.7223 126.802 65.7223C126.85 65.7223 126.896 65.7415 126.931 65.7756C126.965 65.8097 126.984 65.856 126.984 65.9042Z" fill="white"/>
<path d="M130.175 66.0862C130.275 66.0862 130.357 66.0047 130.357 65.9042C130.357 65.8038 130.275 65.7223 130.175 65.7223C130.074 65.7223 129.993 65.8038 129.993 65.9042C129.993 66.0047 130.074 66.0862 130.175 66.0862Z" fill="white"/>
<path d="M2.66992 88.2975L2.66992 74.2362H-11.3914V88.2975H2.66992Z" fill="#DBDBDB"/>
<path d="M0.491699 86.1181L0.491699 76.4153H-9.21117V86.1181H0.491699Z" fill="white"/>
<path d="M-9.21143 76.4153H0.491433V86.1181L-9.21143 76.4153Z" fill="#EBEBEB"/>
<path d="M2.78467 110.043L2.78467 91.6656H-28.6851V110.043H2.78467Z" fill="#DBDBDB"/>
<path d="M0.491699 107.771L0.491699 93.9379H-26.3869V107.771H0.491699Z" fill="white"/>
<path d="M-17.1284 93.9379H0.491608V103.006L-17.1284 93.9379Z" fill="#EBEBEB"/>
<path d="M2.78906 70.9524L2.78906 39.4827H-28.6807L-28.6807 70.9524H2.78906Z" fill="#DBDBDB"/>
<path d="M0.491369 41.7804H-26.3872V68.6547H0.491369V41.7804Z" fill="white"/>
<path d="M0.491175 61.1311C-3.59224 57.0689 -15.1654 45.5464 -18.8892 41.7804H0.491175V61.1311Z" fill="#EBEBEB"/>
<path d="M106.724 107.102L106.605 115.121L105.822 171.066L105.797 172.758L105.454 195.071H104.151L103.808 172.758L103.783 171.066L103.008 115.121L102.881 107.102H106.724Z" fill="#C7C7C7"/>
<path d="M102.881 107.102H106.724L106.605 115.121H103.008L102.881 107.102Z" fill="#A6A6A6"/>
<path d="M129.768 107.102L129.646 115.121L128.499 195.071H127.191L126.849 172.758L126.823 171.066L126.049 115.121L125.922 107.102H129.768Z" fill="#C7C7C7"/>
<path d="M129.768 107.102L129.646 115.121H126.049L125.922 107.102H129.768Z" fill="#A6A6A6"/>
<path d="M95.214 107.102L95.0912 115.121L94.3126 171.066L94.2873 172.758L93.9445 195.071H92.6454L91.4945 115.121L91.376 107.102H95.214Z" fill="#C7C7C7"/>
<path d="M91.376 107.102H95.214L95.0912 115.121H91.4945L91.376 107.102Z" fill="#A6A6A6"/>
<path d="M117.835 107.102L117.717 115.121L116.934 171.066L116.909 172.758L116.566 195.071H115.263L114.92 172.758L114.894 171.066L114.12 115.121L113.993 107.102H117.835Z" fill="#C7C7C7"/>
<path d="M113.993 107.102H117.835L117.717 115.121H114.12L113.993 107.102Z" fill="#A6A6A6"/>
<path d="M131.762 103.37H89.8442V107.762H131.762V103.37Z" fill="#FFC727"/>
<path opacity="0.1" d="M123.015 103.37H89.8481V107.762H123.015V103.37Z" fill="#263238"/>
<path d="M134.618 73.1655L131.757 103.37H107.528L107.282 99.659L104.972 72.8354L131.029 73.1274L134.618 73.1655Z" fill="#FFC727"/>
<path opacity="0.1" d="M131.029 73.1274L129.066 103.37H107.528L107.282 99.659L104.972 72.8354L131.029 73.1274Z" fill="#263238"/>
<path d="M115.501 29.4542H7.86377V172.422H115.501V29.4542Z" fill="#FFC727"/>
<g opacity="0.1">
<path d="M115.501 29.4542H7.86377V172.422H115.501V29.4542Z" fill="#020100"/>
</g>
<path d="M112.574 29.4542H4.93652V172.422H112.574V29.4542Z" fill="#FFC727"/>
<path d="M106.454 35.1622L11.4419 36.3728L13.083 165.168L108.095 163.958L106.454 35.1622Z" fill="#EBEBEB"/>
<path d="M12.2093 34.7556L9.42188 163.531L104.42 165.588L107.207 36.8119L12.2093 34.7556Z" fill="#DBDBDB"/>
<path d="M105.816 35.7627H10.7954V164.568H105.816V35.7627Z" fill="white"/>
<path d="M37.7711 73.9366H23.8896V60.0552H37.7711V73.9366ZM24.358 73.4683H37.3027V60.5235H24.358V73.4683Z" fill="#263238"/>
<path d="M92.4866 61.0902H47.1426V61.5585H92.4866V61.0902Z" fill="#263238"/>
<path d="M92.4866 65.0009H47.1426V65.4692H92.4866V65.0009Z" fill="#263238"/>
<path d="M92.4866 68.9114H47.1426V69.3797H92.4866V68.9114Z" fill="#263238"/>
<path d="M24.2368 66.1949C24.8082 66.6632 25.3514 67.169 25.89 67.6702C26.4286 68.1713 26.9438 68.6865 27.473 69.1969C28.5127 70.2273 29.5196 71.2857 30.5078 72.3582L28.7328 72.4706C30.141 69.5518 31.7513 66.7349 33.552 64.0406C34.448 62.6918 35.4003 61.3742 36.4088 60.0878C37.4258 58.7884 38.5289 57.5586 39.7106 56.4067C39.2394 57.9887 38.6637 59.5376 37.9871 61.0432C37.3267 62.5372 36.5821 63.9891 35.8234 65.4128C34.2697 68.2625 32.5201 71.001 30.5874 73.6086L29.618 74.9059L28.8124 73.721C27.9929 72.5127 27.192 71.2951 26.4239 70.0493C26.0493 69.417 25.6559 68.7988 25.2952 68.176C24.9346 67.5531 24.5693 66.8599 24.2368 66.1949Z" fill="#FFC727"/>
<path d="M37.7711 97.3066H23.8896V83.4205H37.7711V97.3066ZM24.358 96.8383H37.3027V83.8889H24.358V96.8383Z" fill="#263238"/>
<path d="M92.4866 84.4554H47.1426V84.9238H92.4866V84.4554Z" fill="#263238"/>
<path d="M92.4866 88.366H47.1426V88.8343H92.4866V88.366Z" fill="#263238"/>
<path d="M92.4866 92.2765H47.1426V92.7448H92.4866V92.2765Z" fill="#263238"/>
<path d="M24.2368 89.5603C24.8082 90.0286 25.3514 90.5344 25.89 91.0355C26.4286 91.5366 26.9438 92.0518 27.473 92.5623C28.5127 93.5926 29.5196 94.6511 30.5078 95.7235L28.7328 95.8359C30.142 92.9177 31.7523 90.1009 33.552 87.4059C34.4465 86.0571 35.3972 84.7364 36.4088 83.4579C37.4258 82.1569 38.5288 80.9255 39.7106 79.7721C39.2394 81.3541 38.6637 82.903 37.9871 84.4086C37.3267 85.9026 36.5821 87.3544 35.8234 88.7782C34.2693 91.6247 32.5198 94.36 30.5874 96.9646L29.618 98.2619L28.8124 97.077C27.9929 95.8734 27.192 94.6511 26.4239 93.4053C26.0493 92.773 25.6559 92.1548 25.2952 91.532C24.9346 90.9091 24.5693 90.2253 24.2368 89.5603Z" fill="#FFC727"/>
<path d="M37.7711 120.672H23.8896V106.8H37.7711V120.672ZM24.358 120.203H37.3027V107.268H24.358V120.203Z" fill="#263238"/>
<path d="M92.4866 107.821H47.1426V108.289H92.4866V107.821Z" fill="#263238"/>
<path d="M92.4866 111.731H47.1426V112.2H92.4866V111.731Z" fill="#263238"/>
<path d="M92.4866 115.642H47.1426V116.11H92.4866V115.642Z" fill="#263238"/>
<path d="M81.0599 26.8456H34.3857V41.0736H81.0599V26.8456Z" fill="#C7C7C7"/>
<path d="M71.9924 19.0667H43.0259L41.7427 26.8457H73.7018L71.9924 19.0667ZM57.7222 24.6632C57.3833 24.6642 57.0518 24.5643 56.7698 24.3764C56.4878 24.1885 56.268 23.921 56.1383 23.608C56.0086 23.2949 55.9749 22.9503 56.0415 22.618C56.1081 22.2857 56.2719 21.9807 56.5122 21.7418C56.7525 21.5028 57.0584 21.3406 57.391 21.2759C57.7237 21.2112 58.068 21.2467 58.3804 21.3781C58.6928 21.5095 58.9591 21.7308 59.1454 22.0139C59.3317 22.2969 59.4297 22.629 59.427 22.9679C59.4233 23.418 59.2422 23.8485 58.923 24.1659C58.6038 24.4833 58.1723 24.662 57.7222 24.6632Z" fill="#C7C7C7"/>
<path d="M73.7018 26.8457H41.7427L42.0284 25.1035H73.3177L73.7018 26.8457Z" fill="#A6A6A6"/>
<path d="M95.4713 122.315C95.8733 127.27 107.298 148.973 107.298 148.973L89.3145 157.991C89.3145 157.991 75.4478 133.545 76.1968 122.543C76.8357 113.208 92.9959 101.445 102.936 89.9604H116.333C112.101 102.981 96.5969 117.355 95.5136 121.743C95.4734 121.944 95.4648 122.15 95.4882 122.353L95.4713 122.315Z" fill="#37474F"/>
<path d="M114.742 91.9831C110.491 99.1743 105.68 106.019 100.354 112.455C99.0511 114.021 97.7055 115.544 96.3557 117.072C95.2132 118.341 94.058 119.793 93.8422 121.561C93.5967 123.533 94.4557 125.45 95.1455 127.244C95.9071 129.225 96.6773 131.201 97.4813 133.168C98.3529 135.284 99.2627 137.4 100.278 139.435C100.795 140.485 101.336 141.521 101.903 142.545C102.185 143.056 102.477 143.564 102.779 144.069C102.927 144.323 103.977 146.053 104.129 146.307C104.18 146.388 104.307 146.485 104.18 146.273C103.892 145.799 102.72 143.836 102.449 143.354C101.383 141.449 100.431 139.49 99.5293 137.501C98.628 135.513 97.769 133.448 96.9523 131.395C96.1356 129.343 95.302 127.329 94.6038 125.277C94.1954 124.226 93.9942 123.107 94.0114 121.98C94.0979 120.893 94.483 119.85 95.1243 118.967C96.2753 117.275 97.8156 115.802 99.1442 114.241C101.895 110.999 104.508 107.648 106.985 104.187C109.801 100.272 112.412 96.2123 114.805 92.0254C114.814 91.9788 114.763 91.9534 114.742 91.9831Z" fill="#263238"/>
<path d="M109.304 187.873L131.249 186.604C131.249 186.604 122.46 110.014 123.941 107.123C127.297 100.569 127.601 97.7126 123.907 89.9478H107.197C107.197 89.9478 108.14 98.123 108.077 98.4743C103.913 121.502 109.304 187.873 109.304 187.873Z" fill="#37474F"/>
<path d="M106.596 90.8279C106.863 92.9691 106.947 96.6463 108.196 96.6463C109.444 96.6463 109.016 92.1651 109.004 91.1453C109.004 90.2101 109.317 90.299 109.427 91.4246C109.66 94.4163 109.706 97.0609 108.107 97.0102C106.507 96.9594 106.308 92.3174 106.3 91.2553C106.27 90.6925 106.511 90.1551 106.596 90.8279Z" fill="#263238"/>
<path d="M108.119 96.79C108.231 97.5423 108.251 98.3053 108.178 99.0624C108.157 99.1216 107.916 99.0878 107.891 99.037C107.726 98.7323 107.776 97.2555 107.717 96.862C107.708 96.8087 107.72 96.7538 107.751 96.7093C107.781 96.6649 107.829 96.6346 107.882 96.625C107.935 96.6155 107.99 96.6275 108.035 96.6585C108.079 96.6894 108.11 96.7367 108.119 96.79Z" fill="#263238"/>
<path d="M107.722 99.4643C107.299 101.373 106.901 104.995 107.074 105.939C107.074 106.023 107.218 106.044 107.231 105.939C107.354 104.923 107.883 100.014 107.938 99.5235C107.993 99.0327 107.84 98.9311 107.722 99.4643Z" fill="#263238"/>
<path d="M111.052 100.797C110.792 100.566 110.517 100.354 110.226 100.162C109.939 99.9551 109.651 99.7393 109.351 99.5658C108.745 99.1765 108.115 98.8253 107.48 98.4825C106.845 98.1398 106.211 97.852 105.576 97.5643C104.941 97.2765 104.188 97.0396 103.515 96.7391C103.473 96.7391 103.443 96.7772 103.481 96.7984C104.125 97.1157 104.721 97.522 105.348 97.8732C105.974 98.2244 106.617 98.5883 107.226 98.9395C107.836 99.2907 108.449 99.642 109.067 99.9805C109.389 100.158 109.714 100.332 110.04 100.501C110.337 100.675 110.645 100.829 110.963 100.962C111.056 100.996 111.107 100.861 111.052 100.797Z" fill="#263238"/>
<path d="M126.802 172.699C126.384 169.669 125.99 166.637 125.617 163.601C124.872 157.533 124.222 151.453 123.666 145.359C123.111 139.266 122.647 133.17 122.274 127.071C122.088 124.016 121.924 120.962 121.783 117.91C121.644 114.88 121.436 110.83 121.458 107.796C121.458 106.256 124.119 104.944 124.466 100.433C124.727 97.8666 124.403 95.274 123.518 92.8505C123.301 92.2603 123.048 91.6838 122.761 91.124C122.74 91.086 122.685 91.124 122.706 91.1579C123.912 93.6239 124.493 96.3485 124.398 99.092C124.389 100.471 124.169 101.841 123.747 103.154C123.099 104.991 121.377 106.539 121.326 107.508C121.254 108.947 121.288 110.191 121.326 111.63C121.364 113.069 121.432 114.622 121.491 116.12C121.621 119.175 121.771 122.227 121.94 125.277C122.287 131.35 122.727 137.415 123.26 143.472C123.793 149.529 124.422 155.594 125.147 161.668C125.87 167.71 126.688 173.74 127.602 179.757C127.708 180.451 127.822 181.137 127.957 181.822C127.957 181.894 128.097 181.873 128.088 181.797C127.741 178.742 127.217 175.725 126.802 172.699Z" fill="#263238"/>
<path d="M102.885 48.5381C99.868 50.4338 98.2516 54.3099 98.2516 54.3099C98.2516 54.3099 94.9679 57.8474 95.133 60.2002C95.1669 60.866 95.3618 61.5137 95.7008 62.0878C96.0398 62.6618 96.5128 63.1452 97.0795 63.4965L97.1218 62.2271C97.1218 62.2271 97.5449 63.9747 100.084 65.1891C102.623 66.4036 106.275 66.3909 108.306 65.8788C109.508 65.5808 110.613 64.9773 111.513 64.127L110.43 65.7477C111.315 65.8466 112.21 65.7248 113.036 65.3933C113.863 65.0618 114.594 64.5308 115.165 63.8477C117.306 61.4569 113.807 56.5357 113.625 55.609C113.443 54.6823 114.361 48.4154 107.633 47.9922C107.616 48.0134 104.963 47.2306 102.885 48.5381Z" fill="#263238"/>
<path d="M96.1777 63.1283C95.5273 62.5501 95.0696 61.7867 94.866 60.9406C94.6203 60.1033 94.6696 59.207 95.0056 58.4017C95.4642 57.4767 96.0863 56.6424 96.8421 55.939C97.5699 55.1688 98.357 54.4537 99.0721 53.6709C99.1102 53.6286 99.0467 53.5693 99.0002 53.6032C98.2715 54.1493 97.5749 54.737 96.914 55.3635C96.252 55.9221 95.6583 56.557 95.1452 57.255C94.671 57.8977 94.3905 58.6626 94.337 59.4596C94.3219 60.1151 94.4671 60.7645 94.7602 61.3511C95.1352 62.0103 95.5947 62.6177 96.1269 63.1579C96.1608 63.2087 96.2116 63.1537 96.1777 63.1283Z" fill="#263238"/>
<path d="M116.329 61.1692C116.062 58.7233 114.344 56.8192 113.549 54.5595C113.125 53.3366 112.863 52.0206 112.199 50.9035C112.199 50.8739 112.127 50.9035 112.144 50.9331C112.673 51.936 112.863 53.0489 113.168 54.1152C113.502 55.1942 113.946 56.2363 114.492 57.2254C115.432 59.0619 116.561 61.2326 115.762 63.323C115.402 64.2878 114.564 65.261 113.472 65.3414C113.43 65.3414 113.439 65.4134 113.472 65.4049C113.912 65.3352 114.334 65.1761 114.71 64.9374C115.086 64.6987 115.41 64.3855 115.66 64.017C116.22 63.1798 116.458 62.168 116.329 61.1692Z" fill="#263238"/>
<path d="M116.286 61.804C116.551 60.9596 116.551 60.0544 116.286 59.21C115.958 58.3957 115.457 57.6623 114.818 57.0604C114.128 56.3368 113.388 55.6344 113.066 54.6612C113.066 54.6189 112.994 54.6612 113.007 54.6866C113.506 56.2818 114.911 57.2932 115.698 58.715C116.595 60.3441 116.151 62.3244 114.971 63.6912C114.232 64.5182 113.308 65.159 112.275 65.5616C112.254 65.5616 112.275 65.5954 112.275 65.5869C114.031 64.9268 115.732 63.6828 116.286 61.804Z" fill="#263238"/>
<path d="M107.484 73.9102C106.638 78.4548 102.728 93.4048 98.5134 95.2709C95.746 96.4938 83.8132 97.7675 81.2277 95.4147C80.1021 94.3865 79.8567 85.6823 81.4858 85.6823C83.1149 85.6823 92.7501 85.0052 93.8334 84.434C94.9166 83.8627 101.505 72.1414 104.226 69.0101C108.91 63.6149 107.929 71.4601 107.484 73.9102Z" fill="#F7A9A0"/>
<path d="M84.9009 84.3537L87.2494 97.0482C87.2494 97.0482 96.8718 96.8324 100.524 94.4839C104.954 91.6361 108.386 74.9216 108.758 72.2219C109.363 67.7915 108.335 65.4515 106.219 66.5982C105.394 67.0214 104.412 68.0073 103.299 69.5984C102.187 71.1894 95.6828 81.7301 93.4062 83.9855C92.1241 85.2169 84.9009 84.3537 84.9009 84.3537Z" fill="#455A64"/>
<path d="M84.9009 84.3494L87.2536 97.044C87.2536 97.044 88.8489 97.0101 90.9858 96.807C94.1002 96.5151 98.3613 95.8719 100.524 94.4797C104.954 91.6319 108.39 74.9174 108.758 72.2177C109.181 69.0144 108.758 66.8987 107.705 66.4121C107.459 66.3229 107.197 66.2928 106.938 66.3245C106.679 66.3561 106.431 66.4484 106.215 66.594C105.398 67.0172 104.412 68.0031 103.299 69.5899C102.136 71.2487 95.6828 81.7259 93.4062 83.9771C92.1241 85.2211 84.9009 84.3494 84.9009 84.3494Z" fill="#EBEBEB"/>
<path d="M89.4923 96.2908C89.2003 94.4077 87.7277 86.736 87.2961 85.0984C87.2665 84.9842 87.1861 84.9757 87.203 85.0984C87.9393 90.7686 89.0352 94.467 89.4161 96.2992C89.4172 96.3093 89.4223 96.3186 89.4302 96.3249C89.4382 96.3313 89.4483 96.3342 89.4584 96.3331C89.4685 96.332 89.4777 96.3269 89.4841 96.3189C89.4904 96.311 89.4934 96.3009 89.4923 96.2908Z" fill="#263238"/>
<path d="M108.759 72.2134C108.39 74.9131 104.95 91.6276 100.524 94.4754C99.4322 95.1778 97.7989 95.6898 96.0513 96.0664L106.503 66.4458C106.689 66.3534 106.892 66.3015 107.099 66.2935C107.306 66.2854 107.513 66.3215 107.705 66.3993C108.775 66.8817 109.199 68.9974 108.759 72.2134Z" fill="#263238"/>
<path d="M125.701 91.5049C124.893 91.9222 124.059 92.2868 123.204 92.5966L122.781 92.7363C120.401 93.5217 117.929 93.9926 115.427 94.1369C107.954 94.6362 101.04 92.7067 100.494 91.708L101.696 84.2521L101.759 83.8289L101.92 82.8176C101.92 82.8176 100.227 80.3676 100.265 77.6509C100.278 77.3576 100.323 77.0666 100.401 76.7835C100.426 76.6565 100.464 76.5296 100.506 76.3899C101.167 74.2234 103.092 71.0667 104.708 68.8917C105.232 68.1591 105.812 67.4686 106.443 66.8267C108.242 65.1341 110.142 64.8379 111.97 65.4472C112.804 65.7404 113.585 66.1693 114.28 66.7167C115.979 68.0976 117.395 69.7929 118.452 71.7099C119.679 73.8256 120.932 76.8935 122.045 79.9825C122.087 80.0925 122.121 80.1983 122.159 80.3083C124.182 85.9235 125.701 91.5049 125.701 91.5049Z" fill="#EBEBEB"/>
<path d="M103.659 70.4319C103.16 71.2782 102.61 72.0652 102.09 72.8819C102.301 72.3022 102.513 71.7225 102.737 71.1512C102.368 71.8391 102.069 72.562 101.844 73.3093C101.453 73.9265 101.106 74.5698 100.803 75.2347C100.426 76.0347 100.188 76.8934 100.101 77.7736C100.046 78.6556 100.172 79.5395 100.469 80.3717C100.819 81.3268 101.257 82.2475 101.776 83.1222C101.84 83.2407 102.005 83.1222 101.95 83.0164C101.218 81.455 100.41 79.8131 100.482 78.0444C100.553 76.2756 101.37 74.6592 102.174 73.1654C102.637 72.2391 103.16 71.3443 103.74 70.4869C103.744 70.4319 103.685 70.3938 103.659 70.4319Z" fill="#263238"/>
<path d="M111.141 66.374C111.044 66.7971 108.97 69.7253 106.948 69.6576C106.288 69.6365 106.249 66.0312 106.249 66.0312L106.186 65.7646L105.297 62.0451L109.639 59.1677L110.269 58.7869C110.269 58.7869 110.443 59.8236 110.65 61.11C110.65 61.1692 110.65 61.2284 110.68 61.2962C110.709 61.3639 110.705 61.4358 110.714 61.5035C110.748 61.6939 110.781 61.8928 110.811 62.0874C110.841 62.2821 110.858 62.3837 110.875 62.5402C110.891 62.6968 110.913 62.8533 110.938 63.0099C111.081 64.1254 111.149 65.2493 111.141 66.374Z" fill="#F7A9A0"/>
<path d="M110.65 61.11C110.289 62.1634 109.702 63.1254 108.931 63.9292C108.16 64.733 107.223 65.3593 106.186 65.7646L105.297 62.0451L109.639 59.1677L110.269 58.7869C110.269 58.7869 110.443 59.8236 110.65 61.11Z" fill="#263238"/>
<path d="M99.8555 55.8162C98.8484 62.447 102.708 63.8011 104.138 64.0169C105.437 64.2158 109.884 64.7151 111.573 58.224C113.261 51.7328 110.493 49.1601 107.548 48.555C104.603 47.9499 100.863 49.1812 99.8555 55.8162Z" fill="#F7A9A0"/>
<path d="M100.972 55.3975C101.133 55.3975 101.277 55.3594 101.434 55.3382C101.598 55.3391 101.758 55.2872 101.891 55.1901C101.923 55.1481 101.94 55.0969 101.94 55.0441C101.94 54.9914 101.923 54.9401 101.891 54.8981C101.822 54.819 101.732 54.7599 101.633 54.7271C101.533 54.6944 101.426 54.6891 101.324 54.712C101.108 54.7276 100.905 54.8208 100.752 54.9743C100.72 55.0134 100.699 55.0614 100.693 55.1121C100.688 55.1628 100.697 55.2141 100.721 55.2594C100.745 55.3047 100.781 55.342 100.826 55.3666C100.87 55.3911 100.922 55.4019 100.972 55.3975Z" fill="#263238"/>
<path d="M105.606 55.5539C105.456 55.5185 105.308 55.4747 105.162 55.4227C105.001 55.3977 104.852 55.3204 104.739 55.2027C104.71 55.1582 104.696 55.1052 104.701 55.0523C104.706 54.9993 104.728 54.9494 104.764 54.9107C104.846 54.8446 104.944 54.8015 105.048 54.7859C105.153 54.7702 105.259 54.7826 105.357 54.8218C105.567 54.8688 105.752 54.9944 105.873 55.173C105.901 55.2148 105.915 55.264 105.915 55.3142C105.914 55.3644 105.898 55.4132 105.87 55.4544C105.841 55.4955 105.8 55.527 105.753 55.5447C105.706 55.5625 105.655 55.5657 105.606 55.5539Z" fill="#263238"/>
<path d="M104.518 56.76C104.518 56.76 104.552 56.7854 104.552 56.8066C104.488 57.2593 104.493 57.7883 104.89 57.9829V58.0083C104.387 57.8856 104.387 57.1832 104.518 56.76Z" fill="#263238"/>
<path d="M104.976 56.3282C105.712 56.3282 105.615 57.8219 104.933 57.805C104.252 57.7881 104.358 56.3028 104.976 56.3282Z" fill="#263238"/>
<path d="M105.258 56.4257C105.381 56.5188 105.5 56.6753 105.652 56.7007C105.804 56.7261 105.978 56.5822 106.105 56.4426C106.105 56.4426 106.13 56.4426 106.126 56.4426C106.126 56.7261 105.986 57.0096 105.681 57.0308C105.377 57.0519 105.22 56.7896 105.169 56.5018C105.157 56.4637 105.208 56.3876 105.258 56.4257Z" fill="#263238"/>
<path d="M101.848 56.4171C101.848 56.4171 101.81 56.4171 101.81 56.4552C101.81 56.9122 101.708 57.4369 101.285 57.5639V57.5892C101.797 57.5469 101.907 56.853 101.848 56.4171Z" fill="#263238"/>
<path d="M101.467 55.9178C100.735 55.8205 100.595 57.2889 101.272 57.3819C101.95 57.475 102.081 56.0025 101.467 55.9178Z" fill="#263238"/>
<path d="M101.15 55.9855C101.027 56.0532 100.9 56.1844 100.76 56.1802C100.621 56.176 100.494 56.0025 100.409 55.8417H100.384C100.35 56.121 100.413 56.4214 100.676 56.5018C100.938 56.5822 101.099 56.3537 101.217 56.0786C101.234 56.0406 101.201 55.9602 101.15 55.9855Z" fill="#263238"/>
<path d="M104.129 60.6529C104.019 60.7587 103.904 60.9026 103.739 60.9153C103.569 60.9064 103.402 60.8632 103.249 60.7883C103.249 60.7883 103.223 60.7883 103.249 60.8137C103.312 60.9052 103.399 60.9775 103.5 61.023C103.602 61.0685 103.714 61.0854 103.824 61.0718C103.918 61.0498 104.003 61.0001 104.067 60.9291C104.132 60.8582 104.174 60.7693 104.188 60.6741C104.18 60.6487 104.146 60.6402 104.129 60.6529Z" fill="#263238"/>
<path d="M102.351 58.8418C102.351 58.8418 102.203 59.5146 102.178 59.8362C102.178 59.8658 102.254 59.887 102.364 59.9039C102.635 59.9745 102.921 59.9692 103.19 59.8886C103.458 59.808 103.7 59.6552 103.887 59.4469C103.913 59.4173 103.887 59.3834 103.845 59.4003C103.414 59.6488 102.913 59.7512 102.419 59.6923C102.419 59.5992 102.711 58.5456 102.66 58.5413C102.408 58.5438 102.158 58.5793 101.915 58.6471C102.182 57.238 102.669 55.8797 102.914 54.4706C102.914 54.4608 102.91 54.4514 102.905 54.4436C102.899 54.4359 102.89 54.4302 102.881 54.4274C102.872 54.4246 102.862 54.4248 102.852 54.428C102.843 54.4312 102.835 54.4372 102.83 54.4452C102.257 55.8825 101.832 57.374 101.56 58.8968C101.539 59.0957 102.22 58.9052 102.351 58.8418Z" fill="#263238"/>
<path d="M111.53 58.5881C111.098 58.3768 110.728 58.0572 110.457 57.6604C110.186 57.2637 110.022 56.8033 109.981 56.3242C108.806 55.8068 107.79 54.9842 107.04 53.9419C107.083 54.0815 107.408 55.0844 107.586 55.5879C103.321 54.7797 102.009 51.5087 102.009 51.5087C101.191 52.2584 100.552 53.1825 100.139 54.2127C100.139 54.2127 100.113 51.5934 101.467 49.8415C101.906 49.2332 102.498 48.7524 103.184 48.4483C103.869 48.1442 104.624 48.0277 105.369 48.1108C106.428 47.8567 107.536 47.8941 108.575 48.2189C109.614 48.5437 110.546 49.1439 111.272 49.9558C114.039 52.9686 111.53 58.5881 111.53 58.5881Z" fill="#263238"/>
<path d="M104.362 54.8726C105.046 55.2511 105.784 55.5249 106.549 55.6851C105.348 55.3487 104.265 54.6833 103.422 53.764C103.065 53.3801 102.757 52.9537 102.504 52.4945C102.212 51.9934 102.021 51.4399 101.941 50.8654C101.941 50.8564 101.938 50.8478 101.931 50.8415C101.925 50.8351 101.916 50.8315 101.907 50.8315C101.898 50.8315 101.89 50.8351 101.883 50.8415C101.877 50.8478 101.874 50.8564 101.874 50.8654C101.892 51.444 102.005 52.0157 102.208 52.558C102.435 53.083 102.756 53.562 103.156 53.9713C103.512 54.3334 103.918 54.6426 104.362 54.8896" fill="#263238"/>
<path d="M110.438 58.571C110.438 58.571 112.038 56.5737 112.952 57.1576C113.866 57.7416 112.571 60.6994 111.433 61.0422C111.289 61.0961 111.136 61.1205 110.983 61.114C110.83 61.1075 110.68 61.0701 110.542 61.0041C110.403 60.9381 110.28 60.8449 110.179 60.73C110.077 60.6151 110 60.4809 109.952 60.3355L110.438 58.571Z" fill="#F7A9A0"/>
<path d="M112.558 57.9956V58.0252C111.758 58.2918 111.288 58.99 110.963 59.7178C111.013 59.6424 111.079 59.5788 111.157 59.5314C111.234 59.4841 111.321 59.4542 111.411 59.4437C111.501 59.4332 111.593 59.4425 111.679 59.4708C111.765 59.4992 111.844 59.5459 111.91 59.6078C111.91 59.6078 111.91 59.6544 111.885 59.6501C111.751 59.5965 111.603 59.586 111.463 59.6201C111.323 59.6542 111.197 59.7313 111.102 59.8405C110.94 60.0236 110.798 60.2236 110.679 60.4372C110.637 60.5049 110.514 60.4372 110.548 60.3822C110.62 59.3708 111.483 58.0295 112.558 57.9956Z" fill="#263238"/>
<path d="M117.818 70.4743C121.626 75.9753 125.604 83.9855 125.964 90.3243C126.137 93.4218 120.886 96.4473 118.901 95.5841C114.225 93.553 107.641 88.7164 104.996 85.4623C104.061 84.3156 113.248 75.9922 114.001 77.3844C114.754 78.7765 115.216 79.5932 115.939 80.1137C116.286 80.3676 114.585 77.0628 113.345 71.2571C111.648 63.3273 116.438 68.4855 117.818 70.4743Z" fill="#F7A9A0"/>
<path d="M105.961 64.0383C105.961 64.0383 107.379 62.1425 106.003 61.2793C104.628 60.4161 103.541 62.5234 103.541 62.5234L105.961 64.0383Z" fill="#DD6A57"/>
<path d="M94.7388 76.559L97.1587 78.0764L106.009 63.9623L103.589 62.4449L94.7388 76.559Z" fill="#FFC727"/>
<path d="M103.079 62.7997L105.908 64.5734L106.258 64.0141L103.43 62.2404L103.079 62.7997Z" fill="#37474F"/>
<path d="M102.689 63.4188L105.518 65.1925L105.871 64.6297L103.042 62.856L102.689 63.4188Z" fill="#37474F"/>
<path d="M94.7391 76.555L94.5571 78.8696L94.4937 79.6313L95.158 79.2462L97.1637 78.0741L97.1383 77.5705L96.6771 77.7694L96.6517 77.2659L96.1905 77.4647V76.9654L95.725 77.1601L95.7039 76.6607L95.2384 76.8596V76.3561L94.7391 76.555Z" fill="white"/>
<path d="M94.5571 78.8654L94.4937 79.6313L95.158 79.2462L94.5571 78.8654Z" fill="#37474F"/>
<path d="M99.2583 66.5178C98.4543 67.7238 101.59 69.4503 101.59 69.4503C100.971 69.4512 100.373 69.6683 99.8972 70.0638C99.0848 70.8086 99.8972 72.4081 99.8972 72.4081C99.2524 72.5441 98.663 72.8697 98.2046 73.3432C97.498 74.1345 98.0861 75.861 98.0861 75.861C97.5605 76.3134 97.2151 76.9396 97.1129 77.6255C96.914 79.4705 99.2752 81.07 100.545 82.3479C101.903 83.7147 104.51 84.9715 105.542 85.9659L114.356 78.1079C114.356 78.1079 111.153 70.817 108.517 68.9255C107.032 67.8719 100.477 64.6771 99.2583 66.5178Z" fill="#F7A9A0"/>
<path d="M101.637 69.4206C103.515 70.0046 105.255 71.0328 106.922 72.0442C106.96 72.0696 106.922 72.1246 106.888 72.1034C105.242 71.0752 103.278 70.4658 101.599 69.5095C101.59 69.5024 101.585 69.493 101.582 69.4825C101.58 69.472 101.581 69.4611 101.585 69.4512C101.589 69.4413 101.597 69.433 101.606 69.4275C101.615 69.422 101.626 69.4196 101.637 69.4206Z" fill="#263238"/>
<path d="M99.9989 72.3107C100.415 72.4838 100.806 72.7114 101.163 72.9878C101.556 73.2544 101.945 73.5294 102.33 73.8087C103.101 74.3729 103.857 74.9512 104.599 75.5436C104.628 75.5732 104.599 75.6282 104.56 75.6028C103.79 75.0443 103.016 74.5027 102.225 73.9779L101.027 73.1993C100.635 72.9817 100.267 72.7221 99.9312 72.425C99.9195 72.4145 99.9119 72.4003 99.9095 72.3849C99.9071 72.3694 99.9102 72.3535 99.9181 72.3401C99.9261 72.3266 99.9385 72.3163 99.9533 72.311C99.968 72.3056 99.9841 72.3055 99.9989 72.3107Z" fill="#263238"/>
<path d="M98.0944 75.8864C98.4658 76.0488 98.8076 76.2719 99.1058 76.5465C99.4485 76.8088 99.7955 77.0712 100.147 77.3293C100.845 77.8455 101.539 78.3618 102.262 78.8569C102.301 78.8823 102.262 78.9373 102.229 78.9119C101.501 78.4168 100.765 77.9302 100.041 77.4266C99.6855 77.1812 99.33 76.9315 98.9746 76.6776C98.6322 76.4797 98.3272 76.2234 98.0733 75.9202C98.072 75.9166 98.0715 75.9127 98.0719 75.9089C98.0723 75.9051 98.0736 75.9014 98.0756 75.8981C98.0777 75.8949 98.0804 75.8921 98.0837 75.8901C98.0869 75.888 98.0906 75.8868 98.0944 75.8864Z" fill="#263238"/>
<path d="M109.012 69.3529C108.279 68.516 107.305 67.925 106.224 67.6603C106.177 67.6603 106.177 67.6603 106.224 67.6899C107.216 68.1341 108.147 68.7029 108.996 69.3825C108.996 69.3825 109.025 69.3656 109.012 69.3529Z" fill="#263238"/>
<path d="M104.611 87.1507L114.136 76.9951L115.753 79.6779C115.753 79.6779 113.734 74.4647 113.032 71.1556C112.33 67.8466 112.275 63.962 116.684 68.769C121.008 73.4956 126.611 86.5668 126.471 90.2228C126.332 93.8788 121.77 96.2739 119.417 95.948C117.065 95.6222 104.611 87.1507 104.611 87.1507Z" fill="#EBEBEB"/>
<path d="M107.235 88.1026C108.568 86.7401 113.815 80.9514 114.852 79.6396C114.928 79.5508 114.886 79.483 114.797 79.5677C110.705 83.5622 108.412 86.6597 107.18 88.0646C107.155 88.0857 107.201 88.1407 107.235 88.1026Z" fill="#263238"/>
<path d="M123.217 89.3087C122.646 88.4031 121.99 87.5399 121.364 86.6682C120.737 85.7965 120.094 84.9206 119.438 84.0658C118.782 83.2111 118.071 82.3732 117.369 81.5523C117.022 81.1291 116.341 80.3209 115.985 79.9062C115.63 79.4916 115.604 79.5931 115.939 80.0459C116.273 80.4987 116.912 81.3153 117.234 81.7385C117.86 82.5848 118.478 83.4565 119.125 84.2986C119.772 85.1406 120.45 85.97 121.114 86.8036C121.778 87.6372 122.438 88.5216 123.153 89.3425C123.183 89.3721 123.242 89.3425 123.217 89.3087Z" fill="#263238"/>
<path d="M114.814 76.7031C114.429 75.7087 113.968 74.727 113.671 73.703C113.669 73.6965 113.665 73.6909 113.659 73.687C113.653 73.683 113.647 73.6809 113.64 73.6809C113.633 73.6809 113.626 73.683 113.62 73.687C113.615 73.6909 113.61 73.6965 113.608 73.703C113.832 74.3758 114.031 75.0613 114.221 75.7383C114.202 75.7125 114.183 75.6857 114.166 75.6579C113.997 75.3998 113.841 75.1375 113.68 74.8709C113.659 74.8328 113.604 74.8709 113.625 74.9047C113.773 75.1798 113.917 75.4506 114.048 75.7256C114.146 75.9525 114.268 76.1681 114.412 76.3688C114.458 76.5169 114.505 76.665 114.556 76.792C114.91 77.7936 115.335 78.7692 115.825 79.7117C115.855 79.7667 115.948 79.7117 115.931 79.661C115.592 78.6919 115.199 77.6933 114.814 76.7031Z" fill="#263238"/>
<path d="M114.209 76.9613C114.175 76.9105 113.942 77.1728 113.832 77.3125C113.811 77.3379 113.832 77.3463 113.866 77.3125C113.95 77.2609 114.03 77.2044 114.107 77.1432C114.357 77.6002 115.728 79.7329 115.821 79.8218C115.914 79.9106 115.901 79.8218 115.88 79.7668C115.796 79.5383 114.513 77.4267 114.209 76.9613Z" fill="#263238"/>
<path d="M116.105 94.3865C113.168 92.4104 110.18 90.5062 107.125 88.7121C106.279 88.2212 105.496 87.6881 104.671 87.1718C104.76 87.1083 105.517 86.224 105.555 86.1943L105.53 86.1689C105.441 86.2493 104.447 87.121 104.379 87.2226C104.311 87.3242 107.447 89.2326 108.919 90.1847C110.392 91.1367 111.932 92.0465 113.456 92.9436C114.322 93.4542 115.195 93.9521 116.075 94.4373C116.109 94.4712 116.138 94.4162 116.105 94.3865Z" fill="#263238"/>
<path d="M88.3287 99.46L103.329 99.2399L96.0469 80.0966L81.042 80.3124L88.3287 99.46Z" fill="#EBEBEB"/>
<path d="M87.3 99.4728L102.305 99.257L95.0183 80.1094L80.0176 80.3294L87.3 99.4728Z" fill="#FFC727"/>
<path d="M93.4276 80.1348C93.535 80.4684 93.769 80.7464 94.0793 80.9092C94.2231 80.9854 94.2612 80.795 94.1173 80.7273C93.9259 80.615 93.777 80.4423 93.6942 80.2364C93.6778 80.2026 93.665 80.1671 93.6561 80.1306C93.6155 80.0138 93.6053 79.8886 93.6265 79.7667C93.6411 79.7144 93.6705 79.6674 93.7111 79.6313H93.7577C93.7922 79.6211 93.8289 79.6211 93.8635 79.6313C93.929 79.6519 93.9886 79.6883 94.0369 79.7371C94.1206 79.8323 94.1943 79.9358 94.257 80.046V80.0714C94.2656 80.0831 94.2727 80.0959 94.2781 80.1095C94.28 80.1178 94.28 80.1265 94.2781 80.1348H94.4897C94.4388 80.0041 94.3689 79.8814 94.2824 79.7709C94.2176 79.6725 94.1322 79.5894 94.0321 79.5273C93.932 79.4652 93.8196 79.4256 93.7027 79.4113C93.6175 79.4111 93.5356 79.4434 93.4734 79.5016C93.4113 79.5598 93.3737 79.6394 93.3684 79.7244C93.3538 79.864 93.3741 80.0051 93.4276 80.1348Z" fill="#455A64"/>
<path d="M92.2515 80.1516C92.359 80.4863 92.5949 80.7648 92.9073 80.926C93.0512 81.0021 93.0851 80.8117 92.9454 80.744C92.7408 80.6382 92.5793 80.4648 92.4884 80.2532C92.4752 80.2185 92.4639 80.1832 92.4546 80.1474C92.4118 80.031 92.4015 79.9052 92.4249 79.7835C92.4364 79.7308 92.4646 79.6833 92.5053 79.648H92.535C92.568 79.6377 92.6035 79.6377 92.6365 79.648C92.7036 79.6681 92.7647 79.7044 92.8142 79.7538C92.8735 79.8132 92.9247 79.88 92.9666 79.9527C92.992 79.9866 93.0089 80.0247 93.0343 80.0627V80.0881C93.0359 80.1008 93.0359 80.1136 93.0343 80.1262C93.0343 80.1262 93.0343 80.1262 93.0343 80.1516H93.2459C93.1933 80.0216 93.1235 79.8992 93.0385 79.7877C92.9729 79.6892 92.8867 79.606 92.7859 79.5439C92.6851 79.4819 92.5721 79.4423 92.4546 79.428C92.3696 79.4268 92.2875 79.4589 92.2258 79.5174C92.1642 79.5759 92.1278 79.6562 92.1245 79.7411C92.133 79.8862 92.1765 80.0271 92.2515 80.1516Z" fill="#455A64"/>
<path d="M91.0785 80.1687C91.1859 80.5022 91.4199 80.7802 91.7301 80.943C91.874 81.0192 91.9121 80.8288 91.7682 80.7611C91.5767 80.6488 91.4279 80.4762 91.3451 80.2702C91.3287 80.2364 91.3159 80.2009 91.307 80.1644C91.2664 80.0476 91.2562 79.9224 91.2774 79.8005C91.292 79.7482 91.3214 79.7012 91.362 79.6651H91.3916C91.4261 79.6549 91.4629 79.6549 91.4974 79.6651C91.5623 79.6873 91.6215 79.7234 91.6709 79.7709C91.7546 79.8661 91.8283 79.9696 91.8909 80.0798V80.1052C91.8996 80.1169 91.9067 80.1297 91.9121 80.1433C91.9121 80.1433 91.9121 80.1433 91.9121 80.1687H92.1237C92.0727 80.0379 92.0029 79.9152 91.9163 79.8047C91.8515 79.7063 91.7661 79.6232 91.666 79.5611C91.5659 79.499 91.4535 79.4594 91.3366 79.4451C91.2515 79.4449 91.1695 79.4772 91.1074 79.5354C91.0453 79.5936 91.0077 79.6733 91.0023 79.7582C90.993 79.8992 91.0192 80.0403 91.0785 80.1687Z" fill="#455A64"/>
<path d="M89.9023 80.1857C90.0098 80.5204 90.2457 80.7988 90.5581 80.96C90.702 81.0362 90.7359 80.8458 90.5962 80.7781C90.4043 80.6663 90.2554 80.4935 90.1731 80.2872C90.1599 80.2526 90.1486 80.2173 90.1392 80.1814C90.0964 80.0651 90.0862 79.9393 90.1096 79.8175C90.1211 79.7649 90.1493 79.7174 90.19 79.6821H90.2196C90.2527 79.6717 90.2881 79.6717 90.3212 79.6821C90.3874 79.7041 90.448 79.7402 90.4989 79.7879C90.5582 79.8472 90.6094 79.9141 90.6512 79.9868C90.6749 80.022 90.6961 80.0587 90.7147 80.0968V80.1222C90.7163 80.1348 90.7163 80.1476 90.7147 80.1603C90.7147 80.1603 90.7147 80.1603 90.7147 80.1857H90.9305C90.8779 80.0557 90.8082 79.9333 90.7232 79.8217C90.6575 79.7232 90.5714 79.6401 90.4706 79.578C90.3698 79.5159 90.2567 79.4764 90.1392 79.4621C90.0542 79.4609 89.9721 79.493 89.9105 79.5515C89.8488 79.61 89.8125 79.6903 89.8092 79.7752C89.8072 79.9175 89.8391 80.0582 89.9023 80.1857Z" fill="#455A64"/>
<path d="M88.7303 80.2025C88.8377 80.536 89.0717 80.8141 89.382 80.9768C89.5259 81.053 89.5639 80.8626 89.4201 80.7949C89.2286 80.6826 89.0798 80.51 88.9969 80.304C88.9805 80.2702 88.9677 80.2348 88.9588 80.1982C88.9182 80.0814 88.908 79.9562 88.9292 79.8343C88.9439 79.782 88.9733 79.735 89.0139 79.6989H89.0435C89.078 79.6887 89.1147 79.6887 89.1493 79.6989C89.2141 79.7211 89.2733 79.7572 89.3227 79.8047C89.4064 79.8999 89.4802 80.0034 89.5428 80.1136V80.139C89.5514 80.1508 89.5585 80.1635 89.5639 80.1771C89.5639 80.1771 89.5639 80.1771 89.5639 80.2025H89.7755C89.7246 80.0717 89.6547 79.9491 89.5682 79.8386C89.5034 79.7402 89.418 79.657 89.3179 79.5949C89.2178 79.5328 89.1054 79.4932 88.9885 79.4789C88.9034 79.4787 88.8214 79.511 88.7593 79.5692C88.6971 79.6274 88.6596 79.7071 88.6542 79.792C88.6449 79.933 88.6711 80.0742 88.7303 80.2025Z" fill="#455A64"/>
<path d="M87.5537 80.2195C87.6613 80.5542 87.8971 80.8327 88.2096 80.9938C88.3535 81.07 88.3873 80.8796 88.2477 80.8119C88.047 80.7049 87.8899 80.5313 87.8034 80.321L87.7653 80.2152C87.7259 80.0981 87.7171 79.9728 87.7399 79.8513C87.7514 79.7987 87.7796 79.7512 87.8203 79.7159H87.8457C87.8802 79.7054 87.917 79.7054 87.9515 79.7159C88.0177 79.7379 88.0783 79.774 88.1292 79.8217C88.1885 79.881 88.2397 79.9479 88.2815 80.0206C88.3052 80.0558 88.3264 80.0925 88.345 80.1306V80.156C88.3466 80.1686 88.3466 80.1814 88.345 80.1941C88.345 80.1941 88.345 80.1941 88.345 80.2195H88.5608C88.5073 80.0899 88.4376 79.9677 88.3535 79.8556C88.2878 79.7571 88.2016 79.6739 88.1008 79.6118C88.0001 79.5497 87.887 79.5102 87.7695 79.4959C87.6845 79.4947 87.6024 79.5268 87.5408 79.5853C87.4791 79.6438 87.4428 79.7241 87.4395 79.809C87.444 79.953 87.4832 80.0938 87.5537 80.2195Z" fill="#455A64"/>
<path d="M86.3817 80.2364C86.4891 80.5699 86.7231 80.848 87.0333 81.0108C87.1772 81.0869 87.2153 80.8965 87.0714 80.8288C86.8791 80.7176 86.73 80.5446 86.6483 80.338C86.6319 80.3042 86.6191 80.2687 86.6102 80.2322C86.5696 80.1154 86.5594 79.9901 86.5806 79.8683C86.5952 79.816 86.6246 79.7689 86.6652 79.7329H86.6948C86.7294 79.7226 86.7661 79.7226 86.8006 79.7329C86.8655 79.755 86.9247 79.7911 86.9741 79.8386C87.0578 79.9338 87.1315 80.0374 87.1941 80.1475V80.1729C87.2028 80.1847 87.2099 80.1975 87.2153 80.211C87.2153 80.211 87.2153 80.211 87.2153 80.2364H87.4269C87.375 80.1061 87.3052 79.9836 87.2195 79.8725C87.1548 79.7741 87.0694 79.691 86.9693 79.6289C86.8692 79.5668 86.7567 79.5272 86.6398 79.5128C86.5547 79.5126 86.4727 79.5449 86.4106 79.6031C86.3485 79.6613 86.3109 79.741 86.3055 79.8259C86.2963 79.967 86.3224 80.1081 86.3817 80.2364Z" fill="#455A64"/>
<path d="M85.2056 80.2534C85.3131 80.5881 85.549 80.8665 85.8614 81.0277C86.0053 81.1039 86.0392 80.9135 85.8995 80.8458C85.7 80.7393 85.5431 80.5675 85.4552 80.3592L85.4171 80.2491C85.3777 80.132 85.369 80.0067 85.3918 79.8852C85.4032 79.8326 85.4314 79.7851 85.4722 79.7498H85.4975C85.532 79.7393 85.5688 79.7393 85.6033 79.7498C85.6708 79.771 85.7319 79.8089 85.781 79.8598C85.8411 79.9169 85.8924 79.9825 85.9334 80.0545C85.957 80.0897 85.9782 80.1264 85.9969 80.1645V80.1899C85.9985 80.2025 85.9985 80.2153 85.9969 80.228C85.9969 80.228 85.9969 80.228 85.9969 80.2534H86.2127C86.1601 80.122 86.0904 79.9982 86.0053 79.8852C85.9397 79.7867 85.8535 79.7036 85.7527 79.6415C85.6519 79.5794 85.5389 79.5398 85.4214 79.5255C85.3364 79.5244 85.2543 79.5565 85.1926 79.615C85.131 79.6735 85.0946 79.7537 85.0913 79.8387C85.0952 79.9841 85.1344 80.1264 85.2056 80.2534Z" fill="#455A64"/>
<path d="M84.0252 80.2702C84.1326 80.6038 84.3666 80.8818 84.6769 81.0446C84.8207 81.1208 84.8588 80.9303 84.715 80.8626C84.5238 80.7519 84.3749 80.5807 84.2918 80.376C84.2747 80.341 84.2619 80.3041 84.2537 80.266C84.2131 80.1492 84.2029 80.0239 84.2241 79.9021C84.2378 79.8506 84.2674 79.8047 84.3087 79.7709H84.3383C84.3729 79.7607 84.4096 79.7607 84.4441 79.7709C84.5101 79.7928 84.5697 79.8306 84.6176 79.8809C84.6777 79.938 84.729 80.0036 84.77 80.0756C84.795 80.1107 84.8176 80.1474 84.8377 80.1856V80.211C84.8391 80.2236 84.8391 80.2364 84.8377 80.2491C84.8377 80.2491 84.8377 80.2491 84.8377 80.2745H85.0493C84.9975 80.1428 84.9277 80.0189 84.8419 79.9063C84.7771 79.8079 84.6917 79.7248 84.5916 79.6627C84.4915 79.6006 84.3791 79.561 84.2622 79.5466C84.1771 79.5465 84.0951 79.5788 84.033 79.6369C83.9709 79.6951 83.9333 79.7748 83.9279 79.8598C83.9252 80.0026 83.9587 80.1438 84.0252 80.2702Z" fill="#455A64"/>
<path d="M82.8571 80.2871C82.9646 80.6218 83.2005 80.9003 83.513 81.0615C83.6568 81.1376 83.6907 80.9472 83.551 80.8795C83.3515 80.7731 83.1946 80.6012 83.1067 80.3929L83.0686 80.2871C83.0294 80.1685 83.0207 80.0419 83.0433 79.919C83.0537 79.8671 83.0822 79.8207 83.1237 79.7878H83.1787C83.2132 79.7773 83.25 79.7773 83.2845 79.7878C83.352 79.809 83.4131 79.8468 83.4622 79.8978C83.5222 79.9549 83.5735 80.0205 83.6145 80.0924C83.6381 80.1276 83.6594 80.1644 83.678 80.2025V80.2279C83.6796 80.2405 83.6796 80.2533 83.678 80.2659C83.678 80.2659 83.678 80.2659 83.678 80.2913H83.8938C83.8403 80.1604 83.7707 80.0368 83.6865 79.9232C83.6208 79.8247 83.5346 79.7415 83.4338 79.6794C83.333 79.6174 83.22 79.5778 83.1025 79.5635C83.0175 79.5623 82.9354 79.5944 82.8738 79.6529C82.8121 79.7114 82.7757 79.7917 82.7724 79.8766C82.7679 80.0182 82.7968 80.1589 82.8571 80.2871Z" fill="#455A64"/>
<path d="M81.6847 80.304C81.7921 80.6376 82.0261 80.9156 82.3364 81.0784C82.4803 81.1546 82.5184 80.9642 82.3745 80.8964C82.2569 80.8379 82.1533 80.7546 82.0708 80.6524C81.9883 80.5502 81.9288 80.4313 81.8963 80.304C81.8559 80.1857 81.8457 80.0592 81.8667 79.9359C81.8786 79.8836 81.9086 79.8371 81.9513 79.8047H81.981C82.0155 79.7945 82.0522 79.7945 82.0867 79.8047C82.1527 79.8266 82.2123 79.8644 82.2602 79.9147C82.3203 79.9718 82.3716 80.0374 82.4126 80.1094C82.4376 80.1445 82.4602 80.1813 82.4803 80.2194V80.2448C82.4889 80.2566 82.496 80.2693 82.5014 80.2829C82.5014 80.2829 82.5014 80.2829 82.5014 80.3083H82.713C82.6612 80.1766 82.5914 80.0527 82.5057 79.9401C82.4409 79.8417 82.3555 79.7586 82.2554 79.6965C82.1553 79.6344 82.0429 79.5948 81.9259 79.5804C81.8408 79.5803 81.7589 79.6126 81.6967 79.6708C81.6346 79.7289 81.597 79.8086 81.5916 79.8936C81.5876 80.0361 81.6196 80.1772 81.6847 80.304Z" fill="#455A64"/>
<path d="M80.5083 80.321C80.6159 80.6558 80.8517 80.9342 81.1642 81.0954C81.308 81.1716 81.3419 80.9811 81.2023 80.9134C81.0027 80.807 80.8459 80.6352 80.7579 80.4268L80.7199 80.321C80.6807 80.2024 80.6719 80.0758 80.6945 79.9529C80.705 79.9011 80.7334 79.8546 80.7749 79.8217H80.8003C80.8347 79.8112 80.8716 79.8112 80.9061 79.8217C80.972 79.8436 81.0316 79.8814 81.0795 79.9317C81.1422 79.9874 81.1951 80.0532 81.2361 80.1264C81.2597 80.1616 81.281 80.1983 81.2996 80.2364V80.2618C81.3012 80.2744 81.3012 80.2872 81.2996 80.2999C81.2996 80.2999 81.2996 80.2999 81.2996 80.3253H81.5154C81.4619 80.1944 81.3923 80.0707 81.308 79.9571C81.2424 79.8586 81.1562 79.7755 81.0554 79.7134C80.9546 79.6513 80.8416 79.6117 80.7241 79.5974C80.6391 79.5963 80.557 79.6284 80.4954 79.6869C80.4337 79.7454 80.3973 79.8256 80.394 79.9106C80.3986 80.0546 80.4378 80.1954 80.5083 80.321Z" fill="#455A64"/>
<path d="M80.9952 85.0011C80.3985 86.6937 78.6763 88.9195 78.6594 90.2609C78.643 90.5907 78.7334 90.917 78.9171 91.1913C79.1008 91.4657 79.368 91.6736 79.6792 91.7842C79.6792 91.7842 78.4097 92.584 78.6128 93.8026C78.7059 94.4331 79.7934 94.8309 79.7934 94.8309C79.52 95.027 79.3059 95.2946 79.1745 95.6044C79.0431 95.9142 78.9996 96.2541 79.0487 96.587C79.2306 97.4333 80.2927 97.7168 80.2927 97.7168C80.2927 97.7168 79.6623 98.8085 80.1277 99.621C81.0756 101.267 88.5442 100.467 89.4074 97.5983C89.8094 96.2569 87.9941 96.5531 87.9941 96.5531C87.9941 96.5531 90.5034 95.4995 90.3764 93.955C90.2495 92.4105 87.9179 92.9352 87.9179 92.9352C87.9179 92.9352 90.3384 91.8942 90.0337 90.3074C89.729 88.6529 87.4948 89.5754 87.4948 89.5754C87.4948 89.5754 89.0351 88.2721 88.5357 87.1084C87.6894 85.1873 84.8289 88.0224 83.1448 87.8066L81.9515 85.1957L80.9952 85.0011Z" fill="#F7A9A0"/>
<path d="M79.747 87.5145C80.1702 85.8515 77.9825 84.0912 78.1602 82.4367C78.4014 80.2109 81.0799 82.0812 81.9686 85.1872L82.2309 87.7261L79.747 87.5145Z" fill="#F7A9A0"/>
<path d="M79.7554 94.8521C79.73 94.8521 79.73 94.8986 79.7554 94.9029C82.6468 95.272 85.575 94.5951 88.0111 92.9944C88.0957 92.9352 88.1084 92.7998 88.0111 92.859C86.31 93.8704 82.1843 94.8098 79.7554 94.8521Z" fill="#263238"/>
<path d="M87.6385 89.3975C85.2434 90.9378 82.5945 91.5598 79.7848 91.8053C79.7467 91.8053 79.7551 91.8603 79.7848 91.8645C81.1896 92.1184 82.9669 91.7756 84.3252 91.3906C85.5943 91.0599 86.7543 90.4019 87.6892 89.4822C87.7315 89.4441 87.6935 89.3637 87.6385 89.3975Z" fill="#263238"/>
<path d="M-10.3374 132.792C-10.3374 132.792 -6.69407 125.983 -1.15078 124.93C4.3925 123.876 7.79041 129.584 7.79041 129.584C7.79041 129.584 3.74508 134.747 -1.34543 135.648C-6.43595 136.549 -10.3374 132.792 -10.3374 132.792Z" fill="#FFC727"/>
<path d="M2.55628 127.981C1.11294 127.786 -0.35109 127.803 -1.78949 128.031C-1.70486 127.985 -1.62446 127.938 -1.54406 127.9L-0.312686 127.265C0.533616 126.821 1.37992 126.351 2.28969 125.996C2.2933 125.994 2.29656 125.992 2.29926 125.989C2.30195 125.986 2.30405 125.983 2.30542 125.979C2.3068 125.975 2.30743 125.971 2.30727 125.967C2.30711 125.963 2.30617 125.959 2.3045 125.956C2.30284 125.952 2.30048 125.949 2.29755 125.946C2.29463 125.944 2.2912 125.941 2.28747 125.94C2.28374 125.939 2.27977 125.938 2.2758 125.938C2.27182 125.938 2.26792 125.939 2.26431 125.941C1.418 126.364 0.499764 126.682 -0.371927 127.084C-0.795079 127.282 -1.21823 127.507 -1.64138 127.718C-1.9122 127.862 -2.21687 127.998 -2.48768 128.171C-3.70443 128.417 -4.88666 128.811 -6.0083 129.343L-5.31857 128.586C-4.79809 128.023 -4.29031 127.426 -3.72329 126.914C-3.69367 126.885 -3.72329 126.842 -3.76984 126.868C-4.34955 127.397 -4.96312 127.883 -5.52591 128.433C-5.80801 128.699 -6.07037 128.974 -6.31297 129.259C-6.43992 129.398 -6.56686 129.546 -6.68958 129.682C-8.59819 130.7 -10.257 132.13 -11.5463 133.867C-12.8356 135.604 -13.7234 137.606 -14.1455 139.727C-14.1455 139.765 -14.099 139.787 -14.0863 139.748C-13.3056 137.154 -11.9073 134.787 -10.0113 132.851C-7.97263 130.771 -5.40503 129.286 -2.58501 128.556C-0.911013 128.13 0.819977 127.971 2.54358 128.086C2.61975 128.095 2.62822 127.989 2.55628 127.981Z" fill="#263238"/>
<path opacity="0.1" d="M7.78164 129.58C7.78164 129.58 3.73631 134.743 -1.3542 135.644C-5.2345 136.334 -8.42506 134.307 -9.72414 133.312L-10.0034 132.851C-10.0034 132.851 -7.37988 130.638 -2.41208 129.364C2.55572 128.091 7.78164 129.58 7.78164 129.58Z" fill="black"/>
<path d="M2.38196 126.703C2.17462 126.792 1.95881 126.864 1.75993 126.948L1.14213 127.206C1.09981 127.206 1.14213 127.295 1.16329 127.278L1.78109 127.029C1.98843 126.944 2.20424 126.847 2.39889 126.766C2.43697 126.749 2.41581 126.69 2.38196 126.703Z" fill="#263238"/>
<path d="M-13.6757 125.518C-13.6757 125.518 -16.7816 111.888 -2.13633 106.37C-2.13633 106.37 1.93439 124.316 -13.6757 125.518Z" fill="#FFC727"/>
</g>
<rect x="0.5" y="0.5" width="129" height="129" rx="64.5" stroke="white"/>
</g>
<defs>
<filter id="filter0_i_116_5282" x="0" y="0" width="134" height="134" filterUnits="userSpaceOnUse" color-interpolation-filters="sRGB">
<feFlood flood-opacity="0" result="BackgroundImageFix"/>
<feBlend mode="normal" in="SourceGraphic" in2="BackgroundImageFix" result="shape"/>
<feColorMatrix in="SourceAlpha" type="matrix" values="0 0 0 0 0 0 0 0 0 0 0 0 0 0 0 0 0 0 127 0" result="hardAlpha"/>
<feOffset dx="4" dy="4"/>
<feGaussianBlur stdDeviation="7.5"/>
<feComposite in2="hardAlpha" operator="arithmetic" k2="-1" k3="1"/>
<feColorMatrix type="matrix" values="0 0 0 0 0 0 0 0 0 0 0 0 0 0 0 0 0 0 0.15 0"/>
<feBlend mode="normal" in2="shape" result="effect1_innerShadow_116_5282"/>
</filter>
<clipPath id="clip0_116_5282">
<rect width="130" height="130" rx="65" fill="white"/>
</clipPath>
</defs>
</svg>
