<svg width="130" height="130" viewBox="0 0 130 130" fill="none" xmlns="http://www.w3.org/2000/svg">
<g filter="url(#filter0_i_116_4873)">
<g clip-path="url(#clip0_116_4873)">
<rect width="130" height="130" rx="65" fill="white"/>
<path d="M68.3789 156.323H-68.211C-69.2811 156.321 -70.3066 155.894 -71.0626 155.137C-71.8186 154.38 -72.2432 153.353 -72.2432 152.283V-39.7235C-72.2338 -40.7874 -71.8052 -41.8046 -71.0502 -42.5543C-70.2952 -43.304 -69.275 -43.7255 -68.211 -43.7273H68.3789C69.4501 -43.7273 70.4775 -43.3017 71.235 -42.5442C71.9925 -41.7867 72.4181 -40.7594 72.4181 -39.6881V152.283C72.4181 153.355 71.9925 154.382 71.235 155.14C70.4775 155.897 69.4501 156.323 68.3789 156.323ZM-68.211 -43.5858C-69.2342 -43.5839 -70.2148 -43.1762 -70.9376 -42.4521C-71.6604 -41.7279 -72.0663 -40.7466 -72.0663 -39.7235V152.283C-72.0663 153.307 -71.6604 154.288 -70.9376 155.012C-70.2148 155.736 -69.2342 156.144 -68.211 156.146H68.3789C69.4027 156.144 70.384 155.736 71.1079 155.012C71.8318 154.289 72.2394 153.307 72.2412 152.283V-39.7235C72.2394 -40.7473 71.8318 -41.7286 71.1079 -42.4525C70.384 -43.1764 69.4027 -43.5839 68.3789 -43.5858H-68.211Z" fill="#EBEBEB"/>
<path d="M221.395 156.323H84.798C83.7273 156.321 82.701 155.895 81.9439 155.137C81.1868 154.38 80.7607 153.354 80.7588 152.283V-39.7235C80.77 -40.788 81.2002 -41.8053 81.9563 -42.5547C82.7124 -43.3042 83.7334 -43.7255 84.798 -43.7273H221.395C222.458 -43.7236 223.476 -43.3013 224.23 -42.5518C224.983 -41.8023 225.411 -40.7861 225.42 -39.7235V152.283C225.42 153.352 224.996 154.377 224.242 155.135C223.488 155.892 222.464 156.319 221.395 156.323ZM84.798 -43.5858C83.7742 -43.5839 82.7929 -43.1764 82.069 -42.4525C81.345 -41.7286 80.9375 -40.7473 80.9356 -39.7235V152.283C80.9375 153.307 81.345 154.289 82.069 155.012C82.7929 155.736 83.7742 156.144 84.798 156.146H221.395C222.419 156.144 223.4 155.736 224.124 155.012C224.848 154.289 225.255 153.307 225.257 152.283V-39.7235C225.255 -40.7473 224.848 -41.7286 224.124 -42.4525C223.4 -43.1764 222.419 -43.5839 221.395 -43.5858H84.798Z" fill="#EBEBEB"/>
<path d="M-33.025 187.872H60.7891L60.7891 101.797L-33.025 101.797L-33.025 187.872Z" fill="#F5F5F5"/>
<path d="M-29.5652 184.534H57.3306L57.3306 105.136L-29.5652 105.136L-29.5652 184.534Z" fill="#EBEBEB"/>
<path d="M-28.1522 115.4L55.9141 115.4V106.699L-28.1522 106.699V115.4Z" fill="#F5F5F5"/>
<path d="M-28.1522 140.201H55.9141V116.461L-28.1522 116.461V140.201Z" fill="#F5F5F5"/>
<path d="M38.3348 119.884H-10.567C-10.7546 119.884 -10.9346 119.81 -11.0672 119.677C-11.1999 119.545 -11.2744 119.365 -11.2744 119.177C-11.2744 118.989 -11.1999 118.809 -11.0672 118.677C-10.9346 118.544 -10.7546 118.47 -10.567 118.47H38.3348C38.5224 118.47 38.7024 118.544 38.835 118.677C38.9677 118.809 39.0422 118.989 39.0422 119.177C39.0422 119.365 38.9677 119.545 38.835 119.677C38.7024 119.81 38.5224 119.884 38.3348 119.884Z" fill="#FAFAFA"/>
<path d="M38.3348 110.123H-10.567C-10.7546 110.123 -10.9346 110.049 -11.0672 109.916C-11.1999 109.783 -11.2744 109.603 -11.2744 109.416C-11.2744 109.228 -11.1999 109.048 -11.0672 108.915C-10.9346 108.783 -10.7546 108.708 -10.567 108.708H38.3348C38.5224 108.708 38.7024 108.783 38.835 108.915C38.9677 109.048 39.0422 109.228 39.0422 109.416C39.0422 109.603 38.9677 109.783 38.835 109.916C38.7024 110.049 38.5224 110.123 38.3348 110.123Z" fill="#FAFAFA"/>
<path d="M-47.7037 78.8915L70.7134 78.8915V40.6854L-47.7037 40.6854V78.8915Z" fill="#F0F0F0"/>
<path d="M67.3672 75.5379V44.0166L-44.365 44.0166V75.5379H67.3672Z" fill="#E6E6E6"/>
<path d="M67.3672 75.5379V44.0166H51.3165V75.5379H67.3672Z" fill="#E0E0E0"/>
<path d="M47.0293 75.5464H54.0112V46.5646H47.0293V75.5464Z" fill="#F0F0F0"/>
<path d="M47.0306 46.5645H28.3696V75.5462H47.0306V46.5645Z" fill="#E0E0E0"/>
<path d="M40.833 75.5464H44.7661V49.8823H40.833V75.5464Z" fill="#FAFAFA"/>
<path d="M40.8316 49.8749H30.3198V75.539H40.8316V49.8749Z" fill="#EBEBEB"/>
<path d="M28.8696 75.5458H34.6915L38.0516 51.3601H32.2227L28.8696 75.5458Z" fill="#FAFAFA"/>
<path d="M28.8697 75.5458H13.293L16.6531 51.3601H32.2227L28.8697 75.5458Z" fill="#EBEBEB"/>
<path d="M23.501 75.5454V68.5635H-5.48079V75.5454H23.501Z" fill="#E6E6E6"/>
<path d="M21.7183 68.5635V63.1237H-7.2635V68.5635H21.7183Z" fill="#F0F0F0"/>
<path d="M-47.7037 30.7324L70.7134 30.7324V-7.47371L-47.7037 -7.47371V30.7324Z" fill="#F0F0F0"/>
<path d="M67.3672 27.3941V-4.1272L-44.3651 -4.1272V27.3941L67.3672 27.3941Z" fill="#E6E6E6"/>
<path d="M67.373 27.3941V-4.1272L51.3224 -4.1272V27.3941H67.373Z" fill="#E0E0E0"/>
<path d="M10.7116 27.4012H16.7881L16.7881 8.97375H10.7116L10.7116 27.4012Z" fill="#F0F0F0"/>
<path d="M10.7199 8.96655H1.70068V27.3941H10.7199V8.96655Z" fill="#E0E0E0"/>
<path d="M4.04889 27.4012H7.47266L7.47266 5.06188H4.04889L4.04889 27.4012Z" fill="#FAFAFA"/>
<path d="M4.04158 5.05408H-5.10498V27.3934H4.04158V5.05408Z" fill="#EBEBEB"/>
<path d="M54.4839 27.3937H59.5559L62.4774 6.3418H57.4054L54.4839 27.3937Z" fill="#F0F0F0"/>
<path d="M54.4838 27.3937H40.9302L43.8517 6.3418H57.4053L54.4838 27.3937Z" fill="#E0E0E0"/>
<path d="M50.4102 27.372V22.0807H28.4457V27.372H50.4102Z" fill="#FAFAFA"/>
<path d="M28.4399 27.372V22.0807H20.3262V27.372H28.4399Z" fill="#E0E0E0"/>
<path d="M27.731 26.771V22.6823H20.3317V26.771H27.731Z" fill="#F5F5F5"/>
<path d="M117.571 0.916138H200.597L204.155 187.872H121.136L117.571 0.916138Z" fill="#F5F5F5"/>
<path d="M201.056 173.937L198.021 14.4418C197.968 11.5864 196.796 8.86617 194.757 6.86602C192.719 4.86587 189.977 3.74559 187.121 3.74609H131.569C130.12 3.74584 128.686 4.03445 127.35 4.59505C126.014 5.15566 124.803 5.977 123.788 7.01107C122.773 8.04514 121.974 9.27117 121.439 10.6175C120.903 11.9638 120.641 13.4034 120.668 14.8521L123.703 174.347C123.757 177.203 124.929 179.923 126.968 181.923C129.006 183.923 131.748 185.044 134.604 185.043H190.162C191.611 185.043 193.045 184.755 194.381 184.194C195.717 183.633 196.927 182.812 197.941 181.778C198.956 180.744 199.754 179.517 200.289 178.171C200.823 176.825 201.084 175.385 201.056 173.937Z" fill="#F0F0F0"/>
<path d="M117.569 0.916138H115.985L119.543 187.872H121.135L117.569 0.916138Z" fill="#E6E6E6"/>
<path d="M52.107 112.281C52.107 112.281 99.1272 110.703 99.2828 129.456C99.5021 156.4 102.431 189.853 102.431 189.853L90.589 191.607C90.589 191.607 82.5247 159.499 82.6733 138.461C69.4522 134.726 35.1155 137.159 31.0692 126.202C27.7657 117.232 29.4917 112.281 29.4917 112.281H52.107Z" fill="#263238"/>
<path opacity="0.3" d="M71.385 118.061C71.385 118.061 69.9702 128.785 74.8583 137.054C77.4983 137.327 80.1137 137.8 82.682 138.469C82.6783 140.513 82.7869 142.556 83.0074 144.588C90.8736 132.852 84.4363 119.539 71.385 118.061Z" fill="black"/>
<path d="M36.1139 112.281C36.1139 112.281 83.0633 116.724 81.3868 130.857C78.918 151.237 77.7013 195.166 77.7013 195.166L65.7323 195.64C65.7323 195.64 60.6603 156.026 63.2847 135.144C51.1388 135.144 21.3931 136.014 18.6767 128.693C16.2857 122.227 17.1417 112.281 17.1417 112.281H36.1139Z" fill="#263238"/>
<path d="M56.4108 70.0433L56.814 73.2973C56.9555 74.4009 57.1111 75.5044 57.2809 76.6008C57.6346 78.8008 57.9883 80.9937 58.434 83.1442C58.8796 85.2947 59.3606 87.3885 59.9407 89.44C60.4693 91.3544 61.1799 93.2139 62.0629 94.993C62.3978 95.6648 62.8084 96.2961 63.2867 96.8746C63.3574 96.9595 63.5059 97.101 63.6545 97.2425C63.8031 97.384 63.9587 97.5254 64.1143 97.6669C64.4397 97.9428 64.8217 98.2257 65.1825 98.5016C66.865 99.6683 68.6502 100.679 70.5162 101.522C74.5587 103.33 78.7013 104.906 82.9238 106.24L82.1598 111.093C79.7373 111.012 77.3225 110.776 74.9303 110.386C73.7419 110.202 72.5464 109.975 71.3933 109.678C70.2403 109.381 69.0024 109.112 67.8139 108.752C65.3085 108.047 62.8887 107.067 60.5986 105.83C59.9787 105.489 59.3766 105.116 58.7947 104.713C58.4976 104.5 58.2005 104.295 57.9034 104.048C57.5809 103.802 57.2716 103.54 56.9767 103.262C55.8489 102.171 54.8691 100.937 54.0623 99.591C52.7221 97.3051 51.6267 94.8842 50.7941 92.3686C50 90.028 49.327 87.648 48.7781 85.2381C48.2405 82.8683 47.7665 80.4986 47.4199 78.1217C47.236 76.9333 47.0733 75.7449 46.9177 74.5848C46.762 73.4247 46.6488 72.2292 46.5498 70.9346L56.4108 70.0433Z" fill="#B55B52"/>
<path d="M46.4924 65.3181C51.2956 60.6847 57.2094 63.4223 59.572 72.109C60.9098 76.766 61.8237 81.5343 62.3026 86.3559L47.1008 89.4967C44.3278 81.2061 41.5831 70.0718 46.4924 65.3181Z" fill="#407BFF"/>
<path opacity="0.3" d="M51.3997 74.8029C50.3104 73.8267 47.2261 78.2055 45.3374 83.6312C45.875 85.6543 46.4834 87.6491 47.0988 89.5025L56.2454 87.6067C55.5097 82.1881 53.8261 77.0029 51.3997 74.8029Z" fill="black"/>
<path d="M81.9889 105.002L85.6107 105.228L82.7175 111.878C82.7175 111.878 76.4712 111.729 76.6057 108.659L77.7304 107.188C78.2475 106.545 78.8938 106.019 79.6274 105.642C80.361 105.266 81.1655 105.048 81.9889 105.002Z" fill="#B55B52"/>
<path d="M89.5582 105.766L86.4316 111.878H82.7178L85.611 105.229L89.5582 105.766Z" fill="#B55B52"/>
<path d="M47.0561 60.6697L39.77 58.59L30.4042 58.1373C28.9829 58.0718 27.5794 58.4743 26.409 59.2831C25.2385 60.092 24.3657 61.2625 23.9245 62.615C22.1348 68.062 20.4936 75.9494 19.2981 82.7544C17.9541 90.3801 17.2538 101.854 17.1123 112.274H52.1069C52.9062 90.5357 55.6438 77.6825 56.8959 70.5378C57.1365 69.1447 56.9149 67.711 56.2648 66.4556C55.6147 65.2001 54.5719 64.1917 53.2953 63.5842L47.0561 60.6697Z" fill="#407BFF"/>
<path opacity="0.3" d="M22.8082 66.3934C21.457 71.3452 20.2403 77.4075 19.2712 82.7624C18.4015 88.2286 17.8277 93.7378 17.5522 99.2658C23.3175 98.6929 29.684 92.0575 31.7 83.1232C33.7161 74.4082 29.0403 65.3394 22.8082 66.3934Z" fill="black"/>
<path d="M42.6783 46.7562L45.5079 51.0784L49.3632 56.9709C48.8645 57.4739 48.4617 58.0636 48.1747 58.7111C47.4674 60.1259 46.8873 61.1941 49.8654 63.2243C50.1871 63.4284 50.4426 63.7215 50.6009 64.0682C50.7591 64.4148 50.8133 64.7999 50.7567 65.1767C50.5869 66.0963 49.6673 66.9876 46.4487 66.4217C43.3522 65.8263 40.5269 64.2575 38.3845 61.9439C37.3092 60.8757 37.5568 60.0693 38.5896 58.9587C41.497 55.8179 42.3883 50.8025 42.6783 46.7562Z" fill="#B55B52"/>
<path opacity="0.2" d="M48.416 55.5204L46.0533 51.3185L45.8906 51.6651C45.6813 52.1894 45.5111 52.7285 45.3813 53.278C44.9498 55.1384 46.3999 57.8053 47.9915 59.0715L48.1755 58.7107C48.4573 58.1052 48.8241 57.5431 49.2648 57.0413C49.2942 57.011 49.3275 56.9849 49.3639 56.9635L48.416 55.5204Z" fill="black"/>
<path d="M47.3333 72.1579C47.2874 72.1529 47.2445 72.1326 47.2116 72.1002C47.1787 72.0678 47.1577 72.0253 47.152 71.9794C47.1462 71.9336 47.1561 71.8872 47.1801 71.8477C47.204 71.8082 47.2405 71.7779 47.2838 71.7618L47.7861 71.6415C50.3468 71.0827 56.3455 69.774 55.8008 46.7556C55.8008 46.7024 55.8214 46.6512 55.8584 46.6129C55.8953 46.5747 55.9457 46.5522 55.9989 46.5504C56.0521 46.5504 56.1032 46.571 56.1415 46.608C56.1797 46.6449 56.2022 46.6953 56.204 46.7485C56.7558 70.0924 50.5449 71.4576 47.8709 72.0377C47.6941 72.0377 47.5314 72.1084 47.3899 72.1509L47.3333 72.1579Z" fill="#263238"/>
<path d="M61.7069 40.347C60.6741 37.2627 56.9674 39.3142 56.9674 39.3142C56.9674 39.3142 56.9179 45.7726 58.9056 47.4279C60.8934 49.0832 62.7185 43.4595 61.7069 40.347Z" fill="#263238"/>
<path d="M43.6752 39.1016C42.5363 45.5105 41.553 49.1889 43.9228 53.2989C44.6861 54.6336 45.7975 55.736 47.1384 56.4882C48.4794 57.2405 49.9994 57.6145 51.5363 57.5702C53.0733 57.5259 54.5693 57.065 55.8646 56.2367C57.16 55.4084 58.2061 54.2439 58.8912 52.8674C61.6005 47.5832 63.0011 38.0122 57.4764 33.7678C56.3073 32.8321 54.9131 32.2194 53.4331 31.991C51.953 31.7626 50.439 31.9265 49.0422 32.4664C47.6453 33.0062 46.4146 33.9031 45.4728 35.0674C44.531 36.2317 43.9112 37.6227 43.6752 39.1016Z" fill="#B55B52"/>
<path d="M42.4657 42.8715C40.7396 45.6162 45.0477 46.6207 45.0477 46.6207C45.0477 46.6207 50.2045 42.7371 50.3106 40.1552C50.4167 37.5732 43.838 40.6928 42.4657 42.8715Z" fill="#263238"/>
<path d="M40.7888 43.9049C39.94 43.1975 39.0062 40.5023 39.7207 38.1326C40.4351 35.7628 42.7129 33.1808 44.7644 34.0226C45.5283 31.8368 56.026 29.1487 59.5347 34.0226C63.6234 39.7171 61.48 42.6457 58.0775 40.4386L51.8524 38.4226L40.7888 43.9049Z" fill="#263238"/>
<path d="M59.4433 39.9218C57.7809 41.8884 51.4781 41.4427 51.4781 41.4427L53.5437 39.1791C52.1687 40.1973 50.4645 40.6687 48.7617 40.5019C45.6704 40.3251 47.3469 37.1489 47.3469 37.1489C47.3469 37.1489 62.57 36.208 59.4433 39.9218Z" fill="#263238"/>
<path d="M40.2224 43.7415C40.1601 45.1557 40.621 46.5433 41.5169 47.6392C42.6912 49.054 44.5021 47.9222 44.9265 46.182C45.3014 44.6187 44.8133 42.1923 43.2712 41.4425C41.7291 40.6926 40.3002 41.9872 40.2224 43.7415Z" fill="#B55B52"/>
<path d="M39.6082 39.6745C39.4478 38.614 39.513 37.5315 39.7994 36.4978C40.0859 35.4642 40.5872 34.5026 41.2705 33.6759C40.6905 33.8103 38.8725 32.7421 42.2185 30.5067C45.5644 28.2714 52.511 27.6772 55.9701 29.382C62.7469 32.7067 60.8723 36.6398 60.8723 36.6398L39.6082 39.6745Z" fill="#407BFF"/>
<path opacity="0.3" d="M39.6082 39.6745C39.4478 38.614 39.513 37.5315 39.7994 36.4978C40.0859 35.4642 40.5872 34.5026 41.2705 33.6759C40.6905 33.8103 38.8725 32.7421 42.2185 30.5067C45.5644 28.2714 52.511 27.6772 55.9701 29.382C62.7469 32.7067 60.8723 36.6398 60.8723 36.6398L39.6082 39.6745Z" fill="black"/>
<path d="M39.7432 43.7072C40.9174 43.7496 42.0563 40.2056 52.0093 38.4159C56.0273 37.7085 60.2362 38.9818 61.4105 40.142C62.5848 41.3021 62.033 37.4892 61.6086 36.124C61.1841 34.7587 54.9662 33.6693 50.927 34.1574C43.9168 34.9992 39.7078 38.5715 39.1277 39.4699C38.5477 40.3683 38.6679 43.6789 39.7432 43.7072Z" fill="#407BFF"/>
<path d="M43.4074 44.6977C43.5416 44.9797 43.5628 45.3024 43.4668 45.5996C43.3708 45.8969 43.1648 46.1461 42.891 46.2964C42.3746 46.4591 41.7662 46.0205 41.5328 45.306C41.3986 45.024 41.3773 44.7013 41.4733 44.4041C41.5693 44.1069 41.7753 43.8576 42.0492 43.7073C42.5656 43.5446 43.1739 43.9903 43.4074 44.6977Z" fill="#263238"/>
<path d="M44.2415 111.574C43.0248 111.574 42.2184 111.248 41.7727 110.576C40.6834 108.949 42.0769 105.589 43.5554 102.031C44.9702 98.7064 46.3849 95.2614 45.9888 92.8988C45.2814 88.3927 45.9322 82.7053 46.5688 77.2089C46.7811 75.3979 46.9791 73.6719 47.1277 72.0308C44.3901 69.2012 41.6313 65.5723 43.0814 58.1022C44.0435 53.1505 43.8313 49.0476 42.4518 45.8644C42.4402 45.8409 42.4335 45.8152 42.4322 45.789C42.4309 45.7627 42.435 45.7365 42.4443 45.7119C42.4536 45.6874 42.4679 45.665 42.4862 45.6462C42.5045 45.6274 42.5266 45.6126 42.5509 45.6027C42.5997 45.5808 42.6552 45.579 42.7054 45.5975C42.7556 45.616 42.7966 45.6534 42.8197 45.7017C44.2345 48.9698 44.4538 53.1647 43.4776 58.1801C42.0628 65.5157 44.7933 69.0668 47.4814 71.8115C47.5184 71.8572 47.5362 71.9156 47.5309 71.9742C47.3823 73.6648 47.1843 75.4121 46.965 77.2584C46.3354 82.7265 45.6775 88.3856 46.3849 92.8209C46.7811 95.2968 45.3309 98.7913 43.9232 102.173C42.5155 105.554 41.1361 108.893 42.1052 110.343C42.4731 110.895 43.1734 111.164 44.2274 111.164C44.2799 111.164 44.3303 111.184 44.3674 111.222C44.4046 111.259 44.4255 111.309 44.4255 111.362C44.4255 111.414 44.4046 111.465 44.3674 111.502C44.3303 111.539 44.2799 111.56 44.2274 111.56L44.2415 111.574Z" fill="#263238"/>
<path d="M53.4429 45.0289C53.2802 45.5312 53.4429 46.0334 53.733 46.1537C54.023 46.2739 54.4404 45.9627 54.6101 45.4463C54.7799 44.9299 54.6526 44.4418 54.3272 44.3216C54.0018 44.2013 53.6056 44.5267 53.4429 45.0289Z" fill="#263238"/>
<path d="M60.2188 47.4675C60.3702 46.9623 60.2261 46.4727 59.8967 46.3739C59.5674 46.2752 59.1777 46.6047 59.0262 47.1099C58.8747 47.6151 59.0189 48.1047 59.3482 48.2034C59.6775 48.3022 60.0673 47.9727 60.2188 47.4675Z" fill="#263238"/>
<path d="M57.1236 46.8191C57.1005 48.3142 57.2766 49.8058 57.6471 51.2544C56.6426 51.6223 55.5249 50.7522 55.5249 50.7522L57.1236 46.8191Z" fill="#A02724"/>
<path d="M54.1226 53.5038C53.543 53.3098 53.0082 53.0013 52.5501 52.5967C52.092 52.192 51.7198 51.6995 51.4558 51.1482C51.4416 51.1106 51.4426 51.069 51.4584 51.0321C51.4742 50.9952 51.5037 50.9658 51.5407 50.9501C51.5597 50.9421 51.5801 50.9378 51.6008 50.9377C51.6215 50.9376 51.6419 50.9417 51.661 50.9496C51.6801 50.9575 51.6975 50.9691 51.712 50.9838C51.7266 50.9984 51.7381 51.0159 51.7458 51.035C52.0392 51.6305 52.4654 52.1506 52.9916 52.5553C53.5177 52.96 54.1297 53.2385 54.7805 53.3694C54.8208 53.3779 54.8561 53.4021 54.8786 53.4365C54.9012 53.471 54.9091 53.513 54.9008 53.5533C54.8923 53.5936 54.8681 53.6289 54.8336 53.6515C54.7992 53.674 54.7572 53.682 54.7168 53.6736C54.5156 53.6287 54.3172 53.572 54.1226 53.5038Z" fill="#263238"/>
<path d="M52.9283 42.8652C52.8824 42.8397 52.8435 42.8032 52.8151 42.7591C52.7932 42.7249 52.7784 42.6866 52.7715 42.6466C52.7646 42.6065 52.7658 42.5655 52.7751 42.526C52.7843 42.4864 52.8013 42.4491 52.8252 42.4162C52.8491 42.3834 52.8793 42.3556 52.9141 42.3347C53.3184 42.0625 53.7833 41.8938 54.268 41.8432C54.7527 41.7927 55.2424 41.8618 55.6942 42.0446C55.7345 42.0599 55.7713 42.0833 55.8021 42.1136C55.833 42.1438 55.8572 42.1801 55.8732 42.2201C55.8892 42.2602 55.8968 42.3032 55.8953 42.3463C55.8939 42.3895 55.8834 42.4318 55.8647 42.4707C55.846 42.5096 55.8194 42.5442 55.7866 42.5723C55.7538 42.6003 55.7156 42.6213 55.6742 42.6338C55.6329 42.6463 55.5895 42.65 55.5466 42.6448C55.5038 42.6396 55.4625 42.6255 55.4254 42.6035C55.069 42.4668 54.685 42.4179 54.3057 42.461C53.9265 42.5041 53.5632 42.6379 53.2466 42.851C53.1995 42.8812 53.1452 42.8983 53.0893 42.9008C53.0334 42.9033 52.9779 42.891 52.9283 42.8652Z" fill="#263238"/>
<path d="M60.15 43.8483C60.1362 43.7974 60.1362 43.7436 60.15 43.6927C60.1814 43.617 60.2413 43.5568 60.3168 43.525C60.3922 43.4932 60.4772 43.4925 60.5532 43.5229C61.0074 43.6999 61.4109 43.9861 61.728 44.3563C62.0451 44.7265 62.2661 45.1691 62.3712 45.6451C62.3728 45.7201 62.3472 45.7931 62.2992 45.8507C62.2513 45.9083 62.1841 45.9467 62.1101 45.9588C62.036 45.9708 61.9602 45.9557 61.8964 45.9163C61.8326 45.8769 61.7852 45.8157 61.7629 45.7441C61.6725 45.3717 61.4934 45.0267 61.2409 44.7385C60.9884 44.4503 60.67 44.2274 60.3127 44.0888C60.2669 44.0666 60.2277 44.0326 60.1991 43.9904C60.1705 43.9482 60.1536 43.8992 60.15 43.8483Z" fill="#263238"/>
<path d="M33.7152 67.8495C33.1281 68.9106 32.4843 70.1202 31.876 71.2662C31.2676 72.4122 30.6663 73.6076 30.0863 74.8031C28.9191 77.1587 27.8226 79.5285 26.8252 81.877C25.8494 84.1766 25.0317 86.54 24.3776 88.9509C24.099 90.0098 23.9004 91.088 23.7834 92.1766C23.6632 93.1175 23.833 94.1361 23.7834 93.9168C24.1155 94.4864 24.5757 94.9708 25.1275 95.3316C26.0133 95.9901 26.9609 96.561 27.957 97.0364C30.2438 98.1329 32.6082 99.0597 35.0309 99.8094C37.4785 100.58 40.0817 101.288 42.6354 101.995C45.1891 102.703 47.8842 103.254 50.4591 103.82L49.9781 108.708C44.3276 108.618 38.6961 108.028 33.1493 106.947C30.2579 106.392 27.4184 105.594 24.6606 104.563C23.1349 103.987 21.6685 103.264 20.2819 102.405C18.4862 101.343 16.9855 99.8473 15.9173 98.055C15.5939 97.4645 15.3354 96.8407 15.1462 96.1946L15.0118 95.7065L14.934 95.3245C14.8703 95.0628 14.835 94.8223 14.7925 94.5676C14.6594 93.6424 14.6003 92.708 14.6157 91.7734C14.6525 90.1304 14.8395 88.4943 15.1745 86.8854C15.7777 83.9564 16.62 81.0819 17.6928 78.2906C18.7044 75.5742 19.8574 72.9568 21.0954 70.3961C21.7179 69.1134 22.3616 67.8471 23.0265 66.5974C23.6915 65.3241 24.3635 64.1357 25.1487 62.827L33.7152 67.8495Z" fill="#B55B52"/>
<path d="M28.3332 58.2583C34.926 57.2539 38.1659 62.913 35.0675 71.3592C33.4595 75.9292 31.4423 80.3447 29.0406 84.552L14.8291 78.3199C17.3757 69.9586 21.5705 59.2841 28.3332 58.2583Z" fill="#407BFF"/>
<path d="M51.0314 103.877L54.9787 105.228L49.7369 110.236C49.7369 110.236 43.335 107.937 44.6437 105.157L46.2565 104.238C46.9824 103.845 47.7828 103.61 48.6055 103.548C49.4283 103.486 50.2549 103.598 51.0314 103.877Z" fill="#B55B52"/>
<path d="M59.6264 107.889L53.7055 111.376L49.7441 110.237L54.9788 105.229L59.6264 107.889Z" fill="#B55B52"/>
<path d="M152.763 111.673H5.89453V116.455H152.763V111.673Z" fill="#407BFF"/>
<path opacity="0.6" d="M152.763 111.673H5.89453V116.455H152.763V111.673Z" fill="white"/>
<path opacity="0.5" d="M5.88667 116.454H35.1938V111.673H5.88667V116.454Z" fill="#407BFF"/>
<path d="M112.986 110.088H43.7818C43.3621 110.09 42.9602 110.257 42.6634 110.554C42.3667 110.851 42.1991 111.253 42.1973 111.672H114.577C114.576 111.251 114.407 110.848 114.109 110.551C113.81 110.254 113.407 110.088 112.986 110.088Z" fill="#407BFF"/>
<path d="M122.139 77.7109H74.8499C74.5471 77.7262 74.2566 77.8352 74.0184 78.0227C73.7802 78.2102 73.6061 78.4671 73.52 78.7578L65.7387 107.931C65.694 108.051 65.68 108.182 65.6981 108.309C65.7161 108.437 65.7656 108.558 65.842 108.662C65.9185 108.766 66.0195 108.849 66.1361 108.904C66.2526 108.959 66.3811 108.984 66.5098 108.977H113.82C114.124 108.968 114.416 108.861 114.655 108.673C114.893 108.484 115.064 108.224 115.143 107.931L122.924 78.7578C122.969 78.6357 122.983 78.5042 122.965 78.3753C122.946 78.2464 122.895 78.1243 122.817 78.0201C122.739 77.9159 122.636 77.833 122.517 77.779C122.399 77.725 122.269 77.7015 122.139 77.7109Z" fill="#407BFF"/>
<path opacity="0.2" d="M73.52 78.7575L65.7387 107.93C65.694 108.051 65.68 108.181 65.6981 108.309C65.7161 108.437 65.7656 108.558 65.842 108.662C65.9185 108.765 66.0195 108.849 66.1361 108.904C66.2526 108.959 66.3811 108.984 66.5098 108.977L74.8287 77.7106C74.5296 77.7302 74.2438 77.8411 74.0098 78.0283C73.7757 78.2155 73.6048 78.47 73.52 78.7575Z" fill="black"/>
<path opacity="0.2" d="M63.9778 110.088H43.7818C43.3621 110.09 42.9602 110.257 42.6634 110.554C42.3667 110.851 42.1991 111.253 42.1973 111.672H65.5411C65.5394 111.256 65.3747 110.857 65.0825 110.561C64.7903 110.265 64.3938 110.095 63.9778 110.088Z" fill="black"/>
<path d="M36.2338 211.811H39.0634L35.0949 189.953H37.5637V187.123H34.5644L22.2416 119.256H24.0596V116.427H17.0282V119.256H18.8603L6.53758 187.123H3.5524V189.953H6.02119L2.05273 211.811H4.88229L8.85075 189.953H32.3007L36.2338 211.811ZM9.35299 187.137L20.5651 125.417L31.7702 187.137H9.35299Z" fill="#407BFF"/>
<path d="M152.726 209.208H155.556L151.588 189.953H154.056V187.123H151.071L138.748 119.256H140.531V116.427H133.5V119.256H135.318L122.995 187.123H120.017V189.953H122.486L118.517 209.208H121.347L125.315 189.953H148.758L152.726 209.208ZM125.846 187.137L137.051 125.417L148.263 187.137H125.846Z" fill="#407BFF"/>
<path d="M139.661 110.088H121.523C121.238 110.088 121.007 110.319 121.007 110.604V111.156C121.007 111.441 121.238 111.672 121.523 111.672H139.661C139.946 111.672 140.177 111.441 140.177 111.156V110.604C140.177 110.319 139.946 110.088 139.661 110.088Z" fill="#263238"/>
<path opacity="0.9" d="M89.3152 72.2427C89.1859 72.2445 89.0578 72.2188 88.9392 72.1673C88.8207 72.1158 88.7144 72.0397 88.6275 71.9441C88.5405 71.8485 88.4749 71.7354 88.4349 71.6125C88.3949 71.4896 88.3815 71.3596 88.3955 71.2311L91.3029 38.5214C91.3322 38.2474 91.4604 37.9934 91.6636 37.8071C91.8667 37.6209 92.1309 37.5152 92.4064 37.5099H132.218C132.348 37.5081 132.476 37.5338 132.594 37.5853C132.713 37.6367 132.819 37.7128 132.906 37.8085C132.993 37.9041 133.059 38.0171 133.099 38.14C133.139 38.2629 133.152 38.3929 133.138 38.5214L130.231 71.2311C130.201 71.5052 130.073 71.7592 129.87 71.9454C129.667 72.1317 129.403 72.2374 129.127 72.2427H89.3152Z" fill="#263238"/>
<path d="M122.902 47.6887H99.8628L99.9406 46.8398H122.98L122.902 47.6887Z" fill="white"/>
<path d="M126.517 49.0476H102.112L102.183 48.1987H126.595L126.517 49.0476Z" fill="#407BFF"/>
<path d="M122.216 50.406H101.992L102.062 49.5571H122.287L122.216 50.406Z" fill="#407BFF"/>
<path d="M119.98 51.7632H101.871L101.942 50.9143H120.058L119.98 51.7632Z" fill="#407BFF"/>
<path d="M114.28 53.9781H99.3115L99.3822 53.1222H114.351L114.28 53.9781Z" fill="white"/>
<path d="M117.458 57.1962H101.386L101.315 58.0521H117.38L117.458 57.1962Z" fill="#407BFF"/>
<path d="M114.826 55.8392H101.506L101.436 56.6952H114.749L114.826 55.8392Z" fill="#407BFF"/>
<path d="M116.297 54.4805H101.626L101.555 55.3364H116.219L116.297 54.4805Z" fill="#407BFF"/>
<path d="M113.354 64.3335H98.3853L98.4631 63.4846H113.431L113.354 64.3335Z" fill="white"/>
<path d="M116.535 67.5602H100.464L100.386 68.409H116.458L116.535 67.5602Z" fill="#407BFF"/>
<path d="M113.905 66.2017H100.585L100.514 67.0505H113.827L113.905 66.2017Z" fill="#407BFF"/>
<path d="M115.377 64.8435H100.706L100.635 65.6924H115.299L115.377 64.8435Z" fill="#407BFF"/>
<path d="M107.313 41.3585H95.1597L95.2304 40.5026H107.39L107.313 41.3585Z" fill="white"/>
<path d="M109.844 44.5764H96.7922L96.7144 45.4324H109.766L109.844 44.5764Z" fill="white"/>
<path d="M107.722 43.218H96.9128L96.835 44.074H107.651L107.722 43.218Z" fill="white"/>
<path d="M108.938 41.8607H97.0324L96.9546 42.7167H108.867L108.938 41.8607Z" fill="white"/>
<path d="M117.095 61.2714H101.023L100.945 62.1273H117.017L117.095 61.2714Z" fill="#407BFF"/>
<path d="M114.463 59.9132H101.143L101.065 60.7692H114.386L114.463 59.9132Z" fill="#407BFF"/>
<path d="M115.936 58.5547H101.265L101.194 59.4106H115.859L115.936 58.5547Z" fill="#407BFF"/>
<path d="M145.284 32.968H118.75C118.516 32.9714 118.284 32.925 118.069 32.8318C117.854 32.7387 117.661 32.601 117.503 32.4278C117.345 32.2546 117.226 32.0499 117.153 31.8272C117.08 31.6045 117.056 31.3689 117.081 31.1359L119.076 8.70455C119.126 8.22467 119.35 7.77977 119.706 7.45392C120.061 7.12807 120.524 6.94385 121.007 6.93608H147.534C147.768 6.93274 148.001 6.97916 148.216 7.07229C148.431 7.16542 148.623 7.30314 148.781 7.47632C148.939 7.64951 149.058 7.85422 149.131 8.07693C149.204 8.29964 149.228 8.53527 149.203 8.76822L147.209 31.1996C147.16 31.6788 146.937 32.1237 146.583 32.4496C146.228 32.7756 145.766 32.9601 145.284 32.968ZM121.007 7.64347C120.7 7.65013 120.406 7.7678 120.18 7.97466C119.954 8.18151 119.81 8.46349 119.776 8.76822L117.788 31.1996C117.772 31.3356 117.785 31.4736 117.826 31.6042C117.868 31.7348 117.937 31.855 118.029 31.9565C118.12 32.0528 118.229 32.1295 118.351 32.1818C118.473 32.2341 118.604 32.261 118.736 32.2606H145.27C145.576 32.2538 145.869 32.1359 146.094 31.9289C146.319 31.7219 146.461 31.44 146.494 31.1359L148.489 8.70455C148.502 8.56924 148.486 8.43275 148.444 8.30369C148.401 8.17463 148.332 8.05581 148.241 7.95472C148.151 7.85675 148.042 7.77851 147.92 7.72494C147.798 7.67137 147.667 7.64363 147.534 7.64347H121.007Z" fill="#407BFF"/>
<path d="M148.455 13.6216H119.028C118.934 13.6216 118.844 13.5843 118.777 13.518C118.711 13.4516 118.674 13.3617 118.674 13.2679C118.674 13.1741 118.711 13.0841 118.777 13.0178C118.844 12.9514 118.934 12.9142 119.028 12.9142H148.455C148.549 12.9142 148.639 12.9514 148.705 13.0178C148.771 13.0841 148.809 13.1741 148.809 13.2679C148.807 13.3611 148.769 13.45 148.703 13.516C148.637 13.5819 148.548 13.6198 148.455 13.6216Z" fill="#407BFF"/>
<path d="M124.262 32.9687H124.227C124.181 32.9652 124.136 32.9524 124.094 32.9312C124.053 32.9099 124.017 32.8806 123.987 32.845C123.957 32.8094 123.935 32.7682 123.922 32.7238C123.908 32.6795 123.904 32.6328 123.909 32.5867L125.628 13.2326C125.638 13.1406 125.684 13.0563 125.755 12.9971C125.826 12.9378 125.917 12.9082 126.01 12.9142C126.056 12.9178 126.101 12.9305 126.143 12.9517C126.185 12.9728 126.222 13.002 126.252 13.0375C126.282 13.073 126.305 13.1142 126.319 13.1586C126.333 13.203 126.339 13.2497 126.335 13.2962L124.609 32.6716C124.594 32.7535 124.552 32.8278 124.489 32.882C124.425 32.9361 124.346 32.9668 124.262 32.9687Z" fill="#407BFF"/>
<path d="M145.001 15.9202H129.028C128.935 15.9202 128.845 15.8829 128.778 15.8166C128.712 15.7502 128.675 15.6603 128.675 15.5665C128.675 15.4727 128.712 15.3827 128.778 15.3164C128.845 15.25 128.935 15.2128 129.028 15.2128H145.001C145.095 15.2128 145.185 15.25 145.251 15.3164C145.318 15.3827 145.355 15.4727 145.355 15.5665C145.355 15.6603 145.318 15.7502 145.251 15.8166C145.185 15.8829 145.095 15.9202 145.001 15.9202Z" fill="#407BFF"/>
<path d="M142.498 18.7428H128.775C128.681 18.741 128.592 18.7031 128.526 18.6372C128.461 18.5713 128.423 18.4823 128.421 18.3891C128.421 18.2953 128.458 18.2053 128.524 18.139C128.591 18.0727 128.681 18.0354 128.775 18.0354H142.498C142.592 18.0354 142.682 18.0727 142.748 18.139C142.814 18.2053 142.852 18.2953 142.852 18.3891C142.852 18.4829 142.814 18.5729 142.748 18.6392C142.682 18.7055 142.592 18.7428 142.498 18.7428Z" fill="#407BFF"/>
<path d="M136.506 21.6509H128.506C128.412 21.6509 128.322 21.6136 128.255 21.5473C128.189 21.481 128.152 21.391 128.152 21.2972C128.152 21.2034 128.189 21.1134 128.255 21.0471C128.322 20.9808 128.412 20.9435 128.506 20.9435H136.492C136.585 20.9453 136.674 20.9831 136.74 21.0491C136.806 21.115 136.844 21.2039 136.846 21.2972C136.846 21.3886 136.81 21.4765 136.747 21.5424C136.684 21.6083 136.597 21.6472 136.506 21.6509Z" fill="#407BFF"/>
<path d="M137.765 27.331H128.01C127.917 27.331 127.827 27.2938 127.76 27.2275C127.694 27.1611 127.657 27.0712 127.657 26.9774C127.659 26.8841 127.696 26.7952 127.762 26.7293C127.828 26.6633 127.917 26.6255 128.01 26.6237H137.765C137.859 26.6255 137.948 26.6633 138.013 26.7293C138.079 26.7952 138.117 26.8841 138.119 26.9774C138.119 27.0238 138.11 27.0698 138.092 27.1127C138.074 27.1556 138.048 27.1946 138.015 27.2275C137.983 27.2603 137.944 27.2864 137.901 27.3041C137.858 27.3219 137.812 27.331 137.765 27.331Z" fill="#407BFF"/>
<path d="M135.742 30.2454H127.756C127.662 30.2454 127.572 30.2081 127.505 30.1418C127.439 30.0754 127.402 29.9855 127.402 29.8917C127.402 29.7979 127.439 29.7079 127.505 29.6416C127.572 29.5752 127.662 29.538 127.756 29.538H135.742C135.836 29.538 135.926 29.5752 135.992 29.6416C136.058 29.7079 136.096 29.7979 136.096 29.8917C136.096 29.9855 136.058 30.0754 135.992 30.1418C135.926 30.2081 135.836 30.2454 135.742 30.2454Z" fill="#407BFF"/>
<path d="M143.226 24.4728H128.264C128.171 24.4728 128.081 24.4355 128.014 24.3692C127.948 24.3028 127.911 24.2129 127.911 24.1191C127.911 24.0253 127.948 23.9353 128.014 23.869C128.081 23.8026 128.171 23.7654 128.264 23.7654H143.226C143.319 23.7654 143.409 23.8026 143.476 23.869C143.542 23.9353 143.579 24.0253 143.579 24.1191C143.579 24.2129 143.542 24.3028 143.476 24.3692C143.409 24.4355 143.319 24.4728 143.226 24.4728Z" fill="#407BFF"/>
<path d="M90.4046 30.7678C90.309 30.7676 90.2174 30.7294 90.1499 30.6617C90.0851 30.5956 90.0488 30.5067 90.0488 30.4141C90.0488 30.3215 90.0851 30.2327 90.1499 30.1665L91.9184 28.3981L90.1499 26.6367C90.1169 26.6037 90.0908 26.5645 90.0729 26.5214C90.0551 26.4784 90.0459 26.4322 90.0459 26.3855C90.0459 26.3389 90.0551 26.2927 90.0729 26.2496C90.0908 26.2065 90.1169 26.1674 90.1499 26.1344C90.1829 26.1014 90.222 26.0753 90.2651 26.0574C90.3082 26.0396 90.3544 26.0304 90.401 26.0304C90.4477 26.0304 90.4938 26.0396 90.5369 26.0574C90.58 26.0753 90.6192 26.1014 90.6521 26.1344L92.6682 28.1505C92.7335 28.2178 92.77 28.3078 92.77 28.4016C92.77 28.4953 92.7335 28.5854 92.6682 28.6527L90.6521 30.6617C90.62 30.695 90.5816 30.7216 90.5391 30.7398C90.4966 30.758 90.4508 30.7675 90.4046 30.7678Z" fill="#263238"/>
<path d="M84.3644 30.7678C84.3182 30.7675 84.2724 30.758 84.2299 30.7398C84.1874 30.7216 84.1489 30.695 84.1168 30.6617L82.1008 28.6527C82.0355 28.5854 81.999 28.4953 81.999 28.4016C81.999 28.3078 82.0355 28.2178 82.1008 28.1505L84.1168 26.1344C84.1498 26.1014 84.189 26.0753 84.232 26.0574C84.2751 26.0396 84.3213 26.0304 84.368 26.0304C84.4146 26.0304 84.4608 26.0396 84.5039 26.0574C84.5469 26.0753 84.5861 26.1014 84.6191 26.1344C84.6521 26.1674 84.6782 26.2065 84.6961 26.2496C84.7139 26.2927 84.7231 26.3389 84.7231 26.3855C84.7231 26.4322 84.7139 26.4784 84.6961 26.5214C84.6782 26.5645 84.6521 26.6037 84.6191 26.6367L82.8506 28.3981L84.6191 30.1665C84.6839 30.2327 84.7202 30.3215 84.7202 30.4141C84.7202 30.5067 84.6839 30.5956 84.6191 30.6617C84.5516 30.7294 84.46 30.7676 84.3644 30.7678Z" fill="#263238"/>
<path d="M86.6276 30.7688C86.5877 30.7755 86.5471 30.7755 86.5073 30.7688C86.4204 30.7355 86.3502 30.6693 86.3118 30.5845C86.2734 30.4998 86.2699 30.4033 86.3022 30.316L87.8089 26.2839C87.8422 26.1971 87.9084 26.1268 87.9932 26.0884C88.0779 26.05 88.1743 26.0466 88.2616 26.0788C88.3498 26.1107 88.4217 26.1763 88.4615 26.2612C88.5013 26.3461 88.5057 26.4433 88.4739 26.5315L86.96 30.5636C86.9317 30.6273 86.8848 30.6809 86.8254 30.7175C86.7661 30.7541 86.6972 30.772 86.6276 30.7688Z" fill="#263238"/>
<path d="M129.487 82.9673C129.439 82.9753 129.39 82.9731 129.342 82.9609C129.295 82.9488 129.25 82.9268 129.212 82.8966L127.195 80.8805C127.13 80.8132 127.094 80.7231 127.094 80.6294C127.094 80.5356 127.13 80.4456 127.195 80.3783L129.212 78.3693C129.244 78.3361 129.284 78.3098 129.327 78.2918C129.37 78.2739 129.416 78.2646 129.463 78.2646C129.509 78.2646 129.556 78.2739 129.599 78.2918C129.642 78.3098 129.681 78.3361 129.714 78.3693C129.779 78.4354 129.815 78.5243 129.815 78.6169C129.815 78.7094 129.779 78.7983 129.714 78.8644L127.945 80.6329L129.714 82.3943C129.779 82.4616 129.816 82.5517 129.816 82.6454C129.816 82.7392 129.779 82.8293 129.714 82.8966C129.648 82.945 129.569 82.9699 129.487 82.9673Z" fill="#407BFF"/>
<path d="M119.557 2.74877C119.461 2.74854 119.37 2.71038 119.302 2.64267C119.237 2.57655 119.201 2.48766 119.201 2.39508C119.201 2.3025 119.237 2.21361 119.302 2.14749L121.071 0.379019L119.302 -1.38238C119.236 -1.44898 119.198 -1.53932 119.198 -1.63351C119.198 -1.7277 119.236 -1.81802 119.302 -1.88463C119.369 -1.95123 119.459 -1.98865 119.553 -1.98865C119.648 -1.98865 119.738 -1.95123 119.805 -1.88463L121.821 0.131434C121.886 0.198742 121.922 0.288811 121.922 0.38256C121.922 0.476308 121.886 0.566372 121.821 0.63368L119.805 2.64267C119.772 2.67598 119.734 2.70254 119.691 2.72076C119.649 2.73898 119.603 2.74851 119.557 2.74877Z" fill="#407BFF"/>
<path d="M113.516 2.74877C113.422 2.74745 113.334 2.70931 113.268 2.64267L111.252 0.63368C111.187 0.566372 111.15 0.476308 111.15 0.38256C111.15 0.288811 111.187 0.198742 111.252 0.131434L113.268 -1.88463C113.335 -1.95123 113.425 -1.98865 113.519 -1.98865C113.614 -1.98865 113.704 -1.95123 113.77 -1.88463C113.837 -1.81802 113.874 -1.7277 113.874 -1.63351C113.874 -1.53932 113.837 -1.44898 113.77 -1.38238L112.002 0.379019L113.77 2.14749C113.835 2.21361 113.872 2.3025 113.872 2.39508C113.872 2.48766 113.835 2.57655 113.77 2.64267C113.703 2.71038 113.611 2.74854 113.516 2.74877Z" fill="#407BFF"/>
<path d="M115.773 2.74911H115.653C115.566 2.7158 115.496 2.6496 115.457 2.56486C115.419 2.48012 115.415 2.38366 115.448 2.29638L116.954 -1.73574C116.988 -1.8226 117.054 -1.89284 117.139 -1.93124C117.223 -1.96963 117.32 -1.9731 117.407 -1.94088C117.495 -1.90896 117.567 -1.84334 117.607 -1.75844C117.647 -1.67355 117.651 -1.57633 117.619 -1.48815L116.106 2.54397C116.077 2.60763 116.03 2.66125 115.971 2.69785C115.912 2.73444 115.843 2.75231 115.773 2.74911Z" fill="#407BFF"/>
</g>
<rect x="0.5" y="0.5" width="129" height="129" rx="64.5" stroke="white"/>
</g>
<defs>
<filter id="filter0_i_116_4873" x="0" y="0" width="134" height="134" filterUnits="userSpaceOnUse" color-interpolation-filters="sRGB">
<feFlood flood-opacity="0" result="BackgroundImageFix"/>
<feBlend mode="normal" in="SourceGraphic" in2="BackgroundImageFix" result="shape"/>
<feColorMatrix in="SourceAlpha" type="matrix" values="0 0 0 0 0 0 0 0 0 0 0 0 0 0 0 0 0 0 127 0" result="hardAlpha"/>
<feOffset dx="4" dy="4"/>
<feGaussianBlur stdDeviation="7.5"/>
<feComposite in2="hardAlpha" operator="arithmetic" k2="-1" k3="1"/>
<feColorMatrix type="matrix" values="0 0 0 0 0 0 0 0 0 0 0 0 0 0 0 0 0 0 0.15 0"/>
<feBlend mode="normal" in2="shape" result="effect1_innerShadow_116_4873"/>
</filter>
<clipPath id="clip0_116_4873">
<rect width="130" height="130" rx="65" fill="white"/>
</clipPath>
</defs>
</svg>
