<svg width="74" height="74" viewBox="0 0 74 74" fill="none" xmlns="http://www.w3.org/2000/svg">
<path d="M17.9478 14.9932L15.6392 16.9678L18.7208 20.5709L21.0295 18.5964L17.9478 14.9932Z" fill="#263238"/>
<path d="M19.9433 14.7132L15.1925 18.7942L11.8612 14.9121C13.1714 13.073 14.734 11.6851 16.6047 10.8311L19.9433 14.7132Z" fill="#455A64"/>
<path d="M15.9931 18.1103C15.9664 18.1345 15.1633 17.2513 14.1976 16.1425C13.232 15.0337 12.4701 14.1165 12.4992 14.0923C12.5283 14.068 13.329 14.9512 14.2947 16.06C15.2604 17.1689 16.0198 18.0884 15.9931 18.1103Z" fill="#263238"/>
<path d="M16.8908 17.3338C16.6989 17.147 16.5205 16.9467 16.3571 16.7345C16.0368 16.3584 15.6025 15.8367 15.1245 15.2544L13.9113 13.7598L13.5474 13.3061C13.46 13.1945 13.4139 13.1435 13.4139 13.1363C13.4625 13.0926 14.2704 14.0122 15.2264 15.1744C15.7117 15.7567 16.129 16.288 16.4396 16.6787C16.609 16.8833 16.76 17.1026 16.8908 17.3338Z" fill="#263238"/>
<path d="M18.1041 16.2977C17.9092 16.1115 17.7283 15.9112 17.563 15.6984C17.2403 15.3175 16.8036 14.7861 16.3231 14.1965L15.11 12.6777L14.746 12.2142C14.6989 12.159 14.6567 12.0997 14.6199 12.0371C14.8283 12.2093 15.0156 12.4056 15.1779 12.6219C15.5055 12.9979 15.9471 13.5269 16.425 14.1165C16.903 14.7061 17.3325 15.2471 17.6382 15.6426C17.8116 15.8475 17.9674 16.0667 18.1041 16.2977Z" fill="#263238"/>
<path d="M19.1982 15.3273C19.1716 15.3491 18.3733 14.4586 17.4149 13.3377C16.4565 12.2167 15.7043 11.2874 15.731 11.2632C15.7577 11.2389 16.5536 12.1318 17.5119 13.2552C18.4703 14.3786 19.2249 15.3054 19.1982 15.3273Z" fill="#263238"/>
<path d="M58.6031 17.4462L56.5044 15.25L53.0768 18.5255L55.1755 20.7217L58.6031 17.4462Z" fill="#263238"/>
<path d="M58.7036 19.6071L54.3799 15.082L58.0752 11.5518C59.9774 12.7649 61.4477 14.2522 62.3964 16.0768L58.7036 19.6071Z" fill="#455A64"/>
<path d="M55.1029 15.8413C55.0787 15.8146 55.9158 14.9654 56.9736 13.9439C58.0315 12.9224 58.9147 12.1145 58.9317 12.1387C58.9486 12.163 58.1188 13.0122 57.061 14.0361C56.0031 15.06 55.1272 15.8655 55.1029 15.8413Z" fill="#263238"/>
<path d="M55.9277 16.703C56.1002 16.4993 56.2884 16.3095 56.4906 16.1353C56.8473 15.7956 57.3471 15.3322 57.9028 14.8227L59.3318 13.5294L59.7662 13.1412C59.8705 13.049 59.9214 13.0029 59.9287 13.0005C59.9748 13.0466 59.0989 13.9031 57.9877 14.9173C57.432 15.4244 56.9225 15.8878 56.5489 16.2008C56.3553 16.3843 56.1477 16.5522 55.9277 16.703Z" fill="#263238"/>
<path d="M57.0245 17.8505C57.1991 17.6448 57.3898 17.4533 57.5947 17.2778C57.9562 16.9357 58.4633 16.4699 59.0287 15.9604L60.4845 14.6647L60.9285 14.2765C60.9827 14.2283 61.0394 14.1829 61.0983 14.1406C60.9379 14.3583 60.7522 14.5563 60.5451 14.7302C60.186 15.0772 59.6789 15.5455 59.116 16.055C58.5531 16.5645 58.0339 17.0255 57.6602 17.3458C57.4616 17.5301 57.2491 17.6988 57.0245 17.8505Z" fill="#263238"/>
<path d="M58.0508 18.8962C58.0265 18.8696 58.8757 18.0276 59.9458 17.011C61.0158 15.9944 61.9038 15.1937 61.928 15.2204C61.9523 15.2471 61.1031 16.089 60.0331 17.1032C58.9631 18.1174 58.0751 18.9181 58.0508 18.8962Z" fill="#263238"/>
<path d="M39.2324 6.96143H35.6366V12.5735H39.2324V6.96143Z" fill="#263238"/>
<path d="M41.1539 8.64007H33.7537V2.59127C36.3474 1.95072 38.8222 1.9119 41.1612 2.59127L41.1539 8.64007Z" fill="#FF725E"/>
<path d="M41.2486 2.61564C41.1619 2.66988 41.0701 2.71539 40.9744 2.75152C40.721 2.86309 40.4609 2.95872 40.1956 3.03782C39.798 3.16026 39.3927 3.25591 38.9824 3.32413C38.4839 3.40323 37.9803 3.4454 37.4757 3.4503C36.9713 3.45104 36.4676 3.41373 35.9689 3.33869C35.5587 3.27507 35.1534 3.18347 34.7558 3.06451C34.4901 2.98678 34.2293 2.89362 33.9745 2.78548C33.8781 2.75208 33.7861 2.70728 33.7003 2.65204C33.7003 2.6302 34.1079 2.79762 34.78 2.97716C35.1745 3.08141 35.5747 3.16242 35.9786 3.2198C36.4724 3.2866 36.9701 3.32065 37.4684 3.3217C37.967 3.31603 38.4647 3.27712 38.9581 3.20524C39.3603 3.14706 39.7589 3.06606 40.1519 2.96261C40.841 2.76608 41.2389 2.59381 41.2486 2.61564Z" fill="#263238"/>
<path d="M36.1993 8.62301C36.1653 8.62301 36.1362 7.4608 36.1362 6.02928C36.1362 4.59775 36.1653 3.43555 36.1993 3.43555C36.2333 3.43555 36.2624 4.59532 36.2624 6.02928C36.2624 7.46323 36.2357 8.62301 36.1993 8.62301Z" fill="#263238"/>
<path d="M37.6091 8.65705C37.5751 8.65705 37.546 7.48999 37.546 6.05119C37.546 4.61238 37.5751 3.44775 37.6091 3.44775C37.6431 3.44775 37.6722 4.61238 37.6722 6.05119C37.6722 7.48999 37.6455 8.65705 37.6091 8.65705Z" fill="#263238"/>
<path d="M39.0188 8.63555C38.9848 8.63555 38.9557 7.46849 38.9557 6.02969C38.9557 4.59088 38.9848 3.42383 39.0188 3.42383C39.0527 3.42383 39.0819 4.59088 39.0819 6.02969C39.0819 7.46849 39.0552 8.63555 39.0188 8.63555Z" fill="#263238"/>
<path d="M40.1834 8.63537C40.1471 8.63537 40.1204 7.37368 40.1204 5.81842C40.1204 4.26315 40.1471 3.00146 40.1834 3.00146C40.2198 3.00146 40.2465 4.26315 40.2465 5.81842C40.2465 7.37368 40.2271 8.63537 40.1834 8.63537Z" fill="#263238"/>
<path d="M34.8674 8.59875C34.8334 8.59875 34.8043 7.33706 34.8043 5.7818C34.8043 4.22653 34.8334 2.96484 34.8674 2.96484C34.9014 2.96484 34.9305 4.22653 34.9305 5.7818C34.9305 7.33706 34.9038 8.59875 34.8674 8.59875Z" fill="#263238"/>
<path d="M55.5 55.5C65.7173 45.2827 65.7173 28.7173 55.5 18.5C45.2827 8.28273 28.7173 8.28273 18.5 18.5C8.28273 28.7173 8.28273 45.2827 18.5 55.5C28.7173 65.7173 45.2827 65.7173 55.5 55.5Z" fill="#FF725E"/>
<path d="M37.0002 58.7652C49.1354 58.7652 58.9729 48.9277 58.9729 36.7925C58.9729 24.6573 49.1354 14.8198 37.0002 14.8198C24.865 14.8198 15.0275 24.6573 15.0275 36.7925C15.0275 48.9277 24.865 58.7652 37.0002 58.7652Z" fill="#FAFAFA"/>
<path d="M58.9727 36.7927C58.9727 36.7927 58.9727 36.6738 58.9558 36.4385C58.9388 36.2031 58.9558 35.8513 58.9097 35.3927C58.8231 34.0548 58.6135 32.7276 58.2837 31.4281C58.0459 30.4902 57.7452 29.5693 57.3835 28.6718C56.9584 27.6018 56.4472 26.568 55.8549 25.5807C54.4059 23.1686 52.5122 21.0534 50.2744 19.3475C47.5584 17.2812 44.3969 15.8786 41.0423 15.2519C38.199 14.7287 35.2811 14.7625 32.4507 15.3514C31.4567 15.5671 30.4777 15.8467 29.5197 16.1884C25.4431 17.6734 21.8973 20.3319 19.3292 23.8289C18.6591 24.7396 18.0619 25.7018 17.5434 26.7065C17.2741 27.2088 17.0436 27.7304 16.8155 28.2545C16.5875 28.7786 16.3836 29.3221 16.2114 29.8753C15.839 30.9823 15.5598 32.1186 15.3767 33.2721C15.1926 34.4384 15.096 35.6168 15.088 36.7975C15.0965 37.9789 15.1922 39.1581 15.3743 40.3254C15.5601 41.4784 15.8392 42.6144 16.2089 43.7222C16.3836 44.273 16.602 44.8068 16.8131 45.3406C17.0242 45.8744 17.2789 46.3888 17.541 46.891C18.0594 47.8963 18.6574 48.8586 19.3292 49.7686C21.8966 53.2668 25.4426 55.9262 29.5197 57.4115C30.4777 57.7532 31.4567 58.0328 32.4507 58.2486C33.4198 58.4511 34.4014 58.5881 35.389 58.6586C37.2789 58.8015 39.1794 58.6971 41.0423 58.3481C44.3969 57.7213 47.5584 56.3188 50.2744 54.2525C52.5128 52.5472 54.4066 50.4319 55.8549 48.0193C56.4468 47.0317 56.958 45.9979 57.3835 44.9281C58.2453 42.7829 58.7604 40.5143 58.9097 38.2072C58.9509 37.7487 58.9436 37.3968 58.9558 37.1615C58.9679 36.9261 58.9727 36.8048 58.9727 36.8048C58.9727 36.8048 58.9727 36.9261 58.9727 37.1615C58.9727 37.3968 58.9727 37.7487 58.9388 38.2072C58.8059 40.5207 58.3004 42.7976 57.4417 44.95C57.0192 46.0249 56.5096 47.0636 55.918 48.0556C54.4724 50.4799 52.5785 52.6068 50.3375 54.3228C47.6119 56.4017 44.4379 57.8143 41.069 58.4476C39.1977 58.8012 37.2882 58.9088 35.389 58.7678C34.3966 58.6975 33.4101 58.5605 32.4361 58.3578C31.4362 58.1427 30.4514 57.8622 29.4882 57.5183C25.3874 56.0276 21.8202 53.3554 19.237 49.839C18.5628 48.9241 17.9624 47.957 17.4415 46.9468C17.1698 46.4421 16.9368 45.9132 16.6991 45.3867C16.4613 44.8602 16.2672 44.3143 16.0925 43.7586C15.7203 42.6462 15.4395 41.5053 15.253 40.3472C14.868 37.9981 14.868 35.6019 15.253 33.2527C15.4405 32.0996 15.7212 30.9636 16.0925 29.8559C16.2696 29.3002 16.488 28.764 16.7015 28.2278C16.915 27.6916 17.1698 27.1748 17.4415 26.6701C17.9641 25.6604 18.5653 24.6934 19.2394 23.7779C21.8215 20.262 25.388 17.5904 29.4882 16.1011C30.4507 15.7574 31.4346 15.477 32.4337 15.2616C33.4085 15.0591 34.3958 14.9221 35.389 14.8515C37.2874 14.7105 39.196 14.8182 41.0665 15.1718C44.4363 15.8023 47.611 17.2151 50.3351 19.2965C52.576 21.0136 54.4698 23.1413 55.9156 25.5661C57.0024 27.3966 57.8196 29.3741 58.3419 31.4378C58.6656 32.7419 58.8679 34.0732 58.9461 35.4145C58.9824 35.8731 58.9703 36.2249 58.98 36.4603C58.9897 36.6956 58.9727 36.7927 58.9727 36.7927Z" fill="#263238"/>
<path d="M55.7484 35.9968C55.052 36.026 54.4842 35.9968 54.4818 35.9362C54.4794 35.8755 55.0399 35.793 55.7362 35.7542C56.4326 35.7154 57.0003 35.7396 57.0052 35.8124C57.01 35.8852 56.4399 35.9677 55.7484 35.9968Z" fill="#263238"/>
<path d="M55.2799 41.0556C54.6006 40.8954 54.0668 40.7183 54.0668 40.6576C54.0668 40.597 54.6442 40.6698 55.326 40.8178C56.0078 40.9658 56.5392 41.1453 56.5392 41.2157C56.5392 41.2861 55.9544 41.2133 55.2799 41.0556Z" fill="#263238"/>
<path d="M53.4675 45.799C52.8536 45.4642 52.3829 45.1463 52.412 45.0929C52.4412 45.0395 52.9652 45.2603 53.5815 45.5782C54.1978 45.896 54.6709 46.2236 54.637 46.2867C54.603 46.3498 54.0789 46.1362 53.4675 45.799Z" fill="#263238"/>
<path d="M50.4467 49.8849C49.9469 49.3997 49.5757 48.9678 49.6193 48.9144C49.663 48.861 50.1046 49.2226 50.6141 49.703C51.1236 50.1834 51.49 50.6128 51.4415 50.6735C51.393 50.7341 50.9441 50.3726 50.4467 49.8849Z" fill="#263238"/>
<path d="M46.4433 53.0149C46.0939 52.4107 45.8513 51.8964 45.9047 51.8648C45.9581 51.8333 46.2929 52.2943 46.652 52.8911C47.0111 53.488 47.2537 54.0024 47.1931 54.0412C47.1324 54.08 46.7952 53.6142 46.4433 53.0149Z" fill="#263238"/>
<path d="M41.7484 54.9534C41.5737 54.2765 41.4791 53.716 41.5397 53.7015C41.6004 53.6869 41.7969 54.2183 41.9837 54.8904C42.1706 55.5625 42.2628 56.1229 42.1924 56.1423C42.1221 56.1618 41.9231 55.628 41.7484 54.9534Z" fill="#263238"/>
<path d="M36.704 55.5556C36.704 54.8568 36.7744 54.2915 36.835 54.2915C36.8957 54.2915 36.9466 54.8593 36.9466 55.5556C36.9466 56.252 36.886 56.8197 36.8156 56.8197C36.7452 56.8197 36.6919 56.2568 36.704 55.5556Z" fill="#263238"/>
<path d="M31.6914 54.7958C31.8903 54.1261 32.099 53.5996 32.1597 53.6166C32.2203 53.6336 32.1136 54.1916 31.917 54.8637C31.7205 55.5358 31.5191 56.0769 31.4488 56.0429C31.3784 56.009 31.4803 55.4655 31.6914 54.7958Z" fill="#263238"/>
<path d="M27.0498 52.7072C27.421 52.1176 27.7631 51.6639 27.8165 51.6954C27.8699 51.7269 27.6175 52.2389 27.256 52.8358C26.8945 53.4326 26.55 53.8839 26.4893 53.8475C26.4286 53.8111 26.6785 53.2992 27.0498 52.7072Z" fill="#263238"/>
<path d="M23.1458 49.4559C23.6626 48.9852 24.1163 48.6407 24.1552 48.6868C24.194 48.7329 23.8203 49.155 23.3108 49.633C22.8013 50.111 22.3524 50.4555 22.3014 50.4046C22.2505 50.3536 22.6314 49.9266 23.1458 49.4559Z" fill="#263238"/>
<path d="M20.2536 45.2773C20.8772 44.9643 21.4061 44.7532 21.4328 44.8066C21.4595 44.86 20.9839 45.1681 20.3652 45.4932C19.7465 45.8184 19.22 46.0295 19.186 45.9639C19.1521 45.8984 19.6325 45.5927 20.2536 45.2773Z" fill="#263238"/>
<path d="M18.5892 40.4782C19.2758 40.3424 19.8411 40.2817 19.8533 40.3424C19.8654 40.403 19.3219 40.5704 18.6401 40.716C17.9583 40.8616 17.3906 40.9223 17.376 40.8519C17.3615 40.7815 17.9098 40.6141 18.5892 40.4782Z" fill="#263238"/>
<path d="M18.2811 35.4168C18.9774 35.4677 19.5379 35.5599 19.5355 35.6206C19.5331 35.6813 18.9629 35.6982 18.2665 35.657C17.5702 35.6157 17.0073 35.526 17.0121 35.4532C17.017 35.3804 17.5847 35.3537 18.2811 35.4168Z" fill="#263238"/>
<path d="M19.3366 30.436C19.9942 30.6786 20.5085 30.9213 20.4891 30.9722C20.4697 31.0232 19.9165 30.8921 19.2566 30.6641C18.5966 30.436 18.0822 30.1982 18.1041 30.1303C18.1259 30.0623 18.6815 30.1982 19.3366 30.436Z" fill="#263238"/>
<path d="M21.6925 25.935C22.2603 26.3402 22.6922 26.709 22.6631 26.7599C22.634 26.8109 22.1341 26.5294 21.5591 26.134C20.9841 25.7385 20.5522 25.3697 20.5886 25.309C20.625 25.2483 21.1224 25.5298 21.6925 25.935Z" fill="#263238"/>
<path d="M25.1645 22.2275C25.6037 22.7686 25.9216 23.2393 25.8755 23.2805C25.8294 23.3218 25.4242 22.9166 24.9777 22.3804C24.5313 21.8441 24.211 21.3759 24.2668 21.3298C24.3226 21.2837 24.7254 21.6864 25.1645 22.2275Z" fill="#263238"/>
<path d="M29.5077 19.5831C29.7842 20.2236 29.9662 20.7623 29.908 20.7963C29.8498 20.8302 29.5732 20.3256 29.2869 19.6899C29.0006 19.0542 28.8186 18.5155 28.8841 18.4767C28.9496 18.4379 29.2238 18.945 29.5077 19.5831Z" fill="#263238"/>
<path d="M34.3943 18.2073C34.4889 18.8988 34.518 19.4666 34.4549 19.4763C34.3918 19.486 34.2584 18.9328 34.1541 18.2437C34.0497 17.5546 34.0206 16.9844 34.091 16.9747C34.1613 16.965 34.2996 17.5158 34.3943 18.2073Z" fill="#263238"/>
<path d="M39.4749 18.19C39.3827 18.8815 39.259 19.4371 39.1983 19.4298C39.1377 19.4226 39.1522 18.8524 39.2347 18.1609C39.3172 17.4694 39.4409 16.9113 39.5113 16.921C39.5817 16.9307 39.5671 17.4961 39.4749 18.19Z" fill="#263238"/>
<path d="M44.3737 19.5318C44.0995 20.1747 43.8302 20.6746 43.7719 20.6503C43.7137 20.626 43.886 20.085 44.1505 19.4371C44.4149 18.7893 44.6867 18.2919 44.7522 18.321C44.8177 18.3502 44.6503 18.8912 44.3737 19.5318Z" fill="#263238"/>
<path d="M48.7314 22.1448C48.2946 22.6908 47.9016 23.1008 47.8531 23.062C47.8045 23.0232 48.1127 22.5452 48.5421 21.9944C48.9716 21.4436 49.3622 21.0239 49.4205 21.0797C49.4787 21.1355 49.1608 21.6013 48.7314 22.1448Z" fill="#263238"/>
<path d="M52.2326 25.8284C51.6648 26.236 51.1771 26.5272 51.1407 26.4762C51.1043 26.4253 51.5289 26.0492 52.0894 25.6319C52.6499 25.2145 53.1376 24.9258 53.1813 24.984C53.2249 25.0423 52.8003 25.4208 52.2326 25.8284Z" fill="#263238"/>
<path d="M54.6176 30.3216C53.9624 30.5643 53.4044 30.7074 53.3898 30.6516C53.3753 30.5958 53.8751 30.3435 54.5326 30.0936C55.1902 29.8436 55.7312 29.6956 55.7579 29.7636C55.7846 29.8315 55.2727 30.079 54.6176 30.3216Z" fill="#263238"/>
<path d="M55.7119 35.2764C55.0155 35.3322 54.4478 35.3274 54.4429 35.2764C54.438 35.2255 54.9961 35.1139 55.69 35.0338C56.3839 34.9537 56.9541 34.9731 56.959 35.0459C56.9638 35.1187 56.4009 35.2206 55.7119 35.2764Z" fill="#263238"/>
<path d="M28.4669 13.022L28.3916 13.0559L28.1684 13.1457C27.9743 13.2282 27.6832 13.3277 27.3119 13.4903C26.2659 13.9275 25.2503 14.4341 24.2718 15.0067C23.6506 15.3658 22.9931 15.7953 22.3016 16.2781C21.6101 16.7609 20.904 17.3238 20.198 17.9571C17.0981 20.6895 14.7302 24.1532 13.3097 28.0336C12.9773 28.9216 12.7274 29.7902 12.5114 30.6031C12.2955 31.4159 12.1499 32.1923 12.0407 32.9008C11.8635 34.0202 11.7606 35.1501 11.7326 36.2831C11.7132 36.6858 11.7326 36.9964 11.7326 37.2075C11.7326 37.3094 11.7326 37.387 11.7326 37.4501C11.7348 37.4776 11.7348 37.5051 11.7326 37.5326C11.7294 37.506 11.7294 37.4791 11.7326 37.4525C11.7326 37.3919 11.7326 37.3118 11.7326 37.2099C11.7326 36.9988 11.7059 36.6882 11.718 36.2855C11.7267 35.1482 11.8167 34.0131 11.9873 32.8886C12.0892 32.1753 12.2469 31.4013 12.4435 30.5788C12.6628 29.7045 12.9268 28.842 13.2345 27.9948C14.648 24.0884 17.0298 20.6047 20.1567 17.8698C20.8676 17.2365 21.5907 16.6906 22.2749 16.1932C22.9591 15.6958 23.6336 15.2833 24.2621 14.9291C25.2472 14.3624 26.2713 13.8662 27.3265 13.4442C27.6977 13.2889 27.9962 13.2015 28.1951 13.1215L28.4232 13.0438C28.4372 13.0355 28.4518 13.0282 28.4669 13.022Z" fill="white"/>
<path d="M35.77 11.6052C35.5205 11.657 35.2674 11.6903 35.013 11.7047C34.5423 11.7532 33.8969 11.8236 33.1835 11.9158C32.4702 12.008 31.8272 12.105 31.3614 12.1778C31.1118 12.2291 30.8588 12.2616 30.6044 12.2749C30.8457 12.1908 31.0942 12.129 31.3468 12.0905C31.8102 11.9958 32.4532 11.8842 33.1666 11.792C33.8799 11.6998 34.5326 11.6416 35.0057 11.6149C35.2596 11.5878 35.5155 11.5845 35.77 11.6052Z" fill="white"/>
<g opacity="0.4">
<path d="M19.4385 50.0018C19.4385 50.0018 30.8252 67.9711 48.4887 58.7681C66.9287 49.1599 56.7382 27.1362 56.7382 27.1362C56.7382 27.1362 65.4147 44.6882 47.4406 56.1307C42.964 58.9816 38.0896 58.984 34.3724 58.6104C24.8734 57.6593 19.4385 50.0018 19.4385 50.0018Z" fill="black"/>
</g>
<path d="M43.124 25.1147C43.2333 28.3374 43.1361 31.5637 42.8329 34.7739C42.7212 35.9361 42.5902 37.1104 42.1414 38.1902C41.6925 39.2699 40.9282 40.2598 39.8509 40.7159C38.7736 41.1721 37.3955 40.9828 36.6458 40.09L43.124 25.1147Z" fill="#E0E0E0"/>
<path d="M36.5221 35.0604L44.5071 21.6138L39.6884 36.7952L37.2257 37.5304L36.5221 35.0604Z" fill="#FF725E"/>
<g opacity="0.4">
<path d="M44.5072 21.6138L38.5846 35.354L39.6886 36.7952L44.5072 21.6138Z" fill="black"/>
</g>
<path d="M37.2258 40.0999C38.6449 40.0999 39.7953 38.9495 39.7953 37.5304C39.7953 36.1113 38.6449 34.9609 37.2258 34.9609C35.8068 34.9609 34.6564 36.1113 34.6564 37.5304C34.6564 38.9495 35.8068 40.0999 37.2258 40.0999Z" fill="#FAFAFA"/>
<path d="M39.7952 37.5306C39.7722 37.3218 39.7373 37.1144 39.6909 36.9095C39.5421 36.3561 39.2124 35.8684 38.7543 35.524C38.4178 35.2708 38.0232 35.106 37.6066 35.0445C37.19 34.9831 36.7646 35.027 36.3693 35.1722C36.1417 35.2528 35.9281 35.3682 35.736 35.5143C35.5314 35.6627 35.352 35.8429 35.2046 36.0481C34.8892 36.4781 34.7192 36.9974 34.7192 37.5306C34.7192 38.0638 34.8892 38.5831 35.2046 39.0131C35.4992 39.4128 35.904 39.718 36.3693 39.8914C36.7013 40.0132 37.0551 40.0642 37.408 40.0412C37.7609 40.0182 38.1051 39.9217 38.4185 39.758C38.732 39.5942 39.0077 39.3667 39.2281 39.0901C39.4484 38.8135 39.6086 38.4939 39.6982 38.1517C39.745 37.9469 39.7799 37.7395 39.8025 37.5306C39.8175 37.7433 39.7987 37.9571 39.7467 38.1639C39.6141 38.7424 39.2848 39.257 38.815 39.6197C38.4929 39.8697 38.1163 40.0401 37.7159 40.1171C37.2552 40.2051 36.7794 40.1682 36.3377 40.0103C36.0978 39.9275 35.8726 39.8071 35.6705 39.6536C35.4559 39.4985 35.2675 39.3101 35.1124 39.0956C34.7784 38.6459 34.598 38.1005 34.598 37.5403C34.598 36.9801 34.7784 36.4348 35.1124 35.985C35.2682 35.771 35.4565 35.5827 35.6705 35.427C35.8736 35.2757 36.0986 35.1562 36.3377 35.0727C36.7791 34.9136 37.2553 34.8767 37.7159 34.966C38.2052 35.06 38.657 35.2932 39.0171 35.6374C39.3773 35.9817 39.6306 36.4225 39.7467 36.907C39.7952 37.1111 39.8115 37.3215 39.7952 37.5306Z" fill="#263238"/>
<path d="M39.1081 37.9155C39.3174 36.8805 38.648 35.8718 37.613 35.6626C36.578 35.4533 35.5693 36.1227 35.3601 37.1577C35.1508 38.1927 35.8202 39.2014 36.8552 39.4106C37.8902 39.6199 38.8989 38.9505 39.1081 37.9155Z" fill="#455A64"/>
</svg>
